<svg xmlns="http://www.w3.org/2000/svg" viewBox="0 0 108 108" width="108" height="108">
  <defs>
    <linearGradient id="beondMark" x1="54" y1="0" x2="54" y2="108" gradientUnits="userSpaceOnUse">
      <stop stop-color="#779BC6"/>
      <stop offset="1" stop-color="#2968A5"/>
    </linearGradient>
  </defs>
  <rect width="108" height="108" rx="54" fill="url(#beondMark)"/>
  <path transform="translate(23.687 14.000)" fill="#FFFFFF" fill-rule="evenodd" d="M5.97876 0C6.40424 0.0176974 6.82973 0.0435906 7.25415 0.0771484C10.4065 0.335737 11.5554 2.1946 13.5012 4.49414C13.9302 10.8673 13.6605 19.6549 13.6428 26.2061C19.404 22.6981 22.7381 20.9436 29.7844 20.6426C37.983 20.2925 45.2219 23.0384 51.22 28.6182C56.936 34.0023 60.309 41.415 60.6126 49.2598C60.8845 57.7762 57.2477 65.3305 51.5325 71.4238C47.9873 74.9431 43.0751 77.6591 38.261 78.9541C30.3303 81.076 21.8799 79.941 14.7903 75.8018C8.39471 72.1118 3.16233 65.6091 1.26782 58.4482C0.691843 56.1975 0.33491 53.8958 0.202394 51.5762C-0.278559 43.7135 0.267651 34.6413 0.125246 26.6514C0.183907 20.1836 -0.145649 13.6889 0.11548 7.22754C0.277329 3.21496 2.16517 0.961737 5.97876 0ZM46.8752 49.167C46.355 40.0807 38.6103 33.1088 29.5159 33.5391C20.2932 33.9751 13.1982 41.8496 13.7258 51.0635C14.2535 60.2777 22.2012 67.2914 31.4133 66.6729C40.4978 66.0631 47.3954 58.253 46.8752 49.167Z"/>
</svg>
