<svg width="171" height="54" viewBox="0 0 171 54" fill="none" xmlns="http://www.w3.org/2000/svg">
<path d="M2.17502 0.0234375C3.12033 0.100972 3.46549 0.658054 4.04904 1.34766C4.17769 3.25869 4.09633 5.89398 4.09104 7.8584C5.81848 6.80656 6.8182 6.27975 8.93088 6.18945C11.3892 6.08449 13.5601 6.90806 15.3586 8.58105C17.0725 10.1955 18.0839 12.4183 18.175 14.7705C18.2566 17.3243 17.1661 19.5898 15.4524 21.417C14.3893 22.4722 12.9164 23.2865 11.4729 23.6748C9.09482 24.3111 6.56064 23.9707 4.43479 22.7295C2.51723 21.623 0.948156 19.6734 0.380098 17.5264C0.207402 16.8515 0.100514 16.1613 0.0607625 15.4658C-0.0834558 13.1081 0.0800288 10.387 0.037325 7.99121C0.0549 6.0519 -0.0429315 4.10439 0.0353718 2.16699C0.0839522 0.963877 0.649667 0.288357 1.79318 0C1.92061 0.00530198 2.04791 0.013391 2.17502 0.0234375ZM8.8508 10.0566C6.08554 10.1875 3.95833 12.5488 4.11643 15.3115C4.27463 18.0745 6.65784 20.1777 9.42014 19.9922C12.1441 19.8093 14.2118 17.4676 14.0559 14.7432C13.8999 12.0185 11.5778 9.92763 8.8508 10.0566Z" fill="white"/>
<path d="M94.2261 0.084948C95.4553 -0.0484707 96.7167 0.285571 96.9234 1.76561C97.0473 3.61953 97.0757 5.69166 96.9888 7.5576C96.8648 10.186 97.2856 13.7181 96.8384 16.2519C96.6148 17.5975 96.1103 18.8808 95.3579 20.0185C92.3443 24.5427 86.7652 25.0181 82.3931 22.0957C73.8442 15.27 82.5738 1.42557 92.8618 7.77635C92.8936 5.9101 92.7299 3.70527 92.9312 1.87303C93.0256 1.02385 93.5417 0.536788 94.2261 0.084948ZM92.8911 14.5205C92.6188 11.7768 90.1608 9.78127 87.4185 10.0781C84.71 10.3712 82.7441 12.7916 83.0132 15.501C83.2826 18.2102 85.6864 20.1968 88.3989 19.9521C91.1454 19.7041 93.1635 17.2643 92.8911 14.5205Z" fill="white"/>
<path d="M47.0569 6.23716C51.9663 5.52049 56.5189 8.94445 57.1907 13.8583C57.8623 18.7719 54.3959 23.2904 49.4739 23.9168C44.6157 24.5349 40.1666 21.1243 39.5042 16.2743C38.8409 11.4239 42.2112 6.94457 47.0569 6.23716ZM48.0101 10.1063C45.2899 10.2987 43.2415 12.6625 43.4407 15.3817C43.6399 18.1009 46.0099 20.1419 48.7288 19.9364C51.4394 19.7314 53.4729 17.3719 53.2747 14.662C53.0763 11.9524 50.7214 9.91493 48.0101 10.1063Z" fill="white"/>
<path d="M27.9787 6.24514C31.2149 5.93394 34.1918 7.10369 36.007 9.81643C37.3856 11.8752 38.5465 15.029 36.0881 16.6983C35.6877 16.7521 35.3421 16.7649 34.9406 16.7686C31.5011 16.8009 28.0409 16.6902 24.6027 16.8037C26.0597 20.5889 29.6253 20.6553 32.6887 19.0313C33.2948 18.7099 33.6321 18.6195 34.3166 18.7002C35.4038 19.0323 35.6722 19.715 36.007 20.7227C35.1614 22.6322 32.8127 23.4897 30.8811 23.8467C28.5225 24.2894 26.0848 23.7676 24.1145 22.3985C22.1333 21.0287 20.891 18.9936 20.4611 16.628C20.0295 14.2957 20.5467 11.8874 21.8977 9.93752C23.403 7.77596 25.4244 6.69311 27.9787 6.24514ZM33.4387 13.2285C32.7275 10.812 30.6356 9.74303 28.2102 10.0606C26.3235 10.5327 25.2839 11.4085 24.5725 13.2178C26.3526 13.3452 28.2276 13.241 30.0227 13.2744L33.4387 13.2285Z" fill="white"/>
<path d="M66.922 6.24794C70.8681 5.89967 74.2749 7.45618 76.0456 11.0964C76.408 11.8328 76.6517 12.622 76.7662 13.4345C76.9601 14.7718 77.0756 21.5052 76.7153 22.5147C76.5542 22.9658 76.2438 23.3117 75.8093 23.5146C75.2932 23.7561 74.668 23.7735 74.134 23.578C73.5607 23.3683 73.1697 22.943 72.9769 22.3679C72.7331 21.6409 72.8073 20.8155 72.819 20.0585C72.8486 18.0314 73.2185 14.5492 72.3686 12.7424C71.754 11.4345 70.6668 10.6495 69.3317 10.1719C68.5189 10.0827 67.9499 10.0267 67.1265 10.2018C66.2396 10.3842 65.43 10.8333 64.8069 11.4888C61.9448 14.4733 64.4361 19.7902 62.9324 22.9519C62.2701 24.346 58.9153 24.1271 59.3222 20.76C59.6062 18.4037 59.0128 15.372 59.5744 12.8316C59.8266 11.7348 60.2939 10.699 60.9498 9.78434C62.409 7.73677 64.4869 6.66506 66.922 6.24794Z" fill="white"/>
<path d="M6.202 42.0445C6.41667 42.0818 6.63133 42.1565 6.846 42.2685C7.06067 42.3805 7.252 42.5298 7.42 42.7165C7.59733 42.8938 7.73733 43.1132 7.84 43.3745C7.952 43.6265 8.008 43.9205 8.008 44.2565C8.008 44.6578 7.938 45.0265 7.798 45.3625C7.66733 45.6985 7.462 45.9878 7.182 46.2305C6.902 46.4732 6.54733 46.6645 6.118 46.8045C5.698 46.9352 5.20333 47.0005 4.634 47.0005H1.12V37.5645H4.62C5.11467 37.5645 5.54867 37.6298 5.922 37.7605C6.29533 37.8818 6.608 38.0545 6.86 38.2785C7.112 38.5025 7.29867 38.7732 7.42 39.0905C7.55067 39.3985 7.616 39.7345 7.616 40.0985C7.616 40.3692 7.56933 40.6118 7.476 40.8265C7.38267 41.0412 7.266 41.2325 7.126 41.4005C6.986 41.5592 6.832 41.6945 6.664 41.8065C6.50533 41.9092 6.35133 41.9885 6.202 42.0445ZM4.62 45.9225C5.32 45.9225 5.86133 45.7778 6.244 45.4885C6.636 45.1992 6.832 44.7885 6.832 44.2565C6.832 43.9578 6.776 43.7105 6.664 43.5145C6.56133 43.3092 6.412 43.1458 6.216 43.0245C6.02 42.8938 5.78667 42.8005 5.516 42.7445C5.24533 42.6885 4.942 42.6605 4.606 42.6605H2.296V45.9225H4.62ZM4.634 41.5965C4.886 41.5965 5.11933 41.5638 5.334 41.4985C5.558 41.4332 5.74933 41.3352 5.908 41.2045C6.076 41.0738 6.20667 40.9105 6.3 40.7145C6.39333 40.5185 6.44 40.2945 6.44 40.0425C6.44 39.5852 6.27667 39.2398 5.95 39.0065C5.62333 38.7638 5.18 38.6425 4.62 38.6425H2.296V41.5965H4.634ZM10.853 41.3865C10.937 41.2372 11.035 41.0878 11.147 40.9385C11.2683 40.7892 11.4036 40.6538 11.553 40.5325C11.7116 40.4112 11.8843 40.3132 12.071 40.2385C12.267 40.1545 12.4863 40.1078 12.729 40.0985C12.8876 40.0892 13.023 40.0985 13.135 40.1265C13.247 40.1452 13.3403 40.1685 13.415 40.1965C13.5083 40.2338 13.583 40.2758 13.639 40.3225L13.289 41.4985C13.1023 41.3118 12.8456 41.2185 12.519 41.2185C11.7536 41.2185 11.1983 41.5965 10.853 42.3525V47.0005H9.67695V40.2385H10.629L10.853 41.3865ZM16.1039 47.0005H14.9279V40.2385H16.1039V47.0005ZM14.7319 38.1805C14.7319 37.9658 14.7973 37.7838 14.9279 37.6345C15.0679 37.4852 15.2639 37.4105 15.5159 37.4105C15.7679 37.4105 15.9593 37.4852 16.0899 37.6345C16.2299 37.7838 16.2999 37.9658 16.2999 38.1805C16.2999 38.3952 16.2299 38.5772 16.0899 38.7265C15.9593 38.8758 15.7679 38.9505 15.5159 38.9505C15.2639 38.9505 15.0679 38.8758 14.9279 38.7265C14.7973 38.5772 14.7319 38.3952 14.7319 38.1805ZM19.4252 47.0005H18.2492V40.2385H19.2292L19.4252 41.2465C19.5092 41.1252 19.6259 40.9992 19.7752 40.8685C19.9246 40.7285 20.0972 40.6025 20.2932 40.4905C20.4892 40.3785 20.7086 40.2852 20.9512 40.2105C21.2032 40.1358 21.4692 40.0985 21.7492 40.0985C22.4772 40.0985 23.0466 40.3412 23.4572 40.8265C23.8679 41.3025 24.0732 41.9558 24.0732 42.7865V47.0005H22.9252V42.7865C22.9252 42.2825 22.8039 41.8858 22.5612 41.5965C22.3186 41.3072 21.9779 41.1625 21.5392 41.1625C21.0912 41.1625 20.6852 41.2652 20.3212 41.4705C19.9666 41.6758 19.6679 41.9418 19.4252 42.2685V47.0005ZM30.7016 42.2965C30.5149 41.9698 30.2489 41.6992 29.9036 41.4845C29.5676 41.2698 29.2269 41.1625 28.8816 41.1625C28.2936 41.1625 27.8129 41.3632 27.4396 41.7645C27.0756 42.1565 26.8936 42.7492 26.8936 43.5425C26.8936 43.9718 26.9449 44.3405 27.0476 44.6485C27.1502 44.9472 27.2856 45.1945 27.4536 45.3905C27.6309 45.5772 27.8269 45.7172 28.0416 45.8105C28.2656 45.8945 28.4942 45.9365 28.7276 45.9365C29.0076 45.9365 29.2689 45.8805 29.5116 45.7685C29.7542 45.6565 29.9642 45.4978 30.1416 45.2925C30.3189 45.0778 30.4542 44.8258 30.5476 44.5365C30.6502 44.2378 30.7016 43.9065 30.7016 43.5425V42.2965ZM30.7016 45.7125C30.6176 45.8805 30.5056 46.0438 30.3656 46.2025C30.2256 46.3612 30.0576 46.5012 29.8616 46.6225C29.6749 46.7345 29.4696 46.8278 29.2456 46.9025C29.0216 46.9678 28.7882 47.0005 28.5456 47.0005C28.1349 47.0005 27.7569 46.9212 27.4116 46.7625C27.0662 46.6038 26.7676 46.3798 26.5156 46.0905C26.2729 45.7918 26.0816 45.4325 25.9416 45.0125C25.8109 44.5832 25.7456 44.0978 25.7456 43.5565C25.7456 43.0898 25.8062 42.6465 25.9276 42.2265C26.0582 41.8065 26.2496 41.4425 26.5016 41.1345C26.7536 40.8172 27.0616 40.5652 27.4256 40.3785C27.7896 40.1918 28.2096 40.0985 28.6856 40.0985C28.9376 40.0985 29.1662 40.1358 29.3716 40.2105C29.5862 40.2852 29.7776 40.3785 29.9456 40.4905C30.1136 40.6025 30.2582 40.7285 30.3796 40.8685C30.5102 40.9992 30.6176 41.1252 30.7016 41.2465L30.8976 40.2385H31.8776V46.4265C31.8776 47.0425 31.7982 47.5652 31.6396 47.9945C31.4902 48.4238 31.2756 48.7738 30.9956 49.0445C30.7156 49.3152 30.3796 49.5112 29.9876 49.6325C29.6049 49.7538 29.1849 49.8145 28.7276 49.8145C28.2329 49.8145 27.7569 49.7492 27.2996 49.6185C26.8516 49.4878 26.4969 49.3385 26.2356 49.1705L26.5296 48.2325C26.8002 48.3912 27.1082 48.5172 27.4536 48.6105C27.7989 48.7132 28.1676 48.7645 28.5596 48.7645C28.8769 48.7645 29.1662 48.7318 29.4276 48.6665C29.6889 48.6012 29.9129 48.4798 30.0996 48.3025C30.2862 48.1252 30.4309 47.8825 30.5336 47.5745C30.6456 47.2758 30.7016 46.8885 30.7016 46.4125V45.7125ZM40.9999 42.9825V47.0005H39.7959V42.9825L36.6459 37.5645H37.9199L40.3839 41.9465H40.4119L42.8759 37.5645H44.1499L40.9999 42.9825ZM45.2949 43.6125C45.2949 43.9765 45.3323 44.3172 45.4069 44.6345C45.4909 44.9518 45.6123 45.2272 45.7709 45.4605C45.9389 45.6845 46.1489 45.8618 46.4009 45.9925C46.6623 46.1232 46.9703 46.1885 47.3249 46.1885C47.6796 46.1885 47.9829 46.1232 48.2349 45.9925C48.4963 45.8618 48.7063 45.6845 48.8649 45.4605C49.0329 45.2272 49.1543 44.9518 49.2289 44.6345C49.3129 44.3172 49.3549 43.9765 49.3549 43.6125C49.3549 43.2485 49.3129 42.9125 49.2289 42.6045C49.1543 42.2872 49.0329 42.0165 48.8649 41.7925C48.7063 41.5592 48.4963 41.3772 48.2349 41.2465C47.9829 41.1158 47.6796 41.0505 47.3249 41.0505C46.9703 41.0505 46.6623 41.1158 46.4009 41.2465C46.1489 41.3772 45.9389 41.5592 45.7709 41.7925C45.6123 42.0165 45.4909 42.2872 45.4069 42.6045C45.3323 42.9125 45.2949 43.2485 45.2949 43.6125ZM44.1329 43.6125C44.1329 43.1178 44.1936 42.6558 44.3149 42.2265C44.4456 41.7972 44.6416 41.4285 44.9029 41.1205C45.1643 40.8032 45.4956 40.5558 45.8969 40.3785C46.2983 40.1918 46.7743 40.0985 47.3249 40.0985C47.8756 40.0985 48.3516 40.1918 48.7529 40.3785C49.1543 40.5558 49.4856 40.8032 49.7469 41.1205C50.0083 41.4285 50.1996 41.7972 50.3209 42.2265C50.4516 42.6558 50.5169 43.1178 50.5169 43.6125C50.5169 44.1072 50.4516 44.5692 50.3209 44.9985C50.1996 45.4278 50.0083 45.8012 49.7469 46.1185C49.4856 46.4358 49.1543 46.6878 48.7529 46.8745C48.3516 47.0518 47.8756 47.1405 47.3249 47.1405C46.7743 47.1405 46.2983 47.0518 45.8969 46.8745C45.4956 46.6878 45.1643 46.4358 44.9029 46.1185C44.6416 45.8012 44.4456 45.4278 44.3149 44.9985C44.1936 44.5692 44.1329 44.1072 44.1329 43.6125ZM56.6915 40.2385H57.8675V47.0005H56.9155L56.6915 45.8525C56.6075 45.9925 56.4955 46.1418 56.3555 46.3005C56.2155 46.4498 56.0475 46.5898 55.8515 46.7205C55.6555 46.8418 55.4268 46.9398 55.1655 47.0145C54.9135 47.0985 54.6288 47.1405 54.3115 47.1405C53.9848 47.1405 53.6861 47.0938 53.4155 47.0005C53.1541 46.8978 52.9255 46.7392 52.7295 46.5245C52.5428 46.3005 52.3935 46.0205 52.2815 45.6845C52.1788 45.3392 52.1275 44.9285 52.1275 44.4525V40.2385H53.2755V44.4525C53.2755 44.9752 53.3875 45.3812 53.6115 45.6705C53.8448 45.9598 54.1481 46.1045 54.5215 46.1045C55.0255 46.1045 55.4501 45.9738 55.7955 45.7125C56.1501 45.4512 56.4488 45.1478 56.6915 44.8025V40.2385ZM61.1381 41.3865C61.2221 41.2372 61.3201 41.0878 61.4321 40.9385C61.5534 40.7892 61.6888 40.6538 61.8381 40.5325C61.9968 40.4112 62.1694 40.3132 62.3561 40.2385C62.5521 40.1545 62.7714 40.1078 63.0141 40.0985C63.1728 40.0892 63.3081 40.0985 63.4201 40.1265C63.5321 40.1452 63.6254 40.1685 63.7001 40.1965C63.7934 40.2338 63.8681 40.2758 63.9241 40.3225L63.5741 41.4985C63.3874 41.3118 63.1308 41.2185 62.8041 41.2185C62.0388 41.2185 61.4834 41.5965 61.1381 42.3525V47.0005H59.9621V40.2385H60.9141L61.1381 41.3865ZM73.8231 42.0445C74.0378 42.0818 74.2524 42.1565 74.4671 42.2685C74.6818 42.3805 74.8731 42.5298 75.0411 42.7165C75.2184 42.8938 75.3584 43.1132 75.4611 43.3745C75.5731 43.6265 75.6291 43.9205 75.6291 44.2565C75.6291 44.6578 75.5591 45.0265 75.4191 45.3625C75.2884 45.6985 75.0831 45.9878 74.8031 46.2305C74.5231 46.4732 74.1684 46.6645 73.7391 46.8045C73.3191 46.9352 72.8244 47.0005 72.2551 47.0005H68.7411V37.5645H72.2411C72.7358 37.5645 73.1698 37.6298 73.5431 37.7605C73.9164 37.8818 74.2291 38.0545 74.4811 38.2785C74.7331 38.5025 74.9198 38.7732 75.0411 39.0905C75.1718 39.3985 75.2371 39.7345 75.2371 40.0985C75.2371 40.3692 75.1904 40.6118 75.0971 40.8265C75.0038 41.0412 74.8871 41.2325 74.7471 41.4005C74.6071 41.5592 74.4531 41.6945 74.2851 41.8065C74.1264 41.9092 73.9724 41.9885 73.8231 42.0445ZM72.2411 45.9225C72.9411 45.9225 73.4824 45.7778 73.8651 45.4885C74.2571 45.1992 74.4531 44.7885 74.4531 44.2565C74.4531 43.9578 74.3971 43.7105 74.2851 43.5145C74.1824 43.3092 74.0331 43.1458 73.8371 43.0245C73.6411 42.8938 73.4078 42.8005 73.1371 42.7445C72.8664 42.6885 72.5631 42.6605 72.2271 42.6605H69.9171V45.9225H72.2411ZM72.2551 41.5965C72.5071 41.5965 72.7404 41.5638 72.9551 41.4985C73.1791 41.4332 73.3704 41.3352 73.5291 41.2045C73.6971 41.0738 73.8278 40.9105 73.9211 40.7145C74.0144 40.5185 74.0611 40.2945 74.0611 40.0425C74.0611 39.5852 73.8978 39.2398 73.5711 39.0065C73.2444 38.7638 72.8011 38.6425 72.2411 38.6425H69.9171V41.5965H72.2551ZM77.998 43.6125C77.998 43.9765 78.0354 44.3172 78.11 44.6345C78.194 44.9518 78.3154 45.2272 78.474 45.4605C78.642 45.6845 78.852 45.8618 79.104 45.9925C79.3654 46.1232 79.6734 46.1885 80.028 46.1885C80.3827 46.1885 80.686 46.1232 80.938 45.9925C81.1994 45.8618 81.4094 45.6845 81.568 45.4605C81.736 45.2272 81.8574 44.9518 81.932 44.6345C82.016 44.3172 82.058 43.9765 82.058 43.6125C82.058 43.2485 82.016 42.9125 81.932 42.6045C81.8574 42.2872 81.736 42.0165 81.568 41.7925C81.4094 41.5592 81.1994 41.3772 80.938 41.2465C80.686 41.1158 80.3827 41.0505 80.028 41.0505C79.6734 41.0505 79.3654 41.1158 79.104 41.2465C78.852 41.3772 78.642 41.5592 78.474 41.7925C78.3154 42.0165 78.194 42.2872 78.11 42.6045C78.0354 42.9125 77.998 43.2485 77.998 43.6125ZM76.836 43.6125C76.836 43.1178 76.8967 42.6558 77.018 42.2265C77.1487 41.7972 77.3447 41.4285 77.606 41.1205C77.8674 40.8032 78.1987 40.5558 78.6 40.3785C79.0014 40.1918 79.4774 40.0985 80.028 40.0985C80.5787 40.0985 81.0547 40.1918 81.456 40.3785C81.8574 40.5558 82.1887 40.8032 82.45 41.1205C82.7114 41.4285 82.9027 41.7972 83.024 42.2265C83.1547 42.6558 83.22 43.1178 83.22 43.6125C83.22 44.1072 83.1547 44.5692 83.024 44.9985C82.9027 45.4278 82.7114 45.8012 82.45 46.1185C82.1887 46.4358 81.8574 46.6878 81.456 46.8745C81.0547 47.0518 80.5787 47.1405 80.028 47.1405C79.4774 47.1405 79.0014 47.0518 78.6 46.8745C78.1987 46.6878 77.8674 46.4358 77.606 46.1185C77.3447 45.8012 77.1487 45.4278 77.018 44.9985C76.8967 44.5692 76.836 44.1072 76.836 43.6125ZM86.0346 47.0005H84.8586V40.2385H85.8386L86.0346 41.2465C86.1186 41.1252 86.2353 40.9992 86.3846 40.8685C86.5339 40.7285 86.7066 40.6025 86.9026 40.4905C87.0986 40.3785 87.3179 40.2852 87.5606 40.2105C87.8126 40.1358 88.0786 40.0985 88.3586 40.0985C89.0866 40.0985 89.6559 40.3412 90.0666 40.8265C90.4773 41.3025 90.6826 41.9558 90.6826 42.7865V47.0005H89.5346V42.7865C89.5346 42.2825 89.4133 41.8858 89.1706 41.5965C88.9279 41.3072 88.5873 41.1625 88.1486 41.1625C87.7006 41.1625 87.2946 41.2652 86.9306 41.4705C86.5759 41.6758 86.2773 41.9418 86.0346 42.2685V47.0005ZM97.3109 42.2125C97.0869 41.8858 96.8116 41.6292 96.4849 41.4425C96.1676 41.2558 95.8363 41.1625 95.4909 41.1625C94.9029 41.1625 94.4223 41.3632 94.0489 41.7645C93.6849 42.1658 93.5029 42.7818 93.5029 43.6125C93.5029 44.0605 93.5543 44.4432 93.6569 44.7605C93.7596 45.0685 93.8949 45.3205 94.0629 45.5165C94.2403 45.7125 94.4363 45.8572 94.6509 45.9505C94.8749 46.0345 95.1036 46.0765 95.3369 46.0765C95.5889 46.0765 95.8316 46.0205 96.0649 45.9085C96.3076 45.7965 96.5176 45.6378 96.6949 45.4325C96.8816 45.2178 97.0309 44.9658 97.1429 44.6765C97.2549 44.3778 97.3109 44.0465 97.3109 43.6825V42.2125ZM98.4869 47.0005H97.5349L97.3109 45.8525C97.2269 46.0205 97.1149 46.1838 96.9749 46.3425C96.8349 46.5012 96.6669 46.6412 96.4709 46.7625C96.2843 46.8745 96.0789 46.9632 95.8549 47.0285C95.6309 47.1032 95.3976 47.1405 95.1549 47.1405C94.7443 47.1405 94.3663 47.0612 94.0209 46.9025C93.6756 46.7438 93.3769 46.5152 93.1249 46.2165C92.8823 45.9178 92.6909 45.5538 92.5509 45.1245C92.4203 44.6858 92.3549 44.1865 92.3549 43.6265C92.3549 43.1412 92.4156 42.6885 92.5369 42.2685C92.6676 41.8392 92.8589 41.4658 93.1109 41.1485C93.3629 40.8218 93.6709 40.5652 94.0349 40.3785C94.3989 40.1918 94.8189 40.0985 95.2949 40.0985C95.5469 40.0985 95.7756 40.1312 95.9809 40.1965C96.1956 40.2618 96.3869 40.3458 96.5549 40.4485C96.7229 40.5512 96.8676 40.6678 96.9889 40.7985C97.1196 40.9292 97.2269 41.0598 97.3109 41.1905V37.5645H98.4869V47.0005ZM102.303 46.2165C102.854 46.2165 103.246 46.1185 103.479 45.9225C103.712 45.7172 103.829 45.4792 103.829 45.2085C103.829 45.0312 103.787 44.8818 103.703 44.7605C103.619 44.6298 103.507 44.5178 103.367 44.4245C103.227 44.3218 103.064 44.2378 102.877 44.1725C102.69 44.0978 102.49 44.0278 102.275 43.9625C101.967 43.8692 101.687 43.7665 101.435 43.6545C101.183 43.5425 100.964 43.4072 100.777 43.2485C100.6 43.0898 100.46 42.9032 100.357 42.6885C100.264 42.4645 100.217 42.2032 100.217 41.9045C100.217 41.3352 100.432 40.8918 100.861 40.5745C101.3 40.2572 101.906 40.0985 102.681 40.0985C103.064 40.0985 103.432 40.1358 103.787 40.2105C104.151 40.2758 104.473 40.3832 104.753 40.5325L104.487 41.4145C104.235 41.2932 103.969 41.1998 103.689 41.1345C103.409 41.0598 103.106 41.0225 102.779 41.0225C102.275 41.0225 101.911 41.1065 101.687 41.2745C101.463 41.4425 101.351 41.6525 101.351 41.9045C101.351 42.2032 101.468 42.4272 101.701 42.5765C101.934 42.7258 102.252 42.8658 102.653 42.9965C103.036 43.1178 103.372 43.2485 103.661 43.3885C103.95 43.5192 104.188 43.6732 104.375 43.8505C104.571 44.0185 104.716 44.2145 104.809 44.4385C104.912 44.6625 104.963 44.9238 104.963 45.2225C104.963 45.8012 104.753 46.2678 104.333 46.6225C103.922 46.9678 103.264 47.1405 102.359 47.1405C101.911 47.1405 101.5 47.1032 101.127 47.0285C100.763 46.9632 100.45 46.8558 100.189 46.7065L100.455 45.8245C100.707 45.9458 100.992 46.0438 101.309 46.1185C101.626 46.1838 101.958 46.2165 102.303 46.2165ZM115.304 42.0445C115.518 42.0818 115.733 42.1565 115.948 42.2685C116.162 42.3805 116.354 42.5298 116.522 42.7165C116.699 42.8938 116.839 43.1132 116.942 43.3745C117.054 43.6265 117.11 43.9205 117.11 44.2565C117.11 44.6578 117.04 45.0265 116.9 45.3625C116.769 45.6985 116.564 45.9878 116.284 46.2305C116.004 46.4732 115.649 46.6645 115.22 46.8045C114.8 46.9352 114.305 47.0005 113.736 47.0005H110.222V37.5645H113.722C114.216 37.5645 114.65 37.6298 115.024 37.7605C115.397 37.8818 115.71 38.0545 115.962 38.2785C116.214 38.5025 116.4 38.7732 116.522 39.0905C116.652 39.3985 116.718 39.7345 116.718 40.0985C116.718 40.3692 116.671 40.6118 116.578 40.8265C116.484 41.0412 116.368 41.2325 116.228 41.4005C116.088 41.5592 115.934 41.6945 115.766 41.8065C115.607 41.9092 115.453 41.9885 115.304 42.0445ZM113.722 45.9225C114.422 45.9225 114.963 45.7778 115.346 45.4885C115.738 45.1992 115.934 44.7885 115.934 44.2565C115.934 43.9578 115.878 43.7105 115.766 43.5145C115.663 43.3092 115.514 43.1458 115.318 43.0245C115.122 42.8938 114.888 42.8005 114.618 42.7445C114.347 42.6885 114.044 42.6605 113.708 42.6605H111.398V45.9225H113.722ZM113.736 41.5965C113.988 41.5965 114.221 41.5638 114.436 41.4985C114.66 41.4332 114.851 41.3352 115.01 41.2045C115.178 41.0738 115.308 40.9105 115.402 40.7145C115.495 40.5185 115.542 40.2945 115.542 40.0425C115.542 39.5852 115.378 39.2398 115.052 39.0065C114.725 38.7638 114.282 38.6425 113.722 38.6425H111.398V41.5965H113.736ZM119.479 44.1445C119.553 44.8072 119.773 45.3158 120.137 45.6705C120.501 46.0158 121.023 46.1885 121.705 46.1885C121.994 46.1885 122.297 46.1605 122.615 46.1045C122.932 46.0485 123.226 45.9552 123.497 45.8245L123.763 46.6925C123.175 46.9912 122.451 47.1405 121.593 47.1405C120.491 47.1405 119.67 46.8232 119.129 46.1885C118.587 45.5538 118.317 44.6952 118.317 43.6125C118.317 43.1178 118.373 42.6558 118.485 42.2265C118.597 41.7972 118.774 41.4285 119.017 41.1205C119.269 40.8032 119.586 40.5558 119.969 40.3785C120.361 40.1918 120.837 40.0985 121.397 40.0985C122.321 40.0985 123.002 40.3598 123.441 40.8825C123.889 41.3958 124.113 42.0865 124.113 42.9545C124.113 43.1972 124.099 43.4118 124.071 43.5985C124.052 43.7852 124.019 43.9672 123.973 44.1445H119.479ZM121.397 40.9945C121.061 40.9945 120.776 41.0552 120.543 41.1765C120.309 41.2885 120.113 41.4472 119.955 41.6525C119.805 41.8485 119.689 42.0865 119.605 42.3665C119.521 42.6465 119.469 42.9498 119.451 43.2765H123.021V42.9545C123.021 42.3385 122.895 41.8578 122.643 41.5125C122.4 41.1672 121.985 40.9945 121.397 40.9945ZM130.3 45.7125C130.216 45.8525 130.104 46.0018 129.964 46.1605C129.824 46.3098 129.656 46.4498 129.46 46.5805C129.273 46.7018 129.054 46.8045 128.802 46.8885C128.55 46.9632 128.265 47.0005 127.948 47.0005C127.621 47.0005 127.323 46.9538 127.052 46.8605C126.791 46.7578 126.567 46.5992 126.38 46.3845C126.193 46.1605 126.044 45.8805 125.932 45.5445C125.829 45.1992 125.778 44.7885 125.778 44.3125V40.2385H126.926V44.3125C126.926 44.8352 127.038 45.2412 127.262 45.5305C127.486 45.8198 127.785 45.9645 128.158 45.9645C128.662 45.9645 129.087 45.8338 129.432 45.5725C129.777 45.3112 130.067 45.0078 130.3 44.6625V40.2385H131.476V46.4265C131.476 47.5745 131.196 48.4238 130.636 48.9745C130.085 49.5345 129.315 49.8145 128.326 49.8145C127.897 49.8145 127.472 49.7538 127.052 49.6325C126.632 49.5112 126.291 49.3665 126.03 49.1985L126.324 48.2605C126.595 48.4192 126.889 48.5405 127.206 48.6245C127.533 48.7178 127.878 48.7645 128.242 48.7645C128.569 48.7645 128.858 48.7272 129.11 48.6525C129.371 48.5778 129.586 48.4472 129.754 48.2605C129.931 48.0832 130.067 47.8405 130.16 47.5325C130.253 47.2338 130.3 46.8605 130.3 46.4125V45.7125ZM134.271 43.6125C134.271 43.9765 134.309 44.3172 134.383 44.6345C134.467 44.9518 134.589 45.2272 134.747 45.4605C134.915 45.6845 135.125 45.8618 135.377 45.9925C135.639 46.1232 135.947 46.1885 136.301 46.1885C136.656 46.1885 136.959 46.1232 137.211 45.9925C137.473 45.8618 137.683 45.6845 137.841 45.4605C138.009 45.2272 138.131 44.9518 138.205 44.6345C138.289 44.3172 138.331 43.9765 138.331 43.6125C138.331 43.2485 138.289 42.9125 138.205 42.6045C138.131 42.2872 138.009 42.0165 137.841 41.7925C137.683 41.5592 137.473 41.3772 137.211 41.2465C136.959 41.1158 136.656 41.0505 136.301 41.0505C135.947 41.0505 135.639 41.1158 135.377 41.2465C135.125 41.3772 134.915 41.5592 134.747 41.7925C134.589 42.0165 134.467 42.2872 134.383 42.6045C134.309 42.9125 134.271 43.2485 134.271 43.6125ZM133.109 43.6125C133.109 43.1178 133.17 42.6558 133.291 42.2265C133.422 41.7972 133.618 41.4285 133.879 41.1205C134.141 40.8032 134.472 40.5558 134.873 40.3785C135.275 40.1918 135.751 40.0985 136.301 40.0985C136.852 40.0985 137.328 40.1918 137.729 40.3785C138.131 40.5558 138.462 40.8032 138.723 41.1205C138.985 41.4285 139.176 41.7972 139.297 42.2265C139.428 42.6558 139.493 43.1178 139.493 43.6125C139.493 44.1072 139.428 44.5692 139.297 44.9985C139.176 45.4278 138.985 45.8012 138.723 46.1185C138.462 46.4358 138.131 46.6878 137.729 46.8745C137.328 47.0518 136.852 47.1405 136.301 47.1405C135.751 47.1405 135.275 47.0518 134.873 46.8745C134.472 46.6878 134.141 46.4358 133.879 46.1185C133.618 45.8012 133.422 45.4278 133.291 44.9985C133.17 44.5692 133.109 44.1072 133.109 43.6125ZM142.308 47.0005H141.132V40.2385H142.112L142.308 41.2465C142.392 41.1252 142.509 40.9992 142.658 40.8685C142.807 40.7285 142.98 40.6025 143.176 40.4905C143.372 40.3785 143.591 40.2852 143.834 40.2105C144.086 40.1358 144.352 40.0985 144.632 40.0985C145.36 40.0985 145.929 40.3412 146.34 40.8265C146.751 41.3025 146.956 41.9558 146.956 42.7865V47.0005H145.808V42.7865C145.808 42.2825 145.687 41.8858 145.444 41.5965C145.201 41.3072 144.861 41.1625 144.422 41.1625C143.974 41.1625 143.568 41.2652 143.204 41.4705C142.849 41.6758 142.551 41.9418 142.308 42.2685V47.0005ZM153.584 42.2125C153.36 41.8858 153.085 41.6292 152.758 41.4425C152.441 41.2558 152.11 41.1625 151.764 41.1625C151.176 41.1625 150.696 41.3632 150.322 41.7645C149.958 42.1658 149.776 42.7818 149.776 43.6125C149.776 44.0605 149.828 44.4432 149.93 44.7605C150.033 45.0685 150.168 45.3205 150.336 45.5165C150.514 45.7125 150.71 45.8572 150.924 45.9505C151.148 46.0345 151.377 46.0765 151.61 46.0765C151.862 46.0765 152.105 46.0205 152.338 45.9085C152.581 45.7965 152.791 45.6378 152.968 45.4325C153.155 45.2178 153.304 44.9658 153.416 44.6765C153.528 44.3778 153.584 44.0465 153.584 43.6825V42.2125ZM154.76 47.0005H153.808L153.584 45.8525C153.5 46.0205 153.388 46.1838 153.248 46.3425C153.108 46.5012 152.94 46.6412 152.744 46.7625C152.558 46.8745 152.352 46.9632 152.128 47.0285C151.904 47.1032 151.671 47.1405 151.428 47.1405C151.018 47.1405 150.64 47.0612 150.294 46.9025C149.949 46.7438 149.65 46.5152 149.398 46.2165C149.156 45.9178 148.964 45.5538 148.824 45.1245C148.694 44.6858 148.628 44.1865 148.628 43.6265C148.628 43.1412 148.689 42.6885 148.81 42.2685C148.941 41.8392 149.132 41.4658 149.384 41.1485C149.636 40.8218 149.944 40.5652 150.308 40.3785C150.672 40.1918 151.092 40.0985 151.568 40.0985C151.82 40.0985 152.049 40.1312 152.254 40.1965C152.469 40.2618 152.66 40.3458 152.828 40.4485C152.996 40.5512 153.141 40.6678 153.262 40.7985C153.393 40.9292 153.5 41.0598 153.584 41.1905V37.5645H154.76V47.0005Z" fill="white" fill-opacity="0.6"/>
</svg>
