<svg preserveAspectRatio="xMidYMid meet" width="100%" height="100%" overflow="visible" style="display: block;" viewBox="0 0 72.7872 18.0001" fill="none" xmlns="http://www.w3.org/2000/svg">
<g id="Group 19">
<path id="Subtract" d="M1.63149 0.0175781C2.34036 0.0757825 2.59913 0.493584 3.03676 1.01074C3.13325 2.44401 3.07199 4.42024 3.06801 5.89355C4.36357 5.1047 5.11348 4.71032 6.6979 4.64258C8.54172 4.56385 10.1703 5.18168 11.5192 6.43652C12.8045 7.64734 13.5632 9.31405 13.6315 11.0781C13.6927 12.9933 12.8747 14.6922 11.5895 16.0625C10.7923 16.8538 9.68765 17.4646 8.60512 17.7559C6.82154 18.2331 4.92026 17.9778 3.32583 17.0469C1.88769 16.217 0.710833 14.7548 0.284812 13.1445C0.155289 12.6384 0.0753542 12.1203 0.0455539 11.5986C-0.062554 9.83062 0.0599709 7.79075 0.0279757 5.99414C0.0411686 4.53958 -0.0327095 3.07813 0.0260226 1.625C0.0625178 0.722878 0.486934 0.216277 1.34438 0C1.44007 0.00397999 1.53604 0.0100312 1.63149 0.0175781ZM6.63735 7.54297C4.56332 7.64099 2.96713 9.41141 3.08559 11.4834C3.20425 13.5556 4.99235 15.1332 7.06411 14.9941C9.10683 14.8568 10.6575 13.1007 10.5407 11.0576C10.4237 9.01427 8.6825 7.44639 6.63735 7.54297Z" fill="var(--fill-0, white)"/>
<path id="Subtract_2" d="M70.6693 0.0640551C71.5911 -0.0359972 72.5376 0.214119 72.6927 1.32382C72.7857 2.71433 72.8067 4.26904 72.7415 5.66855C72.6486 7.63986 72.9636 10.2887 72.6283 12.1891C72.4606 13.1981 72.0831 14.161 71.5189 15.0143C69.2586 18.4073 65.0734 18.7636 61.7943 16.5719C55.3826 11.4526 61.9297 1.06972 69.6458 5.83261C69.6697 4.43286 69.5476 2.77914 69.6986 1.40488C69.7693 0.768077 70.1561 0.402896 70.6693 0.0640551ZM69.6693 10.8902C69.4649 8.8325 67.6205 7.33651 65.5638 7.55917C63.5325 7.77906 62.0582 9.59361 62.2601 11.6256C62.462 13.6576 64.2646 15.147 66.2991 14.9635C68.3591 14.7775 69.8735 12.9481 69.6693 10.8902Z" fill="var(--fill-0, white)"/>
<path id="Subtract_3" d="M35.2945 4.67784C38.9766 4.14034 42.3912 6.70832 42.8951 10.3937C43.3988 14.0788 40.7994 17.4677 37.108 17.9376C33.4641 18.4013 30.1262 15.8429 29.6295 12.2052C29.1322 8.56756 31.6604 5.20848 35.2945 4.67784ZM36.0084 7.57921C33.9684 7.72357 32.4322 9.49689 32.5816 11.5362C32.7311 13.5757 34.5091 15.1065 36.5484 14.9523C38.5812 14.7985 40.106 13.0294 39.9576 10.9972C39.809 8.96476 38.0422 7.4355 36.0084 7.57921Z" fill="var(--fill-0, white)"/>
<path id="Subtract_4" d="M20.9822 4.68337C23.4093 4.44998 25.6422 5.32752 27.0036 7.36208C28.0376 8.90618 28.908 11.2713 27.0642 12.5232C26.7639 12.5636 26.5049 12.5732 26.2038 12.576C23.6241 12.6002 21.0287 12.5172 18.4499 12.6023C19.5426 15.4412 22.2168 15.4912 24.5144 14.2732C24.9688 14.0323 25.222 13.9647 25.7351 14.0252C26.5505 14.2742 26.7525 14.786 27.0036 15.5418C26.3694 16.974 24.6077 17.6167 23.1589 17.8845C21.3899 18.2166 19.5616 17.8255 18.0837 16.7986C16.5978 15.7713 15.6669 14.2447 15.3445 12.4705C15.0208 10.7213 15.4084 8.91531 16.4216 7.4529C17.5507 5.83186 19.0664 5.01931 20.9822 4.68337ZM25.0779 9.92165C24.5446 8.10915 22.976 7.30764 21.157 7.54568C19.7419 7.89973 18.962 8.55593 18.4284 9.91286C19.7634 10.0084 21.1692 9.92977 22.5154 9.95486L25.0779 9.92165Z" fill="var(--fill-0, white)"/>
<path id="Vector" d="M50.1919 4.68599C53.1516 4.42479 55.7067 5.59217 57.0347 8.32231C57.3065 8.87459 57.4893 9.4665 57.5752 10.0759C57.7206 11.0788 57.8072 16.1289 57.537 16.886C57.4162 17.2244 57.1834 17.4838 56.8575 17.636C56.4705 17.8171 56.0016 17.8301 55.601 17.6835C55.171 17.5263 54.8778 17.2072 54.7331 16.7759C54.5504 16.2307 54.606 15.6117 54.6147 15.0439C54.637 13.5235 54.9143 10.9119 54.277 9.55683C53.816 8.57589 53.0006 7.98715 51.9992 7.62896C51.3896 7.56207 50.9628 7.52004 50.3453 7.65136C49.6801 7.78815 49.0729 8.12498 48.6056 8.61664C46.459 10.855 48.3274 14.8427 47.1997 17.2139C46.703 18.2595 44.1868 18.0953 44.492 15.57C44.705 13.8028 44.2599 11.529 44.6811 9.62372C44.8703 8.80111 45.2208 8.02425 45.7127 7.33828C46.8071 5.80261 48.3656 4.99883 50.1919 4.68599Z" fill="var(--fill-0, white)"/>
</g>
</svg>
