<svg width="192" height="206" viewBox="0 0 192 206" fill="none" xmlns="http://www.w3.org/2000/svg">
<path d="M165.516 1.02205L117.874 28.7601C112.966 31.6174 112.862 38.6971 117.685 41.5813L129.923 48.9009L99.2806 97.0389L53.5075 63.3199C50.869 61.3763 47.5573 60.5798 44.3239 61.1127C41.0905 61.6452 38.209 63.4605 36.3326 66.1474L-13.3952 137.354C-17.2389 142.858 -15.8932 150.436 -10.3894 154.279C-8.2701 155.759 -5.84327 156.47 -3.44062 156.47C0.396433 156.47 4.17198 154.658 6.53553 151.273L49.1257 90.2865L95.3377 124.329C98.0487 126.326 101.468 127.108 104.777 126.492C108.087 125.873 110.993 123.911 112.801 121.069L150.794 61.3834L163.427 68.9393C168.25 71.8235 174.438 68.3822 174.634 62.7071L176.533 7.61059C176.734 1.80449 170.538 -1.90165 165.516 1.02205Z" fill="#A7DB65"/>
<path d="M53.2416 63.1323C50.9922 62.0322 48.442 61.6505 45.9365 62.0639C42.704 62.5937 39.8211 64.412 37.9443 67.0972L-11.7853 138.302C-15.6285 143.802 -14.2815 151.377 -8.78605 155.22C-9.33828 154.955 -9.8725 154.641 -10.3887 154.277C-15.8934 150.434 -17.2404 142.859 -13.3924 137.355L36.3333 66.1447C38.2101 63.4596 41.0925 61.6461 44.3251 61.1114C47.4495 60.5952 50.6509 61.3271 53.2416 63.1323Z" fill="#CFF993"/>
<path d="M152.406 62.3328L163.77 69.1304C163.653 69.0676 163.541 69.0048 163.428 68.9371L152.396 62.3459L152.406 62.3328Z" fill="#CFF993"/>
<path d="M173.738 1.55769C171.731 0.682118 169.315 0.695735 167.128 1.97065L119.486 29.7095C114.578 32.5651 114.475 39.6457 119.298 42.5325L131.537 49.8512L100.893 97.9875L99.3848 96.8782L129.925 48.8992L117.686 41.5805C112.864 38.6981 112.967 31.6175 117.874 28.7619L165.517 1.02347C168.332 -0.615206 171.519 -0.170609 173.738 1.55769Z" fill="#CFF993"/>
<path d="M176.535 7.61025L174.635 62.7058C174.438 68.381 168.251 71.8249 163.429 68.9376L150.794 61.3857L112.801 121.07C110.996 123.912 108.091 125.874 104.777 126.494C101.468 127.109 98.0513 126.328 95.3393 124.33L49.1247 90.2874L6.53847 151.273C4.17227 154.659 0.396288 156.468 -3.43813 156.468C-5.84035 156.468 -8.26937 155.759 -10.3887 154.278C-13.2759 152.262 -15.0222 149.217 -15.4712 145.985C-14.9638 146.497 -14.4023 146.968 -13.7921 147.395C-11.6728 148.876 -9.24818 149.586 -6.84156 149.586C-3.00715 149.586 0.768835 147.772 3.13064 144.391L45.7217 83.4046L91.9363 117.447C94.6483 119.441 98.0649 120.226 101.374 119.607C104.683 118.992 107.593 117.025 109.398 114.187L147.391 54.4984L160.026 62.0547C164.848 64.9415 171.035 61.4981 171.232 55.8225L173.118 1.12231C175.196 2.42886 176.633 4.76826 176.535 7.61025Z" fill="#77B633"/>
<g filter="url(#filter0_d_256_1995)">
<path d="M117.136 66.7676L-25.8084 129.615C-26.5667 129.948 -26.6972 130.684 -26.0997 131.258L43.6267 198.225C44.2732 198.846 45.5207 199.009 46.2667 198.565C99.8673 166.715 131.926 152.766 188.77 135.868C189.7 135.591 189.943 134.771 189.287 134.141L119.591 67.203C118.994 66.6291 117.895 66.4342 117.136 66.7676Z" fill="url(#paint0_linear_256_1995)" stroke="#EEEEEE"/>
<path d="M-16.835 132.054L46.0826 192.482C96.5119 165.125 126.269 152.02 180.196 133.512L117.282 73.0876L-16.835 132.054Z" stroke="#00665D" stroke-width="1.5"/>
<path d="M103.384 79.2073C104.822 80.5881 106.605 81.7975 108.631 82.7662C110.658 83.7349 112.889 84.444 115.196 84.8531C117.503 85.2622 119.841 85.3632 122.077 85.1504C124.314 84.9376 126.404 84.4151 128.229 83.6128L117.28 73.0975L103.384 79.2073Z" fill="#00665D"/>
<ellipse cx="15.1802" cy="15.1802" rx="15.1802" ry="15.1802" transform="matrix(-0.915429 0.40248 0.721232 0.692694 67.6108 100.301)" fill="#00665D"/>
<path d="M59.1684 185.347C57.7306 183.966 56.8098 183.819 54.7831 182.85C52.7564 181.882 50.5258 181.172 48.2188 180.763C45.9117 180.354 43.5734 180.253 41.3372 180.466C39.101 180.679 37.0108 181.201 35.1859 182.004L46.1343 192.519L59.1684 185.347Z" fill="#00665D"/>
<path d="M169.285 123.045C167.461 123.847 165.937 124.914 164.801 126.183C163.665 127.453 162.94 128.901 162.666 130.445C162.392 131.989 162.576 133.598 163.206 135.181C163.836 136.763 163.767 137.498 165.205 138.879L180.234 133.56L169.285 123.045Z" fill="#00665D"/>
<path d="M-5.8714 142.571C-4.0465 141.769 -2.52266 140.703 -1.38689 139.433C-0.25111 138.163 0.47436 136.715 0.748101 135.171C1.02184 133.628 0.838496 132.018 0.20853 130.436C-0.421437 128.853 -1.48569 127.327 -2.92345 125.947L-16.8198 132.056L-5.8714 142.571Z" fill="#00665D"/>
<rect width="107.779" height="6.07207" rx="3.03604" transform="matrix(-0.915429 0.40248 0.721232 0.692694 130.418 111.009)" fill="#00665D"/>
<rect width="64.5158" height="3.03604" rx="1.51802" transform="matrix(-0.915429 0.40248 0.721232 0.692694 119.174 127.448)" fill="#005049"/>
<rect width="89.563" height="3.03604" rx="1.51802" transform="matrix(-0.915429 0.40248 0.721232 0.692694 134.67 126.767)" fill="#005049"/>
</g>
<defs>
<filter id="filter0_d_256_1995" x="-27.0576" y="66.2041" width="218.298" height="139.013" filterUnits="userSpaceOnUse" color-interpolation-filters="sRGB">
<feFlood flood-opacity="0" result="BackgroundImageFix"/>
<feColorMatrix in="SourceAlpha" type="matrix" values="0 0 0 0 0 0 0 0 0 0 0 0 0 0 0 0 0 0 127 0" result="hardAlpha"/>
<feOffset dx="1" dy="6"/>
<feComposite in2="hardAlpha" operator="out"/>
<feColorMatrix type="matrix" values="0 0 0 0 0 0 0 0 0 0 0 0 0 0 0 0 0 0 0.25 0"/>
<feBlend mode="normal" in2="BackgroundImageFix" result="effect1_dropShadow_256_1995"/>
<feBlend mode="normal" in="SourceGraphic" in2="effect1_dropShadow_256_1995" result="shape"/>
</filter>
<linearGradient id="paint0_linear_256_1995" x1="151.045" y1="96.9338" x2="26.5579" y2="188.153" gradientUnits="userSpaceOnUse">
<stop stop-color="white"/>
<stop offset="1" stop-color="#E3D4C0"/>
</linearGradient>
</defs>
</svg>
