<svg width="1440" height="198" viewBox="0 0 1440 198" fill="none" xmlns="http://www.w3.org/2000/svg">
<path d="M463 155.088C463 155.088 494.931 26.2051 599.736 26.7293C704.542 27.2534 726.26 103.818 726.26 103.818C726.26 103.818 781.173 85.8556 823.999 112.902C866.824 139.948 860.062 231.474 860.062 231.474C860.062 231.474 938.948 205.312 980.645 240.249C1022.34 275.184 1021.22 349.565 1021.22 349.565C1021.22 349.565 1045.98 333.789 1087.69 339.422C1129.4 345.055 1145.18 408.167 1145.18 408.167C1145.18 408.167 1154.32 268.531 1255.12 247.628C1355.92 226.728 1403.23 301.106 1403.23 301.106C1403.23 301.106 1398.75 239.722 1459.61 217.448C1520.46 195.174 1543 217.448 1543 217.448C1543 217.448 1536.22 121.922 1624.13 98.2539C1712.05 74.589 1749.43 143.464 1749.43 143.464C1749.43 143.464 1767.14 17.8214 1903 0V494.317H463V155.088Z" fill="#779BC6"/>
<path d="M719.999 407.317H1440V224.803C1440 224.803 1438.11 102.374 1340.2 88.3686C1242.28 74.3632 1228.75 169.659 1228.75 169.659C1228.75 169.659 1176.92 126.955 1112.31 150.997C1047.69 175.039 1058.21 281.723 1058.21 281.723C1058.21 281.723 993.008 243.874 942.217 279.327C891.422 314.78 901.468 366.245 901.468 366.245C901.468 366.245 751.428 324.047 719.999 407.317Z" fill="#A2BBE0"/>
<path d="M0 303.317H527.69C527.69 303.317 521.081 216.041 433.151 249.85C433.151 249.85 451.157 118.726 380.157 93.5696C309.156 68.4128 263.26 133.895 263.26 133.895C263.26 133.895 217.875 15.444 118.705 30.0945C19.535 44.7422 0 130.131 0 130.131V303.317Z" fill="#A2BBE0"/>
</svg>
