<svg width="656" height="449" viewBox="0 0 656 449" fill="none" xmlns="http://www.w3.org/2000/svg">
<path d="M155.12 155.539C142.059 141.087 122.437 130.302 120.194 110.057C119.304 103.412 122.266 94.5953 127.077 89.5673C149.829 63.5043 205.785 68.4173 234.539 80.7653C275.757 98.4663 280.441 97.6703 318.906 75.3478C338.491 63.9818 366.671 54.9273 390.071 52.4458C438.166 47.3463 485.321 66.9173 507.826 111.643C518.266 131.732 523.936 151.782 539.871 169.244C546.516 176.518 557.436 185.381 566.421 189.89C570.151 191.762 579.926 194.71 582.866 197.17C583.846 199.925 584.331 200.645 583.031 203.299C580.461 208.554 575.586 212.786 572.946 217.964C576.586 223.469 575.431 238.619 574.021 245.036C567.571 274.428 542.956 301.05 518.251 316.999C513.146 320.294 504.466 325.479 498.596 326.429C480.226 351.789 463.746 378.599 445.856 404.299C442.461 409.174 434.296 404.509 430.031 402.704C429.356 402.644 420.186 398.454 418.911 397.884L382.246 381.454C376.831 379.054 370.536 376.219 364.926 374.199C363.536 373.699 361.251 374.154 359.736 374.319C333.921 377.159 306.811 365.849 283.675 355.544C271.295 350.029 260.745 343.514 247.722 339.764C232.653 335.429 218.366 334.679 203.027 333.554C175.945 331.564 144.647 328.149 120.806 314.369C108.373 307.184 97.77 297.568 94.009 283.35C89.7945 281.554 85.132 282.207 81.4935 278.576C80.3985 275.594 83.3755 270.856 85.166 268.386C90.89 260.49 94.2335 251.088 99.2045 242.992C102.776 237.174 107.885 231.591 111.772 225.574C121.54 210.454 130.988 195.156 140.533 179.896C144.442 173.608 152.451 161.612 155.12 155.539Z" fill="#F3F3F2"/>
<path d="M572.946 217.963C576.586 223.468 575.431 238.618 574.021 245.036C567.571 274.427 542.956 301.049 518.251 316.998C513.146 320.293 504.466 325.478 498.596 326.428C499.391 324.288 501.576 321.348 502.871 319.423C521.576 291.658 540.761 264.22 559.766 236.657C564.076 230.406 568.421 224.045 572.946 217.963Z" fill="#F3F3F2"/>
<path d="M582.866 197.169C583.846 199.925 584.331 200.645 583.031 203.299C580.461 208.553 575.586 212.785 572.946 217.963C568.421 224.045 564.076 230.406 559.766 236.657C540.761 264.22 521.576 291.658 502.871 319.423C501.576 321.348 499.391 324.288 498.596 326.428C480.226 351.788 463.746 378.598 445.856 404.298C442.461 409.173 434.296 404.508 430.031 402.703C431.791 401.818 436.321 404.043 438.381 404.763C442.786 403.498 444.251 402.738 446.871 398.908C461.956 376.838 476.411 354.323 491.276 332.113L544.646 253.666C551.201 243.858 557.856 234.117 564.616 224.446C568.911 218.38 580.386 202.894 582.866 197.169Z" fill="#B6B5B4"/>
<path d="M207.31 98.8418C213.867 99.8138 231.578 105.178 238.549 107.062L292.366 121.206C361.406 139.602 425.816 157.032 493.876 179.508C508.211 184.212 522.491 189.073 536.721 194.089C543.906 196.607 553.941 199.826 560.651 202.992C557.951 207.661 552.846 214.801 549.716 219.467L525.196 255.727L443.461 378.119C441.131 381.699 438.741 385.239 436.291 388.744C374.511 360.339 311.252 335.274 246.785 313.659C216.84 304.029 186.775 294.783 156.595 285.92C138.104 280.437 118.566 274.949 100.358 268.84C113.074 246.887 129.577 222.068 143.362 200.265L207.31 98.8418Z" fill="#B6B5B4"/>
<path d="M245.035 112.413C253.66 114.976 264.784 117.427 273.664 119.725L323.376 132.906C369.346 144.963 415.026 158.092 460.381 172.281C478.386 177.962 500.856 184.705 518.206 191.571C505.876 211.656 513.831 227.717 533.561 236.981L455.671 352.994C438.456 345.024 423.021 348.439 408.371 359.619C404.781 362.654 402.981 365.069 400.216 368.824C351.556 347.309 301.891 328.139 251.395 311.384C227.701 303.724 203.934 296.292 180.096 289.094C168.045 285.468 153.306 281.646 141.687 277.573C150.065 258.878 144.666 243.629 125.83 234.924C145.677 201.213 169.972 166.977 189.785 133.157C212.697 140.664 232.413 132.443 245.035 112.413Z" fill="#F3F3F2"/>
<path d="M357.846 158.761C384.021 156.644 408.216 180.411 388.566 205.201C380.866 214.917 368.286 219.812 356.121 220.863C329.846 222.264 304.809 200.017 324.991 173.64C332.176 164.245 346.201 159.559 357.846 158.761Z" fill="#B6B5B4"/>
<path d="M208.016 195.556C214.245 195.4 228.691 200.993 235.243 203.168L286.08 220.202L392.001 256.566C407.156 261.884 422.336 267.186 437.466 272.58C445.736 275.529 449.131 281.146 440.001 286.396C434.156 287.005 418.436 280.282 412.146 277.945C400.156 273.48 388.116 269.159 376.021 264.982C330.761 248.913 285.319 233.371 239.7 218.361C232.929 216.117 226.14 213.928 219.334 211.794C214.931 210.411 205.931 208.5 203.251 204.565C200.395 200.371 204.571 197.349 208.016 195.556Z" fill="#B6B5B4"/>
<path d="M205.576 236.965C207.972 236.596 210.609 237.374 212.891 238.147C228.62 243.474 244.394 248.837 260.095 254.226L345.601 283.713L383.346 297.015C388.256 298.743 400.576 301.221 401.886 306.229C401.451 308.209 401.071 308.379 399.591 309.909C396.326 309.644 390.536 307.309 387.291 306.069C368.876 299.032 350.276 292.69 331.641 286.255L233.882 252.729C228.259 250.738 222.605 248.832 216.924 247.012C212.8 245.71 204.822 244.713 203.543 240.355C203.867 238.552 204.325 238.288 205.576 236.965Z" fill="#B6B5B4"/>
<path d="M240.217 233.426C243.738 233.641 377.196 279.656 379.566 281.231C380.716 281.995 380.731 282.586 380.981 283.819C380.436 285.842 379.986 286.115 378.541 287.745C375.186 287.156 370.156 285.135 366.756 283.957L345.876 276.758L276.609 252.65L248.666 243.067C245.317 241.904 238.517 240.574 237.576 237.297C238.119 235.376 238.791 234.938 240.217 233.426Z" fill="#B6B5B4"/>
<path d="M432.166 85.7007C433.866 85.7762 433.866 85.6917 435.406 86.3317C437.121 88.2587 436.576 91.3327 436.506 94.0387C437.021 94.0267 437.541 94.0177 438.056 94.0112C440.866 93.9772 442.066 93.6182 444.096 95.5917C444.516 99.3007 438.996 98.5837 436.526 98.5652C436.506 101.776 436.536 103.36 435.996 106.535C434.536 106.588 433.781 106.789 432.586 105.974C431.431 104.24 431.731 100.918 431.646 98.5702C428.851 98.4997 424.946 99.0732 424.156 95.7982L425.041 94.7297C427.151 93.6217 429.046 93.9632 431.501 94.0292C431.601 91.3677 431.931 88.3802 432.166 85.7007Z" fill="#B6B5B4"/>
<path d="M154.822 105.722L156.395 106.695C158.451 110.368 154.614 114.064 151.734 115.876C150.337 115.36 149.987 115.366 148.943 114.302C148.692 111.882 152.971 108.91 154.822 105.722Z" fill="#B6B5B4"/>
<path d="M294.523 418.784C325.992 417.959 478.517 418.114 497.362 431.394C498.482 432.184 498.787 432.679 499.022 433.994C495.582 440.334 451.822 444.024 443.742 444.724C415.867 446.949 387.922 448.219 359.957 448.524C300.672 448.814 241.085 449.059 182.175 441.524C176.986 440.864 155.332 438.569 154.163 433.149C154.44 432.584 154.443 432.499 154.918 431.959C164.289 421.314 275.425 419.239 294.523 418.784Z" fill="#F3F3F2"/>
<path d="M520.401 65.7721L521.721 65.7491C549.161 65.4576 577.166 66.1051 604.651 65.8086C609.986 65.7511 622.906 64.5746 626.446 68.0151C627.061 70.8691 625.306 72.0276 622.871 72.7951C616.391 73.1866 607.471 72.9556 600.811 72.9476L561.081 72.8946C552.761 72.8761 544.441 72.9031 536.121 72.9761C531.196 73.0126 519.881 74.2421 516.661 70.3706C516.336 68.4591 516.241 69.3716 517.006 67.5396C518.486 66.1896 518.541 66.2876 520.401 65.7721Z" fill="#B6B5B4"/>
<path d="M543.532 48.219C568.547 47.305 594.462 48.6075 619.547 48.1835C622.182 48.139 624.297 48.4005 626.082 50.366C626.637 53.475 625.592 54.621 622.622 55.216C598.297 55.7555 573.212 54.9245 548.817 55.344C546.117 55.39 542.702 55.5404 540.867 53.6724C540.177 51.9894 540.202 52.1175 540.607 50.339C541.652 48.8875 541.907 48.9405 543.532 48.219Z" fill="#B6B5B4"/>
<path d="M560.216 31.0921C568.551 31.0406 621.671 29.8361 624.986 31.9006C626.121 32.6086 626.196 33.1581 626.451 34.3526C625.956 36.4061 625.821 36.4571 624.271 38.0061C617.631 38.2186 561.676 39.0256 559.506 37.2601C558.571 36.4966 558.031 35.7796 558.076 34.5276C558.136 33.0861 559.276 32.0466 560.216 31.0921Z" fill="#B6B5B4"/>
<path d="M1.86151 128.629C9.65751 127.913 52.8895 127.602 59.2815 128.995C60.902 130.284 60.388 129.5 61.0235 131.33C60.796 133.431 60.767 133.319 59.4095 135.004C53.721 135.398 4.00951 136.115 1.59401 134.596C0.391509 133.84 0.3385 133.3 0 132.019C0.377 130.027 0.522511 130.074 1.86151 128.629Z" fill="#B6B5B4"/>
<path d="M28.6438 145.148C34.9198 144.933 72.3559 144.114 75.4269 145.95C76.3169 146.483 76.8693 147.294 76.8743 148.348C76.8818 149.946 75.9618 150.865 74.9448 151.952C67.9408 152.136 30.7803 152.813 27.4228 151.081C25.3663 148.533 26.4658 147.072 28.6438 145.148Z" fill="#B6B5B4"/>
<path d="M20.7633 308.734C26.1443 307.884 31.1908 311.569 32.0193 316.954C32.8483 322.334 29.1433 327.369 23.7563 328.174C18.3988 328.979 13.4003 325.299 12.5758 319.944C11.7518 314.589 15.4123 309.579 20.7633 308.734Z" fill="#B6B5B4"/>
<path d="M21.2155 313.343C23.0735 312.943 25.0031 313.578 26.2606 315.003C27.5176 316.428 27.9066 318.418 27.2776 320.213C26.6486 322.008 25.0996 323.323 23.2276 323.648C20.4096 324.143 17.7145 322.288 17.1665 319.483C16.6185 316.673 18.4185 313.943 21.2155 313.343Z" fill="white"/>
<path d="M643.232 300.745C644.807 300.835 644.717 300.796 646.142 301.458C647.747 303.839 647.252 307.229 647.202 310.219H649.237C652.127 310.189 653.957 309.744 655.972 312.154C655.772 316.024 649.792 315.139 647.007 315.079C646.997 318.459 647.062 321.279 646.567 324.629C644.497 324.649 644.337 324.804 642.997 323.744C641.987 321.549 642.422 317.734 642.487 315.114C639.897 315.159 633.107 316.049 633.957 311.869C636.582 309.514 638.792 310.184 642.492 310.304C642.462 307.124 642.167 303.669 643.232 300.745Z" fill="#B6B5B4"/>
<path d="M249.56 16.792C251.753 16.972 251.542 16.6175 253.05 17.718C254.103 19.9025 253.818 23.462 253.93 26.1935C256.58 26.265 262.161 25.7455 262.294 29.3385C260.046 31.7335 257.037 31.1285 253.958 31.0665C253.908 34.6055 254 37.4625 253.232 40.9285C251.004 40.6445 251.424 41.028 249.95 39.801C248.985 37.357 249.348 33.9565 249.294 31.0595C245.989 31.121 242.79 31.8315 240.433 29.2495C240.576 25.59 246.636 26.392 249.262 26.4215C249.419 23.274 249.465 19.9565 249.56 16.792Z" fill="#B6B5B4"/>
<path d="M417.721 0.311065C421.541 -0.825435 425.576 1.24507 426.876 5.00857C428.176 8.77207 426.286 12.8931 422.581 14.3576C420.041 15.3636 417.151 14.8931 415.056 13.1316C412.966 11.3706 412.006 8.60357 412.561 5.92557C413.121 3.24807 415.101 1.09206 417.721 0.311065Z" fill="#B6B5B4"/>
<path d="M418.421 4.32267C419.561 3.78368 420.906 3.90317 421.936 4.63467C422.966 5.36567 423.521 6.59567 423.386 7.85167C423.256 9.10717 422.456 10.1937 421.296 10.6927C419.541 11.4472 417.511 10.6582 416.726 8.92018C415.941 7.18218 416.696 5.13668 418.421 4.32267Z" fill="white"/>
<path d="M122.329 364.329C124.751 363.504 127.432 364.064 129.319 365.794C131.205 367.524 131.995 370.149 131.378 372.634C130.762 375.119 128.837 377.064 126.361 377.714C122.721 378.664 118.981 376.569 117.895 372.964C116.81 369.364 118.769 365.549 122.329 364.329Z" fill="#B6B5B4"/>
<path d="M123.028 368.344C124.517 367.459 126.442 367.939 127.342 369.419C128.241 370.899 127.782 372.829 126.31 373.744C125.346 374.344 124.133 374.379 123.134 373.834C122.135 373.294 121.505 372.254 121.483 371.119C121.461 369.984 122.051 368.924 123.028 368.344Z" fill="white"/>
<path d="M541.011 345.854C544.666 345.359 548.021 347.929 548.501 351.584C548.981 355.239 546.401 358.589 542.746 359.059C539.106 359.529 535.771 356.964 535.291 353.324C534.816 349.684 537.371 346.339 541.011 345.854Z" fill="#B6B5B4"/>
<path d="M540.71 349.819C542.14 349.129 543.86 349.723 544.55 351.153C545.245 352.583 544.65 354.304 543.22 354.999C541.79 355.694 540.065 355.098 539.37 353.663C538.675 352.233 539.275 350.509 540.71 349.819Z" fill="white"/>
</svg>
