<svg preserveAspectRatio="xMidYMid meet" width="100%" height="100%" overflow="visible" style="display: block;" viewBox="0 0 583 200" fill="none" xmlns="http://www.w3.org/2000/svg">
<path id="Vector" d="M0 62.7483C0 62.7483 12.9274 10.6026 55.3592 10.8146C97.791 11.0267 106.584 42.0047 106.584 42.0047C106.584 42.0047 128.816 34.7371 146.154 45.6799C163.493 56.6227 160.755 93.6541 160.755 93.6541C160.755 93.6541 192.693 83.069 209.574 97.2046C226.455 111.339 225.999 141.434 225.999 141.434C225.999 141.434 236.025 135.051 252.913 137.33C269.8 139.609 276.189 165.144 276.189 165.144C276.189 165.144 279.888 108.647 320.699 100.19C361.509 91.7338 380.663 121.827 380.663 121.827C380.663 121.827 378.848 96.9913 403.486 87.9793C428.124 78.9674 437.25 87.9793 437.25 87.9793C437.25 87.9793 434.503 49.3294 470.096 39.7534C505.69 30.1786 520.825 58.0454 520.825 58.0454C520.825 58.0454 527.995 7.21052 583 0V200H0V62.7483Z" fill="var(--fill-0, #779BC6)"/>
</svg>
