<svg preserveAspectRatio="xMidYMid meet" width="100%" height="100%" overflow="visible" style="display: block;" viewBox="0 0 432 200" fill="none" xmlns="http://www.w3.org/2000/svg">
<g id="stair 1 [Vectorized]" clip-path="url(#clip0_0_21)">
<path id="Vector" d="M62.3107 32.6104C62.0238 29.402 60.9952 10.0448 62.4065 8.63079C65.0736 8.01175 68.1597 7.93379 70.9118 7.59696C77.9666 6.73355 85.1388 6.46893 92.1851 5.72473L125.687 2.29307C128.251 2.04396 130.829 1.79489 133.394 1.54001C148.287 0.0602146 163.29 0.579317 178.278 0.605677L241.436 0.661195L362.53 1.03553C381.192 1.10932 400.778 0.699929 419.352 1.14625C423.273 1.01656 427.579 1.10696 431.504 1.24072C430.938 13.005 431.949 27.3934 431.944 39.4243L431.915 107.522L431.901 168.771L431.92 188.646C431.927 192.196 431.836 196.648 432.021 200.152H237.976H-58.8954V192.541C-54.0562 190.861 -44.0386 188.164 -39.7888 186.279C-40.009 183.436 -40.2497 163.655 -39.5096 162.134C-38.4799 160.017 -23.7197 157.013 -20.8279 155.943C-20.3342 155.76 -19.5301 155.452 -19.3648 154.883C-18.9435 153.434 -19.259 151.482 -19.2792 149.964C-19.3262 146.44 -19.9529 133.104 -18.9267 130.866C-17.9986 130.022 -1.44055 125.202 0.904114 124.575C0.581158 121.358 0.673539 117.027 0.663461 113.736C0.649785 109.191 0.57948 104.418 0.707606 99.8891C6.51024 97.7022 15.1257 95.9859 21.4749 93.7466C21.46 86.2852 21.2169 78.7533 21.3679 71.2787C21.4151 68.9473 22.4008 68.7699 24.6687 68.2488C30.229 66.9711 36.2605 64.4018 41.859 63.4907C41.1622 59.6514 41.8698 53.5567 41.829 49.5492C41.8031 47.0147 41.3784 40.9068 42.0761 38.9471C43.647 37.6176 59.0056 33.8754 62.3107 32.6104Z" fill="var(--fill-0, white)"/>
<path id="Vector_2" d="M418.857 0.994185C422.777 0.8645 427.723 0.880289 431.648 1.01405C431.653 -11.0169 431.082 12.7783 431.648 1.01405L431.42 107.37L431.406 168.619L431.425 188.494C431.432 192.044 431.341 196.495 431.526 200H237.481C237.496 197.589 237.469 195.177 237.404 192.766C239.132 192.367 242.424 191.214 244.207 190.649C248.631 189.275 253.036 187.836 257.42 186.332L257.408 161.784C264.023 159.191 271.197 157.473 278.067 155.515C277.733 148.038 277.899 138.108 278.119 130.634C283.861 129.369 292.312 126.359 298.322 124.617C298.432 117.462 297.864 106.703 298.651 100.009C300.537 99.5451 303.366 98.4715 305.4 97.86C309.762 96.5497 314.566 95.3399 318.741 93.6135C319.077 86.1511 318.695 76.7514 318.743 69.0809C325.512 67.4022 332.432 65.12 339.253 63.3298C339.423 55.371 339.246 46.5607 339.236 38.5423C345.964 36.5813 352.711 34.6866 359.475 32.8588C359.813 25.4756 359.532 16.0052 359.549 8.39298C363.412 8.43003 371.887 7.1865 376.203 6.81744C386.871 5.90646 397.524 4.80696 408.153 3.51945C412.774 2.99586 420.488 2.34352 424.858 1.46596C423.313 1.20043 419.692 1.35008 418.857 0.994185Z" fill="var(--fill-0, #DADADA)"/>
<rect id="Rectangle 27" x="-20.1067" y="130.952" width="298.8" height="23.8095" fill="var(--fill-0, #E9E8EB)"/>
<rect id="Rectangle 28" x="-40.344" y="163.095" width="298.8" height="23.8095" fill="var(--fill-0, #E9E8EB)"/>
<rect id="Rectangle 29" x="0.130843" y="100" width="298.8" height="23.8095" fill="var(--fill-0, #E9E8EB)"/>
<rect id="Rectangle 30" x="20.3684" y="69.0476" width="298.8" height="23.8095" fill="var(--fill-0, #E9E8EB)"/>
<rect id="Rectangle 31" x="40.6056" y="38.0953" width="298.8" height="23.8095" fill="var(--fill-0, #E9E8EB)"/>
<rect id="Rectangle 32" x="62.0336" y="8.3333" width="297.61" height="23.8095" fill="var(--fill-0, #E9E8EB)"/>
</g>
<defs>
<clipPath id="clip0_0_21">
<rect width="432" height="200" fill="white"/>
</clipPath>
</defs>
</svg>
