<svg preserveAspectRatio="xMidYMid meet" width="266.956" height="372" overflow="visible" style="display: block;" viewBox="0 0 266.956 372" fill="none" xmlns="http://www.w3.org/2000/svg">
<g id="Frame" filter="url(#filter0_d_0_32)">
<g clip-path="url(#clip0_0_32)">
<path id="Vector" d="M242.956 20H24V344H242.956V20Z" fill="var(--fill-0, white)"/>
<path id="Vector_2" d="M122.07 139.865H30.8079V244.914H122.07V139.865Z" fill="var(--fill-0, white)" stroke="var(--stroke-0, #D9D9D9)"/>
<path id="Vector_3" d="M210.94 30.774H63.3754V35.7764H210.94V30.774Z" fill="var(--fill-0, #D9D9D9)"/>
<path id="Vector_4" d="M210.94 40.7791H63.3752V45.7815H210.94V40.7791Z" fill="var(--fill-0, #D9D9D9)"/>
<path id="Vector_5" d="M220.508 64.2518H30.6239V69.2542H220.508V64.2518Z" fill="var(--fill-0, #D9D9D9)"/>
<path id="Vector_6" d="M154.638 76.9499H30.6242V81.9523H154.638V76.9499Z" fill="var(--fill-0, #D9D9D9)"/>
<path id="Vector_7" d="M79.1989 89.6485H30.6239V94.6508H79.1989V89.6485Z" fill="var(--fill-0, #D9D9D9)"/>
<path id="Vector_8" d="M79.1991 309.368H30.624V314.37H79.1991V309.368Z" fill="var(--fill-0, #D9D9D9)"/>
<path id="Vector_9" d="M79.1989 123.126H30.6239V128.128H79.1989V123.126Z" fill="var(--fill-0, #D9D9D9)"/>
<path id="Vector_10" d="M225.476 139.865H30.8079V244.914H225.476V139.865Z" fill="var(--fill-0, white)" stroke="var(--stroke-0, #D9D9D9)"/>
<path id="Vector_11" d="M122.07 139.865H30.8079V157.565H122.07V139.865Z" fill="var(--fill-0, white)" stroke="var(--stroke-0, #D9D9D9)"/>
<path id="Vector_12" d="M95.7586 146.214H47.1835V151.216H95.7586V146.214Z" fill="var(--fill-0, #D9D9D9)"/>
<path id="Vector_13" d="M85.4545 163.915H36.8794V168.917H85.4545V163.915Z" fill="var(--fill-0, #D9D9D9)"/>
<path id="Vector_14" d="M112.319 175.073H47.1839V180.076H112.319V175.073Z" fill="var(--fill-0, #D9D9D9)"/>
<path id="Vector_15" d="M112.318 184.309H47.1835V189.311H112.318V184.309Z" fill="var(--fill-0, #D9D9D9)"/>
<path id="Vector_16" d="M112.318 193.544H47.1837V198.546H112.318V193.544Z" fill="var(--fill-0, #D9D9D9)"/>
<path id="Vector_17" d="M102.014 206.242H36.8797V211.245H102.014V206.242Z" fill="var(--fill-0, #D9D9D9)"/>
<path id="Vector_18" d="M112.318 217.402H47.1834V222.404H112.318V217.402Z" fill="var(--fill-0, #D9D9D9)"/>
<path id="Vector_19" d="M112.318 228.561H47.1833V233.563H112.318V228.561Z" fill="var(--fill-0, #D9D9D9)"/>
<path id="Vector_20" d="M122.438 139.865H172.485V244.914H122.438V139.865Z" fill="var(--fill-0, white)" stroke="var(--stroke-0, #D9D9D9)"/>
<path id="Vector_21" d="M225.476 139.865H172.853V244.915H225.476V139.865Z" fill="var(--fill-0, white)" stroke="var(--stroke-0, #D9D9D9)"/>
<path id="Vector_22" d="M149.853 89.6485H101.278V94.6509H149.853V89.6485Z" fill="var(--fill-0, #D9D9D9)"/>
<path id="Vector_23" d="M149.854 309.368H101.279V314.371H149.854V309.368Z" fill="var(--fill-0, #D9D9D9)"/>
<path id="Vector_24" d="M225.66 89.6485H177.085V94.6508H225.66V89.6485Z" fill="var(--fill-0, #D9D9D9)"/>
<path id="Vector_25" d="M189.597 320.912H188.493V333.995H189.597V320.912Z" fill="var(--fill-0, #353535)"/>
<path id="Vector_26" d="M191.069 320.912H189.965V333.995H191.069V320.912Z" fill="var(--fill-0, #353535)"/>
<path id="Vector_27" d="M191.805 320.912H191.437V333.995H191.805V320.912Z" fill="var(--fill-0, #353535)"/>
<path id="Vector_28" d="M195.116 320.912H192.172V333.995H195.116V320.912Z" fill="var(--fill-0, #353535)"/>
<path id="Vector_29" d="M196.589 320.912H195.485V333.995H196.589V320.912Z" fill="var(--fill-0, #353535)"/>
<path id="Vector_30" d="M198.061 320.912H196.957V333.996H198.061V320.912Z" fill="var(--fill-0, #353535)"/>
<path id="Vector_31" d="M199.532 320.912H198.428V333.996H199.532V320.912Z" fill="var(--fill-0, #353535)"/>
<path id="Vector_32" d="M200.269 320.912H199.901V333.995H200.269V320.912Z" fill="var(--fill-0, #353535)"/>
<path id="Vector_33" d="M203.581 320.912H200.637V333.995H203.581V320.912Z" fill="var(--fill-0, #353535)"/>
<path id="Vector_34" d="M205.053 320.912H203.949V333.995H205.053V320.912Z" fill="var(--fill-0, #353535)"/>
<path id="Vector_35" d="M220.876 320.912H221.98V333.995H220.876V320.912Z" fill="var(--fill-0, #353535)"/>
<path id="Vector_36" d="M219.404 320.912H220.508V333.995H219.404V320.912Z" fill="var(--fill-0, #353535)"/>
<path id="Vector_37" d="M218.668 320.912H219.036V333.995H218.668V320.912Z" fill="var(--fill-0, #353535)"/>
<path id="Vector_38" d="M215.356 320.912H218.3V333.995H215.356V320.912Z" fill="var(--fill-0, #353535)"/>
<path id="Vector_39" d="M213.884 320.912H214.988V333.995H213.884V320.912Z" fill="var(--fill-0, #353535)"/>
<path id="Vector_40" d="M212.413 320.912H213.517V333.995H212.413V320.912Z" fill="var(--fill-0, #353535)"/>
<path id="Vector_41" d="M210.94 320.912H212.044V333.996H210.94V320.912Z" fill="var(--fill-0, #353535)"/>
<path id="Vector_42" d="M210.204 320.912H210.572V333.995H210.204V320.912Z" fill="var(--fill-0, #353535)"/>
<path id="Vector_43" d="M206.892 320.912H209.836V333.995H206.892V320.912Z" fill="var(--fill-0, #353535)"/>
<path id="Vector_44" d="M205.42 320.912H206.524V333.995H205.42V320.912Z" fill="var(--fill-0, #353535)"/>
<path id="Vector_45" d="M122.806 139.865H172.485V157.565H122.806V139.865Z" fill="var(--fill-0, white)" stroke="var(--stroke-0, #D9D9D9)"/>
<path id="Vector_46" d="M122.438 227.213H172.485V244.914H122.438V227.213Z" fill="var(--fill-0, white)" stroke="var(--stroke-0, #D9D9D9)"/>
<path id="Vector_47" d="M161.63 146.213H134.398V151.216H161.63V146.213Z" fill="var(--fill-0, #D9D9D9)"/>
<path id="Vector_48" d="M164.725 233.512H129.034V238.515H164.725V233.512Z" fill="var(--fill-0, #D9D9D9)"/>
<path id="Vector_49" d="M217.564 260.884H157.949V265.886H217.564V260.884Z" fill="var(--fill-0, #D9D9D9)"/>
<path id="Vector_50" d="M90.2387 282.432H30.6239V287.435H90.2387V282.432Z" fill="var(--fill-0, #D9D9D9)"/>
<path id="Vector_51" d="M180.765 291.668H30.6236V296.67H180.765V291.668Z" fill="var(--fill-0, #D9D9D9)"/>
<path id="Vector_52" d="M225.476 139.865H172.853V157.566H225.476V139.865Z" fill="var(--fill-0, white)" stroke="var(--stroke-0, #D9D9D9)"/>
<path id="Vector_53" d="M225.476 227.214H172.853V244.914H225.476V227.214Z" fill="var(--fill-0, white)" stroke="var(--stroke-0, #D9D9D9)"/>
<path id="Vector_54" d="M212.044 146.214H184.813V151.216H212.044V146.214Z" fill="var(--fill-0, #D9D9D9)"/>
<path id="Vector_55" d="M215.14 233.513H181.324V238.515H215.14V233.513Z" fill="var(--fill-0, #D9D9D9)"/>
</g>
</g>
<defs>
<filter id="filter0_d_0_32" x="0" y="0" width="266.956" height="372" filterUnits="userSpaceOnUse" color-interpolation-filters="sRGB">
<feFlood flood-opacity="0" result="BackgroundImageFix"/>
<feColorMatrix in="SourceAlpha" type="matrix" values="0 0 0 0 0 0 0 0 0 0 0 0 0 0 0 0 0 0 127 0" result="hardAlpha"/>
<feOffset dy="4"/>
<feGaussianBlur stdDeviation="12"/>
<feComposite in2="hardAlpha" operator="out"/>
<feColorMatrix type="matrix" values="0 0 0 0 0 0 0 0 0 0 0 0 0 0 0 0 0 0 0.12 0"/>
<feBlend mode="normal" in2="BackgroundImageFix" result="effect1_dropShadow_0_32"/>
<feBlend mode="normal" in="SourceGraphic" in2="effect1_dropShadow_0_32" result="shape"/>
</filter>
<clipPath id="clip0_0_32">
<rect x="24" y="20" width="218.956" height="324" rx="4" fill="white"/>
</clipPath>
</defs>
</svg>
