<svg preserveAspectRatio="xMidYMid meet" width="1440" height="558.477" overflow="visible" style="display: block;" viewBox="0 0 1440 558.477" fill="none" xmlns="http://www.w3.org/2000/svg">
<g id="Group 253">
<path id="Vector" d="M0 155.088C0 155.088 31.9305 26.2051 136.736 26.7293C241.542 27.2534 263.26 103.818 263.26 103.818C263.26 103.818 318.173 85.8556 360.999 112.902C403.824 139.948 397.062 231.474 397.062 231.474C397.062 231.474 475.948 205.312 517.645 240.249C559.341 275.184 558.215 349.565 558.215 349.565C558.215 349.565 582.977 333.789 624.691 339.422C666.402 345.055 682.182 408.167 682.182 408.167C682.182 408.167 691.32 268.531 792.123 247.628C892.923 226.728 940.232 301.106 940.232 301.106C940.232 301.106 935.748 239.722 996.605 217.448C1057.46 195.174 1080 217.448 1080 217.448C1080 217.448 1073.22 121.922 1161.13 98.2539C1249.05 74.589 1286.43 143.464 1286.43 143.464C1286.43 143.464 1304.14 17.8214 1440 0V494.317H0V155.088Z" fill="url(#paint0_linear_0_293)"/>
<path id="Vector_2" d="M0 558.477H527.69C527.69 558.477 521.081 471.202 433.151 505.01C433.151 505.01 451.157 373.887 380.157 348.73C309.156 323.573 263.26 389.056 263.26 389.056C263.26 389.056 217.875 270.604 118.705 285.255C19.535 299.903 0 385.292 0 385.292V558.477Z" fill="url(#paint1_linear_0_293)"/>
<path id="Vector_3" d="M720 524.353H1440V341.839C1440 341.839 1438.11 219.411 1340.2 205.405C1242.28 191.4 1228.75 286.696 1228.75 286.696C1228.75 286.696 1176.92 243.991 1112.31 268.034C1047.69 292.076 1058.21 398.76 1058.21 398.76C1058.21 398.76 993.009 360.911 942.218 396.363C891.423 431.816 901.469 483.282 901.469 483.282C901.469 483.282 751.429 441.084 720 524.353Z" fill="url(#paint2_linear_0_293)"/>
</g>
<defs>
<linearGradient id="paint0_linear_0_293" x1="720" y1="0" x2="720" y2="494.317" gradientUnits="userSpaceOnUse">
<stop stop-color="#779BC6" stop-opacity="0.5"/>
<stop offset="1" stop-color="white" stop-opacity="0"/>
</linearGradient>
<linearGradient id="paint1_linear_0_293" x1="263.845" y1="284" x2="263.845" y2="558.477" gradientUnits="userSpaceOnUse">
<stop stop-color="#A2BBE0" stop-opacity="0.5"/>
<stop offset="1" stop-color="white" stop-opacity="0"/>
</linearGradient>
<linearGradient id="paint2_linear_0_293" x1="1080" y1="204" x2="1080" y2="524.353" gradientUnits="userSpaceOnUse">
<stop stop-color="#A2BBE0" stop-opacity="0.5"/>
<stop offset="1" stop-color="white" stop-opacity="0"/>
</linearGradient>
</defs>
</svg>
