<svg preserveAspectRatio="xMidYMid meet" width="147.014" height="124" overflow="visible" style="display: block;" viewBox="0 0 147.014 124" fill="none" xmlns="http://www.w3.org/2000/svg">
<g id="Group 254">
<path id="Vector" d="M73.5462 28.6112C78.8514 28.4246 84.1531 29.0645 89.2613 30.5081C92.4869 31.4447 104.716 36.4035 103.203 40.8944C102.008 40.9063 95.339 39.4139 93.3486 39.1642C87.5186 38.1974 81.8756 36.5521 76.135 35.1589C71.9355 34.1398 64.7255 33.5949 60.9736 31.7701C62.2075 30.2845 71.3534 28.803 73.5462 28.6112Z" fill="var(--fill-0, #84C386)"/>
<path id="Vector_2" d="M13.8563 110.301C16.0224 107.844 16.4667 106.152 18.026 103.337L24.8517 90.8591L29.7865 81.9826C30.0606 81.4784 32.6784 77.0354 32.171 76.5889C28.0367 72.9509 1.42777 60.8734 0 57.6743C0.594804 55.4834 11.7693 49.7147 14.2794 48.259L46.4458 29.943L82.0581 9.0019C86.4753 6.38324 90.7965 3.50841 95.2825 1.0204C96.2917 0.460635 97.5123 -0.103314 98.7015 0.0161701C100.107 0.157506 129.975 17.6317 134.508 20.166C137.773 21.9911 141.283 23.5337 144.458 25.4951C145.066 25.8708 145.598 26.3378 146.014 26.9208C147.563 29.0911 146.955 32.7704 146.541 35.2485C145.464 35.7873 140.381 39.6145 140.16 40.5706L140.364 40.8091C139.149 41.278 133.986 44.3679 132.872 45.1936C132.361 49.7079 129.62 52.9198 127.369 56.7614L119.988 69.5844C118.039 72.9574 116.33 76.6237 114.279 80.0318C105.766 94.1795 98.8006 109.354 90.1276 123.319C89.7303 123.959 87.5187 124.064 86.8745 123.971C62.7743 120.499 37.9429 113.131 13.8563 110.301Z" fill="var(--fill-0, #91CE94)"/>
<path id="Vector_3" d="M69.2762 60.6814C69.3141 60.6756 69.3518 60.6698 69.3895 60.664C79.5032 59.8259 90.1379 61.4862 98.3412 67.8079C104.158 72.2909 104.916 80.3921 100.153 85.9416C94.8373 92.1353 86.9967 94.7591 79.0363 95.4067C68.454 95.8214 58.6109 94.9369 50.0677 88.2069C44.2822 83.6493 42.634 77.7614 46.866 71.5872C51.5384 64.7713 61.6098 61.3962 69.2762 60.6814Z" fill="var(--fill-0, #A0DE9E)"/>
<path id="Vector_4" d="M69.3222 62.0543C79.759 60.7037 99.4283 64.3517 101.947 77.2567C102.415 79.6582 100.887 82.6946 99.4246 84.6115C94.929 90.505 86.7554 93.0488 79.7274 94.041C69.4778 94.4213 61.8842 93.7011 52.8058 87.8004C50.0253 85.8765 47.3145 83.0577 46.775 79.6394C44.9612 68.1422 60.4696 63.3847 69.3222 62.0543Z" fill="var(--fill-0, #84C386)"/>
<path id="Vector_5" d="M55.999 33.7038L56.6434 33.7742L56.8933 34.0976C56.9126 36.003 51.1908 45.1276 49.9024 47.4245C49.553 47.5798 49.7349 47.5226 49.2646 47.4305C48.8758 46.7989 49.021 46.331 49.0047 45.6313C48.8817 40.3545 51.8821 36.6086 55.999 33.7038Z" fill="var(--fill-0, #84C386)"/>
<path id="Vector_6" d="M38.7188 62.4128C39.0524 62.4898 39.0319 62.5228 39.3334 62.7248L39.3101 63.3504C38.5518 64.6898 33.6109 67.2854 32.0806 67.9565C31.7273 67.9489 31.9041 67.9761 31.5439 67.6711L31.5874 67.109C32.4182 65.7421 37.1467 63.2278 38.7188 62.4128Z" fill="var(--fill-0, #A0DE9E)"/>
<path id="Vector_7" d="M33.1474 60.0209C33.6815 60.0161 33.6524 60.0179 34.1198 60.2883L34.1905 60.7555C33.3356 62.1649 28.9895 64.8521 27.4567 65.8722C27.1371 65.8187 26.8265 65.6695 26.5234 65.5454L26.4199 65.1099C27.2988 63.499 31.281 61.8109 33.0725 60.0937L33.1474 60.0209Z" fill="var(--fill-0, #84C386)"/>
<path id="Vector_8" d="M54.8651 104.667C56.1262 105.888 52.8521 110.606 51.8597 111.785C51.6573 111.535 51.6464 111.363 51.5468 111.042C51.7371 109.151 53.7166 106.216 54.8651 104.667Z" fill="var(--fill-0, #A0DE9E)"/>
<path id="Vector_9" d="M96.8259 6.29214C98.0588 6.16429 99.9445 6.07038 100.786 7.11133L100.587 7.4305C99.6123 7.5544 99.7794 7.44259 98.7444 6.96651C96.6591 7.36262 96.3015 7.59694 94.2287 7.21896L94.1299 6.9421C95.0458 6.40675 95.7816 6.4007 96.8259 6.29214Z" fill="var(--fill-0, #84C386)"/>
<path id="Vector_10" d="M110.297 49.3195C110.533 49.7466 110.828 51.3359 110.949 51.8991L114.342 54.4095L114.372 54.7351C113.415 55.0583 111.634 54.1933 111.046 53.3248C109.995 51.7706 110.01 51.1078 110.297 49.3195Z" fill="var(--fill-0, #84C386)"/>
<path id="Vector_11" d="M65.2148 41.9207C65.29 41.0599 65.3833 38.4864 66.066 38.04C66.4036 38.9146 66.1761 40.38 66.0977 41.3668C67.3299 41.3417 68.0013 41.3284 69.2361 41.1248L70.0736 41.1266C68.5084 42.1848 67.1438 41.9326 65.2148 41.9207Z" fill="var(--fill-0, #84C386)"/>
<path id="Vector_12" d="M48.5932 103.72L48.8863 104.016C49.0324 104.895 46.9899 109.027 46.4944 110.049C45.4303 109.39 48.1009 104.628 48.5932 103.72Z" fill="var(--fill-0, #84C386)"/>
<path id="Vector_13" d="M28.2896 105.175C26.7103 103.551 24.528 106.405 23.6407 106.632C23.0194 106.162 23.1094 106.372 22.9072 105.743L23.235 105.327C25.0919 104.405 26.4323 104.319 28.4385 104.365L28.2896 105.175Z" fill="var(--fill-0, #84C386)"/>
<path id="Vector_14" d="M32.2868 106.036C33.1128 106.326 33.7128 106.545 33.9778 107.395L33.5551 107.857C32.6899 107.946 32.2484 108.056 31.6133 107.633C31.6642 106.742 31.7429 106.889 32.2868 106.036Z" fill="var(--fill-0, #84C386)"/>
<path id="Vector_15" d="M108.143 9.64461C108.878 9.83383 109.396 9.90241 109.962 10.4075L109.899 10.7246L108.975 11.0875C108.306 11.0547 107.647 11.0935 107.099 10.7186C107.271 10.0719 107.468 10.1202 108.143 9.64461Z" fill="var(--fill-0, #84C386)"/>
<path id="Vector_16" d="M102.967 8.4157C103.397 8.75184 103.261 8.59446 103.429 9.19816C102.955 10.5941 101.009 10.6608 99.8166 10.535L99.8694 10.138C101.77 9.96969 101.994 10.0438 102.967 8.4157Z" fill="var(--fill-0, #84C386)"/>
<path id="Vector_17" d="M28.4374 104.365C29.3111 105.19 29.0771 107.015 28.503 107.99C28.2119 107.464 28.288 105.845 28.2885 105.175L28.4374 104.365Z" fill="var(--fill-0, #84C386)"/>
<path id="Vector_18" d="M69.2399 41.1254C69.2418 40.3618 69.138 39.213 69.5705 38.6374C70.1665 39.1158 70.0988 40.405 70.0774 41.1273L69.2399 41.1254Z" fill="var(--fill-0, #84C386)"/>
</g>
</svg>
