<svg preserveAspectRatio="xMidYMid meet" width="88.443" height="49.1682" overflow="visible" style="display: block;" viewBox="0 0 88.443 49.1682" fill="none" xmlns="http://www.w3.org/2000/svg">
<g id="Group 256">
<path id="Vector" d="M2.66115 10.3752C2.56286 7.95747 2.91356 6.5441 4.44968 4.61499C6.4489 2.10414 11.5494 0.131043 14.7249 0.0775948C20.1948 -0.0142748 26.9692 -0.518239 31.5882 2.98598C32.9937 4.05216 33.669 5.25529 34.9352 6.37183C45.4471 12.1344 39.2566 19.188 30.8211 21.2761C27.9123 21.9962 26.0839 21.7339 23.2354 21.8967C22.6132 22.0389 20.1779 22.0405 19.4901 22.0165C14.2145 21.8326 8.17076 20.5249 4.32782 16.6417C2.57108 14.8666 2.60627 12.7389 2.66115 10.3752Z" fill="var(--fill-0, #FCD862)"/>
<path id="Vector_2" d="M34.9352 6.37183C45.4471 12.1344 39.2566 19.188 30.8211 21.2761C27.9123 21.9962 26.0839 21.7339 23.2354 21.8967C22.6132 22.0389 20.1779 22.0405 19.4901 22.0165C14.2145 21.8326 8.17076 20.5249 4.32782 16.6417C2.57108 14.8666 2.60627 12.7389 2.66115 10.3752C3.0458 11.5258 5.29371 13.5727 6.37929 14.2818C13.468 18.9116 24.5159 18.6864 31.6867 14.347C32.5303 13.8365 34.032 11.4118 34.658 11.2057C34.9782 11.4377 34.8761 11.3526 35.0541 11.7559C34.8983 10.0234 34.9375 8.12246 34.9352 6.37183Z" fill="var(--fill-0, #FCB92A)"/>
<g id="Vector_3">
</g>
<path id="Vector_4" d="M23.4144 12.7415C24.8938 13.2277 24.8861 13.6021 26.1865 14.2119C26.7588 14.2547 27.4684 13.8782 28.0189 13.6433L28.1788 13.7899C27.8929 17.0704 15.1792 16.0873 12.7854 15.5883C7.70964 14.4742 1.80252 9.09185 7.78809 4.58389C11.2842 1.95096 17.9146 -0.117263 22.1792 1.11562C24.9344 1.91208 33.5786 4.89327 32.4591 8.94266C32.0326 9.01176 31.6806 8.439 31.3924 8.09399C26.6856 2.46143 17.6155 2.45307 11.149 4.4491C10.7802 4.56313 10.7489 4.74346 10.6476 5.04788C10.7806 5.51033 11.2214 5.76285 11.5441 6.09718C12.0005 6.57016 10.5203 7.26407 10.5554 8.09415C10.5827 8.73987 10.4152 8.71027 10.8234 9.22803C11.1735 9.26986 12.0129 9.40728 12.2893 9.19643C13.4586 8.30469 13.9732 7.0055 15.3185 6.32352C16.3947 5.77788 17.992 5.99974 18.1848 7.36632C17.8041 8.52871 16.1264 8.47913 15.2689 10.7822C15.4836 11.6464 15.6014 11.8204 16.0766 12.5866C16.4847 12.7941 16.896 12.9953 17.3104 13.1902C19.4689 14.1974 21.2825 13.5115 23.4144 12.7415Z" fill="var(--fill-0, #FDC52B)"/>
<path id="Vector_5" d="M10.823 9.22776C11.1731 9.26959 12.0124 9.40701 12.2889 9.19616C13.4582 8.30442 13.9727 7.00523 15.318 6.32325C16.3943 5.77761 17.9915 5.99947 18.1844 7.36605C17.8036 8.52844 16.1259 8.47886 15.2684 10.782C13.8008 10.7153 12.01 11.5773 10.6839 10.4602C10.3008 9.8112 10.3213 9.67704 10.823 9.22776Z" fill="var(--fill-0, #FCB92A)"/>
<path id="Vector_6" d="M22.1856 6.75342C22.7956 6.97418 23.0453 7.97855 23.2632 8.56045C22.665 10.0448 21.6101 11.8677 19.8224 11.9937C19.3152 11.8978 18.7734 11.8571 18.4814 11.4688C18.9963 10.4282 21.2873 7.56289 22.1856 6.75342Z" fill="var(--fill-0, #FCB92A)"/>
<path id="Vector_7" d="M28.0089 9.40405C28.4739 9.86201 28.9523 10.6791 29.3171 11.2478C28.752 11.817 28.1554 12.7572 27.4551 12.8677C26.7959 12.6193 26.2613 12.4593 25.9395 11.8063C26.0314 10.7334 27.0193 10.5229 28.0089 9.40405Z" fill="var(--fill-0, #FCB92A)"/>
<path id="Vector_8" d="M39.9982 19.9724C40.5073 12.8672 49.7286 11.5204 55.3807 10.9284C59.5486 10.492 65.694 12.2086 69.0355 14.7039C70.213 15.5831 72.0068 18.2061 72.1413 19.673C72.4777 21.9389 72.1926 27.0018 72.2749 29.5822C72.9789 30.1387 76.7078 29.8596 78.1194 30.1534C80.0423 30.5534 81.2253 30.688 83.1555 31.4956C84.9601 32.2509 86.0129 33.9279 87.1819 34.743C88.4935 37.6794 88.7214 38.2615 88.14 41.2871C86.4997 44.3834 83.9322 46.0945 80.5757 47.007C75.6764 48.3409 66.8997 48.6632 62.0112 47.382C61.6172 47.4253 61.2225 47.4641 60.8335 47.461C55.1861 47.5353 51.6555 47.7832 46.3338 45.5864C38.9165 42.5248 39.8968 39.3346 39.8585 32.4118L39.8508 31.4019C39.8935 30.8623 39.8649 30.3404 39.8517 29.8014C39.7725 26.5522 39.6722 23.214 39.9982 19.9724Z" fill="var(--fill-0, #FCD862)"/>
<path id="Vector_9" d="M72.2763 29.582C72.9803 30.1385 76.7092 29.8595 78.1208 30.1532C80.0437 30.5532 81.2267 30.6879 83.1569 31.4955C84.9615 32.2507 86.0143 33.9278 87.1833 34.7428C88.4949 37.6793 88.7228 38.2613 88.1414 41.287C86.5011 44.3833 83.9336 46.0944 80.5771 47.0069C75.6778 48.3408 66.9011 48.663 62.0126 47.3818C61.6186 47.4252 61.2239 47.4639 60.8349 47.4608C55.1875 47.5352 51.6569 47.7831 46.3353 45.5863C38.9179 42.5247 39.8982 39.3345 39.8599 32.4117L41.1218 33.3969C41.3782 33.2277 41.7728 33.1307 42.0762 33.0374C44.6473 36.0941 52.8956 38.0962 56.8019 37.9504C61.643 37.7697 67.8898 36.0529 70.9909 32.0774C71.1572 31.8639 71.54 32.2765 72.1129 31.304C72.149 30.7466 72.2211 30.1424 72.2763 29.582Z" fill="var(--fill-0, #FCB92A)"/>
<g id="Vector_10">
</g>
<path id="Vector_11" d="M42.0736 33.0381C44.6447 36.0948 52.8929 38.0968 56.7993 37.9511C61.6404 37.7704 67.8872 36.0535 70.9882 32.0781C71.1546 31.8646 71.5374 32.2771 72.1103 31.3047C72.103 32.2733 72.1337 33.6837 71.9788 34.6002C71.936 33.711 71.8883 32.8218 71.8355 31.9331C71.4996 32.3487 70.1419 34.2501 69.9741 34.4159C67.5662 36.7963 62.412 38.6863 59.1447 38.893C51.8084 39.357 46.6405 38.0818 41.1191 33.3975C41.3756 33.2284 41.7701 33.1314 42.0736 33.0381Z" fill="var(--fill-0, #FCD862)"/>
<path id="Vector_12" d="M40.2197 36.7719C41.7348 36.6927 42.901 38.3597 44.1321 39.2742C47.5044 41.779 51.8233 42.4783 55.9222 42.5031C60.7364 42.5321 65.5873 41.7494 69.2916 38.4425C69.8588 37.9373 70.4019 37.0947 71.0533 36.7632L71.2437 36.8819L71.2167 37.4084C69.2003 40.0039 69.9566 39.8714 66.6191 41.3983C60.4349 44.2279 53.6799 44.3358 47.3338 41.9517C45.1172 41.1189 41.2098 38.9519 40.2197 36.7719Z" fill="var(--fill-0, #FDC52B)"/>
<path id="Vector_13" d="M72.1413 19.6731C72.4777 21.939 72.1926 27.0019 72.2749 29.5823C72.2197 30.1427 72.1476 30.7469 72.1115 31.3043C71.5386 32.2767 71.1558 31.8642 70.9895 32.0777C67.8884 36.0532 61.6416 37.77 56.8005 37.9507C52.8942 38.0965 44.6459 36.0944 42.0748 33.0377C41.7714 33.131 41.3768 33.228 41.1204 33.3972L39.8585 32.412L39.8508 31.402C39.8935 30.8624 39.8649 30.3405 39.8517 29.8015C39.7725 26.5523 39.6722 23.2142 39.9982 19.9726C40.0357 20.7712 40.0597 21.5704 40.0703 22.37C41.2985 23.6523 43.2453 25.7639 44.807 26.5883C52.5345 30.6672 67.0326 30.2991 71.88 21.8634C72.2769 21.1724 72.1709 20.4593 72.1413 19.6731Z" fill="var(--fill-0, #FCB92A)"/>
<path id="Vector_14" d="M39.8506 31.4016C41.0397 32.0229 41.1385 32.0577 42.0746 33.0373C41.7712 33.1306 41.3766 33.2275 41.1202 33.3967L39.8583 32.4116L39.8506 31.4016Z" fill="var(--fill-0, #FDC52B)"/>
<path id="Vector_15" d="M70.1601 27.9534C70.483 27.5163 70.7464 27.0246 71.2481 26.8948L71.5703 26.9694C71.7222 27.5642 71.4512 27.8477 71.0576 28.2697C64.8241 35.6405 50.328 35.6233 43.0446 30.1207C42.3497 29.387 42.1832 29.2668 41.3291 28.7367L42.0618 28.1291C42.4751 28.5515 42.9435 29.0643 43.417 29.4016C44.1451 29.7031 45.5914 30.7336 46.2674 30.9521C50.3875 32.2822 55.2756 33.758 59.5951 32.8603C62.9706 32.1586 68.1537 30.8487 70.1601 27.9534Z" fill="var(--fill-0, #FCD862)"/>
<path id="Vector_16" d="M41.3283 28.7377C40.8018 28.3344 39.7298 27.6726 40.134 26.94C40.9607 26.8497 41.5015 27.5828 42.061 28.1301L41.3283 28.7377Z" fill="var(--fill-0, #FDC52B)"/>
<path id="Vector_17" d="M57.981 27.4518C53.9807 25.9175 50.2365 27.7592 46.5274 25.5347C43.9843 24.2 41.3941 20.7993 43.3468 17.9321C46.2961 13.602 52.4182 12.4422 57.2756 12.7022C62.4466 12.979 67.5359 14.3025 69.6776 19.4731C69.7795 19.7194 69.706 19.9614 69.5773 20.1641C68.6582 19.9661 67.4126 17.6387 66.012 16.6015C65.779 16.7486 65.7083 16.7288 65.6723 16.9273C65.5158 17.7925 64.8686 18.7733 64.6241 19.5465C64.2894 19.3391 63.2313 18.3151 63.1536 17.9561C62.8726 16.6599 64.4114 16.4441 65.3375 16.2008C63.8108 15.6671 62.6868 15.2324 61.0678 15.1257C59.8229 15.025 55.8454 14.3413 55.6438 16.1083C56.9271 17.3984 60.541 16.8774 60.6589 19.1001C60.4928 19.3179 60.4978 19.4059 60.2638 19.4141C54.5159 19.616 54.004 16.3038 48.0992 19.6017C47.9947 21.1226 48.1522 20.972 48.2827 22.3446C48.3213 22.7493 47.7183 24.1475 47.813 25.0849L48.2108 25.3289C49.0276 24.9569 49.826 24.4551 50.4476 23.8034C51.7916 24.1358 54.6412 24.8693 55.9196 25.3317C56.8179 24.8201 57.4897 23.9817 58.1888 24.0218L57.981 27.4518Z" fill="var(--fill-0, #FDC52B)"/>
<path id="Vector_18" d="M61.0674 15.126C62.2125 14.8219 65.6551 15.4648 66.0116 16.6018C65.7785 16.749 65.7078 16.7292 65.6719 16.9276C65.5153 17.7929 64.8682 18.7737 64.6237 19.5469C64.2889 19.3395 63.2308 18.3154 63.1531 17.9565C62.8722 16.6602 64.4109 16.4444 65.337 16.2012C63.8103 15.6675 62.6863 15.2328 61.0674 15.126Z" fill="var(--fill-0, #FCB92A)"/>
<path id="Vector_19" d="M64.6284 19.7273C67.7703 23.3627 61.3926 24.4244 58.7227 23.8269C57.4526 23.3761 50.7013 22.4667 51.1871 20.6197C52.9553 19.5998 57.4829 21.215 59.3551 21.5684C60.0438 21.6984 61.5373 21.6463 62.2771 21.6312C63.1502 20.7084 63.5782 20.3727 64.6284 19.7273Z" fill="var(--fill-0, #FCB92A)"/>
<path id="Vector_20" d="M0.00103353 37.6002C0.100103 35.2474 0.423203 33.1223 2.36723 31.2581C5.96723 27.8058 11.7674 27.2686 16.5143 26.8067C17.3509 26.7252 19.4325 27.2149 20.4219 27.2792C26.1812 27.6537 28.8579 29.3922 32.6929 33.5253C35.4184 36.1533 35.4535 36.023 37.297 39.5041C37.2604 41.3584 36.4949 43.1237 35.1661 44.4187C33.5311 45.9966 30.4086 47.2872 28.1914 47.8728C27.1821 48.1377 25.6844 48.1625 25.0922 48.9665H20.9202H10.937C9.0787 46.4273 -0.11199 48.4677 0.00103353 37.6002Z" fill="var(--fill-0, #FCD862)"/>
<path id="Vector_21" d="M32.6946 33.5251C35.42 36.1531 35.4552 36.0228 37.2986 39.504C37.262 41.3582 36.4966 43.1236 35.1677 44.4186C33.5327 45.9965 30.4102 47.287 28.193 47.8726C27.1837 48.1375 25.686 48.1623 25.0938 48.9664H10.9386C13.498 49.7929 -0.11037 48.4675 0.00265346 37.6001C5.02234 46.4241 20.8051 46.4551 28.5851 42.1115C30.0924 41.2699 31.9167 38.1051 32.5997 37.92C32.4826 37.0854 32.6487 34.4809 32.6946 33.5251Z" fill="var(--fill-0, #FCB92A)"/>
<g id="Vector_22">
</g>
<path id="Vector_23" d="M7.80945 42.0642C6.30155 41.339 4.46 39.982 3.56729 38.553C2.87054 37.4388 2.6617 36.0879 2.98945 34.8155C4.3817 29.3651 15.9977 27.3967 20.6073 28.6249C23.989 29.5261 27.9965 30.899 29.937 34.0997C30.221 34.5682 30.0293 35.3707 29.8998 35.8564C29.2333 35.7662 27.8697 33.6113 27.2933 33.1403C26.9962 32.8977 26.5992 32.6975 26.255 32.5279C25.8285 33.7239 25.468 34.2478 24.786 35.3317L24.6544 35.406C24.1711 34.6237 23.5725 34.0875 23.4077 33.3477C23.6668 32.4504 25.0082 32.3393 25.868 32.0946C23.8617 31.2896 16.7053 29.2305 15.5724 32.0794C16.4254 33.0514 20.3114 32.9798 20.9976 34.5456C20.9398 35.1126 21.029 34.9182 20.7029 35.3233C18.4161 36.0471 10.6902 31.8739 8.44929 35.798C7.69348 37.1217 9.32712 38.3051 8.93611 38.883C8.27084 39.8661 7.52635 40.2765 8.54851 41.5029L7.80945 42.0642Z" fill="var(--fill-0, #FDC52B)"/>
<path id="Vector_24" d="M24.7834 35.332C25.118 35.8936 25.602 36.6531 25.8643 37.2308L25.1818 38.6923C22.6726 40.1325 21.6143 40.1432 18.7374 39.7689C17.3198 39.1647 10.7937 38.459 11.2223 36.6346C12.7864 35.5946 17.6812 37.2453 19.5067 37.5251C20.613 37.6946 21.5102 37.6049 22.6217 37.4788C23.3254 36.7724 24.2 36.276 24.6518 35.4064L24.7834 35.332Z" fill="var(--fill-0, #FCB92A)"/>
<path id="Vector_25" d="M10.8782 39.916C12.7295 40.2765 14.4572 40.9388 16.2662 41.2866C16.5515 41.3415 17.0867 40.4285 17.2575 40.1681C17.8172 39.888 17.5671 39.938 18.2107 39.9995C18.3085 41.1447 18.3792 41.9415 18.338 43.0865C16.124 42.9881 14.189 43.0919 12.1637 42.1832C11.5085 42.4103 10.8564 42.6462 10.2076 42.8913C9.37304 42.6788 8.54421 42.5155 7.80762 42.0643L8.54668 41.503C9.11846 41.037 10.2251 40.3465 10.8782 39.916Z" fill="var(--fill-0, #FCB92A)"/>
</g>
</svg>
