<svg preserveAspectRatio="xMidYMid meet" width="97.0505" height="24.0005" overflow="visible" style="display: block;" viewBox="0 0 97.0505 24.0005" fill="none" xmlns="http://www.w3.org/2000/svg">
<g id="Group 19">
<path id="Subtract" d="M2.17502 0.0234375C3.12033 0.100972 3.46549 0.658054 4.04904 1.34766C4.17769 3.25869 4.09633 5.89398 4.09104 7.8584C5.81848 6.80656 6.8182 6.27975 8.93088 6.18945C11.3892 6.08449 13.5601 6.90806 15.3586 8.58105C17.0725 10.1955 18.0839 12.4183 18.175 14.7705C18.2566 17.3243 17.1661 19.5898 15.4524 21.417C14.3893 22.4722 12.9164 23.2865 11.4729 23.6748C9.09482 24.3111 6.56064 23.9707 4.43479 22.7295C2.51723 21.623 0.948156 19.6734 0.380098 17.5264C0.207402 16.8515 0.100514 16.1613 0.0607625 15.4658C-0.0834558 13.1081 0.0800288 10.387 0.037325 7.99121C0.0549 6.0519 -0.0429315 4.10439 0.0353718 2.16699C0.0839522 0.963877 0.649667 0.288357 1.79318 0C1.92061 0.00530198 2.04791 0.013391 2.17502 0.0234375ZM8.8508 10.0566C6.08554 10.1875 3.95833 12.5488 4.11643 15.3115C4.27463 18.0745 6.65784 20.1777 9.42014 19.9922C12.1441 19.8093 14.2118 17.4676 14.0559 14.7432C13.8999 12.0185 11.5778 9.92763 8.8508 10.0566Z" fill="var(--fill-0, white)"/>
<path id="Subtract_2" d="M94.2265 0.0850283C95.4557 -0.0483904 96.7171 0.285651 96.9237 1.76569C97.0477 3.61961 97.076 5.69175 96.9892 7.55768C96.8652 10.1861 97.2859 13.7182 96.8388 16.252C96.6152 17.5975 96.1106 18.8809 95.3583 20.0186C92.3447 24.5427 86.7656 25.0181 82.3935 22.0958C73.8443 15.2701 82.5741 1.42558 92.8622 7.77643C92.894 5.91017 92.7302 3.70536 92.9315 1.87311C93.0259 1.02388 93.542 0.536891 94.2265 0.0850283ZM92.8915 14.5206C92.6192 11.7769 90.1611 9.78144 87.4188 10.0782C84.7104 10.3713 82.7444 12.7917 83.0136 15.501C83.2829 18.2101 85.686 20.1966 88.3983 19.9522C91.145 19.7044 93.1638 17.2645 92.8915 14.5206Z" fill="var(--fill-0, white)"/>
<path id="Subtract_3" d="M47.0577 6.23756C51.967 5.52096 56.5196 8.94396 57.1915 13.8577C57.8633 18.7715 54.3967 23.2898 49.4747 23.9163C44.6162 24.5345 40.1662 21.124 39.504 16.2737C38.8408 11.4233 42.212 6.94489 47.0577 6.23756ZM48.0098 10.1057C45.2898 10.2982 43.2413 12.6629 43.4405 15.3821C43.6399 18.1012 46.0106 20.1424 48.7296 19.9368C51.4401 19.7318 53.4736 17.3723 53.2754 14.6624C53.0773 11.9525 50.7215 9.91411 48.0098 10.1057Z" fill="var(--fill-0, white)"/>
<path id="Subtract_4" d="M27.9785 6.24497C31.2147 5.93378 34.1917 7.10353 36.0069 9.81626C37.3855 11.8751 38.5463 15.0289 36.0879 16.6981C35.6875 16.752 35.3419 16.7647 34.9405 16.7684C31.5009 16.8007 28.0407 16.69 24.6026 16.8036C26.0596 20.5887 29.6252 20.6551 32.6885 19.0311C33.2946 18.7097 33.6319 18.6194 34.3164 18.7C35.4036 19.0321 35.672 19.7149 36.0069 20.7225C35.1612 22.6321 32.8126 23.4895 30.8809 23.8465C28.5223 24.2893 26.0847 23.7674 24.1143 22.3983C22.1331 21.0285 20.8909 18.9934 20.461 16.6278C20.0294 14.2955 20.5465 11.8873 21.8975 9.93735C23.4029 7.7758 25.4243 6.69294 27.9785 6.24497ZM33.4385 13.2284C32.7274 10.8118 30.6354 9.74287 28.21 10.0604C26.3234 10.5325 25.2837 11.4083 24.5723 13.2176C26.3524 13.3451 28.2274 13.2408 30.0225 13.2743L33.4385 13.2284Z" fill="var(--fill-0, white)"/>
<path id="Vector" d="M66.922 6.24796C70.8681 5.89969 74.2749 7.45621 76.0456 11.0964C76.408 11.8328 76.6517 12.622 76.7661 13.4345C76.9601 14.7718 77.0755 21.5052 76.7153 22.5148C76.5542 22.9659 76.2437 23.3117 75.8093 23.5147C75.2932 23.7562 74.668 23.7735 74.134 23.578C73.5607 23.3684 73.1697 22.943 72.9768 22.3679C72.7331 21.6409 72.8073 20.8156 72.8189 20.0585C72.8486 18.0314 73.2184 14.5492 72.3686 12.7424C71.754 11.4345 70.6668 10.6495 69.3316 10.1719C68.5189 10.0827 67.9498 10.0267 67.1265 10.2018C66.2396 10.3842 65.43 10.8333 64.8069 11.4889C61.9448 14.4733 64.436 19.7902 62.9324 22.9519C62.2701 24.346 58.9153 24.1271 59.3222 20.7601C59.6062 18.4037 59.0128 15.372 59.5744 12.8316C59.8266 11.7348 60.2939 10.699 60.9498 9.78436C62.4089 7.7368 64.4869 6.66508 66.922 6.24796Z" fill="var(--fill-0, white)"/>
</g>
</svg>
