<svg preserveAspectRatio="xMidYMid meet" width="218.956" height="324" overflow="visible" style="display: block;" viewBox="0 0 218.956 324" fill="none" xmlns="http://www.w3.org/2000/svg">
<g id="Frame">
<g clip-path="url(#clip0_0_88)">
<path id="Vector" d="M218.956 0H0V324H218.956V0Z" fill="var(--fill-0, white)"/>
<path id="Vector_2" d="M98.0701 119.865H6.80787V224.914H98.0701V119.865Z" fill="var(--fill-0, white)" stroke="var(--stroke-0, #D9D9D9)"/>
<path id="Vector_3" d="M186.94 10.7743H39.3752V15.7767H186.94V10.7743Z" fill="var(--fill-0, #D9D9D9)"/>
<path id="Vector_4" d="M186.94 20.7791H39.3752V25.7815H186.94V20.7791Z" fill="var(--fill-0, #D9D9D9)"/>
<path id="Vector_5" d="M196.508 44.2514L6.624 44.2514V49.2538L196.508 49.2538V44.2514Z" fill="var(--fill-0, #D9D9D9)"/>
<path id="Vector_6" d="M130.637 56.9501H6.62387V61.9525H130.637V56.9501Z" fill="var(--fill-0, #D9D9D9)"/>
<path id="Vector_7" d="M55.1989 69.6485H6.62387V74.6508H55.1989V69.6485Z" fill="var(--fill-0, #D9D9D9)"/>
<path id="Vector_8" d="M55.1989 289.368H6.62387V294.371H55.1989V289.368Z" fill="var(--fill-0, #D9D9D9)"/>
<path id="Vector_9" d="M55.1989 103.126H6.62387V108.128H55.1989V103.126Z" fill="var(--fill-0, #D9D9D9)"/>
<path id="Vector_10" d="M201.476 119.865H6.80787V224.914H201.476V119.865Z" fill="var(--fill-0, white)" stroke="var(--stroke-0, #D9D9D9)"/>
<path id="Vector_11" d="M98.0701 119.865H6.80787V137.565H98.0701V119.865Z" fill="var(--fill-0, white)" stroke="var(--stroke-0, #D9D9D9)"/>
<path id="Vector_12" d="M71.7586 126.213H23.1835V131.216H71.7586V126.213Z" fill="var(--fill-0, #D9D9D9)"/>
<path id="Vector_13" d="M61.4548 143.914H12.8797V148.917H61.4548V143.914Z" fill="var(--fill-0, #D9D9D9)"/>
<path id="Vector_14" d="M88.3183 155.074H23.1835V160.076H88.3183V155.074Z" fill="var(--fill-0, #D9D9D9)"/>
<path id="Vector_15" d="M88.3183 164.309H23.1835V169.311H88.3183V164.309Z" fill="var(--fill-0, #D9D9D9)"/>
<path id="Vector_16" d="M88.3183 173.544H23.1835V178.546H88.3183V173.544Z" fill="var(--fill-0, #D9D9D9)"/>
<path id="Vector_17" d="M78.0145 186.242H12.8797V191.245H78.0145V186.242Z" fill="var(--fill-0, #D9D9D9)"/>
<path id="Vector_18" d="M88.3183 197.401H23.1835V202.404H88.3183V197.401Z" fill="var(--fill-0, #D9D9D9)"/>
<path id="Vector_19" d="M88.3183 208.561H23.1835V213.563H88.3183V208.561Z" fill="var(--fill-0, #D9D9D9)"/>
<path id="Vector_20" d="M98.4381 119.865H148.485V224.914H98.4381V119.865Z" fill="var(--fill-0, white)" stroke="var(--stroke-0, #D9D9D9)"/>
<path id="Vector_21" d="M201.476 119.865H148.853V224.914H201.476V119.865Z" fill="var(--fill-0, white)" stroke="var(--stroke-0, #D9D9D9)"/>
<path id="Vector_22" d="M125.854 69.6485H77.2785V74.6508H125.854V69.6485Z" fill="var(--fill-0, #D9D9D9)"/>
<path id="Vector_23" d="M125.854 289.368H77.2785V294.371H125.854V289.368Z" fill="var(--fill-0, #D9D9D9)"/>
<path id="Vector_24" d="M201.66 69.6485H153.085V74.6508H201.66V69.6485Z" fill="var(--fill-0, #D9D9D9)"/>
<path id="Vector_25" d="M165.597 300.912H164.493V313.995H165.597V300.912Z" fill="var(--fill-0, #353535)"/>
<path id="Vector_26" d="M167.069 300.912H165.965V313.995H167.069V300.912Z" fill="var(--fill-0, #353535)"/>
<path id="Vector_27" d="M167.805 300.912H167.437V313.995H167.805V300.912Z" fill="var(--fill-0, #353535)"/>
<path id="Vector_28" d="M171.117 300.912H168.173V313.995H171.117V300.912Z" fill="var(--fill-0, #353535)"/>
<path id="Vector_29" d="M172.589 300.912H171.485V313.995H172.589V300.912Z" fill="var(--fill-0, #353535)"/>
<path id="Vector_30" d="M174.061 300.912H172.957V313.995H174.061V300.912Z" fill="var(--fill-0, #353535)"/>
<path id="Vector_31" d="M175.533 300.912H174.429V313.995H175.533V300.912Z" fill="var(--fill-0, #353535)"/>
<path id="Vector_32" d="M176.268 300.912H175.9V313.995H176.268V300.912Z" fill="var(--fill-0, #353535)"/>
<path id="Vector_33" d="M179.58 300.912H176.636V313.995H179.58V300.912Z" fill="var(--fill-0, #353535)"/>
<path id="Vector_34" d="M181.052 300.912H179.948V313.996H181.052V300.912Z" fill="var(--fill-0, #353535)"/>
<path id="Vector_35" d="M196.876 300.912H197.98V313.995H196.876V300.912Z" fill="var(--fill-0, #353535)"/>
<path id="Vector_36" d="M195.404 300.912H196.508V313.995H195.404V300.912Z" fill="var(--fill-0, #353535)"/>
<path id="Vector_37" d="M194.669 300.912H195.036V313.995H194.669V300.912Z" fill="var(--fill-0, #353535)"/>
<path id="Vector_38" d="M191.356 300.912H194.3V313.995H191.356V300.912Z" fill="var(--fill-0, #353535)"/>
<path id="Vector_39" d="M189.884 300.912H190.988V313.996H189.884V300.912Z" fill="var(--fill-0, #353535)"/>
<path id="Vector_40" d="M188.412 300.912H189.516V313.995H188.412V300.912Z" fill="var(--fill-0, #353535)"/>
<path id="Vector_41" d="M186.94 300.912H188.044V313.995H186.94V300.912Z" fill="var(--fill-0, #353535)"/>
<path id="Vector_42" d="M186.204 300.912H186.572V313.995H186.204V300.912Z" fill="var(--fill-0, #353535)"/>
<path id="Vector_43" d="M182.892 300.912H185.836V313.995H182.892V300.912Z" fill="var(--fill-0, #353535)"/>
<path id="Vector_44" d="M181.42 300.912H182.524V313.995H181.42V300.912Z" fill="var(--fill-0, #353535)"/>
<path id="Vector_45" d="M98.8061 119.865H148.485V137.565H98.8061V119.865Z" fill="var(--fill-0, white)" stroke="var(--stroke-0, #D9D9D9)"/>
<path id="Vector_46" d="M98.4381 207.214H148.485V224.914H98.4381V207.214Z" fill="var(--fill-0, white)" stroke="var(--stroke-0, #D9D9D9)"/>
<path id="Vector_47" d="M137.629 126.214H110.398V131.216H137.629V126.214Z" fill="var(--fill-0, #D9D9D9)"/>
<path id="Vector_48" d="M193.564 240.884H133.949V245.886H193.564V240.884Z" fill="var(--fill-0, #D9D9D9)"/>
<path id="Vector_49" d="M66.2389 262.432H6.62404V267.434H66.2389V262.432Z" fill="var(--fill-0, #D9D9D9)"/>
<path id="Vector_50" d="M156.765 271.668H6.62367V276.67H156.765V271.668Z" fill="var(--fill-0, #D9D9D9)"/>
<path id="Vector_51" d="M201.476 119.865H148.853V137.565H201.476V119.865Z" fill="var(--fill-0, white)" stroke="var(--stroke-0, #D9D9D9)"/>
<path id="Vector_52" d="M201.476 207.214H148.853V224.915H201.476V207.214Z" fill="var(--fill-0, white)" stroke="var(--stroke-0, #D9D9D9)"/>
<path id="Vector_53" d="M188.044 126.214H160.813V131.216H188.044V126.214Z" fill="var(--fill-0, #D9D9D9)"/>
</g>
</g>
<defs>
<clipPath id="clip0_0_88">
<rect width="218.956" height="324" rx="4" fill="white"/>
</clipPath>
</defs>
</svg>
