<svg width="428" height="186" viewBox="0 0 428 186" fill="none" xmlns="http://www.w3.org/2000/svg">
<path d="M0 143.17H212.019V128.013H0V143.17Z" fill="#5A4A42"/>
<path d="M199.127 184.438H180.84V112.941L189.983 106H192.958L199.127 184.438Z" fill="#998379"/>
<path d="M202.103 184.438H183.816V112.941L192.96 106L202.103 112.941V184.438Z" fill="#716558"/>
<path d="M162.962 184.75H144.676V113.254L153.818 106.312H156.793L162.962 184.75Z" fill="#998379"/>
<path d="M165.934 184.75H147.648V113.254L156.791 106.312L165.934 113.254V184.75Z" fill="#716558"/>
<path d="M126.795 185.062H108.508V113.565L117.651 106.625H120.626L126.795 185.062Z" fill="#998379"/>
<path d="M129.767 185.062H111.48V113.565L120.624 106.625L129.767 113.565V185.062Z" fill="#716558"/>
<path d="M90.6259 185.374H72.3398V113.878L81.4824 106.937H84.4572L90.6259 185.374Z" fill="#998379"/>
<path d="M93.5985 185.374H75.3125V113.878L84.455 106.937L93.5985 113.878V185.374Z" fill="#716558"/>
<path d="M54.455 185.688H36.168V114.191L45.3115 107.251H48.2863L54.455 185.688Z" fill="#998379"/>
<path d="M57.4315 185.688H39.1445V114.191L48.288 107.251L57.4315 114.191V185.688Z" fill="#716558"/>
<path d="M9.1435 107.562L0 114.504V186H18.287L12.1173 107.562H9.1435Z" fill="#998379"/>
<path d="M21.2626 186H2.97656V114.504L12.1191 107.563L21.2626 114.504V186Z" fill="#716558"/>
<rect x="172" y="24" width="251" height="160" fill="url(#paint0_linear_980_6412)"/>
<path d="M243 145.589L293 184H426L428 24H355.285L243 145.589Z" fill="#231F20" fill-opacity="0.1"/>
<path d="M370.125 0.98192V144.702C370.125 147.622 367.759 149.988 364.839 149.988H257.73V0.98192H370.125Z" fill="#9B1515"/>
<path d="M331.414 31.538V144.702C331.414 147.622 329.048 149.988 326.127 149.988H224.306C221.385 149.988 219.02 147.622 219.02 144.702V34.7912L257.267 33.6851L331.414 31.538Z" fill="#BC2020"/>
<g clip-path="url(#clip0_980_6412)">
<path d="M230.271 58.4133C228.825 58.4133 227.646 59.591 227.646 61.0379V126.546C227.646 127.993 228.825 129.171 230.271 129.171H322.072C323.52 129.171 324.698 127.993 324.698 126.546V61.0379C324.698 59.591 323.52 58.4133 322.072 58.4133H230.271ZM322.072 130.798H230.271C227.927 130.798 226.02 128.891 226.02 126.546V61.0379C226.02 58.6931 227.927 56.7867 230.271 56.7867H322.072C324.417 56.7867 326.324 58.6931 326.324 61.0379V126.546C326.324 128.891 324.417 130.798 322.072 130.798Z" fill="url(#paint1_linear_980_6412)"/>
<path d="M230.271 58.4133C228.825 58.4133 227.646 59.591 227.646 61.0379V126.546C227.646 127.993 228.825 129.171 230.271 129.171H322.072C323.52 129.171 324.698 127.993 324.698 126.546V61.0379C324.698 59.591 323.52 58.4133 322.072 58.4133H230.271Z" fill="url(#paint2_linear_980_6412)"/>
<rect width="42" height="74" transform="matrix(0.772425 -0.635105 0 1 225.156 58.6602)" fill="url(#paint3_linear_980_6412)"/>
<path d="M257.156 56.6605L326.156 55.9854V105.985H257.156V56.6605Z" fill="url(#paint4_linear_980_6412)"/>
<g filter="url(#filter0_d_980_6412)">
<path d="M230.424 129.385C228.977 129.385 227.798 128.207 227.798 126.76V61.252C227.798 59.8051 228.977 58.6266 230.424 58.6266H322.225C323.672 58.6266 324.85 59.8051 324.85 61.252V126.76C324.85 128.207 323.672 129.385 322.225 129.385H230.424ZM322.225 57H230.424C228.079 57 226.172 58.9072 226.172 61.252V126.76C226.172 129.105 228.079 131.011 230.424 131.011H322.225C324.569 131.011 326.477 129.105 326.477 126.76V61.252C326.477 58.9072 324.569 57 322.225 57Z" fill="#BC2020"/>
<path d="M230.424 129.385C228.977 129.385 227.798 128.207 227.798 126.76V61.252C227.798 59.8051 228.977 58.6266 230.424 58.6266H322.225C323.672 58.6266 324.85 59.8051 324.85 61.252V126.76C324.85 128.207 323.672 129.385 322.225 129.385H230.424Z" fill="#BC2020"/>
<path d="M230.424 57.5H322.225C324.293 57.5 325.977 59.1833 325.977 61.252V126.76C325.977 128.828 324.293 130.511 322.225 130.511H230.424C228.355 130.511 226.672 128.828 226.672 126.76V61.252C226.672 59.1833 228.355 57.5 230.424 57.5ZM324.35 126.76C324.35 127.93 323.396 128.885 322.225 128.885H230.424C229.253 128.885 228.299 127.93 228.299 126.76V61.252C228.299 60.0812 229.253 59.127 230.424 59.127H322.225C323.396 59.127 324.35 60.0811 324.35 61.252V126.76ZM325.35 61.252C325.35 59.5291 323.948 58.127 322.225 58.127H230.424C228.701 58.127 227.299 59.529 227.299 61.252V126.76C227.299 128.483 228.701 129.885 230.424 129.885H322.225C323.948 129.885 325.35 128.483 325.35 126.76V61.252Z" stroke="#9B1515"/>
</g>
<path d="M281 69.4224C281 72.417 279.088 74.8447 276.731 74.8447C274.373 74.8447 272.461 72.417 272.461 69.4224C272.461 66.4278 274.373 64.0001 276.731 64.0001C279.088 64.0001 281 66.4278 281 69.4224Z" fill="#808083"/>
<path d="M279.711 69.4224C279.711 72.417 277.8 74.8447 275.442 74.8447C273.084 74.8447 271.172 72.417 271.172 69.4224C271.172 66.4278 273.084 64.0001 275.442 64.0001C277.8 64.0001 279.711 66.4278 279.711 69.4224Z" fill="#CFD1D2"/>
<path d="M276.721 67.6887C276.721 66.7973 276.153 66.0751 275.451 66.0751C274.749 66.0751 274.18 66.7973 274.18 67.6887C274.18 68.3369 274.483 68.8924 274.917 69.1486V72.6572H275.984V69.1486C276.419 68.8924 276.721 68.3369 276.721 67.6887Z" fill="#404041"/>
</g>
<path d="M323.644 48.4795H196V45.7069L379.059 -0.000236453V2.77233L323.644 48.4795Z" fill="#6D0B0B"/>
<path d="M323.644 45.7109H196L251.414 0.00378316H379.059L323.644 45.7109Z" fill="#D13333"/>
<path d="M317.063 15.9389L314.828 17.7859L310.385 21.4531H258.027L264.705 15.9389H317.063Z" fill="#6D0B0B"/>
<path d="M314.819 17.7859L310.376 21.4531H260.254L264.696 17.7859H314.819Z" fill="#231F20"/>
<defs>
<filter id="filter0_d_980_6412" x="226.172" y="57" width="100.305" height="76.0107" filterUnits="userSpaceOnUse" color-interpolation-filters="sRGB">
<feFlood flood-opacity="0" result="BackgroundImageFix"/>
<feColorMatrix in="SourceAlpha" type="matrix" values="0 0 0 0 0 0 0 0 0 0 0 0 0 0 0 0 0 0 127 0" result="hardAlpha"/>
<feOffset dy="2"/>
<feComposite in2="hardAlpha" operator="out"/>
<feColorMatrix type="matrix" values="0 0 0 0 0.427451 0 0 0 0 0.0431373 0 0 0 0 0.0431373 0 0 0 1 0"/>
<feBlend mode="normal" in2="BackgroundImageFix" result="effect1_dropShadow_980_6412"/>
<feBlend mode="normal" in="SourceGraphic" in2="effect1_dropShadow_980_6412" result="shape"/>
</filter>
<linearGradient id="paint0_linear_980_6412" x1="423" y1="104" x2="172" y2="104" gradientUnits="userSpaceOnUse">
<stop stop-color="#EDEDED"/>
<stop offset="0.5" stop-color="#BABABA"/>
<stop offset="1" stop-color="#EDEDED"/>
</linearGradient>
<linearGradient id="paint1_linear_980_6412" x1="276.172" y1="130.798" x2="276.172" y2="56.7867" gradientUnits="userSpaceOnUse">
<stop stop-color="#9B1515"/>
<stop offset="1" stop-color="#610000"/>
</linearGradient>
<linearGradient id="paint2_linear_980_6412" x1="276.172" y1="130.798" x2="276.172" y2="56.7867" gradientUnits="userSpaceOnUse">
<stop stop-color="#9B1515"/>
<stop offset="1" stop-color="#610000"/>
</linearGradient>
<linearGradient id="paint3_linear_980_6412" x1="-26.901" y1="6.57779" x2="13.8294" y2="-19.2904" gradientUnits="userSpaceOnUse">
<stop stop-color="#9B1515"/>
<stop offset="1" stop-color="#610000"/>
</linearGradient>
<linearGradient id="paint4_linear_980_6412" x1="291.656" y1="55.9854" x2="291.656" y2="105.985" gradientUnits="userSpaceOnUse">
<stop stop-color="#610000"/>
<stop offset="1" stop-color="#9B1515"/>
</linearGradient>
<clipPath id="clip0_980_6412">
<rect x="226.02" y="56.7871" width="100.305" height="74.0111" rx="4" fill="white"/>
</clipPath>
</defs>
</svg>
