<svg width="428" height="186" viewBox="0 0 428 186" fill="none" xmlns="http://www.w3.org/2000/svg">
<path d="M0 143.17H212.019V128.013H0V143.17Z" fill="#5A4A42"/>
<path d="M199.127 184.438H180.84V112.941L189.983 106H192.958L199.127 184.438Z" fill="#998379"/>
<path d="M202.103 184.438H183.816V112.941L192.96 106L202.103 112.941V184.438Z" fill="#716558"/>
<path d="M162.962 184.75H144.676V113.254L153.818 106.312H156.793L162.962 184.75Z" fill="#998379"/>
<path d="M165.934 184.75H147.648V113.254L156.791 106.312L165.934 113.254V184.75Z" fill="#716558"/>
<path d="M126.795 185.062H108.508V113.565L117.651 106.625H120.626L126.795 185.062Z" fill="#998379"/>
<path d="M129.767 185.062H111.48V113.565L120.624 106.625L129.767 113.565V185.062Z" fill="#716558"/>
<path d="M90.6259 185.374H72.3398V113.878L81.4824 106.937H84.4572L90.6259 185.374Z" fill="#998379"/>
<path d="M93.5985 185.374H75.3125V113.878L84.455 106.937L93.5985 113.878V185.374Z" fill="#716558"/>
<path d="M54.455 185.688H36.168V114.191L45.3115 107.251H48.2863L54.455 185.688Z" fill="#998379"/>
<path d="M57.4315 185.688H39.1445V114.191L48.288 107.251L57.4315 114.191V185.688Z" fill="#716558"/>
<path d="M9.1435 107.562L0 114.504V186H18.287L12.1173 107.562H9.1435Z" fill="#998379"/>
<path d="M21.2626 186H2.97656V114.504L12.1191 107.563L21.2626 114.504V186Z" fill="#716558"/>
<rect x="172" y="24" width="251" height="160" fill="url(#paint0_linear_980_6516)"/>
<path d="M243 145.589L293 184H426L428 24H355.285L243 145.589Z" fill="#231F20" fill-opacity="0.1"/>
<path d="M370.106 0.982897V144.703C370.106 147.623 367.739 149.989 364.82 149.989H257.711V0.982897H370.106Z" fill="#9B1515"/>
<path d="M331.867 31.5389V144.703C331.867 147.623 329.501 149.989 326.58 149.989H224.759C221.838 149.989 219.473 147.623 219.473 144.703V34.7922L257.72 33.6861L331.867 31.5389Z" fill="#BC2020"/>
<g clip-path="url(#clip0_980_6516)">
<path d="M229.099 59.4133C227.653 59.4133 226.474 60.591 226.474 62.0379V127.546C226.474 128.993 227.653 130.171 229.099 130.171H320.901C322.348 130.171 323.526 128.993 323.526 127.546V62.0379C323.526 60.591 322.348 59.4133 320.901 59.4133H229.099ZM320.901 131.798H229.099C226.755 131.798 224.848 129.891 224.848 127.546V62.0379C224.848 59.6931 226.755 57.7867 229.099 57.7867H320.901C323.245 57.7867 325.152 59.6931 325.152 62.0379V127.546C325.152 129.891 323.245 131.798 320.901 131.798Z" fill="url(#paint1_linear_980_6516)"/>
<path d="M229.099 59.4133C227.653 59.4133 226.474 60.591 226.474 62.0379V127.546C226.474 128.993 227.653 130.171 229.099 130.171H320.901C322.348 130.171 323.526 128.993 323.526 127.546V62.0379C323.526 60.591 322.348 59.4133 320.901 59.4133H229.099Z" fill="url(#paint2_linear_980_6516)"/>
<rect width="42" height="74" transform="matrix(0.772425 -0.635105 0 1 223.984 59.6602)" fill="url(#paint3_linear_980_6516)"/>
<path d="M255.984 57.6605L324.984 56.9854V106.985H255.984V57.6605Z" fill="url(#paint4_linear_980_6516)"/>
</g>
<path d="M323.624 48.4795H195.98V45.7069L379.039 -0.000236453V2.77233L323.624 48.4795Z" fill="#6D0B0B"/>
<path d="M323.624 45.7109H195.98L251.395 0.00378316H379.039L323.624 45.7109Z" fill="#D13333"/>
<path d="M317.044 15.9389L314.809 17.7859L310.366 21.4531H258.008L264.686 15.9389H317.044Z" fill="#6D0B0B"/>
<path d="M314.8 17.7859L310.357 21.4531H260.234L264.676 17.7859H314.8Z" fill="#231F20"/>
<g filter="url(#filter0_d_980_6516)">
<path d="M174.511 175.851C173.064 175.851 172.797 175.106 173.917 174.189L224.617 132.707C225.737 131.791 227.827 131.045 229.274 131.045H321.075C322.523 131.045 322.788 131.791 321.669 132.707L270.968 174.189C269.848 175.106 267.759 175.851 266.312 175.851H174.511ZM322.334 130.015H230.533C228.188 130.015 224.805 131.222 222.99 132.707L172.29 174.189C170.475 175.674 170.907 176.881 173.252 176.881H265.053C267.397 176.881 270.78 175.674 272.595 174.189L323.295 132.707C325.11 131.222 324.679 130.015 322.334 130.015Z" fill="#D13333"/>
<path d="M174.511 175.851C173.064 175.851 172.797 175.106 173.917 174.189L224.617 132.707C225.737 131.791 227.827 131.045 229.274 131.045H321.075C322.523 131.045 322.788 131.791 321.669 132.707L270.968 174.189C269.848 175.106 267.759 175.851 266.312 175.851H174.511Z" fill="#D13333"/>
</g>
<path d="M232.806 165.324C234.611 162.935 234.163 160.998 231.805 160.998C229.447 160.998 226.072 162.935 224.266 165.324C222.461 167.714 222.91 169.651 225.267 169.651C227.625 169.651 231.001 167.714 232.806 165.324Z" fill="#808083"/>
<path d="M228.586 166.794C228.011 167.475 226.976 168.027 226.275 168.027C225.573 168.027 225.469 167.475 226.044 166.794C226.463 166.299 227.124 165.874 227.723 165.679L229.987 162.998H231.055L228.791 165.679C229.06 165.874 229.004 166.299 228.586 166.794Z" fill="#404041"/>
<defs>
<filter id="filter0_d_980_6516" x="171.168" y="130.015" width="153.25" height="48.8662" filterUnits="userSpaceOnUse" color-interpolation-filters="sRGB">
<feFlood flood-opacity="0" result="BackgroundImageFix"/>
<feColorMatrix in="SourceAlpha" type="matrix" values="0 0 0 0 0 0 0 0 0 0 0 0 0 0 0 0 0 0 127 0" result="hardAlpha"/>
<feOffset dy="2"/>
<feComposite in2="hardAlpha" operator="out"/>
<feColorMatrix type="matrix" values="0 0 0 0 0.427451 0 0 0 0 0.0431373 0 0 0 0 0.0431373 0 0 0 1 0"/>
<feBlend mode="normal" in2="BackgroundImageFix" result="effect1_dropShadow_980_6516"/>
<feBlend mode="normal" in="SourceGraphic" in2="effect1_dropShadow_980_6516" result="shape"/>
</filter>
<linearGradient id="paint0_linear_980_6516" x1="423" y1="104" x2="172" y2="104" gradientUnits="userSpaceOnUse">
<stop stop-color="#EDEDED"/>
<stop offset="0.5" stop-color="#BABABA"/>
<stop offset="1" stop-color="#EDEDED"/>
</linearGradient>
<linearGradient id="paint1_linear_980_6516" x1="275" y1="131.798" x2="275" y2="57.7867" gradientUnits="userSpaceOnUse">
<stop stop-color="#9B1515"/>
<stop offset="1" stop-color="#610000"/>
</linearGradient>
<linearGradient id="paint2_linear_980_6516" x1="275" y1="131.798" x2="275" y2="57.7867" gradientUnits="userSpaceOnUse">
<stop stop-color="#9B1515"/>
<stop offset="1" stop-color="#610000"/>
</linearGradient>
<linearGradient id="paint3_linear_980_6516" x1="-26.901" y1="6.57779" x2="13.8294" y2="-19.2904" gradientUnits="userSpaceOnUse">
<stop stop-color="#9B1515"/>
<stop offset="1" stop-color="#610000"/>
</linearGradient>
<linearGradient id="paint4_linear_980_6516" x1="290.484" y1="56.9854" x2="290.484" y2="106.985" gradientUnits="userSpaceOnUse">
<stop stop-color="#610000"/>
<stop offset="1" stop-color="#9B1515"/>
</linearGradient>
<clipPath id="clip0_980_6516">
<rect x="224.848" y="57.7871" width="100.305" height="74.0111" rx="4" fill="white"/>
</clipPath>
</defs>
</svg>
