<svg width="177" height="180" viewBox="0 0 177 180" fill="none" xmlns="http://www.w3.org/2000/svg">
<path d="M124.266 31.6711L124.507 31.7337C133.986 31.7525 137.806 31.6293 146.999 34.6076L147.259 34.7297C155.553 38.8874 161.525 43.954 164.574 53.0696C167.909 63.0374 166.82 73.1889 162.232 82.5249C164.299 82.7418 166.435 82.9103 168.467 83.3182L169.69 83.6445C174.202 85.4768 177.304 89.3589 176.976 94.4289C175.883 111.276 172.926 128.158 170.232 144.816C169.732 147.884 169.185 151.019 167.928 153.871C167.05 154.506 165.583 155.636 164.688 156.119C164.933 158.529 165.147 161.174 165.468 163.554C167.688 163.716 174.538 165.136 174.259 168.002C170.393 171.723 141.291 177.722 134.119 179.674C132.205 180.243 131.33 180.048 129.58 179.235C116.567 177.738 99.2176 177.951 86.5051 174.636C83.4451 174.597 66.0581 171.445 67.3663 167.07C68.8728 165.71 72.2392 164.771 74.2301 164.426C74.4612 162.402 74.6966 161.007 75.089 159.029L74.7321 158.276C72.6457 157.279 72.1008 157.087 70.4251 155.359C68.5048 148.78 66.3855 134.824 66.9811 128.09C67.9405 125.209 69.6239 123.985 72.0871 122.518C65.5018 109.518 77.6584 102.734 86.7882 97.1121C87.8798 98.0908 87.4737 97.4844 87.7984 99.1397C88.1163 98.8891 88.4422 98.6492 88.7757 98.4205C91.0467 96.8818 92.5009 96.4166 95.118 96.9175C98.0103 98.4481 98.7744 98.8642 101.193 101.223C100.081 97.5247 100.65 96.668 97.0284 94.9985C95.2517 95.1063 94.0979 95.3385 92.5887 94.528C91.0777 90.6853 90.3617 88.7851 93.0511 85.4687C83.7367 70.0502 88.5075 48.3884 103.585 38.3984C109.186 34.3125 117.438 32.1286 124.266 31.6711Z" fill="#2070E8"/>
<path d="M162.232 82.5247C164.299 82.7415 166.434 82.91 168.467 83.318L169.69 83.6442C174.202 85.4765 177.304 89.3586 176.976 94.4287C175.883 111.276 172.926 128.158 170.232 144.815C169.732 147.883 169.185 151.019 167.928 153.871C167.049 154.506 165.582 155.636 164.688 156.119C164.933 158.529 165.147 161.174 165.468 163.554C167.688 163.715 174.538 165.136 174.259 168.001C170.393 171.723 141.291 177.722 134.119 179.674C132.205 180.243 131.33 180.048 129.58 179.235C128.904 177.688 128.892 177.285 128.614 175.581L127.8 167.526L127.211 166.608L124.858 166.28C123.567 163.18 124.399 162.046 123.67 158.714L124.743 156.769C124.717 154.866 124.72 154.536 124.124 152.744C124.793 151.47 125.087 151.21 124.824 150.036C123.593 149.575 123.46 149.84 121.947 150.063L120.869 149.849L120.93 149.547L126.176 148.623C126.501 145.48 126.952 142.488 127.414 139.368C127.681 138.333 127.892 137.34 128.117 136.296C129.087 133.984 130.631 132.528 132.381 130.841C133.642 130.293 133.771 130.247 135.113 129.961C136.824 130.211 138.884 130.564 140.572 130.747C143.132 130.885 145.673 131.233 148.026 130.231L148.89 129.84C153.746 128.543 155.331 126.916 158.801 123.532C161.823 116.549 160.306 109.481 158.247 102.462C157.376 101.84 156.527 101.324 155.622 100.764C154.942 99.5893 154.136 98.9034 153.173 97.9408C153.945 97.7793 154.499 97.6633 155.251 97.4331L155.431 96.084C153.574 94.1132 153.131 94.2824 154.223 92.0418C155.973 90.7584 157.937 88.5584 159.485 86.9384C160.317 85.4964 161.338 83.9493 162.232 82.5247Z" fill="#8C8B8B"/>
<path d="M158.362 159.098C159.493 158.219 163.207 156.753 164.689 156.118C164.934 158.528 165.148 161.173 165.469 163.554C167.689 163.715 174.539 165.136 174.26 168.001C170.394 171.723 141.292 177.722 134.12 179.673C132.206 180.242 131.331 180.048 129.581 179.234C128.905 177.687 128.893 177.285 128.615 175.581L127.801 167.526L128.252 167.024C130.009 166.806 133.941 166.938 135.729 167.169C136.183 166.847 136.031 166.892 136.478 166.759C141.131 165.414 145.72 163.848 150.228 162.066C152.314 161.166 156.242 159.435 158.362 159.098Z" fill="#CCCED1"/>
<path d="M127.801 167.526L128.252 167.025C130.009 166.807 133.941 166.938 135.729 167.17C135.545 170.291 135.434 173.036 134.877 176.127C134.758 177.793 134.674 178.092 134.12 179.674C132.206 180.243 131.331 180.048 129.581 179.235C128.905 177.688 128.893 177.286 128.615 175.581L127.801 167.526Z" fill="#644121"/>
<path d="M128.615 175.582C132.123 173.828 129.849 172.434 131.859 171.141C132.998 172.279 133.296 173.564 133.674 175.104C134.262 175.695 134.186 175.695 134.877 176.127C134.759 177.794 134.675 178.092 134.121 179.674C132.207 180.243 131.332 180.048 129.582 179.235C128.906 177.688 128.894 177.286 128.615 175.582Z" fill="#744B25"/>
<path d="M158.361 159.098C159.492 158.219 163.206 156.753 164.688 156.118C164.933 158.528 165.147 161.173 165.468 163.554C165.644 165.876 166.289 168.398 163.405 169.066C160.566 168.123 160.482 166.741 159.546 164.05C159.122 162.505 158.736 160.679 158.361 159.098Z" fill="#644121"/>
<path d="M150.227 162.066C152.313 161.166 156.24 159.435 158.361 159.098C158.735 160.679 159.121 162.505 159.545 164.05C158.139 163.928 151.407 162.614 150.227 162.066Z" fill="#EAE9E9"/>
<path d="M159.484 86.9386C161.363 87.1336 163.197 87.3424 165.089 87.4161C164.21 92.8668 161.432 97.5826 162.001 103.689C162.643 110.529 162.808 117.655 163.805 124.456L162.479 123.997C161.933 123.785 159.533 123.606 158.8 123.532C161.822 116.549 160.305 109.481 158.246 102.462C157.375 101.84 156.526 101.325 155.621 100.764C154.941 99.5895 154.135 98.9036 153.172 97.9411C153.944 97.7795 154.498 97.6636 155.25 97.4333L155.43 96.0842C153.573 94.1134 153.13 94.2827 154.223 92.042C155.972 90.7586 157.936 88.5586 159.484 86.9386Z" fill="#777779"/>
<path d="M153.172 97.9412C153.944 97.7796 154.498 97.6637 155.25 97.4334L155.43 96.0844C156.794 98.5875 157.413 99.7286 158.246 102.462C157.375 101.84 156.526 101.325 155.621 100.764C154.941 99.5896 154.135 98.9038 153.172 97.9412Z" fill="#135BCA"/>
<path d="M132.381 130.841C133.642 130.293 133.772 130.247 135.113 129.961C137.168 132.755 141.558 132.463 144.768 132.676C139.908 134.904 138.987 135.706 136.691 140.688C133.206 140.418 130.826 140.236 127.414 139.368C127.682 138.332 127.892 137.34 128.117 136.296C129.088 133.983 130.631 132.527 132.381 130.841Z" fill="#BEBCBC"/>
<path d="M162.229 82.5247C164.296 82.7415 166.432 82.91 168.465 83.318L169.687 83.6442C169.038 86.0288 169.672 89.06 170.043 91.5525C169.989 91.7651 169.936 91.9777 169.882 92.1903C168.033 91.3694 167.827 88.1305 165.087 87.4158C163.196 87.3421 161.362 87.1334 159.482 86.9384C160.315 85.4964 161.335 83.9493 162.229 82.5247Z" fill="#9B9A99"/>
<path d="M168.469 83.318L169.692 83.6442C169.042 86.0288 169.676 89.0601 170.047 91.5525C168.553 89.7563 167.911 88.6194 166.123 86.6644C166.83 85.5866 167.72 84.3876 168.469 83.318Z" fill="#BEBCBC"/>
<path d="M148.89 129.84C153.746 128.543 155.331 126.916 158.801 123.532C159.534 123.606 161.934 123.785 162.48 123.997C160.107 124.497 158.174 127.282 155.072 128.989C150.636 132.419 145.921 132.915 140.695 131.437L141.271 131.431L140.572 130.747C143.132 130.886 145.673 131.233 148.026 130.232L148.89 129.84Z" fill="#808081"/>
<path d="M162.481 123.996L163.806 124.456L165.04 125.182C164.532 127.541 157.304 129.202 155.072 128.989C158.175 127.281 160.108 124.497 162.481 123.996Z" fill="#A8A7A9"/>
<path d="M124.744 156.768C126.432 160.421 123.563 162.407 127.124 166.104L127.212 166.607L124.858 166.28C123.567 163.179 124.4 162.046 123.67 158.713L124.744 156.768Z" fill="#777779"/>
<path d="M106.619 149.921L107.261 148.926C108.468 148.375 109.782 148.861 111.139 149.153C114.291 149.295 117.802 149.532 120.931 149.548L120.87 149.85L121.947 150.063C123.46 149.841 123.594 149.575 124.824 150.036C125.088 151.21 124.794 151.47 124.125 152.745C124.721 154.536 124.717 154.866 124.744 156.769L123.671 158.714C124.4 162.046 123.567 163.18 124.859 166.281L127.212 166.608L127.801 167.526L128.615 175.582C128.893 177.286 128.905 177.688 129.581 179.235C116.568 177.738 99.2184 177.951 86.5059 174.636C83.4459 174.597 66.0588 171.445 67.367 167.07C68.8735 165.71 72.2399 164.771 74.2308 164.426C74.462 162.402 74.6973 161.007 75.0897 159.029L75.6712 158.443L76.8396 158.744L77.1895 161.528C78.1806 163.321 78.6376 164.502 80.316 165.705L81.6422 166.603C89.2457 171.762 99.4247 174.371 103.07 163.277C104.116 159.262 105.962 153.802 106.619 149.921Z" fill="#CCCED1"/>
<path d="M106.62 149.921L107.262 148.926C108.469 148.375 109.783 148.861 111.14 149.153C114.292 149.295 117.803 149.532 120.932 149.548L120.871 149.85L121.948 150.063C123.461 149.841 123.595 149.575 124.825 150.036C125.089 151.21 124.795 151.47 124.126 152.745C124.722 154.536 124.718 154.866 124.745 156.769L123.671 158.714C124.401 162.046 123.568 163.18 124.86 166.281C116.488 165.622 111.411 164.844 103.07 163.277C104.117 159.262 105.963 153.802 106.62 149.921Z" fill="#808081"/>
<path d="M121.947 150.062C123.46 149.84 123.594 149.574 124.824 150.036C125.088 151.209 124.793 151.47 124.125 152.744C124.721 154.535 124.717 154.865 124.744 156.768L123.67 158.713C122.337 160.029 122.146 160.924 120.358 162.209C116.01 163.271 108.968 156.179 110.061 152.266C110.772 151.758 119.192 150.176 120.87 149.849L121.947 150.062Z" fill="#9B9A99"/>
<path d="M121.945 150.062C123.458 149.84 123.592 149.574 124.822 150.036C125.086 151.209 124.792 151.47 124.123 152.744C122.679 152.367 121.215 152.161 120.111 151.233L120.302 150.661L121.945 150.062Z" fill="#A8A7A9"/>
<path d="M75.0897 159.028L75.6712 158.442L76.8396 158.743L77.1895 161.528C78.1806 163.32 78.6376 164.501 80.316 165.704C79.561 167.787 79.2688 168.245 78.1226 170.064C79.4636 170.074 81.8 171.149 82.5756 172.167C81.1994 171.93 80.9713 171.764 79.6883 171.14L76.0835 171.456L76.1446 171.443L76.2329 172.003C78.7591 172.527 84.4484 173.551 86.5059 174.635C83.4459 174.596 66.0588 171.444 67.367 167.07C68.8735 165.709 72.2399 164.77 74.2308 164.425C74.462 162.401 74.6973 161.006 75.0897 159.028Z" fill="#DBD7D2"/>
<path d="M75.0892 159.028L75.6707 158.442L76.8391 158.743L77.189 161.528C78.1801 163.32 78.6371 164.501 80.3155 165.704C79.5605 167.787 79.2682 168.245 78.122 170.064C76.9892 170.638 76.3901 170.854 75.1736 170.497C73.5709 168.652 74.0599 166.954 74.2303 164.425C74.4615 162.401 74.6968 161.006 75.0892 159.028Z" fill="#744B25"/>
<path d="M87.7987 99.1394C88.1165 98.8888 88.4424 98.6489 88.776 98.4201C91.047 96.8815 92.5011 96.4163 95.1183 96.9172C98.0105 98.4478 98.7746 98.8638 101.193 101.222L101.9 102.23C103.184 104.246 103.405 106.744 102.851 109.04C102.698 109.656 102.507 110.262 102.278 110.854C100.035 113.187 97.8768 115.844 94.5796 116.473L92.4018 116.827C89.8855 117.542 87.4284 118.247 85.5105 120.171C83.1539 121.993 81.7723 123.302 79.9732 125.735C79.6305 126.062 78.8445 126.873 78.4835 127.057C77.8225 126.693 76.7516 126.324 76.018 126.039C75.1129 124.945 74.0546 124.13 72.9718 123.21L72.0873 122.518C65.502 109.518 77.6586 102.734 86.7885 97.1118C87.88 98.0905 87.4739 97.4841 87.7987 99.1394Z" fill="#1B6CE3"/>
<path d="M87.8001 99.1394C88.118 98.8888 88.4439 98.6489 88.7774 98.4201C91.0484 96.8815 92.5026 96.4163 95.1197 96.9172C98.012 98.4478 98.7761 98.8638 101.195 101.222L101.901 102.23C103.185 104.246 103.407 106.744 102.853 109.04C102.7 109.656 102.509 110.262 102.28 110.854C100.037 113.187 97.8782 115.844 94.581 116.473L92.4032 116.827C92.132 116.78 91.4141 116.508 91.1214 116.406C88.9406 113.883 90.9258 113.283 90.1498 110.022C89.4873 109.072 89.0464 108.735 88.2051 107.974L84.5781 104.999C85.7388 102.387 86.2206 101.521 87.8001 99.1394Z" fill="#E8B43F"/>
<path d="M101.902 102.23C103.186 104.246 103.408 106.744 102.854 109.04C102.701 109.656 102.51 110.262 102.28 110.854C100.038 113.187 97.879 115.844 94.5818 116.473L92.404 116.827C92.1327 116.781 91.4149 116.508 91.1222 116.406C88.9414 113.883 90.9266 113.283 90.1506 110.022L90.7088 109.499C91.3678 109.202 92.0453 109.432 92.8969 109.524L93.3286 109.099C94.5703 107.653 95.7929 105.847 96.9162 104.284L96.9582 103.7L97.6116 103.304L98.4063 103.718C98.5706 105.079 98.6202 105.607 99.0061 106.906L99.5219 107.012C100.106 106.249 100.615 103.813 100.89 102.751L101.004 102.844L101.902 102.23Z" fill="#E1A82F"/>
<path d="M87.8001 99.1394C88.118 98.8888 88.4439 98.6489 88.7774 98.4201C91.0484 96.8815 92.5026 96.4163 95.1197 96.9172L95.3948 98.4562C94.1034 98.2593 94.1645 98.044 93.1865 98.5196L93.0795 99.096L92.7089 99.8529C90.609 101.376 89.7876 101.775 88.664 104.149C88.6284 105.571 89.9679 108.269 90.708 109.499L90.1498 110.022C89.4873 109.072 89.0464 108.735 88.2051 107.974L84.5781 104.999C85.7388 102.387 86.2206 101.521 87.8001 99.1394Z" fill="#D89F2D"/>
<path d="M92.707 99.8525C93.6049 102.029 93.5017 103.021 91.5375 104.236C90.3871 104.267 89.8312 104.293 88.6621 104.149C89.7858 101.774 90.6072 101.375 92.707 99.8525Z" fill="#EFBC3E"/>
<path d="M93.3255 109.099L93.123 108.539C93.6961 106.206 94.4106 104.729 96.9131 104.283C95.7899 105.846 94.5672 107.653 93.3255 109.099Z" fill="#EFBC3E"/>
<path d="M93.0781 99.0963L93.1851 98.5198C94.1632 98.0443 94.1021 98.2596 95.3934 98.4565C96.788 99.3542 96.5129 98.8821 96.8376 100.19L96.681 99.3427L97.7699 100.224C96.9026 100.673 94.3924 99.2594 93.0781 99.0963Z" fill="#CF9931"/>
<path d="M88.2025 107.974C89.0438 108.735 89.4847 109.073 90.1472 110.022C90.9232 113.284 88.938 113.884 91.1188 116.406C91.4115 116.508 92.1294 116.781 92.4007 116.827C89.8844 117.542 87.4273 118.247 85.5093 120.171C83.1528 121.993 81.7712 123.303 79.9721 125.736C79.6294 126.062 78.8434 126.874 78.4824 127.058C77.8214 126.694 76.7505 126.325 76.0169 126.04C75.1118 124.946 74.0535 124.13 72.9707 123.21C79.4253 122.466 76.2271 118.875 76.8112 115.604L77.5055 115.217C80.3526 115.93 84.4896 124.208 86.9593 113.446C87.3696 111.656 87.7781 109.768 88.2025 107.974Z" fill="#1352B9"/>
<path d="M83.7155 152.726C86.6001 148.587 92.406 138.811 98.2707 139.098C100.494 139.206 102.481 142.063 103.746 143.77L104.338 145.827C106.416 147.476 106.611 147.149 106.619 149.92C105.962 153.801 104.116 159.261 103.069 163.276C99.4246 174.371 89.2456 171.762 81.6421 166.602L80.3159 165.704C78.6375 164.501 78.1805 163.32 77.1895 161.527C78.4659 158.034 79.6213 161.916 82.227 156.88L83.5833 153.516L83.7155 152.726Z" fill="#2070E8"/>
<path d="M104.338 145.827C106.416 147.477 106.611 147.15 106.619 149.921C105.962 153.802 104.116 159.262 103.069 163.277C99.4246 174.372 89.2456 171.762 81.6421 166.603L80.3159 165.705C78.6375 164.502 78.1805 163.321 77.1895 161.528C78.4659 158.035 79.6213 161.917 82.227 156.881L82.7741 157.52C87.4227 158.345 91.0199 159.592 95.1798 161.89C96.2572 162.485 98.6757 163.916 99.734 163.989C101.434 161.219 103.964 149.632 104.338 145.827Z" fill="#135BCA"/>
<path d="M72.0871 122.517L72.9716 123.209C74.0543 124.13 75.1127 124.945 76.0178 126.039C76.7514 126.324 77.8223 126.693 78.4832 127.057C77.1464 128.944 75.7664 130.85 74.4574 132.752C74.5182 134.002 74.4918 134.844 74.8632 136.053C77.8024 137.196 80.1013 143.938 84.1982 146.913C83.5754 148.827 82.2695 148.979 81.0798 150.645C80.3936 151.399 80.4421 151.354 79.5221 151.797C81.3377 152.797 82.37 152.909 83.5827 153.516L82.2264 156.88C79.6207 161.916 78.4653 158.035 77.1888 161.528L76.8388 158.744L75.6705 158.442L75.089 159.028L74.7321 158.276C72.6457 157.278 72.1008 157.087 70.4251 155.359C68.5048 148.779 66.3855 134.824 66.9811 128.09C67.9405 125.208 69.6239 123.985 72.0871 122.517Z" fill="#9B9A99"/>
<path d="M74.8656 136.053C77.8048 137.196 80.1037 143.938 84.2006 146.913C83.5778 148.827 82.2719 148.979 81.0822 150.645C80.396 151.399 80.4445 151.355 79.5245 151.797L77.2076 150.487C72.6565 149.061 70.6479 144.767 68.0449 140.941L69.9801 137.749C71.8541 137.309 73.1016 136.765 74.8656 136.053Z" fill="#135BCA"/>
<path d="M77.2062 150.487L79.5231 151.797C81.3387 152.797 82.371 152.909 83.5837 153.516L82.2274 156.881C79.6217 161.917 78.4663 158.035 77.1898 161.528L76.8398 158.744C77.6559 158.718 77.3927 158.786 78.124 158.301C78.9786 155.464 77.834 153.927 77.317 151.112L77.2062 150.487Z" fill="#808081"/>
<path d="M72.0884 122.517L72.9728 123.209C74.0556 124.13 75.114 124.945 76.0191 126.039L75.5885 127.012C72.8647 127.769 69.5365 127.25 66.9824 128.09C67.9418 125.208 69.6252 123.985 72.0884 122.517Z" fill="#BEBCBC"/>
<path d="M74.4563 132.752C74.517 134.002 74.4907 134.844 74.862 136.053C73.098 136.765 71.8506 137.309 69.9766 137.749C71.3692 135.583 72.6056 134.529 74.4563 132.752Z" fill="#2070E8"/>
<path d="M113.613 145.743L113.972 145.645C117.193 144.75 122.194 143.472 123.788 140.296C126.321 135.256 118.905 129.981 118.229 128.036C122.508 129.478 123.26 135.067 128.116 136.296C127.891 137.34 127.681 138.333 127.413 139.368C126.951 142.488 126.5 145.48 126.176 148.623L120.93 149.547C117.801 149.532 114.289 149.295 111.137 149.153C109.781 148.861 108.467 148.375 107.259 148.926L106.618 149.92C106.61 147.15 106.415 147.477 104.337 145.827L103.744 143.77C102.48 142.063 100.493 139.207 98.2695 139.098C92.4047 138.812 86.5989 148.588 83.7143 152.727L83.5821 153.516C82.3694 152.909 81.3371 152.797 79.5215 151.797C80.4415 151.355 80.393 151.399 81.0792 150.645C82.2689 148.979 83.5748 148.827 84.1976 146.913C86.412 141.614 92.2252 135.959 97.62 133.719C103.683 143.85 106.205 140.438 113.613 145.743Z" fill="#1352B9"/>
<path d="M103.744 143.77C105.815 143.518 109.666 147.563 111.137 149.153C109.781 148.861 108.466 148.375 107.259 148.926L106.617 149.92C106.61 147.15 106.415 147.477 104.336 145.827L103.744 143.77Z" fill="#1352B9"/>
<path d="M81.0792 150.645L83.4266 149.844L83.9997 150.133C84.0104 151.384 83.9515 151.541 83.7143 152.726L83.5821 153.516C82.3694 152.909 81.3371 152.797 79.5215 151.797C80.4415 151.354 80.393 151.399 81.0792 150.645Z" fill="#356BB7"/>
<path d="M135.536 114.443L136.121 115.132C134.921 116.147 133.943 116.898 132.923 118.11C138.887 119.705 143.303 120.883 146.52 126.607C147.151 127.727 147.483 129.384 148.026 130.232C145.672 131.233 143.132 130.886 140.572 130.747C138.883 130.565 136.824 130.211 135.112 129.961C133.771 130.247 133.641 130.293 132.38 130.841C129.19 122.971 132.579 124.209 132.166 116.963L135.536 114.443Z" fill="#1352B9"/>
<path d="M155.623 100.764C156.528 101.325 157.376 101.84 158.247 102.462C160.307 109.481 161.824 116.549 158.801 123.532C155.332 126.916 153.747 128.543 148.891 129.84C159.126 120.648 159.34 113.625 155.623 100.764Z" fill="#135BCA"/>
<path d="M124.463 100.067C125.961 99.3782 130.672 98.4237 132.364 98.0925C141.041 96.3957 146.168 96.175 154.222 92.0419C153.13 94.2825 153.573 94.1133 155.43 96.0841L155.25 97.4331C154.498 97.6634 153.944 97.7793 153.172 97.9409C145.274 95.4408 133.151 100.555 124.395 100.931L124.463 100.067Z" fill="#1A4BA1"/>
<path d="M124.265 31.6711L124.506 31.7337L124.345 33.8561C122.313 34.5804 119.982 34.7331 117.659 35.3775C114.198 36.3355 108.268 39.5187 105.181 40.1447C103.928 39.4842 104.383 39.0447 103.584 38.3984C109.185 34.3125 117.438 32.1286 124.265 31.6711Z" fill="#2070E8"/>
<path d="M93.0499 85.4685C95.5792 87.7299 98.8459 90.935 101.853 92.3198L101.276 92.5972C99.5527 93.4117 99.2012 92.8836 97.7188 94.3374L97.0272 94.9983C95.2506 95.1062 94.0968 95.3384 92.5876 94.5278C91.0766 90.6851 90.3606 88.7849 93.0499 85.4685Z" fill="#135BCA"/>
<path d="M101.853 92.3193C109.513 95.2251 114.625 96.2218 122.847 96.2997C119.928 97.6158 116.876 98.9399 114.01 100.342C107.786 94.4291 106.216 94.8444 97.7188 94.337C99.2012 92.8831 99.5527 93.4113 101.276 92.5968L101.853 92.3193Z" fill="#1149AA"/>
<path d="M102.279 110.855C101.878 112.189 100.449 114.481 100.43 115.272C102.088 116.439 105.897 117.812 107.887 118.375C108.537 118.105 108.292 118.259 108.671 117.986C109.588 119.861 110.023 120.855 111.311 122.548C106.279 119.459 100.617 116.762 94.5801 116.473C97.8773 115.844 100.036 113.187 102.279 110.855Z" fill="#135BCA"/>
<path d="M124.233 100.037L124.466 100.067L124.397 100.931C122.781 104.273 120.672 114.953 119.686 116.262C118.238 113.996 121.914 104.532 122.624 101.714L124.233 100.037Z" fill="#AABDD1"/>
<path d="M122.623 101.713C119.413 102.121 117.151 103.338 113.533 103.772C114.488 102.683 122.5 99.5994 124.231 100.036L122.623 101.713Z" fill="#135BCA"/>
<path d="M136.888 108.489L137.568 108.905L137.973 110.967L138.045 111.599C138.16 112.549 138.282 112.769 138.645 113.643C138.068 114.519 137.14 114.722 136.12 115.132L135.535 114.443C136.009 112.978 136.544 110.106 136.888 108.489Z" fill="#1A4BA1"/>
<path d="M85.5119 120.171C85.293 121.799 82.3079 125.627 80.712 126.003L79.9746 125.735C81.7738 123.302 83.1553 121.992 85.5119 120.171Z" fill="#4885D5"/>
<path d="M136.889 108.489L137.298 106.678L137.672 106.487C138.15 108.37 138.058 109.05 137.974 110.967L137.569 108.905L136.889 108.489Z" fill="#1352B9"/>
<path d="M114.652 47.6196L115.076 47.5563C122.97 46.4605 134.604 48.008 141.225 53.1985C149.325 59.547 149.481 71.5811 143.238 79.319C138.726 84.909 132.739 86.7759 125.705 87.4394C113.185 88.8488 94.3262 86.7072 92.3471 71.1827C90.313 55.1997 101.196 49.562 114.652 47.6196Z" fill="#FFFFFE"/>
<path d="M126.864 73.479C126.038 69.7604 125.549 63.1824 130.47 62.1557C131.678 61.9159 132.927 62.1818 133.936 62.8922C137.29 65.2933 136.434 71.035 134.574 74.0617C131.517 77.1367 129.466 76.678 126.864 73.479Z" fill="#222121"/>
<path d="M126.863 73.4788C129.931 72.7929 131.555 73.1441 134.573 74.0614C131.517 77.1364 129.465 76.6777 126.863 73.4788Z" fill="#483833"/>
<path d="M132.294 63.3632C133.688 63.8909 133.673 64.0506 134.204 65.3148C134.15 66.8181 134.005 66.9202 133.207 68.2624C131.885 67.7427 131.472 67.3912 130.93 66.1173C131.109 64.6428 131.296 64.5572 132.294 63.3632Z" fill="#FFFFFE"/>
<path d="M108.209 65.968C108.435 68.9121 107.101 75.8797 102.597 74.7924C97.3167 73.5174 98.3673 57.9223 106.693 62.3933C107.663 63.897 108.076 64.2589 108.209 65.968Z" fill="#222121"/>
<path d="M107.004 66.326C106.546 67.1343 105.537 67.4406 104.712 67.0234C103.887 66.6058 103.528 65.611 103.902 64.7605C104.276 63.9096 105.247 63.5016 106.11 63.8325C106.584 64.0136 106.955 64.3939 107.127 64.8733C107.299 65.3527 107.253 65.8835 107.004 66.326Z" fill="#FFFFFE"/>
<path d="M106.69 62.3934C107.661 63.8972 108.073 64.2591 108.207 65.9682L107.003 66.3259C107.252 65.8833 107.298 65.3525 107.126 64.8732C106.954 64.3938 106.583 64.0135 106.109 63.8323L106.69 62.3934Z" fill="#383839"/>
<path d="M113.079 80.5207C111.436 78.4762 110.064 77.0377 109.525 74.4198C109.919 73.058 109.533 73.5623 110.641 72.8013C115.833 74.4136 121.492 73.0081 123.352 74.376C123.333 75.9293 122.458 77.2346 121.732 78.6696C119.024 81.6437 116.853 82.2831 113.079 80.5207Z" fill="#222121"/>
<path d="M113.08 80.5208C116.053 77.521 117.764 75.985 121.734 78.6697C119.025 81.6438 116.855 82.2832 113.08 80.5208Z" fill="#D7544A"/>
<path d="M126.407 105.323C131.545 105.696 131.473 108.433 129.96 112.241C126.036 111.97 124.752 108.807 126.407 105.323Z" fill="#C0D1F7"/>
<path d="M104.498 97.9645C107.184 98.5663 109.209 100.698 110.76 102.832C107.639 102.172 106.16 100.355 104.498 97.9645Z" fill="#1A4BA1"/>
<path d="M27.7987 109.43C27.2027 108.213 27.2042 107.88 27.4679 106.672C29.2769 104.781 30.6623 105.748 32.1829 107.215C32.3755 108.38 32.5096 109.004 32.4947 110.207C32.8466 110.612 38.4118 111.744 40.1471 112.424C43.2724 110.813 45.5969 108.723 48.5052 111.509C49.5238 114.274 49.2495 117.445 47.3571 119.76C48.6458 121.895 48.8525 122.285 49.5547 124.695C50.2608 125.489 50.4358 125.876 51.3397 126.329C55.2892 132.784 46.9991 137.234 46.732 138.242L48.7275 138.748C56.5259 141.095 61.0626 141.018 59.6871 150.407C57.4807 154.638 52.3068 153.898 51.2748 155.981C49.4672 155.132 46.7389 155.328 45.608 157.125C45.9813 159.013 46.3557 161.247 46.8768 163.073L47.1939 164.636C47.7304 166.729 48.0784 168.537 49.1429 170.419L48.6183 170.673C44.6043 172.571 43.1009 171.164 44.2864 176.77C39.2672 175.952 34.6916 177.416 29.9181 176.493L29.353 176.438C26.1646 176.906 14.8834 174.936 11.5006 174.189C10.6615 172.797 10.9359 172.72 9.74611 172.24C12.7782 170.727 12.5887 169 13.5171 165.779C14.2602 162.683 14.9625 159.577 15.6238 156.462C14.4234 155.458 11.8207 155.434 10.2313 155.338C6.0179 154.224 2.75888 153.282 0.173052 149.572C0.00838121 147.525 -0.322476 146.121 0.835185 144.36C3.19215 140.776 9.07521 139.751 13.0334 138.932C11.6328 136.633 11.3726 135.955 10.4701 133.396C8.59073 129.759 9.40338 125.821 10.911 122.283C8.60028 120.23 8.94835 119.07 9.28266 116.237C11.211 109.931 13.741 110.692 18.6353 113.057C22.1369 111.81 24.1515 110.91 27.8656 110.764L27.7987 109.43Z" fill="#B27C3F"/>
<path d="M27.7969 109.43C27.2008 108.213 27.2024 107.88 27.466 106.672C29.2751 104.781 30.6604 105.748 32.1811 107.215C32.3736 108.38 32.5077 109.004 32.4928 110.207C32.8447 110.612 38.4099 111.744 40.1452 112.424C43.2705 110.813 45.595 108.723 48.5033 111.509C49.5219 114.274 49.2476 117.445 47.3552 119.76C48.6439 121.895 48.8506 122.285 49.5529 124.695C50.2589 125.489 50.4339 125.876 51.3379 126.329C55.2873 132.784 46.9972 137.234 46.7301 138.242C44.7621 137.657 39.464 141.075 38.3025 142.577C35.3495 143.878 35.3511 143.375 33.4094 144.053L33.3192 144.589C33.1859 146.491 33.4786 146.462 32.5819 147.837C31.5033 148.289 31.3447 148.354 30.1446 148.619C29.4321 148.322 28.9511 148.368 28.1587 148.306L28.2752 148.627C26.724 148.688 21.0755 147.387 18.9512 147.025C18.6211 146.815 18.2093 146.501 17.8841 146.268L18.915 146.044L18.7197 145.872C16.712 145.532 15.4802 145.855 14.8616 143.816C15.0779 140.713 15.544 140.533 13.0315 138.932C11.6309 136.633 11.3707 135.955 10.4682 133.396C8.58885 129.759 9.4015 125.821 10.9091 122.283C8.5984 120.23 8.94647 119.07 9.28078 116.237C11.2091 109.931 13.7391 110.692 18.6334 113.057C22.135 111.81 24.1497 110.91 27.8637 110.764L27.7969 109.43Z" fill="#F6ABA5"/>
<path d="M51.3378 126.328C55.2872 132.783 46.9971 137.233 46.73 138.241C44.762 137.657 39.4639 141.075 38.3024 142.577C35.3494 143.877 35.351 143.374 33.4093 144.052C32.1848 139.458 36.1778 139.154 39.7195 137.968C38.3758 136.269 37.4007 135.159 36.9644 133.044C38.4942 131.77 41.6359 135.288 46.2586 134.234C47.2477 133.414 46.9295 133.916 47.2619 132.686L46.7961 132.091L45.9273 132.295C44.3261 129.42 43.6391 131.19 42.7741 127.443L43.165 127.569C46.1382 126.661 46.0182 128.384 48.8696 127.565C49.7094 127.092 50.472 126.742 51.3378 126.328Z" fill="#E58C85"/>
<path d="M10.4707 133.395C13.3244 133.741 16.6529 139.043 20.0323 139.927C23.0388 140.714 25.3885 139.32 27.439 141.745C28.4909 146.136 25.5142 147.606 31.9092 147.451C33.2151 145.67 31.4175 146.567 33.3217 144.588C33.1884 146.49 33.481 146.461 32.5843 147.836C31.5058 148.288 31.3472 148.353 30.1471 148.618C29.4346 148.321 28.9535 148.367 28.1611 148.306L28.2777 148.626C26.7265 148.687 21.078 147.386 18.9537 147.024C18.6236 146.815 18.2118 146.501 17.8866 146.267L18.9174 146.043L18.7222 145.871C16.7144 145.531 15.4827 145.854 14.8641 143.815C15.0803 140.712 15.5465 140.532 13.034 138.932C11.6333 136.632 11.3731 135.954 10.4707 133.395Z" fill="#E58C85"/>
<path d="M18.7203 145.871C20.1072 144.757 20.2486 144.532 21.1858 143.006C23.0316 143.34 25.0072 143.646 26.8106 144.124C26.9428 146.174 26.7521 146.931 28.1593 148.306L28.2758 148.627C26.7246 148.688 21.0762 147.387 18.9519 147.024C18.6218 146.815 18.2099 146.501 17.8848 146.267L18.9156 146.043L18.7203 145.871Z" fill="#805329"/>
<path d="M9.28078 116.237C11.2091 109.931 13.7391 110.692 18.6334 113.057L19.3918 113.403C17.8268 114.904 15.4699 117.983 13.5263 118.933L11.5972 121.5L10.9091 122.283C8.5984 120.23 8.94647 119.07 9.28078 116.237Z" fill="#D57E76"/>
<path d="M9.28125 116.237C11.2095 109.931 13.7396 110.692 18.6339 113.057L19.3922 113.403C17.8273 114.904 15.4703 117.983 13.5268 118.933C14.5786 117.275 15.7408 116.015 17.015 114.532C15.899 113.936 15.2816 113.483 14.0173 113.383C12.781 113.955 12.661 114.112 11.6203 115.035C10.4095 114.914 10.6063 115.157 9.28125 116.237Z" fill="#FCA9A5"/>
<path d="M9.28078 116.236C10.6058 115.157 10.409 114.914 11.6198 115.034C11.3676 116.985 10.8904 119.669 11.5972 121.5L10.9091 122.282C8.5984 120.229 8.94647 119.069 9.28078 116.236Z" fill="#E58C85"/>
<path d="M48.5053 111.508C49.5239 114.273 49.2495 117.445 47.3572 119.759L46.4146 117.261L45.8583 118.133C44.4622 117.1 43.0024 115.864 41.6426 114.761C43.65 112.667 44.1077 112.306 46.9354 111.797L48.5053 111.508Z" fill="#D57E76"/>
<path d="M48.5047 111.508C49.5233 114.273 49.249 117.445 47.3566 119.759L46.4141 117.261L46.9348 111.797L48.5047 111.508Z" fill="#E58C85"/>
<path d="M27.7988 109.43C27.2028 108.213 27.2043 107.88 27.4679 106.672C29.277 104.781 30.6624 105.748 32.183 107.215C32.3755 108.38 32.5096 109.004 32.4947 110.207C31.8185 111.112 32.0428 110.872 32.1077 112.324C30.8354 112.641 30.3529 112.672 29.2739 113.452L28.752 113.324C27.7946 112.313 28.0968 112.477 27.8656 110.764L27.7988 109.43Z" fill="#C88F2F"/>
<path d="M27.7988 109.43C27.2028 108.213 27.2043 107.88 27.4679 106.672C29.277 104.781 30.6624 105.748 32.183 107.215C29.5796 110.036 30.2218 108.451 27.7988 109.43Z" fill="#E9B43E"/>
<path d="M46.415 117.262L47.3576 119.759C48.6463 121.895 48.853 122.285 49.5552 124.694L48.9084 125.257C47.8726 125.144 48.2035 125.261 47.2793 124.838C45.9703 123.967 46.1124 124.274 44.2097 124.277C43.0418 123.544 43.5224 124.032 42.9004 122.603C43.4189 121.473 44.4184 121.334 45.84 120.545C46.347 119.318 46.1824 119.686 45.8587 118.134L46.415 117.262Z" fill="#E58C85"/>
<path d="M42.775 127.444C43.64 131.191 44.327 129.421 45.9282 132.295C44.3804 132.66 43.8173 132.69 42.3104 132.364C41.3121 131.508 41.6556 132.033 41.3281 130.68C41.787 129.042 41.876 128.915 42.775 127.444Z" fill="#D57E76"/>
<path d="M49.5545 124.694C50.2606 125.488 50.4356 125.875 51.3396 126.328C50.4738 126.742 49.7112 127.092 48.8714 127.565C47.5716 127.222 46.7391 127.229 45.7285 126.247L45.9024 125.543L47.2786 124.837C48.2028 125.26 47.8719 125.143 48.9077 125.256L49.5545 124.694Z" fill="#FCA9A5"/>
<path d="M32.1072 112.324L33.3375 112.708L33.543 113.307C32.0709 114.283 30.8552 113.937 29.2734 113.452C30.3524 112.672 30.8349 112.641 32.1072 112.324Z" fill="#573618"/>
<path d="M25.787 113.36C29.8235 114.616 34.3701 119.691 30.1204 123.638C26.6474 121.675 27.8571 120.626 26.1156 117.615C25.8829 117.213 23.8266 115.742 23.3242 115.382C23.6108 114.583 24.9255 113.939 25.787 113.36Z" fill="#E58C85"/>
<path d="M15.6238 156.462C17.7355 156.693 25.0876 157.308 26.6063 157.887L26.8898 158.31L26.9872 158.034C28.3661 156.812 31.575 156.505 32.9921 157.615C36.4292 157.694 41.4706 156.929 45.1128 156.647L45.608 157.124C45.9812 159.013 46.3557 161.247 46.8768 163.073L47.1939 164.636C47.7303 166.729 48.0784 168.536 49.1428 170.419L48.6183 170.673C44.6043 172.571 43.1009 171.164 44.2864 176.769C39.2672 175.952 34.6916 177.415 29.918 176.493L29.353 176.437C26.1646 176.906 14.8833 174.936 11.5005 174.189C10.6615 172.797 10.9358 172.72 9.74609 172.24C12.7782 170.726 12.5887 169 13.5171 165.779C14.2602 162.683 14.9624 159.577 15.6238 156.462Z" fill="#CCCED1"/>
<path d="M15.6238 156.462C17.7355 156.693 25.0876 157.308 26.6063 157.887L26.8898 158.31C26.8367 160.002 26.753 161.637 26.8458 163.329C27.0667 166.852 26.4844 174.338 29.353 176.437C26.1646 176.906 14.8833 174.936 11.5005 174.189C10.6615 172.797 10.9358 172.72 9.74609 172.24C12.7782 170.726 12.5887 169 13.5171 165.779C14.2602 162.683 14.9624 159.577 15.6238 156.462Z" fill="#CCCED1"/>
<path d="M15.6223 156.462C17.734 156.693 25.0861 157.308 26.6048 157.887L26.8883 158.31C26.8352 160.002 26.7515 161.637 26.8444 163.329C23.4279 163.635 14.8253 166.35 13.5156 165.779C14.2587 162.683 14.961 159.577 15.6223 156.462Z" fill="#FFFFFE"/>
<path d="M26.8884 158.309L26.9858 158.033C28.3647 156.812 31.5736 156.505 32.9907 157.614L32.8276 163.387C32.6469 166.531 33.2085 175.291 29.9166 176.492L29.3516 176.437C26.483 174.337 27.0653 166.852 26.8444 163.328C26.7516 161.636 26.8353 160.001 26.8884 158.309Z" fill="#805329"/>
<path d="M32.9932 157.614C36.4303 157.693 41.4717 156.928 45.1139 156.646L45.6091 157.124C45.9823 159.012 46.3568 161.246 46.8779 163.072L47.195 164.635L46.5562 164.813C41.2485 163.364 38.1687 163.291 32.8301 163.387L32.9932 157.614Z" fill="#FFFFFE"/>
<path d="M0.173828 149.572C0.379762 148.324 0.265911 147.585 0.961653 146.802C1.8683 147.287 6.2529 149.648 7.02964 149.875C20.9705 153.944 38.4232 154.044 52.4114 150.065C54.0883 149.588 57.5399 147.645 59.0755 146.825C59.7605 147.798 59.6424 149.157 59.6879 150.407C57.4815 154.637 52.3075 153.898 51.2756 155.981C49.468 155.131 46.7397 155.328 45.6088 157.124L45.1136 156.647C41.4714 156.929 36.43 157.694 32.9929 157.615C31.5758 156.505 28.3669 156.812 26.988 158.034L26.8906 158.31L26.6071 157.887C25.0884 157.308 17.7363 156.693 15.6246 156.462C14.4241 155.458 11.8215 155.434 10.2321 155.338C6.01867 154.224 2.75965 153.282 0.173828 149.572Z" fill="#8A5B2E"/>
<path d="M38.3044 142.576C39.4658 141.074 44.764 137.656 46.732 138.241L48.7275 138.747C46.7247 139.014 46.1535 138.634 45.6068 140.859C47.6142 141.549 52.6479 142.939 53.5412 144.634C52.0901 146.596 32.2727 149.864 30.1465 148.618C31.3466 148.353 31.5051 148.288 32.5837 147.836C33.4804 146.461 33.1877 146.49 33.3211 144.589L33.4113 144.052C35.3529 143.374 35.3514 143.877 38.3044 142.576Z" fill="#895E32"/>
<path d="M38.3027 142.576C39.4642 141.074 44.7623 137.656 46.7304 138.241L48.7259 138.747C46.7231 139.014 46.1519 138.634 45.6052 140.859L44.7325 144.235C42.3718 143.125 41.8212 143.119 39.3359 143.903L38.3027 142.576Z" fill="#D57E76"/>
<path d="M39.3359 143.904C41.8213 143.12 42.3718 143.126 44.7326 144.235C42.4349 145.485 41.4579 145.662 39.3359 143.904Z" fill="#D7544A"/>
<path d="M18.9506 147.024C17.2385 146.952 12.6209 146.343 13.8668 143.672L14.861 143.815C15.4795 145.854 16.7113 145.531 18.7191 145.871L18.9143 146.043L17.8835 146.267C18.2086 146.5 18.6205 146.814 18.9506 147.024Z" fill="#895E32"/>
<path d="M124.267 31.6712C123.824 26.4258 124.232 1.66351 130.044 0C131.767 0.115371 132.798 1.11709 133.86 2.39143C136.08 5.04707 133.639 8.87915 134.334 11.9308L134.754 12.062C137.169 10.6059 141.987 10.2846 144.451 11.4641C155.019 16.5176 152.807 27.0706 147.298 34.2872L147.26 34.7298L147 34.6077C137.807 31.6294 133.987 31.7526 124.507 31.7338L124.267 31.6712Z" fill="#C3C2C2"/>
<path d="M135.444 30.1068C122.855 16.9774 152.541 13.9994 140.67 29.0583C138.451 30.3674 137.958 30.5609 135.444 30.1068Z" fill="#FFFFFE"/>
<path d="M140.673 29.0581C143.344 29.5705 144.811 30.9222 146.565 32.9334C146.71 33.4645 146.893 34.0763 147 34.6075C137.808 31.6292 133.987 31.7524 124.508 31.7336L124.645 30.1496C126.078 30.725 134.587 31.2657 136.44 31.1686C135.932 30.5434 136.203 30.8236 135.263 30.5169L135.446 30.1067C137.96 30.5607 138.453 30.3673 140.673 29.0581Z" fill="#A8A7A9"/>
<path d="M52.4987 164.911C54.9454 165.489 60.2489 166.847 61.8031 168.819C61.9078 170.355 61.3832 170.85 60.0701 171.669L60.6416 172.981L60.8697 173.397C62.6448 174.228 63.0957 174.171 64.0168 175.738C63.4464 177.433 61.3691 177.249 59.7243 177.279C54.5874 178.647 49.3401 180.139 44.6189 176.82L44.2865 176.769C43.101 171.163 44.6044 172.57 48.6184 170.672L49.143 170.418C50.5574 169.835 51.9416 169.76 52.9755 168.923L52.4987 164.911Z" fill="#EFBC3E"/>
<path d="M50.8125 176.452C52.0665 175.956 53.4667 175.74 54.8872 175.171C56.9481 174.346 58.5291 172.842 60.6408 172.981L60.8689 173.397C62.6439 174.228 63.0948 174.172 64.0159 175.738C63.4455 177.434 61.3682 177.249 59.7234 177.279C54.5866 178.647 49.3393 180.139 44.6181 176.82C44.5741 175.328 44.4056 176.001 45.104 174.717C46.7958 175.506 49.1471 176.961 50.8125 176.452Z" fill="#D89F2D"/>
<path d="M60.8681 173.398C62.6432 174.228 63.094 174.172 64.0152 175.739C63.4447 177.434 61.3675 177.25 59.7227 177.28C60.7069 175.768 60.7577 175.166 60.8681 173.398Z" fill="#DBD7D2"/>
<path d="M52.498 164.911C54.9448 165.489 60.2483 166.847 61.8025 168.819C61.9072 170.355 61.3826 170.85 60.0695 171.669C57.3755 167.982 55.1668 170.517 52.9749 168.923L52.498 164.911Z" fill="#DBD7D2"/>
<path d="M45.1055 174.717C46.8527 173.788 49.8106 175.018 50.8139 176.452C49.1485 176.962 46.7973 175.506 45.1055 174.717Z" fill="#EFCD72"/>
<path d="M10.2309 155.337C11.8203 155.434 14.423 155.457 15.6234 156.461C14.9621 159.576 14.2599 162.682 13.5167 165.778C12.5883 168.999 12.7778 170.726 9.74574 172.239L8.25453 171.199C7.53777 169.674 7.76358 170.142 8.01345 168.19L7.95728 167.141C8.73593 165.308 9.36903 160.122 9.69493 157.933L10.2309 155.337Z" fill="#805329"/>
<path d="M9.69468 157.933C10.7056 159.796 12.3569 161.711 11.7655 164.129C11.1863 166.497 9.06198 166.986 8.01321 168.19L7.95703 167.141C8.73568 165.309 9.36878 160.122 9.69468 157.933Z" fill="#895E32"/>
<path d="M45.6074 157.124C46.7383 155.328 49.4667 155.131 51.2742 155.981L51.2777 156.335C51.8813 159.051 52.1686 162.125 52.498 164.912L52.9748 168.923C51.9409 169.76 50.5567 169.835 49.1423 170.418C48.0779 168.536 47.7298 166.728 47.1934 164.636L46.8763 163.072C46.3551 161.246 45.9807 159.012 45.6074 157.124Z" fill="#895E32"/>
<path d="M45.6074 157.124C46.7383 155.328 49.4667 155.131 51.2742 155.981L51.2777 156.335C51.2001 159.266 49.4082 161.723 46.8763 163.072C46.3551 161.246 45.9807 159.012 45.6074 157.124Z" fill="#573618"/>
<path d="M92.5896 94.5272C94.0988 95.3378 95.2526 95.1056 97.0292 94.9978C100.651 96.6673 100.082 97.5239 101.194 101.222C98.7753 98.8634 98.0111 98.4474 95.1189 96.9168C92.5017 96.4159 91.0476 96.8811 88.7766 98.4197C88.443 98.6485 88.1171 98.8884 87.7993 99.139C87.4745 97.4836 87.8806 98.0901 86.7891 97.1114C88.508 95.8913 90.5165 94.9279 92.5896 94.5272Z" fill="#4885D5"/>
<path d="M2.49414 170.103C4.43122 168.612 5.5606 167.585 7.95654 167.141L8.01272 168.19C7.76285 170.142 7.53704 169.674 8.25379 171.199L9.745 172.239C10.9348 172.72 10.6604 172.797 11.4994 174.189C7.29481 173.081 6.09855 172.58 2.49414 170.103Z" fill="#DBD7D2"/>
</svg>
