<svg width="230" height="180" viewBox="0 0 230 180" fill="none" xmlns="http://www.w3.org/2000/svg">
<path d="M140.194 29.447L143.14 29.3391L149.468 29.3935C155.427 29.5501 156.978 30.1316 162.582 31.9773C183.191 41.1664 188.435 60.4508 179.35 80.4286C181.464 80.5568 183.579 80.6987 185.693 80.8546C189.091 81.3514 190.462 81.8142 193.056 84.3533C196.557 89.0226 195.854 93.1688 195.386 98.7285C205.671 99.9987 207.597 104.493 214.924 111.729L215.22 111.63C216.942 110.195 219.197 110.069 220.952 111.533C221.427 112.952 221.331 113.208 220.312 114.491C221.855 115.962 224.517 116.958 226.855 119.061L224.453 120.855L222.742 122.853C223.422 123.923 223.893 124.737 224.745 125.694C223.318 127.244 222.107 128.175 222.007 130.257L221.863 131.732L222.582 133.362L222.794 132.991L224.061 132.835L225.98 132.247C226.999 131.932 228.162 131.22 229.134 130.689L228.966 132.247C229.337 141.859 225.704 136.5 224.569 140.477L224.925 141.32C226.496 141.74 228.162 141.915 228.89 143.166C226.747 148.326 193.659 150.4 187.364 150.468C186.201 153.23 185.597 153.694 182.987 155.208L183.827 162.73C186.445 163.429 190.989 164.349 192.896 166.211C193.264 170.999 157.33 176.89 152.278 178.201C150.291 179.792 149.679 179.428 147.245 178.897C133.475 177.086 112.351 176.583 99.5807 173.249C96.2995 173.105 86.5178 170.208 83.4372 168.805L82.984 168.597L82.5867 169.712L82.8017 170.731C84.4545 171.295 84.584 171.287 85.8323 172.442C86.298 173.789 86.3148 173.129 85.7044 174.48C84.4213 175.559 83.0204 175.975 81.334 176.127C73.3718 176.674 63.256 176.786 55.2218 176.734C52.0373 178.749 46.9522 179.748 43.2601 179.272C41.2404 179.512 38.5332 179.904 36.571 180C33.7562 179.908 30.2312 179.692 28.243 177.626L27.8401 175.056C24.5417 177.905 8.87115 175.527 7.20596 171.091C7.93423 169.784 7.60048 170.22 9.15015 169.46C6.20909 159.413 9.09657 153.03 14.9883 144.885C11.6323 144.389 1.20153 143.314 0 140.245C0.886954 139.026 1.00846 139.314 2.75239 138.686C1.55446 137.043 1.2459 136.352 0.38573 134.549C0.355752 134.266 0.330164 133.982 0.308979 133.698C-0.20105 126.519 6.21347 126.539 5.79378 120.817C5.4952 116.74 6.21827 115.123 10.6954 115.596L10.2825 114.12C8.00099 107.029 17.7207 94.9924 26.0183 100.512C27.0371 101.156 28.0907 101.787 29.0548 102.503C30.3087 99.8987 29.1824 87.9847 29.7839 83.6291C31.6869 83.1303 43.4164 66.9794 45.9797 64.1493C45.6947 63.7436 45.2395 62.5387 45.022 62.0183L45.2934 61.6186C44.7103 60.8764 44.835 61.2018 44.6827 60.2949L45.2171 59.6934L45.9497 60.0703L46.126 59.7482L46.0849 58.6707C47.6026 57.6867 59.6298 58.3318 62.7259 58.022C68.8299 57.9369 81.9563 57.9017 87.7781 58.5596C90.6308 61.6782 103.537 78.0809 104.353 81.6456C103.83 83.2974 102.068 82.8589 100.49 82.8433C100.428 86.3988 99.9488 97.0231 100.751 99.5646C103.538 97.4408 106.908 95.004 109.533 92.7579C109.481 92.4374 109.429 92.1164 109.377 91.7955C108.849 88.3927 108.32 85.7058 110.4 82.8597C101.43 67.9122 106.247 47.3049 119.989 36.8804C125.597 32.536 133.283 30.3922 140.194 29.447Z" fill="#2070E8"/>
<path d="M84.5743 117.922C86.5777 117.639 87.3235 117.051 88.8984 117.483L89.4907 118.235L90.2266 120.747L90.6735 120.746L91.0384 122.279C92.644 123.479 93.7045 123.687 95.5983 124.306C94.1362 127.204 93.9279 127.927 91.5664 130.153C87.7096 132.95 84.6391 134.497 86.0808 139.761L85.1795 140.26L86.1448 139.785L85.7886 140.085L85.0975 139.829L85.2007 139.185L85.0216 139.093L85.1675 139.413C84.8549 140.548 84.5383 141.915 84.0235 142.938C84.0431 140.876 84.1502 139.249 83.6394 137.231C83.2293 135.912 82.9191 133.766 82.6621 132.339L82.7473 132.023C83.2141 130.485 83.0618 127.967 83.0574 126.27L83.3832 126L84.1706 124.582L84.4988 124.122C84.2258 122.166 84.1226 119.851 84.5743 117.922Z" fill="#939293"/>
<path d="M84.5769 117.922C86.5802 117.639 87.3261 117.051 88.9009 117.483L89.4933 118.235L90.2292 120.747L90.676 120.746L91.041 122.279L90.7992 123.017C91.4439 123.718 91.3903 123.7 92.2397 124.115C92.6358 125.405 92.7018 125.396 92.5487 126.795C91.4671 128.083 90.3255 128.071 88.7299 127.515L88.9977 127.479C87.8493 127.084 83.2091 125.924 83.3858 126L84.1732 124.582L84.5013 124.122C84.2283 122.166 84.1252 119.851 84.5769 117.922Z" fill="#BEBCBC"/>
<path d="M84.5772 117.922C86.5805 117.639 87.3264 117.051 88.9013 117.483L89.4936 118.235L90.2295 120.747C87.3708 121.635 86.4958 121.776 84.5017 124.122C84.2286 122.166 84.1255 119.851 84.5772 117.922Z" fill="#587947"/>
<path d="M62.7259 58.0216C68.8299 57.9365 81.9563 57.9013 87.7781 58.5592C90.6308 61.6778 103.537 78.0805 104.353 81.6452C103.83 83.297 102.068 82.8585 100.49 82.8429C100.428 86.3984 99.9488 97.0227 100.751 99.5642C99.0739 102.096 95.9218 104.511 93.8277 106.815C92.5746 108.193 91.6373 109.516 90.429 110.89L90.096 111.745C89.3801 114.114 89.5 115.766 89.492 118.235L88.8997 117.483C87.3248 117.051 86.579 117.639 84.5756 117.922C84.124 119.851 84.2271 122.166 84.5001 124.122L84.1719 124.582L83.3845 126L83.0587 126.27C83.0631 127.967 83.2154 130.484 82.7486 132.023L82.6634 132.339C82.9204 133.766 83.2306 135.912 83.6407 137.231C82.6518 137.139 81.9755 136.963 81.0534 137.191L81.6246 138.59L81.9375 139.121C81.868 140.98 81.6082 142.774 82.2773 144.449L83.2654 145.012C87.5858 150.428 83.7079 154.888 91.3083 156.823C92.4855 156.97 92.8112 156.934 93.8309 157.578C94.5499 160.24 94.7794 161.247 96.6253 163.429L96.9262 163.153C98.4227 164.784 99.8557 165.711 101.778 166.782C99.4372 169.588 99.3812 168.357 96.8795 169.528C95.004 171.015 91.2983 169.916 90.0061 170.647C91.6673 170.563 98.1377 172.354 99.5807 173.249C96.2995 173.105 86.5178 170.207 83.4372 168.805L82.984 168.597L82.5867 169.712L82.8017 170.731C84.4545 171.294 84.584 171.287 85.8323 172.442C86.298 173.788 86.3148 173.129 85.7044 174.48C84.4213 175.559 83.0204 175.975 81.334 176.126C73.3718 176.674 63.256 176.786 55.2218 176.734C52.0373 178.748 46.9522 179.747 43.2601 179.272C41.2404 179.512 38.5331 179.903 36.571 179.999C33.7562 179.907 30.2312 179.692 28.243 177.625L27.8401 175.055C24.5417 177.905 8.87115 175.527 7.20596 171.091C7.93423 169.784 7.60048 170.219 9.15015 169.46C6.20909 159.412 9.09657 153.03 14.9883 144.884C11.6323 144.389 1.20153 143.314 0 140.244C0.886954 139.025 1.00846 139.313 2.75239 138.686C1.55446 137.043 1.2459 136.352 0.38573 134.549C0.355752 134.265 0.330164 133.982 0.308979 133.698C-0.20105 126.518 6.21347 126.538 5.79378 120.816C5.4952 116.739 6.21827 115.122 10.6954 115.596L10.2825 114.119C8.00099 107.028 17.7207 94.992 26.0183 100.512C27.0371 101.156 28.0907 101.787 29.0548 102.503C30.3087 99.8983 29.1824 87.9843 29.7839 83.6287C31.6869 83.1299 43.4164 66.979 45.9797 64.1489C45.6947 63.7432 45.2395 62.5383 45.022 62.0179L45.2934 61.6182C44.7103 60.876 44.835 61.2014 44.6827 60.2945L45.2171 59.693L45.9497 60.0699L46.126 59.7478L46.0849 58.6703C47.6025 57.6863 59.6298 58.3314 62.7259 58.0216Z" fill="#EDDEC4"/>
<path d="M60.8328 123.448L61.2237 123.76C63.2594 124.238 64.2711 124.194 65.4058 126.037C66.0905 126.953 66.0222 126.907 67.0678 127.367C67.8988 126.468 68.741 125.581 69.5936 124.705C70.3123 124.635 71.6889 124.456 72.352 124.46L73.2346 124.548L73.4808 124.405C74.7698 124.478 76.1564 124.482 77.4555 124.511C80.0476 125.322 81.5385 125.425 84.173 124.582L83.3856 126L83.0598 126.271C83.0642 127.967 83.2165 130.485 82.7496 132.023L82.6645 132.339C82.9215 133.766 83.2317 135.912 83.6418 137.231C82.6529 137.139 81.9766 136.963 81.0545 137.191L81.6257 138.59L81.9386 139.121C81.8691 140.98 81.6093 142.774 82.2784 144.449L83.2664 145.012C87.5869 150.428 83.7089 154.888 91.3094 156.823C92.4865 156.971 92.8123 156.935 93.8319 157.578C94.551 160.24 94.7805 161.247 96.6263 163.429L96.9273 163.153C98.4238 164.784 99.8568 165.711 101.779 166.782C99.4383 169.588 99.3823 168.357 96.8805 169.528C95.0051 171.015 91.2994 169.916 90.0071 170.647C91.6683 170.563 98.1388 172.354 99.5818 173.249C96.3006 173.105 86.5189 170.208 83.4383 168.805L82.9851 168.597L82.5877 169.712L82.8028 170.731C84.4556 171.295 84.5851 171.287 85.8334 172.442C86.299 173.789 86.3158 173.129 85.7055 174.48C84.4224 175.559 83.0214 175.975 81.3351 176.127C73.3729 176.674 63.257 176.786 55.2229 176.734C52.0384 178.748 46.9533 179.748 43.2612 179.272C41.2414 179.512 38.5342 179.903 36.5721 179.999C33.7573 179.907 30.2323 179.692 28.2441 177.625L27.8412 175.055C24.5428 177.905 8.87222 175.527 7.20703 171.091C7.9353 169.784 7.60155 170.22 9.15122 169.46C6.21016 159.413 9.09764 153.03 14.9894 144.885L15.812 144.525C17.1622 143.01 17.2297 143.39 17.5711 141.679L18.5887 137.227C20.3622 138.102 23.5411 138.978 25.4505 138.27C28.6242 137.703 30.4617 137.874 32.3036 135.281L32.6029 135.213L32.7013 136.556C33.4751 136.931 33.8824 137.107 34.6918 137.395C33.5387 138.678 32.7764 139.261 32.4351 140.94C32.9239 142.818 33.9791 142.778 35.8034 143.294L36.0684 143.742C34.5419 145.544 35.2222 142.858 33.9699 145.212C34.9412 144.805 35.6439 144.745 36.682 144.545C37.383 143.63 37.1772 139.237 37.1748 137.906L37.3455 137.175C40.7114 136.252 45.7042 136.588 49.312 136.675L50.5539 134.221C50.9476 133.658 50.958 133.142 51.1095 132.423C52.0856 131.14 54.4754 126.703 54.4359 125.142C57.0004 123.556 57.8813 123.639 60.8328 123.448Z" fill="#EAE9E9"/>
<path d="M32.3036 135.281L32.6029 135.213L32.7013 136.556C33.4751 136.932 33.8824 137.107 34.6918 137.395C33.5387 138.678 32.7764 139.262 32.4351 140.94C32.9239 142.819 33.9791 142.779 35.8034 143.294L36.0684 143.742C34.5419 145.544 35.2222 142.859 33.9699 145.213C34.51 146.064 35.1575 146.955 35.5168 147.866L36.0696 148.014C37.483 150.133 36.6852 159.541 36.8762 162.694L36.7427 166.391C35.4341 166.679 34.1302 166.987 32.8316 167.314C27.5542 169.193 27.9643 170.811 28.3676 175.959L28.2441 177.626L27.8412 175.056C24.5428 177.905 8.87222 175.527 7.20703 171.091C7.9353 169.784 7.60155 170.22 9.15122 169.461C6.21016 159.413 9.09764 153.03 14.9894 144.885L15.812 144.525C17.1622 143.011 17.2297 143.39 17.5711 141.68L18.5887 137.227C20.3622 138.103 23.5411 138.978 25.4505 138.27C28.6242 137.703 30.4617 137.875 32.3036 135.281Z" fill="#CAA368"/>
<path d="M32.3021 135.281L32.6015 135.213L32.6998 136.556C33.4737 136.932 33.881 137.107 34.6904 137.395C33.5372 138.678 32.775 139.262 32.4336 140.94C32.9225 142.819 33.9777 142.779 35.802 143.294L36.067 143.742C34.5405 145.544 35.2208 142.859 33.9685 145.213C34.5085 146.064 35.1561 146.955 35.5154 147.866L35.2644 147.93C33.9805 147.127 32.996 144.509 32.3345 143.019C30.6565 142.899 28.2131 142.455 26.4916 142.199C28.6388 143.15 32.7062 144.693 32.6443 147.331C30.2764 144.078 27.3353 142.471 23.3451 141.684C19.4715 140.916 17.5149 144.349 15.8105 144.525C17.1608 143.011 17.2283 143.39 17.5697 141.68L18.5873 137.227C20.3608 138.103 23.5397 138.978 25.4491 138.27C28.6228 137.703 30.4603 137.875 32.3021 135.281Z" fill="#A07540"/>
<path d="M27.625 140.612C29.4649 140.441 30.4273 140.073 31.9079 140.816L32.2268 141.999C30.4853 141.843 29.5476 141.752 27.8536 141.352L27.625 140.612Z" fill="#895E32"/>
<path d="M27.8412 175.055C24.5428 177.905 8.87222 175.527 7.20703 171.091C7.9353 169.784 7.60155 170.219 9.15122 169.46L9.7116 169.82C13.058 174.64 22.4731 176.226 27.6801 174.776L27.8412 175.055Z" fill="#CCCED1"/>
<path d="M9.71094 169.82L10.2521 169.641C13.2188 171.351 15.8053 173.11 19.3455 173.186C20.9256 173.222 26.8193 173.142 27.7954 174.049L27.6794 174.776C22.4724 176.227 13.0573 174.64 9.71094 169.82Z" fill="#A07540"/>
<path d="M21.9942 149.877C24.5743 150.093 27.5473 150.756 28.5594 153.318C28.0757 154.865 27.5333 154.901 26.1032 156.06C28.0717 159.221 29.9416 161.911 25.5692 164.197C22.828 164.065 20.1419 164.389 19.1231 161.463C19.2677 159.681 20.2754 158.722 21.3834 157.239L18.1602 153.818C19.464 152.111 20.4301 151.3 21.9942 149.877Z" fill="#6B7E39"/>
<path d="M22.4444 158.162C23.9245 158.714 24.2143 158.829 25.0409 160.068C25.1121 161.783 25.3163 161.012 24.393 162.466C23.1687 162.335 22.6323 162.39 21.637 161.659C21.4008 160.144 21.8432 159.737 22.4444 158.162Z" fill="#AEAB69"/>
<path d="M83.2657 145.012C87.5862 150.428 83.7082 154.888 91.3087 156.823C92.4858 156.97 92.8115 156.934 93.8312 157.578C94.5503 160.24 94.7797 161.247 96.6256 163.429L96.9266 163.153C98.4231 164.784 99.856 165.711 101.778 166.782C99.4375 169.588 99.3816 168.357 96.8798 169.528C95.0044 171.015 91.2987 169.916 90.0064 170.647C91.6676 170.563 98.1381 172.354 99.581 173.249C96.2998 173.105 86.5181 170.207 83.4376 168.805L82.9843 168.597L82.587 169.712C82.0302 168.217 82.0406 147.414 82.545 145.868L83.2657 145.012Z" fill="#FFFFFE"/>
<path d="M91.3089 156.823C92.4861 156.971 92.8118 156.935 93.8315 157.578C94.5506 160.24 94.78 161.247 96.6259 163.43L96.9268 163.154C98.4233 164.784 99.8563 165.712 101.778 166.783C99.4378 169.588 99.3818 168.357 96.8801 169.529L93.8235 169.553C92.1531 169.984 91.6427 170.012 90.3197 168.969C89.6346 167.418 89.8956 166.075 89.9859 164.341C90.3596 161.711 90.7825 159.429 91.3089 156.823Z" fill="#744B25"/>
<path d="M96.9276 163.153C98.4241 164.784 99.857 165.711 101.779 166.782C99.4385 169.588 99.3826 168.357 96.8808 169.528L93.8242 169.552C95.3827 167.042 95.6441 166.251 96.6266 163.429L96.9276 163.153Z" fill="#BEBCBC"/>
<path d="M82.545 145.867C82.8196 153.005 82.6941 160.012 82.611 167.146C85.3878 165.299 86.5637 164.752 89.9856 164.34C89.8953 166.075 89.6343 167.417 90.3194 168.968C91.6424 170.011 92.1528 169.983 93.8232 169.552L96.8798 169.528C95.0044 171.014 91.2987 169.915 90.0064 170.647C91.6676 170.563 98.1381 172.353 99.581 173.249C96.2998 173.105 86.5181 170.207 83.4376 168.804L82.9843 168.597L82.587 169.712C82.0302 168.217 82.0406 147.414 82.545 145.867Z" fill="#DBD7D2"/>
<path d="M36.7416 166.391C40.8091 166.307 40.0036 166.803 43.7629 167.606C44.6271 168.474 44.6167 168.394 45.0504 169.525L45.1835 170.34C45.1795 171.963 45.0783 175.02 45.3389 176.503C44.5571 178.014 44.498 178.078 43.2601 179.273C41.2403 179.512 38.5331 179.904 36.5709 180C33.7562 179.908 30.2311 179.692 28.243 177.626L28.3665 175.959C27.9632 170.812 27.5531 169.193 32.8304 167.315C34.1291 166.987 35.433 166.679 36.7416 166.391Z" fill="#EFBC3E"/>
<path d="M45.0497 169.525L45.1828 170.34C45.1788 171.963 45.0777 175.02 45.3383 176.503C44.5565 178.014 44.4973 178.078 43.2594 179.273C41.2397 179.512 38.5325 179.904 36.5703 180L37.5188 178.441C38.8211 176.731 37.5988 175.388 37.0292 173.577C38.0716 172.103 39.9466 172.818 40.6469 171.627C39.5341 171.247 38.8558 170.991 37.7798 170.524L39.3363 170.12C42.0083 169.425 42.3717 169.457 45.0497 169.525Z" fill="#CF9931"/>
<path d="M36.7423 166.391C40.8098 166.307 40.0043 166.803 43.7636 167.606C44.6278 168.474 44.6174 168.394 45.0511 169.525C42.373 169.457 42.0097 169.425 39.3376 170.12L37.7812 170.524L37.5969 170.428C37.216 169.804 37.4418 170.124 36.8998 169.481C34.8197 168.817 34.7342 168.797 32.7117 169.824L32.1641 169.401L32.4223 169.069L35.4944 168.817L35.4057 168.314C34.4372 168.126 34.2845 168.106 33.4423 167.65L32.8312 167.315C34.1298 166.987 35.4337 166.679 36.7423 166.391Z" fill="#E8B43F"/>
<path d="M28.3677 175.959C31.441 177.545 34.1546 177.501 37.5206 178.441L36.5721 179.999C33.7573 179.907 30.2323 179.692 28.2441 177.625L28.3677 175.959Z" fill="#D89F2D"/>
<path d="M81.6242 138.59L81.9372 139.122C81.8676 140.98 81.6079 142.775 82.277 144.449L83.265 145.013L82.5444 145.868C82.0399 147.415 82.0295 168.218 82.5863 169.712L82.8014 170.731C84.4542 171.295 84.5837 171.287 85.832 172.442C86.2976 173.789 86.3144 173.129 85.7041 174.48C84.421 175.559 83.02 175.975 81.3337 176.127C73.3715 176.675 63.2556 176.786 55.2215 176.734C52.037 178.749 46.9519 179.748 43.2598 179.272C44.4977 178.077 44.5568 178.013 45.3386 176.503C45.078 175.02 45.1792 171.962 45.1832 170.34L45.6388 170.719C45.5793 171.986 45.3379 173.461 45.9366 174.5C47.5994 174.772 49.1315 174.768 50.8095 174.728C60.7702 174.492 70.8749 175.016 80.8164 174.516C81.9724 162.974 80.4699 149.469 81.6242 138.59Z" fill="#BEBCBC"/>
<path d="M45.3386 176.502C48.1114 176.198 52.4891 176.21 55.2215 176.734C52.037 178.748 46.9519 179.747 43.2598 179.272C44.4977 178.077 44.5568 178.013 45.3386 176.502Z" fill="#EAE9E9"/>
<path d="M82.8017 170.731C84.4545 171.294 84.584 171.287 85.8323 172.442C86.298 173.788 86.3147 173.129 85.7044 174.48C84.4213 175.559 83.0204 175.975 81.334 176.126C82.7134 173.98 82.7426 173.309 82.8017 170.731Z" fill="#CCCED1"/>
<path d="M77.4565 124.51C80.0486 125.322 81.5395 125.424 84.174 124.582L83.3866 126L83.0608 126.27C83.0652 127.966 83.2175 130.484 82.7507 132.023C79.0278 132.203 73.7984 132.043 70.9181 134.125C70.4 131.583 68.774 129.449 67.0469 127.575L67.0689 127.367C67.8999 126.468 68.7421 125.581 69.5946 124.704C70.3133 124.634 71.6899 124.455 72.353 124.46L73.2356 124.548L73.4818 124.405C74.7709 124.477 76.1575 124.481 77.4565 124.51Z" fill="#B2946B"/>
<path d="M77.4527 124.51C80.0448 125.322 81.5357 125.424 84.1702 124.582L83.3828 126L83.057 126.27C77.4259 126.42 74.827 127.523 68.9473 126.33C70.9234 124.311 70.461 126.631 73.2318 124.548L73.478 124.405C74.767 124.477 76.1536 124.481 77.4527 124.51Z" fill="#A18962"/>
<path d="M60.8333 123.448L61.2242 123.76C60.6958 126.175 60.8565 128.426 61.2266 130.856C59.6226 133.326 58.5914 131.991 56.0792 133.482C55.5476 134.973 55.9545 135.888 57.2687 136.855C54.4496 136.879 52.1161 136.911 49.3125 136.675L50.5544 134.221C50.9481 133.658 50.9585 133.142 51.11 132.423C52.0861 131.14 54.476 126.703 54.4364 125.142C57.0009 123.556 57.8819 123.639 60.8333 123.448Z" fill="#9BA54B"/>
<path d="M61.2223 123.76C63.258 124.239 64.2697 124.194 65.4044 126.037C66.0891 126.954 66.0208 126.908 67.0664 127.368L67.0444 127.575C68.7716 129.45 70.3976 131.584 70.9156 134.126C69.8552 136.32 70.2753 136.316 67.7171 136.404C65.2761 136.112 62.0269 137.112 60.54 135.988C60.3117 134.614 60.5879 134.67 61.2375 133.123L61.2247 130.857C60.8546 128.427 60.6939 126.175 61.2223 123.76Z" fill="#6C893B"/>
<path d="M61.2233 123.76C63.259 124.239 64.2706 124.194 65.4054 126.037C66.0901 126.954 66.0218 126.908 67.0674 127.368L67.0454 127.575C65.124 128.735 65.5865 130.709 63.157 132.34C62.5107 132.631 61.9167 132.939 61.2384 133.123L61.2256 130.857C60.8555 128.427 60.6948 126.175 61.2233 123.76Z" fill="#7D9341"/>
<path d="M65.4063 126.037C66.091 126.953 66.0227 126.907 67.0683 127.367L67.0463 127.575C65.1249 128.734 65.5874 130.708 63.158 132.339L62.6348 131.883C63.6324 130.249 64.6073 127.835 65.4063 126.037Z" fill="#72944B"/>
<path d="M70.9172 134.126C73.7975 132.044 79.0269 132.204 82.7498 132.024L82.6647 132.339C82.9217 133.766 83.2319 135.912 83.642 137.231C82.6531 137.139 81.9768 136.964 81.0546 137.191L80.4371 136.892C79.0897 136.364 70.0335 136.728 67.8582 136.7L67.7188 136.404C70.2769 136.316 69.8568 136.32 70.9172 134.126Z" fill="#948F44"/>
<path d="M82.6631 132.339C82.9201 133.766 83.2303 135.912 83.6404 137.231C82.6515 137.139 81.9752 136.963 81.0531 137.191L80.4355 136.891C81.0747 134.949 80.667 133.175 82.6631 132.339Z" fill="#818247"/>
<path d="M43.7637 167.605C43.9743 165.675 43.627 166.091 44.743 165.031C46.7703 164.392 47.8643 164.652 49.9452 164.448C50.0075 166.258 50.3221 168.636 49.5974 170.163C48.1961 171.062 47.5381 170.899 45.6399 170.719L45.1842 170.339L45.0511 169.524C44.6175 168.393 44.6278 168.473 43.7637 167.605Z" fill="#55A376"/>
<path d="M57.2677 136.855C55.9534 135.888 55.5465 134.973 56.0781 133.482C58.5903 131.991 59.6215 133.326 61.2256 130.856L61.2384 133.122C60.5888 134.669 60.3126 134.613 60.5409 135.988C62.0278 137.111 65.277 136.112 67.718 136.403L67.8575 136.699C64.3949 136.847 60.7463 136.823 57.2677 136.855Z" fill="#72944B"/>
<path d="M37.1736 137.906C37.6065 140.256 37.5381 161.782 36.875 162.694C36.684 159.54 37.4818 150.132 36.0684 148.014L35.5156 147.866C35.1563 146.955 34.5088 146.063 33.9688 145.212C34.94 144.805 35.6427 144.745 36.6808 144.545C37.3819 143.629 37.176 139.237 37.1736 137.906Z" fill="#DBD7D2"/>
<path d="M33.9688 145.213C34.94 144.805 35.6427 144.745 36.6808 144.545C36.6976 145.784 37.0373 147.131 36.0684 148.014L35.5156 147.866C35.1563 146.955 34.5088 146.064 33.9688 145.213Z" fill="#EAE9E9"/>
<path d="M70.3301 151.918C72.1664 151.883 74.0034 151.863 75.8401 151.859C75.9744 157.973 75.922 164.268 75.9436 170.399L70.2977 170.695C70.2138 164.504 70.0791 158.089 70.3301 151.918Z" fill="#55A376"/>
<path d="M62.9717 153.41C65.0789 151.16 68.293 147.675 71.1249 146.496C71.9507 147.255 71.5354 147.159 72.4104 147.287C71.322 148.782 65.4067 154.261 63.6748 156.036L57.2762 152.91C54.3583 155.66 48.3707 160.588 44.6538 162.007C43.4631 161.927 43.8792 162.191 43.2148 161.475C44.2713 159.249 54.043 152.567 57.008 150.057C59.8387 151.132 60.6706 151.615 62.9717 153.41Z" fill="#55A376"/>
<path d="M61.847 158.174L67.1044 157.97C67.1448 161.759 67.3098 167.183 66.9777 170.819L61.4801 170.804C61.4953 168.477 61.331 159.949 61.847 158.174Z" fill="#55A376"/>
<path d="M42.3848 144.785L42.6382 143.758C44.492 142.763 51.455 142.819 53.3684 143.754L53.7853 144.861C52.3955 146.228 52.467 146.276 52.2072 148.202L52.3731 148.75C50.9901 149.765 44.544 149.445 42.8029 148.926L42.5103 148.126C42.6194 146.907 42.4927 145.992 42.3848 144.785Z" fill="#DBD7D2"/>
<path d="M42.3848 144.785L42.6382 143.758C44.492 142.763 51.455 142.819 53.3684 143.754L53.7853 144.861C51.7415 145.405 44.3553 145.468 42.3848 144.785Z" fill="#818247"/>
<path d="M42.5117 148.126C44.342 147.635 50.3592 147.778 52.2087 148.202L52.3746 148.75C50.9916 149.765 44.5455 149.445 42.8043 148.926L42.5117 148.126Z" fill="#B2946B"/>
<path d="M52.8139 160.312C54.5011 160.344 56.3345 160.515 58.0297 160.635C58.2631 164.057 58.2464 167.334 58.2564 170.755C56.1983 170.759 54.7026 170.715 52.6309 170.555L52.8139 160.312Z" fill="#55A376"/>
<path d="M71.1244 146.495L70.1875 144.657C71.1984 142.682 73.9236 142.678 76.1032 141.831C76.1408 143.686 76.4134 146.423 75.7475 148.022L74.9808 148.526C73.635 148.238 73.4951 148.066 72.4099 147.287C71.5349 147.159 71.9502 147.255 71.1244 146.495Z" fill="#55A376"/>
<path d="M42.6484 151.335C45.3601 150.952 50.5063 150.42 52.2706 152.634C49.7621 152.798 46.3921 153.142 43.9371 152.67C43.0402 152.498 43.2892 152.402 42.6484 151.335Z" fill="#DBD7D2"/>
<path d="M62.7269 58.0216C68.8308 57.9365 81.9572 57.9013 87.779 58.5592C90.6317 61.6778 103.538 78.0805 104.354 81.6452C103.831 83.297 102.069 82.8585 100.491 82.8429C100.429 86.3984 99.9498 97.0227 100.752 99.5642C99.0748 102.096 95.9227 104.511 93.8286 106.815C92.5755 108.193 91.6382 109.516 90.4299 110.89L90.0969 111.745C89.381 114.114 89.501 115.766 89.493 118.235L88.9006 117.483C87.3257 117.051 86.5799 117.639 84.5765 117.922C84.1249 119.851 84.228 122.166 84.501 124.122L84.1728 124.582C81.5384 125.425 80.0475 125.322 77.4553 124.511C76.1563 124.481 74.7697 124.477 73.4806 124.405L73.2344 124.548L72.3519 124.46C71.6887 124.455 70.3121 124.635 69.5935 124.704C68.7409 125.581 67.8987 126.468 67.0677 127.367C66.022 126.907 66.0904 126.953 65.4057 126.037C64.2709 124.194 63.2593 124.238 61.2236 123.76L60.8326 123.448C60.4449 119.125 60.7115 111.346 60.7043 106.713L60.6807 104.778C60.8098 97.2426 60.6648 89.7232 60.6771 82.1899C55.9262 77.5286 50.2216 69.516 45.9806 64.1489C45.6957 63.7432 45.2404 62.5383 45.0229 62.0179L45.2944 61.6182C44.7112 60.876 44.8359 61.2014 44.6836 60.2945L45.218 59.693L45.9507 60.0699L46.1269 59.7478L46.0858 58.6703C47.6035 57.6863 59.6307 58.3314 62.7269 58.0216Z" fill="#B8A182"/>
<path d="M62.7269 58.0216C68.8308 57.9365 81.9572 57.9013 87.779 58.5592C90.6317 61.6778 103.538 78.0805 104.354 81.6452C103.831 83.297 102.069 82.8585 100.491 82.8429L89.0365 82.7802C81.7662 82.99 69.5215 82.9117 61.9158 82.7998C61.6217 82.5916 61.3271 82.3833 61.0329 82.1751L60.6771 82.1899C55.9262 77.5286 50.2216 69.516 45.9806 64.1489C45.6957 63.7432 45.2404 62.5383 45.0229 62.0179L45.2944 61.6182C44.7112 60.876 44.8359 61.2014 44.6836 60.2945L45.218 59.693L45.9507 60.0699L46.1269 59.7478L46.0858 58.6703C47.6035 57.6863 59.6307 58.3314 62.7269 58.0216Z" fill="#356BB7"/>
<path d="M45.0229 62.0182L45.2944 61.6186C44.7112 60.8764 44.8359 61.2017 44.6836 60.2949L45.218 59.6934L45.9507 60.0702L46.1269 59.7481C47.179 60.6785 61.8067 80.036 62.1669 81.0028L61.0329 82.1754L60.6771 82.1902C55.9262 77.5289 50.2216 69.5164 45.9806 64.1492C45.6957 63.7436 45.2404 62.5386 45.0229 62.0182Z" fill="#4885D5"/>
<path d="M62.1652 81.0032C68.6725 81.253 75.1849 81.3301 81.6962 81.2354C83.5556 81.2222 89.8523 80.9772 91.1145 81.1235L91.3696 81.432L90.2384 82.0191C91.7193 81.9352 94.335 81.663 95.6712 81.9888L95.8435 82.3001C93.7814 82.3952 90.991 82.44 89.0349 82.7809C81.7646 82.9907 69.5199 82.9124 61.9142 82.8005C61.62 82.5923 61.3254 82.384 61.0312 82.1758L62.1652 81.0032Z" fill="#1A4BA1"/>
<path d="M68.3129 110.917C70.0652 110.716 74.4604 110.859 76.4194 110.876L77.2728 111.134C77.3659 113.472 77.1029 115.2 77.1373 117.386L77.2308 118.513C77.3036 120.496 77.3547 122.535 77.4551 124.511C76.156 124.482 74.7694 124.478 73.4803 124.405L73.2341 124.548L72.3516 124.461C71.6885 124.456 70.3119 124.635 69.5932 124.705L68.6642 124.194C68.0151 122.559 68.227 120.303 68.2426 118.464L68.404 117.496C68.2897 115.483 68.3333 112.972 68.3129 110.917Z" fill="#808081"/>
<path d="M76.4203 110.876L77.2736 111.134C77.3668 113.472 77.1038 115.2 77.1381 117.386C76.2524 117.434 75.3611 117.438 74.4729 117.454C72.2201 116.172 72.1982 114.012 73.3581 112.025C74.0388 110.858 75.218 111.053 76.4203 110.876Z" fill="#4E657A"/>
<path d="M68.3125 110.917C69.4956 111 71.3623 110.942 72.2193 111.612C72.9979 113.985 72.7784 114.578 71.7684 116.876C70.5852 117.8 70.3326 117.55 68.4036 117.496C68.2893 115.483 68.3329 112.972 68.3125 110.917Z" fill="#4E657A"/>
<path d="M68.2426 118.464C70.1384 118.459 70.5053 118.159 72.001 119.027C72.7505 120.685 72.3232 122.545 72.3516 124.46C71.6885 124.455 70.3119 124.635 69.5932 124.704L68.6642 124.194C68.0151 122.558 68.227 120.303 68.2426 118.464Z" fill="#4E657A"/>
<path d="M73.4814 124.405C73.3291 122.614 72.913 120.563 73.6305 119.033C75.1874 118.144 75.1194 118.475 77.2319 118.512C77.3046 120.495 77.3558 122.534 77.4561 124.51C76.1571 124.481 74.7705 124.477 73.4814 124.405Z" fill="#4E657A"/>
<path d="M84.3926 110.693C86.4279 110.679 88.4 110.79 90.4294 110.891L90.0964 111.745C89.3805 114.114 89.5004 115.767 89.4925 118.235L88.9001 117.484C87.3252 117.052 86.5794 117.64 84.576 117.923L84.3926 110.693Z" fill="#4E657A"/>
<path d="M60.6797 104.778C63.0875 104.762 69.0016 104.034 70.6333 105.063C66.9116 106.779 63.9325 105.879 60.7033 106.713L60.6797 104.778Z" fill="#CEB692"/>
<path d="M68.4703 87.072C70.269 86.8697 75.5947 86.7127 77.2199 87.07C77.1756 88.6542 77.0836 90.4196 77.1068 91.9875L77.1148 93.2948C77.148 94.7468 77.1464 96.3514 77.2487 97.7858C77.6924 99.0344 78.2456 100.038 78.0653 101.255C75.458 101.635 69.9256 102.366 67.6173 101.131C67.1101 100.007 67.3371 99.3873 68.1417 98.4277C68.3755 96.7903 68.3208 94.8735 68.3328 93.1973L68.3416 92.2137L68.4703 87.072Z" fill="#808081"/>
<path d="M77.2487 97.7859C77.6924 99.0344 78.2456 100.038 78.0653 101.255C75.458 101.635 69.9256 102.366 67.6173 101.132C67.1101 100.007 67.3371 99.3874 68.1417 98.4278C69.5591 98.5021 71.1695 98.5337 72.5545 98.7367L73.5386 98.4717C75.3677 98.5732 76.1055 98.7927 77.2487 97.7859Z" fill="#A4957E"/>
<path d="M68.3336 93.1967C70.1639 93.257 70.5396 92.9884 71.9938 93.8533C72.756 95.8049 72.2028 96.695 72.5554 98.7361C71.1704 98.533 69.5599 98.5015 68.1426 98.4271C68.3764 96.7897 68.3217 94.8729 68.3336 93.1967Z" fill="#4E657A"/>
<path d="M73.5407 98.4718C73.2297 97.0714 72.7492 95.1342 73.4072 93.9028C74.514 93.0475 75.6707 93.269 77.1169 93.2949C77.15 94.7469 77.1484 96.3516 77.2508 97.786C76.1076 98.7928 75.3697 98.5733 73.5407 98.4718Z" fill="#4E657A"/>
<path d="M68.4705 87.0715C70.9023 87.2925 73.032 87.2662 72.6395 90.6154C71.085 92.6213 71.0035 92.3967 68.3418 92.2132L68.4705 87.0715Z" fill="#4E657A"/>
<path d="M77.1061 91.987C74.7094 92.152 74.5503 92.3954 72.977 90.5849C72.2652 87.2417 74.9216 87.2693 77.2192 87.0695C77.1748 88.6537 77.0829 90.4191 77.1061 91.987Z" fill="#4E657A"/>
<path d="M88.3945 87.1229L89.8742 87.1681C91.4834 87.1809 92.0986 86.9271 93.3573 87.6605L93.4748 88.7176C93.5108 91.8706 93.5831 95.0835 93.512 98.2309L94.5256 100.015C94.7447 100.653 94.7371 100.307 94.3949 101.044C91.4946 101.478 87.2266 102.384 84.6057 101.153C83.9889 99.8507 84.2371 100.087 84.5393 98.3407C84.7324 96.9463 84.6964 94.8221 84.7172 93.3589L84.7823 91.857C84.67 90.375 84.4374 89.1512 84.8847 87.7556C86.3512 86.8531 86.3736 87.1721 88.3945 87.1229Z" fill="#808081"/>
<path d="M94.5256 100.014C94.7447 100.653 94.7371 100.307 94.3949 101.044C91.4946 101.477 87.2266 102.384 84.6057 101.153C83.9889 99.8504 84.2371 100.087 84.5393 98.3405L87.2222 98.4812L87.6635 98.3473L89.9454 98.426C91.0818 98.4492 92.0794 98.3145 93.2046 98.1974L93.512 98.2306L94.5256 100.014Z" fill="#A4957E"/>
<path d="M94.5256 100.015C94.7447 100.653 94.7371 100.307 94.3949 101.044C91.4946 101.478 87.2266 102.384 84.6057 101.153C83.9889 99.8508 84.2371 100.087 84.5393 98.3408L87.2222 98.4815C85.537 99.0714 85.7876 98.7005 84.8971 99.9019C86.3456 100.915 92.7278 100.475 94.5256 100.015Z" fill="#8A7860"/>
<path d="M89.9461 98.4261C89.793 96.7702 89.6623 95.9829 89.845 94.351C90.7059 93.0026 90.1316 93.3743 91.4758 92.9894C93.703 94.2224 93.2033 95.8882 93.2053 98.1974C92.0801 98.3145 91.0825 98.4492 89.9461 98.4261Z" fill="#1352B9"/>
<path d="M84.7825 91.857C84.6702 90.375 84.4375 89.1512 84.8848 87.7556C86.3513 86.8531 86.3737 87.1721 88.3947 87.1229C88.407 88.6188 88.6417 90.5812 87.8798 91.7554C86.8514 92.3354 85.9988 92.0336 84.7825 91.857Z" fill="#4E657A"/>
<path d="M89.8736 87.1679C91.4829 87.1807 92.098 86.9269 93.3567 87.6603L93.4742 88.7174C93.3227 89.5603 93.1765 90.4044 93.0354 91.2489C91.9701 92.4071 92.5841 92.1305 91.3042 92.4343L90.3357 91.6637C89.4715 90.169 89.7681 88.9472 89.8736 87.1679Z" fill="#4E657A"/>
<path d="M84.7189 93.3589C86.6699 93.2958 86.7086 92.9549 87.9833 93.8313C88.4937 95.0823 88.1016 97.1314 87.6652 98.3476L87.2239 98.4815L84.541 98.3408C84.7341 96.9463 84.6981 94.8221 84.7189 93.3589Z" fill="#4E657A"/>
<path d="M10.2825 114.119C8.00099 107.029 17.7207 94.9921 26.0183 100.512C27.0371 101.156 28.0908 101.787 29.0548 102.503C30.0062 104.376 29.4685 121.543 29.7256 125.318L30.1121 126.287C31.0358 126.636 31.5706 126.315 32.5279 125.993C34.0005 126.492 34.9358 128.966 36.1993 130.68C37.894 132.535 37.9963 134.301 36.5678 136.364C36.1901 136.568 34.9714 137.191 34.6908 137.395C33.8814 137.107 33.474 136.931 32.7002 136.556L32.6019 135.213L32.3025 135.281C30.4606 137.874 28.6232 137.703 25.4495 138.27C23.5401 138.978 20.3612 138.102 18.5877 137.227L17.57 141.679C17.2287 143.39 17.1611 143.01 15.8109 144.525L14.9883 144.885C11.6323 144.389 1.20153 143.314 0 140.244C0.886954 139.025 1.00846 139.313 2.75239 138.686C1.55446 137.043 1.2459 136.352 0.38573 134.549C0.355752 134.265 0.330164 133.982 0.308979 133.698C-0.20105 126.518 6.21347 126.538 5.79378 120.816C5.4952 116.739 6.21827 115.123 10.6954 115.596L10.2825 114.119Z" fill="#6C893B"/>
<path d="M0.38573 134.549C0.355752 134.266 0.330164 133.982 0.308979 133.698C-0.20105 126.518 6.21347 126.538 5.79378 120.816C5.4952 116.739 6.21827 115.123 10.6954 115.596L11.1783 116.024C11.217 116.549 11.5384 117.01 12.0169 117.229C12.4953 117.448 13.0545 117.388 13.4766 117.074C15.8201 118.045 15.6154 120.69 15.5858 122.949C15.3452 124.523 15.3776 124.473 14.6398 125.871C14.0658 127.695 13.8651 128.175 13.8407 130.065C14.0282 131.428 14.0214 132.167 14.7153 133.366C15.3496 132.843 15.0846 133.182 15.1957 132.043C15.7082 133.818 16.7002 135.776 18.0121 137.079L18.5877 137.227L17.57 141.679C17.2287 143.39 17.1611 143.01 15.8109 144.525L14.9883 144.885C11.6323 144.389 1.20153 143.314 0 140.245C0.886954 139.026 1.00846 139.313 2.75239 138.686C1.55446 137.043 1.2459 136.352 0.38573 134.549Z" fill="#8BA33E"/>
<path d="M13.8407 130.065C14.0282 131.428 14.0214 132.167 14.7153 133.366C15.3496 132.843 15.0846 133.182 15.1957 132.043C15.7082 133.818 16.7002 135.776 18.0121 137.079L18.5877 137.227L17.57 141.679C17.2287 143.39 17.1611 143.01 15.8109 144.525L14.9883 144.884C11.6323 144.389 1.20153 143.314 0 140.244C0.886954 139.025 1.00846 139.313 2.75239 138.686C1.55446 137.043 1.2459 136.352 0.38573 134.549C2.42425 134.569 4.53471 134.945 6.37736 135.852L7.49654 135.56C8.36391 134.205 10.3329 131.891 10.7242 130.892C12.7931 130.313 12.359 131.196 13.8407 130.065Z" fill="#6C893B"/>
<path d="M2.75239 138.686C5.18902 142.375 13.3219 141.628 17.57 141.68C17.2287 143.39 17.1611 143.011 15.8109 144.525L14.9883 144.885C11.6323 144.389 1.20153 143.314 0 140.245C0.886954 139.026 1.00846 139.314 2.75239 138.686Z" fill="#C0BFBD"/>
<path d="M6.37695 135.852L7.49613 135.56C8.3635 134.205 10.3325 131.891 10.7238 130.892C11.6107 131.903 11.7279 131.923 12.2067 133.218C10.1554 134.713 9.85203 132.503 8.08052 136.368L7.39382 136.547L6.37695 135.852Z" fill="#7D9341"/>
<path d="M15.585 122.95C15.8684 121.868 15.832 121.66 16.5439 120.784C17.5384 120.859 18.2243 121.092 19.1744 121.355L19.1424 121.579C20.2168 122.031 20.8811 122.229 21.7813 122.991C23.6043 121.965 25.5369 121.534 26.8823 123.474C26.8967 124.575 26.6681 124.684 26.0254 125.593C27.0514 126.512 26.4643 126.165 27.9388 126.504C29.4025 126.074 28.8437 126.48 29.7247 125.319L30.1112 126.287C31.0349 126.636 31.5697 126.315 32.527 125.993C33.9996 126.493 34.9349 128.966 36.1984 130.681C37.8931 132.535 37.9955 134.302 36.5669 136.364C36.1892 136.568 34.9705 137.191 34.6899 137.395C33.8805 137.107 33.4731 136.932 32.6993 136.556L32.601 135.213L32.3016 135.281C30.4597 137.875 28.6223 137.703 25.4486 138.271C23.5392 138.978 20.3603 138.103 18.5868 137.227L18.0112 137.08C16.6994 135.777 15.7073 133.818 15.1949 132.044C15.0837 133.183 15.3487 132.843 14.7144 133.367C14.0205 132.168 14.0273 131.428 13.8398 130.065C13.8642 128.175 14.0649 127.695 14.6389 125.872C15.3767 124.473 15.3443 124.524 15.585 122.95Z" fill="#B2946B"/>
<path d="M15.585 122.95C15.8684 121.868 15.832 121.66 16.5439 120.784C17.5384 120.859 18.2243 121.092 19.1744 121.355L19.1424 121.579C20.2168 122.031 20.8811 122.229 21.7813 122.991C23.6043 121.965 25.5369 121.534 26.8824 123.474C26.8967 124.575 26.6681 124.684 26.0254 125.593C24.5632 126.789 22.0087 130.181 20.0689 131.176C20.8204 131.364 20.9019 131.308 21.5526 131.684L21.2041 132.156C19.9386 132.367 18.8758 131.744 17.512 131.264L15.1949 132.044C15.0837 133.183 15.3487 132.843 14.7144 133.367C14.0205 132.168 14.0273 131.428 13.8398 130.065C13.8642 128.175 14.0649 127.695 14.6389 125.872C15.3767 124.473 15.3443 124.524 15.585 122.95Z" fill="#7D9341"/>
<path d="M21.7824 122.991C23.6055 121.965 25.5381 121.534 26.8835 123.473C26.8979 124.574 26.6693 124.684 26.0266 125.593C24.5644 126.789 22.0099 130.181 20.0701 131.176L19.2891 128.858C20.0281 126.451 20.2667 125.028 21.7824 122.991Z" fill="#9BA54B"/>
<path d="M14.6389 125.872C16.1562 127.151 18.528 128.982 17.512 131.264L15.1949 132.044C15.0837 133.183 15.3487 132.843 14.7144 133.367C14.0205 132.168 14.0273 131.428 13.8398 130.065C13.8642 128.175 14.0649 127.695 14.6389 125.872Z" fill="#6B7E39"/>
<path d="M19.1419 121.579C20.2163 122.03 20.8806 122.228 21.7807 122.99C20.265 125.027 20.0264 126.451 19.2874 128.858C18.3744 127.247 18.1274 124.121 18.2805 122.293L19.1419 121.579Z" fill="#6B7E39"/>
<path d="M29.7261 125.318L30.1126 126.287C31.0363 126.635 31.5712 126.315 32.5285 125.992C34.001 126.492 34.9363 128.966 36.1998 130.68C37.8945 132.535 37.9969 134.301 36.5683 136.363C36.1906 136.567 34.9719 137.191 34.6913 137.394C33.8819 137.107 33.4746 136.931 32.7007 136.555L32.6024 135.212C33.6041 134.037 34.7388 133.042 34.1049 131.503C31.3153 130.284 28.547 132.351 25.6211 132.271C25.2677 131.835 25.0571 131.555 24.7333 131.088L24.4455 130.664C22.8847 130.62 23.1541 130.792 21.554 131.683C20.9033 131.308 20.8218 131.364 20.0703 131.176C22.0101 130.181 24.5647 126.788 26.0268 125.592C27.0528 126.511 26.4657 126.164 27.9402 126.504C29.4039 126.073 28.8451 126.479 29.7261 125.318Z" fill="#7D9341"/>
<path d="M25.4512 138.271C25.9816 136.964 27.4465 133.651 28.6041 133.019C29.9155 133.203 30.2261 134.594 32.3042 135.281C30.4623 137.875 28.6249 137.703 25.4512 138.271Z" fill="#BB832B"/>
<path d="M10.2832 114.119C8.00164 107.029 17.7214 94.9921 26.0189 100.512C26.7364 99.6511 21.0837 110.35 21.1241 110.263C18.4924 111.746 14.3678 114.58 11.6122 113.889C11.1461 113.348 10.9011 113.094 10.5038 112.502L10.2832 114.119Z" fill="#8BA33E"/>
<path d="M10.2832 114.119L10.5038 112.501C10.9012 113.094 11.1462 113.348 11.6122 113.889C14.3678 114.58 18.4924 111.746 21.1241 110.263C20.1728 112.126 18.5904 111.932 17.2281 113.833L17.4664 114.266C19.3326 114.323 21.8903 113.834 23.215 114.292L23.5631 115.022C22.6594 117.556 21.0034 117.355 19.1759 121.354C18.2258 121.091 17.5399 120.859 16.5454 120.784C15.8336 121.66 15.8699 121.867 15.5865 122.949C15.6161 120.69 15.8208 118.045 13.4773 117.074C13.0552 117.388 12.496 117.447 12.0175 117.229C11.5391 117.01 11.2177 116.548 11.1789 116.024L10.6961 115.596L10.2832 114.119Z" fill="#72944B"/>
<path d="M11.1798 116.025C11.1286 115.335 11.5751 114.706 12.2434 114.526C12.9113 114.347 13.6128 114.667 13.9146 115.29C14.2163 115.912 14.0333 116.661 13.4781 117.075C13.056 117.389 12.4968 117.448 12.0184 117.229C11.5399 117.011 11.2185 116.549 11.1798 116.025Z" fill="#7D9341"/>
<path d="M36.2008 130.68C36.8607 128.81 36.5602 115.264 36.9639 112.027C37.073 111.152 35.688 110.58 34.871 110.113L35.0984 109.727C38.8209 109.619 49.9888 109.669 53.5226 110.048C53.1649 112.705 53.1273 121.52 54.3256 123.789C54.3436 124.064 54.3788 124.91 54.4364 125.142C54.4759 126.703 52.0861 131.14 51.11 132.423C50.9585 133.142 50.9481 133.658 50.5544 134.221L49.3125 136.675C45.7047 136.587 40.7119 136.252 37.346 137.175L37.1753 137.906C37.1777 139.237 37.3835 143.63 36.6825 144.545C35.6444 144.745 34.9417 144.805 33.9704 145.212C35.2227 142.858 34.5424 145.544 36.0689 143.741L35.8039 143.294C33.9796 142.778 32.9244 142.818 32.4355 140.94C32.7769 139.261 33.5392 138.678 34.6923 137.395C34.9729 137.191 36.1916 136.567 36.5694 136.364C37.9979 134.301 37.8956 132.535 36.2008 130.68Z" fill="#CEB692"/>
<path d="M40.7736 112.544C44.1048 112.504 46.9399 112.417 50.2587 112.167C50.2859 113.203 50.4126 117.141 50.1975 117.939C49.1363 121.873 46.6022 123.614 46.278 127.903L45.8599 128.055L45.3827 128.578C43.6719 128.642 42.0363 127.803 40.7168 126.769C40.7868 124.238 40.5822 120.767 40.5078 118.17L40.7736 112.544Z" fill="#808081"/>
<path d="M40.7734 112.544C44.1046 112.504 46.9397 112.417 50.2585 112.167C50.2857 113.203 50.4124 117.141 50.1974 117.939C49.1361 121.873 46.602 123.614 46.2778 127.903L45.8597 128.055C45.8234 124.589 46.04 116.659 44.5695 113.428C44.3364 112.916 41.6448 112.684 40.7734 112.544Z" fill="#708088"/>
<path d="M50.2572 112.168L51.4528 111.695C50.4451 115.828 51.4911 126.93 51.1074 132.423C50.9559 133.143 50.9455 133.658 50.5518 134.222L45.0742 134.078C46.5895 131.956 46.2717 130.529 46.2765 127.903C46.6007 123.615 49.1348 121.873 50.1961 117.939C50.4111 117.142 50.2844 113.203 50.2572 112.168Z" fill="#895E32"/>
<path d="M39.0692 119.748C39.2079 118.39 39.1987 117.722 39.7272 116.44C39.8914 117.854 39.9742 118.958 40.0309 120.381C40.0685 119.384 40.0281 119.046 40.5078 118.17C40.5821 120.766 40.7868 124.237 40.7168 126.769C42.0363 127.803 43.6719 128.642 45.3826 128.578L45.8599 128.054L46.278 127.902C46.2732 130.528 46.591 131.955 45.0757 134.077C43.532 134.113 41.9112 134.033 40.3619 133.985C39.4941 133.977 39.7775 134.017 38.9689 133.77C38.0084 131.392 38.9301 122.832 39.0692 119.748Z" fill="#744B25"/>
<path d="M40.7182 126.769C42.0377 127.803 43.6733 128.642 45.384 128.578L45.8613 128.054L46.2794 127.903C46.2746 130.528 46.5924 131.955 45.0771 134.077C43.5334 134.113 41.9126 134.034 40.3633 133.986L40.8437 133.574C41.2794 132.575 40.755 128.338 40.7182 126.769Z" fill="#8A7860"/>
<path d="M38.9575 110.541C42.4913 110.318 46.6595 109.91 50.1361 110.522C51.1298 110.697 50.8065 110.659 51.4548 111.694L50.2592 112.167C46.9405 112.417 44.1053 112.504 40.7742 112.544L40.5084 118.17C40.0287 119.046 40.0691 119.384 40.0315 120.381C39.9747 118.959 39.892 117.854 39.7277 116.44C39.1993 117.722 39.2085 118.39 39.0698 119.749C38.8439 117.179 38.9595 113.215 38.9575 110.541Z" fill="#805329"/>
<path d="M53.522 110.048L54.7295 110.326C55.1344 112.352 54.7878 121.705 54.325 123.789C53.1267 121.521 53.1642 112.705 53.522 110.048Z" fill="#9B9A99"/>
<path d="M40.0538 84.0023C41.9632 84.0035 48.7567 83.6942 49.9946 84.6661C49.9698 86.5929 49.8659 89.2563 50.0026 91.102L49.9078 91.7406L50.0114 97.1985L50.0481 97.6765C48.3742 97.9467 48.0032 98.0262 46.3372 97.9399C44.1704 97.7209 42.4189 97.82 40.1194 97.4931C40.0302 92.9281 39.9479 88.5681 40.0538 84.0023Z" fill="#7198CB"/>
<path d="M45.8658 90.9822C47.3343 90.9462 48.5422 90.8519 50.0024 91.102L49.9076 91.7407L50.0112 97.1986L50.0479 97.6766C48.3739 97.9468 48.003 98.0263 46.337 97.94C44.1702 97.7209 42.4187 97.8201 40.1191 97.4931L41.3563 97.2186C41.3942 95.6351 41.6384 93.4469 41.7679 91.8191L41.1584 91.3419C42.2028 91.0621 44.6786 91.0337 45.8658 90.9822Z" fill="#9EBAD1"/>
<path d="M45.3864 91.8701C47.1887 91.9457 48.1084 91.9021 49.9091 91.7402L50.0126 97.1981C48.2183 97.4855 47.4125 97.7145 45.92 96.9211C45.155 95.5447 45.382 93.5459 45.3864 91.8701Z" fill="#7692AD"/>
<path d="M41.7691 91.8186L43.561 92.0776C44.9292 93.9568 44.6942 95.1542 43.4487 96.9983C42.4238 97.2317 42.4043 97.2437 41.3574 97.2181C41.3954 95.6346 41.6396 93.4464 41.7691 91.8186Z" fill="#7198CB"/>
<path d="M40.0538 84.0023C41.9632 84.0035 48.7567 83.6942 49.9946 84.6661C48.1223 85.0542 47.6811 85.0858 45.7669 85.0482L44.7484 84.8664C42.7551 84.9111 42.8817 84.569 41.6938 85.561C41.0491 87.5094 41.4764 88.7447 41.2082 90.9009L41.1586 91.3418L41.7682 91.819C41.6386 93.4468 41.3944 95.635 41.3565 97.2185L40.1194 97.4931C40.0302 92.9281 39.9479 88.5681 40.0538 84.0023Z" fill="#4E657A"/>
<path d="M49.9953 84.6661C49.9705 86.5929 49.8666 89.2563 50.0033 91.102C48.5432 90.8518 47.3352 90.9461 45.8667 90.9821L45.7676 85.0482C47.6818 85.0858 48.1231 85.0542 49.9953 84.6661Z" fill="#7692AD"/>
<path d="M44.7499 84.8662L45.7684 85.0481L45.8675 90.9819C44.6804 91.0335 42.2046 91.0619 41.1602 91.3416L41.2097 90.9008C42.49 90.8972 42.6347 90.9512 43.9018 90.5974C45.0225 88.5831 43.3734 87.4684 44.7499 84.8662Z" fill="#93ADC5"/>
<path d="M50.0489 97.6765C51.1744 98.8048 50.9042 98.1613 51.0845 99.5777C49.4945 101.426 41.4763 100.673 39.1544 99.9223L38.7715 99.3395L39.0177 98.4383C40.5466 97.864 44.3466 98.0482 46.338 97.9399C48.004 98.0262 48.3749 97.9467 50.0489 97.6765Z" fill="#B2946B"/>
<path d="M179.35 80.4287C181.465 80.557 183.579 80.6989 185.693 80.8548C189.091 81.3516 190.462 81.8144 193.056 84.3534C196.558 89.0228 195.854 93.1689 195.386 98.7287C205.671 99.9988 207.598 104.493 214.924 111.729L215.22 111.63C216.943 110.196 219.197 110.069 220.952 111.533C221.427 112.952 221.331 113.208 220.312 114.491C221.855 115.962 224.517 116.958 226.855 119.061L224.453 120.855L222.742 122.853C223.422 123.923 223.894 124.737 224.745 125.695C223.318 127.244 222.107 128.175 222.007 130.257L221.863 131.732L222.583 133.363L222.794 132.991L224.062 132.835L225.98 132.248C226.999 131.932 228.162 131.22 229.134 130.689L228.966 132.248C229.338 141.86 225.704 136.5 224.569 140.477L224.925 141.32C226.496 141.74 228.163 141.916 228.89 143.166C226.748 148.326 193.66 150.4 187.364 150.468C186.201 153.23 185.598 153.694 182.987 155.208L183.827 162.73C186.445 163.43 190.99 164.349 192.896 166.211C193.264 170.999 157.33 176.89 152.278 178.201C152.745 175.444 153.125 172.526 153.533 169.744C153.497 167.898 153.833 167.722 152.917 166.651C151.179 165.995 147.705 166.183 145.367 166.003C143.484 165.472 141.685 165.172 139.767 164.812L142.693 164.661L143.064 164.217C143.324 162.167 143.264 157.487 142.433 155.652C142.241 154.633 142.125 152.147 142.037 151.004C142.593 150.033 142.649 150.065 142.809 148.978C142.045 148.294 140.051 148.71 138.68 148.778C139.663 148.038 141.074 148.374 142.813 147.207L143.248 146.891C144.016 145.309 144.547 140.685 144.851 138.69C145.151 137.267 145.627 135.777 146.038 134.37C147.185 131.652 148.576 130.637 150.715 128.591C152.018 128.279 152.881 127.915 154.148 128.291C161.019 128.734 163.314 129.398 169.913 127.203L169.981 126.896C181.932 118.532 179.118 111.745 175.497 99.7794C174.737 96.0593 172.635 94.1489 171.68 89.0951L176.9 83.9214C177.727 82.7955 178.547 81.5814 179.35 80.4287Z" fill="#8C8B8B"/>
<path d="M195.387 98.7286C205.672 99.9988 207.599 104.493 214.925 111.729L215.221 111.63C216.944 110.195 219.198 110.069 220.953 111.533C221.428 112.952 221.333 113.208 220.313 114.491C221.856 115.962 224.518 116.958 226.857 119.061L224.454 120.855L222.743 122.853C223.423 123.923 223.895 124.737 224.746 125.695C223.319 127.244 222.108 128.175 222.008 130.257L221.864 131.732L222.584 133.363L222.795 132.991L224.063 132.835L225.981 132.248C227 131.932 228.164 131.22 229.135 130.689L228.967 132.248C229.339 141.86 225.705 136.5 224.57 140.477L224.926 141.32C226.497 141.74 228.164 141.915 228.891 143.166C226.749 148.326 193.661 150.4 187.365 150.468C187.853 148.866 187.889 147.503 188.984 146.767C191.514 145.405 192.014 144.561 193.545 142.215L189.308 139.941C189.5 139.146 189.692 137.583 189.819 136.712L190.211 133.854C190.555 131.764 190.863 128.922 191.742 127.107C191.69 126.008 191.902 124.132 191.998 122.97L193.361 122.513L192.929 121.921C192.27 120.97 193.037 115.169 193.161 113.659C193.984 110.777 194.36 105.621 195.192 103.657L195.427 102.476C194.884 101.711 195.276 99.745 195.387 98.7286Z" fill="#4885D5"/>
<path d="M225.981 132.248C227 131.932 228.164 131.22 229.135 130.689L228.967 132.248C229.339 141.86 225.705 136.5 224.57 140.477L224.926 141.32C226.497 141.74 228.164 141.916 228.891 143.166C226.749 148.326 193.661 150.4 187.365 150.468C187.853 148.866 187.889 147.503 188.984 146.767C191.514 145.405 192.014 144.561 193.545 142.215C195.112 141.716 203.022 142.075 205.836 141.688C204.289 141.696 202.746 141.999 201.667 141.28C201.551 139.885 201.491 139.741 200.688 138.594C202.346 135.129 204.605 133.686 208.178 135.293C208.126 133.686 207.93 132.975 208.67 131.632C211.004 131.576 213.19 131.296 215.689 131.268C217.931 132.036 219.518 132.04 221.864 131.732L222.584 133.363L222.795 132.991L224.063 132.835L225.981 132.248Z" fill="#1A4BA1"/>
<path d="M224.382 140.448L224.57 140.476L224.926 141.319C226.497 141.739 228.164 141.915 228.891 143.166C226.749 148.325 193.661 150.4 187.365 150.468C187.853 148.865 187.889 147.502 188.984 146.767C191.514 145.404 192.014 144.561 193.545 142.215C195.112 141.715 203.022 142.075 205.836 141.687C207.231 141.599 211.604 141.048 212.443 141.407C215.061 144.389 218.65 145.5 222.236 143.398C223.463 142.111 223.599 142.011 224.382 140.448Z" fill="#CCCED1"/>
<path d="M208.67 131.632C211.004 131.576 213.19 131.297 215.689 131.269C217.931 132.036 219.518 132.04 221.864 131.732L222.584 133.363L222.795 132.991L224.062 132.835L224.266 133.231C224.234 135.209 224.562 135.005 223.595 136.248C219.945 137.635 204.257 139.486 200.688 138.594C202.346 135.129 204.605 133.687 208.178 135.293C208.126 133.687 207.93 132.975 208.67 131.632Z" fill="#2C2D2E"/>
<path d="M208.669 131.632C211.004 131.576 213.19 131.297 215.688 131.269C217.931 132.036 219.517 132.04 221.864 131.732L222.583 133.363C219.865 134.454 210.912 135.973 208.178 135.293C208.126 133.687 207.93 132.975 208.669 131.632Z" fill="#A8A7A9"/>
<path d="M212.443 141.407C214.238 140.536 215.833 140.448 217.815 140.164C219.003 140.576 221.533 142.402 222.236 143.398C218.651 145.5 215.061 144.389 212.443 141.407Z" fill="#222121"/>
<path d="M217.814 140.164L218.27 140.148C220.105 140.065 223.171 139.237 224.086 139.553L224.382 140.448C223.598 142.011 223.462 142.111 222.235 143.398C221.532 142.403 219.002 140.576 217.814 140.164Z" fill="#383839"/>
<path d="M225.982 132.248C227.001 131.932 228.164 131.22 229.136 130.689L228.968 132.248C228.708 133.598 228.736 134.378 227.705 135.245C226.486 135.421 226.765 135.565 225.746 135.221L225.982 132.248Z" fill="#2A3A59"/>
<path d="M224.062 132.835L225.981 132.247L225.745 135.221L224.902 135.381C224.754 134.773 224.65 134.39 224.45 133.782L224.266 133.231L224.062 132.835Z" fill="#1352B9"/>
<path d="M200.161 127.643C201.608 127.272 201.504 126.858 202.699 125.394C203.358 127.284 203.482 127.787 204.665 129.378L205.381 129.666C207.064 129.954 207.443 129.718 208.495 130.665L208.671 131.632C207.931 132.975 208.127 133.686 208.179 135.293C204.605 133.686 202.347 135.129 200.688 138.594C201.492 139.741 201.552 139.885 201.668 141.28C202.747 142 204.29 141.696 205.837 141.688C203.023 142.075 195.112 141.716 193.546 142.215L189.309 139.941C189.5 139.146 189.692 137.583 189.82 136.712L190.212 133.854C190.556 131.764 190.863 128.922 191.743 127.108C195.212 128.023 196.523 128.267 200.161 127.643Z" fill="#356BB7"/>
<path d="M190.212 133.854C192.666 134.209 196.927 134.545 198.982 135.56L199.429 136.192C198.938 137.738 199.353 137.091 198.114 138.182C195.192 138.642 192.694 137.127 189.82 136.711L190.212 133.854Z" fill="#2A3A59"/>
<path d="M195.387 98.7286C205.671 99.9988 207.598 104.493 214.924 111.729C213.485 113.074 210.739 112.953 208.813 112.95C204.892 113.366 197.261 113.649 193.16 113.659C193.984 110.777 194.359 105.621 195.191 103.657L195.427 102.476C194.883 101.711 195.275 99.745 195.387 98.7286Z" fill="#808081"/>
<path d="M195.191 103.656C196.973 105.059 204.632 110.821 205.623 112.287L205.431 112.773C206.558 112.859 207.686 112.918 208.813 112.95C204.892 113.366 197.261 113.649 193.16 113.658C193.984 110.777 194.359 105.62 195.191 103.656Z" fill="#525455"/>
<path d="M195.388 98.7286C205.672 99.9988 207.599 104.493 214.926 111.729C213.487 113.074 210.741 112.953 208.814 112.95C207.687 112.918 206.56 112.859 205.433 112.774L205.624 112.287C207.559 111.363 209.322 111.741 211.464 111.924C208.53 107.879 206.356 105.228 202.191 102.515C199.992 102.445 197.642 102.481 195.428 102.476C194.884 101.711 195.276 99.745 195.388 98.7286Z" fill="#1A4BA1"/>
<path d="M222.647 123.162L222.743 122.853C223.422 123.923 223.894 124.737 224.745 125.694C223.318 127.243 222.107 128.175 222.007 130.257L221.863 131.732C219.517 132.039 217.93 132.035 215.688 131.268C213.19 131.296 211.003 131.576 208.669 131.632L208.493 130.664C207.442 129.717 207.062 129.953 205.379 129.665L204.664 129.378C203.481 127.787 203.357 127.283 202.697 125.394C205.143 124.712 210.392 124.506 213.13 124.345L214.677 124.07C217.127 123.884 220.005 123.394 222.647 123.162Z" fill="#383839"/>
<path d="M222.646 123.162L222.742 122.853C223.422 123.923 223.893 124.737 224.745 125.694C223.318 127.243 222.107 128.175 222.007 130.257L221.863 131.732C219.517 132.039 217.93 132.035 215.687 131.268C213.189 131.296 211.003 131.576 208.669 131.632L208.493 130.664C207.441 129.717 207.062 129.953 205.379 129.665C209.224 129.601 215.152 129.545 218.797 128.906C222.866 127.599 222.482 127.335 222.646 123.162Z" fill="#1352B9"/>
<path d="M215.688 131.268C217.798 130.948 219.904 130.612 222.007 130.257L221.863 131.731C219.517 132.039 217.93 132.035 215.688 131.268Z" fill="#BEBCBC"/>
<path d="M214.677 124.069C217.128 123.884 220.006 123.394 222.648 123.162C222.484 127.335 222.867 127.599 218.798 128.906C217.459 128.906 216.348 128.874 215.009 128.786L214.605 128.202L214.677 124.069Z" fill="#2C2D2E"/>
<path d="M213.129 124.345L214.676 124.07L214.604 128.203L213.633 127.919C212.798 126.597 213.101 126.116 213.129 124.345Z" fill="#777779"/>
<path d="M192.93 121.92C193.945 121.796 194.82 121.93 195.807 122.165C201.423 123.502 221.757 119.671 224.455 120.855L222.744 122.853L222.648 123.162C220.006 123.394 217.128 123.884 214.678 124.07L213.131 124.345C210.393 124.506 205.145 124.712 202.698 125.394C201.503 126.858 201.607 127.271 200.16 127.643C196.523 128.266 195.212 128.023 191.742 127.107C191.69 126.008 191.902 124.131 191.998 122.97L193.361 122.512L192.93 121.92Z" fill="#356BB7"/>
<path d="M191.998 122.969L193.361 122.512C195.424 123.242 198.278 124.033 199.805 125.43L200.16 127.643C196.523 128.266 195.212 128.022 191.742 127.107C191.69 126.007 191.902 124.131 191.998 122.969Z" fill="#CCCED1"/>
<path d="M191.998 122.969L193.361 122.512C195.424 123.242 198.277 124.033 199.804 125.43C198.497 126.387 193.489 125.632 192.286 124.848L191.998 122.969Z" fill="#DBD7D2"/>
<path d="M215.221 111.63C216.943 110.195 219.198 110.069 220.953 111.533C221.428 112.952 221.332 113.208 220.313 114.491C217.431 113.246 216.712 114.73 215.221 111.63Z" fill="#356BB7"/>
<path d="M175.856 158.453C177.595 157.338 180.952 156.055 182.987 155.208L183.826 162.729C186.444 163.429 190.989 164.348 192.896 166.211C193.264 170.999 157.33 176.89 152.277 178.201C152.745 175.443 153.125 172.525 153.532 169.744C153.728 168.177 153.772 167.47 154.268 165.995C158.964 164.476 163.869 162.706 168.533 161.295C170.264 160.563 174.229 158.765 175.856 158.453Z" fill="#CCCED1"/>
<path d="M175.857 158.453C177.596 157.338 180.954 156.055 182.988 155.208L183.828 162.729C183.975 164.5 184.327 166.151 183.652 167.721C179.259 170.851 178.823 164.656 177.308 162.082L175.857 158.453Z" fill="#644121"/>
<path d="M168.533 161.296C170.264 160.564 174.229 158.766 175.856 158.454L177.307 162.083C176.076 162.822 169.892 161.971 168.533 161.296Z" fill="#EAE9E9"/>
<path d="M171.679 89.0951L176.899 83.9214C178.838 84.5525 181.516 85.2227 183.294 85.9289C179.193 95.0038 178.993 102.953 180.824 112.403C181.332 115.006 181.276 118.81 182.123 121.359L184.821 122.847L184.753 123.368L184.298 123.486C182.131 125.617 174.461 128.75 171.803 127.515L169.912 127.203L169.98 126.896C181.931 118.532 179.117 111.745 175.496 99.7794C174.737 96.0593 172.634 94.1489 171.679 89.0951Z" fill="#777779"/>
<path d="M171.803 127.515C176.975 125.484 177.682 121.437 184.298 123.486C182.131 125.617 174.461 128.75 171.803 127.515Z" fill="#BEBCBC"/>
<path d="M150.713 128.59C152.016 128.279 152.88 127.915 154.147 128.291C156.333 130.789 159.987 130.509 163.468 130.86C158.272 132.999 156.949 133.598 154.427 138.822C151.297 138.846 147.951 138.946 144.85 138.69C145.149 137.267 145.625 135.776 146.037 134.37C147.184 131.652 148.575 130.637 150.713 128.59Z" fill="#BEBCBC"/>
<path d="M185.693 80.8547C189.091 81.3515 190.462 81.8143 193.056 84.3534C191.309 85.9357 189.854 88.3733 188.523 90.3808C188.223 89.8013 187.28 88.1151 187.216 87.5959C188.116 86.2151 187.444 83.1284 186.169 81.9798L185.693 80.8547Z" fill="#A8A7A9"/>
<path d="M189.307 139.94L193.544 142.215C192.013 144.561 191.513 145.404 188.983 146.767L188.583 146.251C188.316 144.944 189.047 141.467 189.307 139.94Z" fill="#2C2D2E"/>
<path d="M186.17 81.9801C187.445 83.1287 188.117 86.2154 187.218 87.5962C186.054 85.4592 184.524 83.9952 186.17 81.9801Z" fill="#BEBCBC"/>
<path d="M136.43 126.92L137.63 127.092C139.84 129.649 142.866 133.853 146.039 134.369C145.628 135.776 145.152 137.267 144.852 138.689C144.548 140.684 144.017 145.308 143.249 146.891L142.814 147.206C141.075 148.373 139.664 148.038 138.681 148.777C140.052 148.709 142.046 148.293 142.81 148.977C142.65 150.064 142.594 150.032 142.038 151.003C142.126 152.146 142.242 154.632 142.434 155.651C143.265 157.486 143.325 162.166 143.066 164.216L142.694 164.66L139.768 164.812C141.687 165.171 143.485 165.471 145.368 166.003C147.706 166.183 151.18 165.995 152.918 166.65C153.834 167.721 153.498 167.897 153.534 169.744C153.126 172.525 152.747 175.443 152.279 178.201C150.292 179.791 149.681 179.428 147.246 178.896C133.477 177.086 112.352 176.582 99.582 173.249C98.139 172.353 91.6686 170.563 90.0074 170.647C91.2996 169.915 95.0053 171.015 96.8808 169.528C99.3825 168.357 99.4385 169.588 101.779 166.782C99.857 165.711 98.424 164.784 96.9275 163.153L96.6266 163.429C94.7807 161.247 94.5513 160.239 93.8322 157.578C92.8125 156.934 92.4868 156.97 91.3096 156.822C83.7092 154.888 87.5871 150.428 83.2667 145.012L82.2786 144.449C81.6095 142.774 81.8693 140.98 81.9388 139.121L81.6259 138.59L81.0547 137.191C81.9768 136.963 82.6531 137.139 83.642 137.231C84.1528 139.249 84.0457 140.876 84.0261 142.938C84.541 141.915 84.8575 140.548 85.1701 139.413L85.0242 139.093L85.2033 139.185L85.1002 139.829L85.7912 140.084L86.1474 139.785L85.1821 140.26L86.0834 139.761C84.6417 134.497 87.7122 132.95 91.569 130.153C92.2669 130.888 94.8059 135.996 95.666 137.363C97.1398 139.705 98.51 141.671 100.135 143.941C104.929 138.841 108.152 133.846 114.658 131.523C120.682 141.203 122.329 138.382 130.77 143.254C144.105 140.296 144.101 137.522 136.43 126.92Z" fill="#135BCA"/>
<path d="M119.787 161.859C124.691 162.942 134.816 164.948 139.768 164.812C141.687 165.172 143.486 165.472 145.368 166.003C147.707 166.183 151.18 165.995 152.919 166.651C153.834 167.722 153.498 167.898 153.534 169.744C153.127 172.526 152.747 175.444 152.279 178.201C150.293 179.792 149.681 179.428 147.247 178.897C133.477 177.086 112.352 176.583 99.5824 173.249C98.1395 172.354 91.669 170.564 90.0078 170.648C91.3001 169.916 95.0058 171.015 96.8812 169.528C99.383 168.357 99.439 169.588 101.779 166.783C110.346 170.068 115.454 170.935 119.787 161.859Z" fill="#CCCED1"/>
<path d="M145.365 166.004C147.704 166.183 151.177 165.996 152.916 166.651C153.831 167.722 153.495 167.898 153.531 169.744C153.124 172.526 152.744 175.444 152.276 178.201C150.29 179.792 149.678 179.428 147.244 178.897C146.281 175.859 145.733 169.457 145.365 166.004Z" fill="#644121"/>
<path d="M101.021 148.442C107.065 144.741 112.528 128.575 120.678 142.191C120.894 142.551 121.105 142.911 121.313 143.275C121.073 146.076 120.962 147.523 120.294 150.237C120.518 152.735 120.454 155.025 120.634 157.327C120.23 159.029 119.942 160.093 119.786 161.859C115.454 170.936 110.345 170.068 101.779 166.783C99.8569 165.712 98.4239 164.785 96.9274 163.154L96.6264 163.43C94.7806 161.248 94.5511 160.24 93.832 157.579L94.5163 157.523C95.9533 156.855 96.935 156.38 98.2912 155.564L98.3859 155.077C99.2013 153.658 100.13 150.413 101.021 148.442Z" fill="#2070E8"/>
<path d="M117.156 162.79C117.58 158.245 118.955 154.58 120.294 150.236C120.518 152.734 120.454 155.024 120.634 157.326C120.23 159.029 119.942 160.092 119.786 161.858C115.454 170.935 110.345 170.067 101.779 166.782C99.8569 165.711 98.4239 164.784 96.9274 163.153L96.6264 163.429C94.7806 161.247 94.5511 160.24 93.832 157.578L94.5163 157.522C95.9533 156.854 96.935 156.379 98.2912 155.564L98.3859 155.076C100.325 155.763 101.938 155.915 103.87 156.587C108.624 158.233 112.795 160.332 117.156 162.79Z" fill="#135BCA"/>
<path d="M94.5163 157.522C95.9533 156.855 96.935 156.379 98.2912 155.564C98.051 157.07 97.3535 161.994 96.9274 163.153L96.6264 163.429C94.7806 161.247 94.5511 160.24 93.832 157.578L94.5163 157.522Z" fill="#4885D5"/>
<path d="M124.31 146.408C132.112 148.003 135.402 147.459 142.812 147.207C141.074 148.374 139.663 148.039 138.679 148.778C140.05 148.71 142.045 148.294 142.808 148.978C142.649 150.065 142.593 150.033 142.037 151.004C142.125 152.147 142.241 154.633 142.433 155.652C143.264 157.487 143.324 162.167 143.064 164.217L142.692 164.661L139.767 164.813C134.814 164.949 124.69 162.942 119.785 161.859C119.941 160.093 120.229 159.029 120.633 157.327C121.592 153.762 123.063 149.913 124.31 146.408Z" fill="#777779"/>
<path d="M138.679 148.778C140.05 148.71 142.045 148.294 142.808 148.978C142.648 150.065 142.592 150.033 142.037 151.004C142.125 152.147 142.241 154.633 142.432 155.652C137.776 169.405 125.705 154.557 127.443 150.5C128.99 149.697 130.073 149.805 131.82 149.725C134.114 149.469 136.401 149.154 138.679 148.778Z" fill="#9B9A99"/>
<path d="M138.679 148.778C140.05 148.71 142.045 148.294 142.808 148.978C142.648 150.065 142.592 150.033 142.037 151.004C140.294 151.3 133.923 151.008 132.152 150.564L131.82 149.725C134.115 149.469 136.401 149.154 138.679 148.778Z" fill="#A8A7A9"/>
<path d="M81.0547 137.191C81.9768 136.963 82.6531 137.139 83.642 137.231C84.1528 139.249 84.0457 140.876 84.0261 142.938C84.541 141.915 84.8575 140.548 85.1701 139.413L85.0242 139.093L85.2033 139.185L85.1002 139.829L85.7912 140.085L86.1474 139.785L85.1821 140.26L86.0834 139.761C88.7599 144.317 89.9438 144.637 94.0212 147.954C98.3237 149.577 97.4971 147.606 100.708 147.574L101.021 148.442C100.13 150.412 99.2015 153.657 98.3861 155.076L98.2913 155.564C96.9351 156.379 95.9534 156.855 94.5165 157.522L93.8322 157.578C92.8125 156.934 92.4868 156.971 91.3096 156.823C83.7092 154.888 87.5871 150.428 83.2667 145.012L82.2786 144.449C81.6095 142.774 81.8693 140.98 81.9388 139.121L81.6259 138.59L81.0547 137.191Z" fill="#9B9A99"/>
<path d="M94.0215 147.954C98.324 149.577 97.4974 147.607 100.708 147.575L101.021 148.442C100.13 150.412 99.2017 153.657 98.3863 155.076L98.2916 155.564C96.9354 156.379 95.9537 156.855 94.5167 157.522C94.6123 154.009 94.3892 151.439 94.0215 147.954Z" fill="#808081"/>
<path d="M81.0547 137.191C81.9768 136.963 82.6531 137.139 83.642 137.231C84.1528 139.249 84.0457 140.876 84.0261 142.938C83.9098 143.598 83.8419 143.578 83.5321 144.201C82.7111 143.61 82.2582 140.448 81.9388 139.121L81.6259 138.59L81.0547 137.191Z" fill="#6B7E39"/>
<path d="M148.193 123.296C149.944 119.151 149.065 113.998 152.746 112.33L153.561 112.5L150.196 116.598C164.885 117.742 164.689 127.327 166.292 127.627L169.254 126.445L169.982 126.895L169.914 127.202C163.314 129.397 161.02 128.734 154.149 128.29C152.882 127.915 152.019 128.278 150.716 128.59C149.408 126.402 149.089 125.671 148.193 123.296Z" fill="#1352B9"/>
<path d="M93.8817 112.248C97.8136 110.259 99.2362 111.697 102.485 114.422L103.078 114.248L103.48 113.308C104.315 113.567 105.129 113.87 105.984 113.998L105.816 115.49C103.884 116.25 103.129 117.009 101.563 118.31C99.1015 120.208 97.6282 121.956 95.6009 124.306C93.707 123.687 92.6466 123.479 91.041 122.279L90.676 120.746L90.2292 120.747L89.4933 118.235C89.5013 115.766 89.3814 114.114 90.0972 111.745C91.521 112.035 92.4348 112.127 93.8817 112.248Z" fill="#1A4BA1"/>
<path d="M90.0972 111.745C91.521 112.035 92.4348 112.127 93.8817 112.248C93.5499 115.753 95.4761 117.766 93.3057 119.952C92.2425 120.222 91.7173 120.35 90.676 120.746L90.2292 120.747L89.4933 118.235C89.5013 115.767 89.3814 114.114 90.0972 111.745Z" fill="#135BCA"/>
<path d="M171.679 89.0944C172.634 94.1482 174.737 96.0585 175.496 99.7787C174.685 98.6072 174.281 98.186 173.286 97.1437C166.543 91.2973 151.146 97.8111 142.177 98.405L142.057 98.0545C145.246 95.1601 162.945 95.3595 171.679 89.0944Z" fill="#1A4BA1"/>
<path d="M140.194 29.447L143.139 29.3391C141.157 30.3027 141.605 32.084 138.151 32.3362C134.334 32.6144 124.589 38.0934 121.915 38.135C120.98 37.6342 120.816 37.5379 119.988 36.8804C125.596 32.536 133.283 30.3922 140.194 29.447Z" fill="#7198CB"/>
<path d="M173.287 97.1443C174.282 98.1866 174.686 98.6079 175.497 99.7793C179.119 111.745 181.933 118.532 169.981 126.896L169.254 126.445C169.578 126.005 171.86 124.573 172.472 124.166C176.321 115.006 177.608 106.688 173.287 97.1443Z" fill="#135BCA"/>
<path d="M110.401 82.86C111.928 84.5114 113.443 86.1756 114.942 87.8526C114.518 88.55 113.535 90.0772 113.227 90.7402C112 91.4229 110.769 92.0955 109.533 92.7581C109.481 92.4376 109.43 92.1167 109.378 91.7958C108.85 88.393 108.321 85.706 110.401 82.86Z" fill="#4E657A"/>
<path d="M126.704 92.225C131.513 93.2949 134.319 93.9012 139.227 93.7637L140.642 93.7341C137.137 95.2812 135.602 96.252 132.38 98.3059C130.673 96.7212 128.475 94.5654 126.66 93.2145L126.704 92.225Z" fill="#1A4BA1"/>
<path d="M105.815 115.491C114.442 114.193 118.527 114.121 126.201 118.933C120.13 116.979 113.307 114.151 107.056 116.471C105.602 117.01 102.861 118.388 101.562 118.31C103.129 117.009 103.884 116.25 105.815 115.491Z" fill="#4885D5"/>
<path d="M141.262 97.7972L142.057 98.055L142.177 98.4055C141.369 100.925 138.12 112.681 137.32 114.23L137.544 113.555L137.408 113.801C136.533 110.852 140.006 101.658 140.53 98.5294L141.262 97.7972Z" fill="#AABDD1"/>
<path d="M114.941 87.8524C117.671 89.4727 120.533 90.3759 123.539 91.3899L121.812 92.2723C117.759 92.0737 116.988 91.8923 113.227 90.74C113.534 90.077 114.518 88.5498 114.941 87.8524Z" fill="#1A4BA1"/>
<path d="M103.479 113.307C104.987 110.246 108.598 102.231 110.435 100.072C110.304 100.962 108.961 103.896 108.555 105.082C107.569 108.015 106.71 110.99 105.982 113.997C105.127 113.87 104.313 113.567 103.479 113.307Z" fill="#1A4BA1"/>
<path d="M155.376 102.478L155.004 110.436C155.804 111.171 156.28 111.255 157.287 111.616L156.559 111.713C155.356 111.88 154.649 111.937 153.562 112.501L152.746 112.33C153.346 108.525 153.897 106.082 155.376 102.478Z" fill="#1A4BA1"/>
<path d="M129.057 101.825C132.206 100.071 137.638 97.7381 141.264 97.7972L140.532 98.5294C139.877 98.6086 139.921 98.5402 139.425 98.7772C135.056 100.871 133.849 101.407 129.057 101.825Z" fill="#1352B9"/>
<path d="M123.539 91.3894L126.705 92.2247L126.661 93.2143C125.142 92.7662 123.391 92.5345 121.812 92.2719L123.539 91.3894Z" fill="#1352B9"/>
<path d="M136.427 126.92L135.5 125.834L135.756 125.539C136.859 126.021 136.871 126.176 137.626 127.092L136.427 126.92Z" fill="#135BCA"/>
<path d="M132.829 45.4363C141.507 44.9587 151.16 45.5902 158.506 50.9949C166.556 56.8324 166.632 69.2157 160.649 76.5176C155.684 82.579 149.029 83.9874 141.679 84.8059C132.637 85.1376 123.592 85.0725 115.977 79.3724C108.263 73.5956 107.499 60.8591 113.455 53.6175C118.012 48.0733 126.006 46.1593 132.829 45.4363Z" fill="#FFFFFE"/>
<path d="M146.547 59.3365C147.17 59.2717 147.798 59.225 148.425 59.1974C151.667 59.0839 153.358 61.9271 153.294 64.9566C153.218 68.6643 152.247 70.6698 149.716 73.2801C141.734 73.9603 143.017 64.1105 146.547 59.3365Z" fill="#222121"/>
<path d="M149.592 60.733C151.043 61.7018 150.631 61.1763 151.407 62.6902C151.335 64.1925 151.043 64.3352 150.008 65.5614C148.896 64.7005 148.297 64.4427 147.953 63.0967C148.173 61.9041 148.709 61.5835 149.592 60.733Z" fill="#EAE9E9"/>
<path d="M117.216 62.1852C118.611 60.4898 119.355 59.4559 121.453 58.9259C123.06 59.0854 123.148 59.2532 124.499 60.264C125.35 61.7947 125.478 61.939 125.822 63.6196C125.634 66.6423 125.618 67.5667 124.067 70.2836C123.164 71.2904 123.152 71.3176 122.033 72.0645C119.343 72.441 118.072 70.838 116.921 68.5927C116.757 65.823 116.865 64.9449 117.216 62.1852Z" fill="#222121"/>
<path d="M116.92 68.5925C120.261 68.5233 121.453 68.19 124.067 70.2834C123.163 71.2902 123.151 71.3174 122.032 72.0643C119.342 72.4408 118.071 70.8378 116.92 68.5925Z" fill="#483833"/>
<path d="M124.497 60.2638C125.348 61.7945 125.476 61.9388 125.82 63.6194L124.421 64.3008C123.066 64.8508 122.95 64.78 121.771 64.1821C120.636 61.7238 121.519 61.1467 123.65 60.4496L124.497 60.2638Z" fill="#EAE9E9"/>
<path d="M124.498 60.2638C125.349 61.7945 125.477 61.9388 125.821 63.6194L124.422 64.3008C124.43 62.4428 124.482 62.0863 123.65 60.4496L124.498 60.2638Z" fill="#383839"/>
<path d="M130.621 77.9173C129.054 75.9889 127.715 74.6157 127.203 72.2117C127.531 70.7649 127.151 71.316 128.386 70.5019C130.053 70.3213 131.22 71.0395 132.811 71.7129C135.201 71.2301 139.402 69.2386 140.589 72.0442C140.318 73.8036 140.21 73.9582 139.43 75.5977C136.712 78.337 135.733 78.9033 131.868 78.15L130.621 77.9173Z" fill="#222121"/>
<path d="M130.621 77.918C133.963 74.5352 134.858 74.0724 139.431 75.5983C136.713 78.3376 135.733 78.904 131.868 78.1506L130.621 77.918Z" fill="#D7544A"/>
<path d="M144.825 102.577C145.488 102.679 146.112 102.963 146.663 103.353C149.801 105.569 148.938 106.995 146.895 109.512C145.32 107.25 143.726 107.425 142.998 106.018C143.326 104.618 144.021 103.792 144.825 102.577Z" fill="#C0D1F7"/>
<path d="M120.064 93.5391C122.635 94.1653 129.194 99.0013 129.59 101.516C127.411 101.274 122.191 95.4938 120.064 93.5391Z" fill="#1352B9"/>
<path d="M140.219 27.7911C139.531 23.334 140.878 6.36899 142.573 1.66731C142.805 1.02424 144.28 0.186937 145.207 0.0458541C146.306 -0.119208 147.421 0.165345 148.309 0.835187C150.867 2.75119 149.899 7.42531 149.624 10.3133C150.259 10.7565 165.536 6.59478 166.627 19.4325C166.967 23.4008 166.463 27.545 163.526 30.4218L162.582 31.9772C156.978 30.1316 155.427 29.5501 149.468 29.3934L143.14 29.3391L140.195 29.447L140.219 27.7911Z" fill="#C0BFBF"/>
<path d="M147.742 23.0083C148.478 21.0531 149.385 18.2647 151.495 17.6496C157.671 15.8527 159.67 20.6359 157.311 25.5694C156.432 26.559 155.592 27.4822 154.389 28.0905C153.482 28.5533 152.415 28.5993 151.468 28.2164C149.465 27.425 148.486 24.854 147.742 23.0083Z" fill="#FFFFFE"/>
<path d="M149.545 28.9327L150.328 28.7308C148.961 26.9691 147.002 25.2677 147.742 23.0088C148.485 24.8545 149.465 27.4255 151.467 28.2169C152.414 28.5997 153.482 28.5538 154.389 28.091C155.592 27.4827 156.432 26.5594 157.311 25.5699C159.665 26.1082 162.015 28.5886 163.526 30.4218L162.583 31.9773C156.979 30.1317 155.428 29.5502 149.469 29.3935L149.545 28.9327Z" fill="#A8A7A9"/>
<path d="M140.219 27.7911C140.263 27.1497 140.367 24.3332 140.615 24.0259L140.511 24.531L141.215 24.569L141.506 24.9763C145.575 30.55 146.223 26.975 149.545 28.9326L149.469 29.3934L143.141 29.3391L140.195 29.447L140.219 27.7911Z" fill="#9B9A99"/>
<path d="M43.6455 57.6999C49.6631 57.6975 56.8015 57.598 62.7268 58.0217C59.6307 58.3314 47.6034 57.6863 46.0857 58.6703L46.1269 59.7478L45.9506 60.07L45.218 59.6931L44.6836 60.2946C44.8358 61.2014 44.7111 60.8761 45.2943 61.6183L45.0229 62.0179C45.2404 62.5383 45.6956 63.7433 45.9806 64.149C43.4173 66.979 31.6878 83.1299 29.7848 83.6287L29.1457 82.401C27.2722 82.7579 26.1458 83.3242 24.8164 81.8526C24.9415 80.3491 41.3204 60.1655 43.6455 57.6999Z" fill="#4885D5"/>
<path d="M29.1445 82.4013C30.1998 80.2387 42.9221 64.2868 45.0218 62.0183C45.2392 62.5387 45.6945 63.7437 45.9795 64.1493C43.4161 66.9794 31.6867 83.1303 29.7837 83.6291L29.1445 82.4013Z" fill="#CEB692"/>
<path d="M224.745 125.694C226.248 124.537 226.712 124.619 228.45 122.987C228.962 125.742 229.402 127.863 229.134 130.689C228.163 131.22 227 131.932 225.98 132.247L224.062 132.835L222.795 132.991L222.583 133.362L221.863 131.732L222.007 130.257C222.107 128.175 223.318 127.243 224.745 125.694Z" fill="#356BB7"/>
<path d="M226.855 119.061C227.906 120.48 228.31 121.188 228.45 122.987C226.711 124.619 226.248 124.537 224.745 125.694C223.893 124.737 223.422 123.923 222.742 122.853L224.453 120.855L226.855 119.061Z" fill="#CCCED1"/>
</svg>
