<svg width="125" height="72" viewBox="0 0 125 72" fill="none" xmlns="http://www.w3.org/2000/svg">
<g clip-path="url(#clip0_310_3925)">
<path d="M4.71014 59.615C5.36403 58.8716 5.49814 58.3601 5.96886 57.5085L8.02933 53.7343L9.519 51.0494C9.60173 50.8969 10.392 49.553 10.2388 49.4179C8.99077 48.3175 0.958344 44.6644 0.527344 43.6968C0.706897 43.0341 4.08013 41.2892 4.83786 40.8489L14.5479 35.3089L25.2982 28.9748C26.6316 28.1827 27.9361 27.3131 29.2903 26.5606C29.5949 26.3913 29.9634 26.2207 30.3224 26.2568C30.7467 26.2996 39.7628 31.5851 41.1313 32.3516C42.1168 32.9036 43.1766 33.3702 44.1348 33.9635C44.3183 34.0771 44.479 34.2184 44.6047 34.3947C45.0722 35.0512 44.8887 36.1641 44.7635 36.9136C44.4387 37.0766 42.9043 38.2342 42.8375 38.5234L42.899 38.5956C42.5321 38.7374 40.9736 39.672 40.6374 39.9217C40.483 41.2872 39.6557 42.2587 38.9761 43.4207L36.748 47.2993C36.1599 48.3195 35.6439 49.4285 35.0248 50.4593C32.455 54.7386 30.3523 59.3284 27.7342 63.5525C27.6142 63.746 26.9466 63.7777 26.7521 63.7496C19.477 62.6994 11.9812 60.4709 4.71014 59.615Z" fill="#91CE94"/>
<path d="M21.4393 44.6063C21.4507 44.6045 21.4621 44.6028 21.4735 44.601C24.5265 44.3475 27.7368 44.8497 30.2131 46.7619C31.9691 48.1178 32.1978 50.5682 30.76 52.2468C29.1554 54.1202 26.7886 54.9138 24.3855 55.1097C21.1911 55.2352 18.2197 54.9676 15.6408 52.932C13.8943 51.5534 13.3968 49.7725 14.6743 47.905C16.0848 45.8434 19.125 44.8225 21.4393 44.6063Z" fill="#A0DE9E"/>
<path d="M21.4539 45.0217C24.6045 44.6132 30.5421 45.7166 31.3023 49.62C31.4438 50.3464 30.9823 51.2649 30.5409 51.8447C29.1839 53.6273 26.7165 54.3967 24.5949 54.6968C21.5009 54.8119 19.2086 54.594 16.4681 52.8092C15.6288 52.2273 14.8105 51.3747 14.6476 50.3408C14.1001 46.8632 18.7816 45.4241 21.4539 45.0217Z" fill="#84C386"/>
<path d="M22.7289 34.9063C24.3304 34.8498 25.9308 35.0434 27.4728 35.4801C28.4465 35.7633 32.1382 37.2632 31.6813 38.6216C31.3206 38.6252 29.3075 38.1738 28.7066 38.0983C26.9467 37.8058 25.2433 37.3082 23.5103 36.8868C22.2427 36.5785 20.0662 36.4137 18.9336 35.8618C19.3061 35.4124 22.0669 34.9643 22.7289 34.9063Z" fill="#84C386"/>
<path d="M17.4318 36.4463L17.6264 36.4676L17.7018 36.5654C17.7076 37.1417 15.9804 39.9017 15.5915 40.5964C15.486 40.6434 15.5409 40.6261 15.3989 40.5982C15.2816 40.4072 15.3254 40.2657 15.3205 40.054C15.2833 38.4579 16.1891 37.3249 17.4318 36.4463Z" fill="#84C386"/>
<path d="M12.2157 45.1301C12.3164 45.1534 12.3102 45.1634 12.4012 45.2245L12.3942 45.4137C12.1653 45.8188 10.6738 46.6039 10.2118 46.8069C10.1051 46.8046 10.1585 46.8128 10.0498 46.7206L10.0629 46.5506C10.3137 46.1371 11.7411 45.3766 12.2157 45.1301Z" fill="#A0DE9E"/>
<path d="M10.5338 44.4068C10.695 44.4053 10.6862 44.4059 10.8273 44.4877L10.8486 44.629C10.5906 45.0553 9.27863 45.8681 8.81592 46.1766C8.71943 46.1605 8.62568 46.1153 8.53418 46.0778L8.50293 45.9461C8.76824 45.4588 9.97035 44.9482 10.5111 44.4288L10.5338 44.4068Z" fill="#84C386"/>
<path d="M17.0906 57.9109C17.4712 58.2802 16.4829 59.7074 16.1833 60.0639C16.1222 59.9883 16.1189 59.9362 16.0889 59.8391C16.1463 59.2673 16.7439 58.3795 17.0906 57.9109Z" fill="#A0DE9E"/>
<path d="M29.7572 28.1552C30.1294 28.1165 30.6986 28.0881 30.9526 28.4029L30.8926 28.4995C30.5983 28.537 30.6488 28.5031 30.3363 28.3591C29.7068 28.479 29.5989 28.5498 28.9732 28.4355L28.9434 28.3518C29.2198 28.1898 29.442 28.188 29.7572 28.1552Z" fill="#84C386"/>
<path d="M33.823 41.1699C33.8942 41.2991 33.9831 41.7798 34.0198 41.9502L35.0441 42.7095L35.0532 42.808C34.7641 42.9057 34.2265 42.6441 34.0492 42.3814C33.7319 41.9113 33.7363 41.7108 33.823 41.1699Z" fill="#84C386"/>
<path d="M20.2148 38.9321C20.2375 38.6717 20.2657 37.8933 20.4718 37.7583C20.5737 38.0228 20.505 38.4661 20.4813 38.7645C20.8533 38.757 21.056 38.7529 21.4287 38.6913L21.6816 38.6919C21.2091 39.012 20.7971 38.9357 20.2148 38.9321Z" fill="#84C386"/>
<path d="M15.1968 57.6245L15.2853 57.7142C15.3294 57.9798 14.7128 59.2297 14.5632 59.5389C14.242 59.3396 15.0482 57.8992 15.1968 57.6245Z" fill="#84C386"/>
<path d="M9.06717 58.0643C8.59042 57.5731 7.93164 58.4364 7.6638 58.5051C7.47623 58.363 7.50341 58.4265 7.44238 58.2362L7.54133 58.1104C8.10186 57.8316 8.5065 57.8057 9.11212 57.8196L9.06717 58.0643Z" fill="#84C386"/>
<path d="M10.2736 58.325C10.523 58.4125 10.7041 58.4789 10.7841 58.7359L10.6565 58.8757C10.3953 58.9026 10.262 58.9358 10.0703 58.808C10.0857 58.5383 10.1094 58.5828 10.2736 58.325Z" fill="#84C386"/>
<path d="M33.1727 29.1692C33.3947 29.2264 33.5509 29.2472 33.7217 29.4L33.7028 29.4959L33.4239 29.6056C33.2219 29.5957 33.0231 29.6074 32.8574 29.494C32.9095 29.2984 32.969 29.313 33.1727 29.1692Z" fill="#84C386"/>
<path d="M31.6103 28.7976C31.74 28.8993 31.6989 28.8517 31.7496 29.0343C31.6065 29.4565 31.0192 29.4767 30.6592 29.4386L30.6751 29.3186C31.2489 29.2676 31.3165 29.2901 31.6103 28.7976Z" fill="#84C386"/>
<path d="M9.1122 57.8196C9.37597 58.0691 9.30532 58.6209 9.13201 58.916C9.04416 58.7569 9.06712 58.2672 9.06726 58.0643L9.1122 57.8196Z" fill="#84C386"/>
<path d="M21.4287 38.6913C21.4292 38.4603 21.3979 38.1128 21.5285 37.9387C21.7084 38.0834 21.688 38.4734 21.6815 38.6918L21.4287 38.6913Z" fill="#84C386"/>
<path d="M35.8849 54.4852C35.8404 53.3879 35.9993 52.7464 36.695 51.8709C37.6006 50.7313 39.9108 49.8358 41.3492 49.8116C43.8268 49.7699 46.8952 49.5412 48.9875 51.1316C49.624 51.6155 49.9299 52.1615 50.5035 52.6682C55.2648 55.2836 52.4608 58.4849 48.64 59.4326C47.3224 59.7594 46.4943 59.6404 45.204 59.7143C44.9222 59.7788 43.8191 59.7795 43.5076 59.7686C41.118 59.6851 38.3805 59.0916 36.6398 57.3293C35.8441 56.5236 35.8601 55.5579 35.8849 54.4852Z" fill="#FCD862"/>
<path d="M50.5035 52.6682C55.2648 55.2836 52.4608 58.4849 48.64 59.4326C47.3224 59.7594 46.4943 59.6403 45.204 59.7142C44.9222 59.7788 43.8191 59.7795 43.5076 59.7686C41.118 59.6851 38.3805 59.0916 36.6398 57.3292C35.8441 56.5236 35.8601 55.5579 35.8849 54.4852C36.0592 55.0074 37.0773 55.9363 37.5691 56.2582C40.7799 58.3594 45.784 58.2572 49.032 56.2878C49.4141 56.0561 50.0943 54.9556 50.3779 54.8621C50.5229 54.9674 50.4767 54.9288 50.5573 55.1118C50.4867 54.3255 50.5045 53.4627 50.5035 52.6682Z" fill="#FCB92A"/>
<path d="M50.5035 52.6682C55.2649 55.2836 52.4609 58.4849 48.6401 59.4326C47.3225 59.7594 46.4943 59.6403 45.2041 59.7142C46.5772 58.9717 48.4141 58.7 49.6267 57.4464C50.4613 56.5836 50.5431 56.2035 50.5574 55.1118C50.4868 54.3255 50.5046 53.4627 50.5035 52.6682Z" fill="#96ADC8"/>
<path d="M45.2846 55.5591C45.9547 55.7797 45.9512 55.9497 46.5402 56.2264C46.7994 56.2458 47.1208 56.075 47.3702 55.9684L47.4426 56.0349C47.3131 57.5238 41.5545 57.0776 40.4702 56.8511C38.1711 56.3455 35.4955 53.9027 38.2067 51.8567C39.7902 50.6618 42.7935 49.7231 44.7251 50.2826C45.9731 50.6441 49.8885 51.9971 49.3814 53.835C49.1882 53.8663 49.0288 53.6064 48.8982 53.4498C46.7663 50.8934 42.658 50.8896 39.729 51.7955C39.5619 51.8473 39.5477 51.9291 39.5019 52.0673C39.5621 52.2772 39.7618 52.3918 39.9079 52.5435C40.1147 52.7582 39.4442 53.0731 39.4601 53.4499C39.4725 53.7429 39.3966 53.7295 39.5815 53.9645C39.7401 53.9835 40.1203 54.0458 40.2455 53.9501C40.7751 53.5454 41.0082 52.9558 41.6175 52.6463C42.105 52.3986 42.8285 52.4993 42.9159 53.1195C42.7434 53.6471 41.9835 53.6246 41.5951 54.6699C41.6923 55.0621 41.7457 55.141 41.9609 55.4888C42.1458 55.5829 42.3321 55.6743 42.5198 55.7627C43.4975 56.2198 44.3189 55.9085 45.2846 55.5591Z" fill="#FDC52B"/>
<path d="M39.5814 53.9644C39.74 53.9834 40.1202 54.0458 40.2454 53.9501C40.7751 53.5454 41.0081 52.9557 41.6175 52.6462C42.105 52.3986 42.8284 52.4993 42.9158 53.1195C42.7433 53.647 41.9834 53.6245 41.595 54.6698C40.9303 54.6396 40.1191 55.0308 39.5185 54.5238C39.3449 54.2292 39.3542 54.1683 39.5814 53.9644Z" fill="#FCB92A"/>
<path d="M44.7286 52.8413C45.0049 52.9415 45.118 53.3973 45.2167 53.6614C44.9457 54.3351 44.4679 55.1625 43.6582 55.2196C43.4284 55.1761 43.183 55.1576 43.0508 54.9814C43.284 54.5091 44.3217 53.2087 44.7286 52.8413Z" fill="#FCB92A"/>
<path d="M47.3661 54.0442C47.5767 54.252 47.7934 54.6229 47.9586 54.881C47.7027 55.1393 47.4324 55.566 47.1152 55.6162C46.8166 55.5035 46.5745 55.4308 46.4287 55.1345C46.4704 54.6475 46.9178 54.552 47.3661 54.0442Z" fill="#FCB92A"/>
<path d="M42.8994 38.5955L42.8379 38.5234C42.9047 38.2342 44.4391 37.0766 44.7639 36.9136C45.2371 37.3155 45.8261 37.6593 46.3644 37.9714C48.6754 39.3117 50.7165 41.0275 52.9644 42.4564C53.3789 42.7198 54.4907 43.3804 54.5397 43.8874C54.1246 44.0475 51.923 42.8468 51.3851 42.5963C49.2572 41.6054 47.0844 40.7256 44.988 39.667C44.2502 39.2945 43.7035 38.8285 42.8994 38.5955Z" fill="#F3F2F2"/>
<path d="M58.2031 43.5817L58.2828 43.3754C58.5097 43.3283 59.0547 43.7058 59.2774 43.8515C60.8877 44.9058 62.2209 45.5905 64.0019 46.2948C64.2829 46.6725 65.2206 47.024 65.848 47.38C68.2689 48.7539 70.6083 50.3981 72.9545 51.9073C72.9658 51.9479 72.9763 51.9884 72.9875 52.0291C72.484 52.1045 71.5894 51.3598 71.088 51.1499C67.0411 49.4555 63.5604 47.0411 59.9149 44.6488C59.3432 44.2737 58.7431 44.0294 58.2031 43.5817Z" fill="#96ADC8" fill-opacity="0.984314"/>
<path d="M44.6739 32.1785C45.0845 32.2341 49.8833 34.9102 50.1002 35.2501L50.0469 35.41C49.1008 35.212 48.0494 34.7954 47.181 34.3591C46.1861 33.8594 44.1053 33.6395 44.6739 32.1785Z" fill="#96ADC8"/>
<path d="M88.1324 0.494141C88.7111 0.778015 89.4674 1.42047 90.1226 1.78348C95.8031 4.92993 101.371 8.37212 106.998 11.5859L115.221 16.3409C115.8 16.679 117.795 17.7441 118.116 18.078C118.135 20.3495 118.141 22.6212 118.132 24.8928C118.131 25.8991 118.083 27.5387 118.171 28.4867C119.26 28.6214 119.675 28.924 120.512 29.7037C120.581 29.7673 120.619 29.9121 120.635 30.0069C120.355 30.7226 118.439 30.7804 118.104 31.3562C118.136 32.4225 118.215 35.5642 118.113 36.5293C118.144 36.6108 118.18 36.7077 118.223 36.8201C119.746 37.6124 123.564 40.0897 124.856 40.6663C124.904 40.6877 124.952 40.7086 125 40.729V41.3333C124.427 41.7966 123.234 42.4444 122.569 42.8409C120.336 44.1725 118.102 45.4064 115.972 46.9031C115.293 47.3792 113.988 47.9488 113.194 48.4191L94.6345 59.2332L86.4843 63.9132C85.5447 64.4489 84.3431 65.3686 83.3234 65.686C81.7806 66.166 79.775 65.9007 78.1584 65.9625C77.315 65.9947 76.0222 65.992 75.2041 65.8682L75.2076 65.8325C74.9864 65.6272 74.9807 65.3598 74.9667 65.0785C74.9344 64.1574 75.0215 62.7054 74.8916 61.756C74.8291 61.6715 74.7771 61.6014 74.7357 61.5457C74.5194 61.4757 72.4983 60.2154 72.2125 60.0193C71.9618 59.7089 71.888 59.7051 72.0671 59.3512C72.4014 59.4915 74.6093 60.4409 74.8431 60.4649C74.9625 60.317 74.9295 60.3163 74.9527 60.109C74.9147 59.8175 74.8663 59.2833 74.9288 59.0039C74.3536 58.046 71.2146 56.8873 70.8895 56.0823L70.9583 55.9885C71.8515 55.8998 73.9744 56.8108 74.8733 57.0579L74.9344 57.0745C74.9232 55.3812 74.8291 43.4311 75.0383 42.8632C75.0095 42.7698 74.9491 42.5879 74.8656 42.5339C71.4786 40.3296 67.7819 38.5661 64.3765 36.4015C60.0668 33.662 55.5661 31.2775 51.137 28.7429C50.3605 28.2985 46.3849 26.3245 46.1895 25.6952C46.8597 25.0858 48.21 24.4094 49.0011 23.9428L55.9194 19.9463C59.5532 17.7943 63.1685 15.6109 66.7647 13.3964L76.0706 7.8838C79.1057 6.1057 82.1135 4.28027 85.0917 2.40819C86.1135 1.76387 87.1746 1.22434 88.1324 0.494141Z" fill="#F3F2F2"/>
<path d="M118.115 18.0781C118.134 20.3496 118.14 22.6213 118.131 24.893C118.13 25.8993 118.082 27.5388 118.17 28.4868C119.259 28.6216 119.674 28.9241 120.512 29.7038C120.58 29.7674 120.618 29.9123 120.634 30.0071C120.354 30.7228 118.438 30.7806 118.103 31.3564C118.135 32.4226 118.214 35.5644 118.112 36.5294C118.143 36.6109 118.179 36.7078 118.222 36.8202C119.745 37.6125 123.564 40.0898 124.855 40.6664C124.903 40.6878 124.951 40.7088 125 40.7292V41.3334C124.426 41.7968 123.233 42.4446 122.568 42.841C120.335 44.1726 118.101 45.4065 115.971 46.9032C115.292 47.3793 113.988 47.9489 113.193 48.4192L94.6338 59.2334L86.4835 63.9134C85.5439 64.449 84.3423 65.3687 83.3227 65.6861C81.7798 66.1661 79.7742 65.9008 78.1576 65.9626C77.3142 65.9948 76.0214 65.9921 75.2033 65.8683L75.2068 65.8326C74.9856 65.6273 74.98 65.36 74.9659 65.0786C74.9336 64.1575 75.0207 62.7055 74.8908 61.7562C74.8283 61.6717 74.7763 61.6016 74.7349 61.5458C74.5186 61.4758 72.4975 60.2155 72.2117 60.0195C71.961 59.709 71.8873 59.7052 72.0663 59.3513C72.4006 59.4916 74.6085 60.441 74.8423 60.465C74.9617 60.3172 74.9287 60.3164 74.9519 60.1092C74.9139 59.8177 74.8655 59.2834 74.928 59.0041C74.3529 58.0461 71.2138 56.8874 70.8887 56.0824L70.9575 55.9886C71.8507 55.8999 73.9736 56.811 74.8725 57.058L74.9336 57.0746C74.9224 55.3813 74.8283 43.4313 75.0375 42.8633C75.4589 42.9083 106.887 24.8046 110.118 22.9443C111.672 22.0563 113.218 21.1571 114.759 20.2468C115.599 19.7471 117.163 18.7611 117.997 18.4126L118.115 18.0781Z" fill="#B6C0CC"/>
<path d="M118.112 36.5293C118.143 36.6108 118.179 36.7077 118.222 36.8201C119.745 37.6124 123.563 40.0897 124.855 40.6663C124.903 40.6877 124.951 40.7087 124.999 40.7291V41.3333C124.426 41.7967 123.233 42.4445 122.568 42.8409C120.335 44.1725 118.101 45.4064 115.971 46.9031C115.292 47.3792 113.988 47.9488 113.193 48.4191L94.6336 59.2333L86.4833 63.9133C85.5437 64.4489 84.3422 65.3686 83.3225 65.686C81.7797 66.166 79.774 65.9007 78.1575 65.9625C77.3141 65.9947 76.0212 65.992 75.2031 65.8682L75.2066 65.8325C75.7333 65.2858 77.4482 64.4287 78.2249 63.9799L85.4159 59.8678L108.682 46.3799C111.744 44.5938 115.037 42.8272 118.035 40.9896C118.039 39.5025 118.064 38.0156 118.112 36.5293Z" fill="#96ADC8"/>
<path d="M118.17 28.4868C119.259 28.6215 119.674 28.9241 120.511 29.7038C120.58 29.7674 120.618 29.9123 120.634 30.007C120.354 30.7228 118.438 30.7806 118.103 31.3563C117.12 31.7684 115.95 32.4565 115.009 32.9913C113.112 34.0674 111.487 34.9942 109.445 35.7581C110.695 34.6673 113.114 33.3896 114.603 32.4178C115.419 31.8852 117.277 30.669 118.043 30.3131C118.117 29.8602 118.074 28.7375 118.17 28.4868Z" fill="#F3F2F2"/>
<path d="M74.9336 57.0746C76.5242 56.863 77.8051 56.4976 79.3037 55.9531C79.6724 55.8192 81.2307 55.2321 81.4814 55.2398L81.5656 55.3314C81.3437 55.7617 77.046 57.6125 76.3571 58.1307C76.4863 58.0335 74.8009 59.0573 74.928 59.0041C74.3529 58.0461 71.2138 56.8874 70.8887 56.0824L70.9575 55.9886C71.8507 55.8999 73.9736 56.811 74.8725 57.058L74.9336 57.0746Z" fill="#F3F2F2"/>
<path d="M74.9521 60.1092C75.0027 60.3798 74.9584 60.4312 75.1326 60.5507C77.9542 59.3028 80.4367 57.7591 83.1073 56.3309C84.0364 55.8339 88.7471 52.9462 89.3531 52.8047C88.3538 53.6264 85.759 55.0204 84.5497 55.7844C81.4275 57.7572 78.0483 59.7291 75.0069 61.8109C75.0132 62.38 75.0673 64.6903 74.9662 65.0786C74.9339 64.1575 75.0209 62.7055 74.891 61.7562C74.8285 61.6717 74.7765 61.6016 74.7351 61.5458C74.5188 61.4758 72.4978 60.2155 72.2119 60.0195C71.9612 59.709 71.8875 59.7052 72.0666 59.3513C72.4008 59.4916 74.6087 60.441 74.8426 60.465C74.9619 60.3172 74.9289 60.3164 74.9521 60.1092Z" fill="#5990D7"/>
<path d="M105.326 34.8638L105.3 35.0147C104.998 35.3394 102.148 37.0684 101.616 37.3881C98.8045 39.0801 95.9758 41.0004 93.112 42.5754C89.933 44.3241 86.341 45.9561 83.2258 47.7978L83.2139 47.763C83.4238 47.3833 88.1942 44.8965 88.8908 44.5078C92.749 42.3641 96.5769 40.166 100.373 37.9141C101.396 37.3035 104.5 35.5349 105.326 34.8638Z" fill="#5990D7"/>
<path d="M66.6433 19.5037C67.1262 19.1899 67.9504 18.6417 68.4628 18.4631C69.5412 19.0737 72.3314 20.8126 73.2457 21.1547C72.9248 21.2802 71.33 22.1287 71.1418 22.3156L68.765 23.6639C68.4913 23.9379 59.3813 29.1475 58.7596 29.3961C57.3606 28.6376 55.3584 27.3268 53.9971 26.769C54.8516 26.4202 56.4087 25.4182 57.2759 24.9312C59.6513 23.5973 62.0111 22.1361 64.4038 20.8331C64.7201 20.5783 66.2333 19.7381 66.6433 19.5037Z" fill="#5990D7"/>
<path d="M66.6428 19.5037C67.1257 19.1899 67.9499 18.6417 68.4623 18.4631C69.5407 19.0737 72.3309 20.8126 73.2452 21.1547C72.9243 21.2802 71.3295 22.1287 71.1413 22.3156L68.7646 23.6639C68.4238 23.1403 65.0773 21.661 64.4033 20.8331C64.7196 20.5783 66.2328 19.7381 66.6428 19.5037Z" fill="#96ADC8"/>
<path d="M66.6436 19.5037C67.1265 19.1899 67.9507 18.6417 68.4631 18.4631C69.5415 19.0737 72.3317 20.8126 73.246 21.1547C72.9251 21.2802 71.3303 22.1287 71.1421 22.3156C70.7755 21.7078 67.4252 19.8651 66.6436 19.5037Z" fill="#B6C0CC"/>
<path d="M79.1467 24.5254C79.7604 24.7321 83.0736 26.5875 83.4023 27.1137L83.3953 27.2473C83.0364 27.5322 81.5561 28.3434 81.0898 28.5773C80.6495 28.8453 79.3924 29.645 78.9936 29.8033C77.9444 30.5041 76.7092 31.1438 75.6214 31.801C73.5217 33.0703 71.3538 34.2579 69.2514 35.514C67.7754 34.6244 66.3232 33.7997 64.8496 32.887L74.6284 27.234C75.2997 26.7589 76.1916 26.3405 76.9283 25.8934C77.5659 25.5053 78.6108 24.9596 79.1467 24.5254Z" fill="#5990D7"/>
<path d="M79.1471 24.5254C79.7609 24.7321 83.0741 26.5875 83.4027 27.1137L83.3957 27.2473C83.0369 27.5322 81.5565 28.3434 81.0902 28.5773C80.4231 28.1439 77.1106 26.3354 76.9287 25.8934C77.5664 25.5053 78.6113 24.9596 79.1471 24.5254Z" fill="#B6C0CC"/>
<path d="M76.9288 25.8933C77.1106 26.3353 80.4231 28.1438 81.0903 28.5772C80.65 28.8452 79.393 29.6449 78.9941 29.8032C78.1282 28.7839 75.7904 27.9296 74.6289 27.2339C75.3003 26.7588 76.1921 26.3404 76.9288 25.8933Z" fill="#96ADC8"/>
<path d="M84.3924 27.5427C85.8671 28.3581 87.1747 29.2456 88.5834 30.0728C86.5223 31.1931 84.5883 32.3508 82.5869 33.5559C82.155 33.7975 80.7871 34.642 80.4106 34.7628C79.9451 34.1783 76.9654 32.6221 76.1719 32.2123C76.4984 31.9505 77.9921 31.1332 78.4289 30.8863C78.6206 30.71 83.9184 27.7255 84.3924 27.5427Z" fill="#B6C0CC"/>
<path d="M78.4289 30.8862C79.4233 31.436 82.1024 32.6952 82.5869 33.5558C82.155 33.7974 80.7871 34.6419 80.4106 34.7628C79.9451 34.1783 76.9654 32.622 76.1719 32.2123C76.4984 31.9505 77.9921 31.1332 78.4289 30.8862Z" fill="#96ADC8"/>
<path d="M66.8959 25.5271C67.4084 26.2685 70.7674 27.7117 71.28 28.4356C69.456 29.3634 67.6714 30.6257 65.8345 31.5643C65.3313 31.8214 64.6823 32.159 64.212 32.4579C62.7721 31.8042 60.8859 30.6255 59.4346 29.832C61.6992 28.3297 64.5496 27.0218 66.8959 25.5271Z" fill="#5990D7"/>
<path d="M73.913 21.5549L73.9362 21.574C74.2922 21.8671 75.0577 22.2896 75.4804 22.5196C76.5261 23.0879 77.2557 23.4956 78.215 24.1978C78.1328 24.4389 73.8048 27.0655 73.4207 27.1581C73.038 27.491 71.8034 28.1223 71.2796 28.4355C70.7669 27.7116 67.408 26.2684 66.8955 25.527C67.1129 25.3467 68.7223 24.4272 69.0784 24.2143C70.3666 23.4646 72.6265 22.1837 73.913 21.5549Z" fill="#B6C0CC"/>
<path d="M69.0784 24.2144C69.9849 25.2709 72.9481 26.0572 73.4207 27.1582C73.038 27.4911 71.8034 28.1224 71.2796 28.4356C70.7669 27.7117 67.408 26.2685 66.8955 25.5271C67.1129 25.3467 68.7223 24.4273 69.0784 24.2144Z" fill="#96ADC8"/>
<path d="M76.172 32.2124C76.9655 32.6222 79.9452 34.1784 80.4107 34.7629C78.6039 35.8279 75.943 37.4697 74.1418 38.351C73.4459 38.0948 70.5975 36.2861 69.8018 35.8022C70.7703 35.4418 71.6937 34.8408 72.5919 34.3147L76.172 32.2124Z" fill="#5990D7"/>
<path d="M77.4834 15.5228C77.8324 15.3254 78.2692 15.1814 78.5761 14.9657C78.6414 14.9199 78.64 14.8949 78.7776 14.8101C79.7432 15.1939 81.7748 16.5139 82.779 17.0941C87.3163 19.7141 91.8219 22.3769 96.3675 24.9845C96.5621 25.123 96.5733 25.083 96.6372 25.2823C96.5136 25.5259 96.147 25.6233 95.8928 25.7067L95.8626 25.7164C95.6913 25.9433 95.4069 25.9143 95.1807 25.7821C94.0873 25.1434 93.001 24.496 91.904 23.8599L82.0382 18.1072C80.5873 17.2673 78.9967 16.165 77.4834 15.5228Z" fill="#96ADC8"/>
<path d="M96.3682 24.9844C96.5627 25.1229 96.574 25.0829 96.6379 25.2822C96.5143 25.5258 96.1477 25.6232 95.8935 25.7066L95.8633 25.7163C95.9272 25.3009 96.0367 25.2706 96.3682 24.9844Z" fill="#B6C0CC"/>
<path d="M95.3488 13.9469C95.8313 13.8376 96.8123 14.1632 96.8404 14.8037C96.2716 16.0457 94.6655 17.9285 93.9177 19.1678C93.78 19.3957 92.674 18.6099 92.5799 18.4501C92.6564 18.2223 93.181 17.8149 93.3924 17.6291C92.8727 17.3839 92.6606 17.2921 92.1943 16.9558C91.7948 16.6971 91.2884 16.4313 90.8657 16.1764C90.1698 16.2513 89.8523 16.4178 89.1915 16.6733C88.5841 16.1381 88.3741 16.158 87.5693 15.9934C88.9528 15.4149 90.0602 15.228 91.5082 14.8727C92.7259 14.5736 94.115 14.0923 95.3488 13.9469Z" fill="#43507F"/>
<path d="M94.7228 15.0635L94.7776 15.1029C94.8507 15.5323 94.0676 16.4173 93.7573 16.7004C93.4827 16.4424 93.3977 16.3973 93.0627 16.2167C92.8141 16.1802 92.5662 16.1847 92.4658 15.9339C92.6849 15.5273 94.2306 15.2141 94.7228 15.0635Z" fill="#F3F2F2"/>
<path d="M80.988 19.5044C81.7696 19.7726 83.8075 21.0857 84.6305 21.5816C86.271 22.5552 87.9191 23.516 89.5743 24.464C90.8939 25.2349 92.3138 26.1325 93.6916 26.7512C93.2934 27.3417 93.2457 27.4175 92.5996 27.7019L84.4023 22.9202C83.3904 22.3277 80.528 20.7042 79.7646 20.0163C80.1818 19.8236 80.5863 19.741 80.988 19.5044Z" fill="#96ADC8"/>
<path d="M100.066 16.2571C100.335 16.3699 100.897 16.7758 101.465 17.0186L101.104 18.7764C101.993 18.7156 103.511 18.4932 104.356 18.6421C104.652 18.6942 104.725 19.1424 105.022 19.2047C105.078 19.2163 105.286 19.3034 105.353 19.3298L105.339 19.3981C104.05 19.7104 102.224 19.722 100.864 19.9067C100.596 20.4965 100.085 22.6355 99.9022 22.8018L99.688 22.6573C98.0321 21.9541 98.6943 21.5905 99.0335 20.139C97.8734 20.264 97.0539 20.2112 95.9099 20.576C95.3495 20.1939 94.8895 19.9402 94.3242 19.5879C95.7989 19.5136 97.5117 19.1823 99.1206 19.0811C99.5384 18.0771 99.7912 17.3101 100.066 16.2571Z" fill="#43507F"/>
<path d="M87.9683 9.47217C88.5035 9.57792 90.2155 10.7466 90.8223 11.0697C91.4648 11.4117 92.1207 11.7881 92.7991 12.113L92.79 12.1907C91.1025 13.7394 91.4508 12.2549 90.1102 11.9716C89.7219 12.1033 87.9698 13.2439 87.5372 13.5282C87.0308 13.8513 86.1882 14.4241 85.6678 14.6495C85.29 14.2713 84.9304 14.1627 84.4873 13.7949L84.5308 13.6856C85.0919 13.4588 88.6046 11.4868 88.6404 11.0408C88.2591 10.6647 87.1706 10.6803 87.0997 10.1438C87.2387 9.90825 87.7191 9.63586 87.9683 9.47217Z" fill="#43507F"/>
<path d="M52.7966 58.8408C53.0272 55.616 57.204 55.0048 59.7641 54.7361C61.6519 54.538 64.4355 55.3171 65.949 56.4496C66.4824 56.8487 67.2949 58.0391 67.3558 58.7048C67.5082 59.7332 67.379 62.031 67.4163 63.2022C67.7352 63.4547 69.4242 63.3281 70.0636 63.4614C70.9346 63.643 71.4704 63.7041 72.3447 64.0706C73.1621 64.4134 73.6389 65.1745 74.1684 65.5444C74.7625 66.8771 74.8658 67.1413 74.6024 68.5145C73.8594 69.9198 72.6965 70.6964 71.1761 71.1105C68.957 71.7159 64.9816 71.8621 62.7674 71.2807C62.5889 71.3003 62.4101 71.3179 62.2339 71.3165C59.6759 71.3503 58.0768 71.4628 55.6663 70.4657C52.3066 69.0762 52.7507 67.6283 52.7333 64.4864L52.7298 64.0281C52.7492 63.7832 52.7362 63.5463 52.7302 63.3017C52.6943 61.827 52.6489 60.312 52.7966 58.8408Z" fill="#FCD862"/>
<path d="M67.4165 63.2021C67.7354 63.4547 69.4244 63.3281 70.0638 63.4614C70.9348 63.6429 71.4706 63.704 72.3449 64.0706C73.1623 64.4134 73.6391 65.1745 74.1686 65.5444C74.7627 66.8771 74.866 67.1413 74.6026 68.5145C73.8596 69.9197 72.6967 70.6963 71.1763 71.1105C68.9572 71.7159 64.9818 71.8621 62.7676 71.2806C62.5891 71.3003 62.4103 71.3179 62.2341 71.3165C59.6761 71.3502 58.077 71.4627 55.6665 70.4657C52.3068 69.0762 52.7509 67.6283 52.7335 64.4864L53.3051 64.9335C53.4212 64.8567 53.5999 64.8127 53.7374 64.7704C54.902 66.1577 58.638 67.0663 60.4074 67.0002C62.6002 66.9182 65.4297 66.139 66.8343 64.3347C66.9096 64.2378 67.083 64.425 67.3425 63.9837C67.3589 63.7307 67.3915 63.4565 67.4165 63.2021Z" fill="#FCB92A"/>
<path d="M67.4165 63.2021C67.7354 63.4547 69.4244 63.3281 70.0638 63.4614C70.9348 63.6429 71.4706 63.704 72.3449 64.0706C73.1623 64.4134 73.6391 65.1745 74.1686 65.5444C74.7627 66.8771 74.866 67.1413 74.6026 68.5145C73.8596 69.9197 72.6967 70.6963 71.1764 71.1105C68.9573 71.7159 64.9818 71.8621 62.7676 71.2806C63.3569 70.6879 65.4636 70.2269 66.3473 69.2336C67.4463 67.9985 67.2893 67.0397 67.283 65.4794C67.3531 65.0634 67.3392 64.4233 67.3425 63.9837C67.3589 63.7307 67.3915 63.4565 67.4165 63.2021Z" fill="#96ADC8"/>
<path d="M53.737 64.7706C54.9016 66.1579 58.6376 67.0665 60.407 67.0004C62.5998 66.9184 65.4293 66.1392 66.8339 64.3349C66.9093 64.238 67.0826 64.4252 67.3421 63.9839C67.3388 64.4235 67.3527 65.0636 67.2826 65.4796C67.2632 65.076 67.2416 64.6725 67.2177 64.2691C67.0655 64.4577 66.4505 65.3207 66.3746 65.3959C65.2839 66.4763 62.9493 67.3341 61.4694 67.4279C58.1464 67.6384 55.8056 67.0597 53.3047 64.9337C53.4208 64.857 53.5996 64.8129 53.737 64.7706Z" fill="#FCD862"/>
<path d="M52.8965 66.4654C53.5827 66.4294 54.1109 67.186 54.6686 67.6011C56.1961 68.7379 58.1523 69.0553 60.0089 69.0665C62.1895 69.0797 64.3867 68.7244 66.0646 67.2236C66.3215 66.9943 66.5675 66.6119 66.8626 66.4614L66.9488 66.5153L66.9366 66.7543C66.0232 67.9322 66.3658 67.8721 64.8541 68.5651C62.0529 69.8493 58.9933 69.8983 56.1188 68.8163C55.1148 68.4383 53.3449 67.4548 52.8965 66.4654Z" fill="#FDC52B"/>
<path d="M67.3558 58.7048C67.5082 59.7332 67.379 62.031 67.4163 63.2022C67.3913 63.4565 67.3587 63.7307 67.3423 63.9837C67.0828 64.425 66.9094 64.2378 66.8341 64.3347C65.4294 66.139 62.6 66.9182 60.4072 67.0002C58.6378 67.0663 54.9018 66.1577 53.7372 64.7704C53.5997 64.8127 53.421 64.8568 53.3049 64.9335L52.7333 64.4864L52.7298 64.0281C52.7492 63.7832 52.7362 63.5463 52.7302 63.3017C52.6943 61.827 52.6489 60.312 52.7966 58.8407C52.8136 59.2032 52.8245 59.566 52.8292 59.9288C53.3856 60.5108 54.2674 61.4692 54.9747 61.8433C58.4749 63.6946 65.0418 63.5275 67.2375 59.6989C67.4172 59.3853 67.3692 59.0617 67.3558 58.7048Z" fill="#FCB92A"/>
<path d="M52.7305 64.0281C53.2691 64.31 53.3138 64.3258 53.7378 64.7704C53.6004 64.8128 53.4217 64.8568 53.3055 64.9336L52.734 64.4864L52.7305 64.0281Z" fill="#FDC52B"/>
<path d="M66.4584 62.4631C66.6047 62.2648 66.724 62.0416 66.9512 61.9827L67.0972 62.0166C67.166 62.2865 67.0432 62.4152 66.8649 62.6067C64.0415 65.9519 57.4755 65.9441 54.1765 63.4468C53.8617 63.1138 53.7863 63.0592 53.3994 62.8186L53.7313 62.5428C53.9185 62.7346 54.1307 62.9673 54.3451 63.1204C54.6749 63.2572 55.33 63.7249 55.6362 63.8241C57.5024 64.4278 59.7165 65.0976 61.673 64.6901C63.2019 64.3717 65.5496 63.7772 66.4584 62.4631Z" fill="#FCD862"/>
<path d="M53.3987 62.8189C53.1602 62.6358 52.6747 62.3355 52.8577 62.003C53.2322 61.962 53.4771 62.2947 53.7306 62.5431L53.3987 62.8189Z" fill="#FDC52B"/>
<path d="M60.9416 62.2354C59.1297 61.5391 57.4338 62.3749 55.7537 61.3653C54.6018 60.7596 53.4286 59.2162 54.3131 57.9149C55.6489 55.9496 58.422 55.4233 60.6221 55.5413C62.9643 55.6669 65.2695 56.2676 66.2396 58.6143C66.2857 58.7261 66.2524 58.8359 66.1942 58.9279C65.7779 58.838 65.2137 57.7817 64.5793 57.311C64.4737 57.3778 64.4417 57.3688 64.4254 57.4588C64.3545 57.8515 64.0614 58.2967 63.9506 58.6476C63.799 58.5535 63.3197 58.0887 63.2845 57.9258C63.1573 57.3375 63.8543 57.2395 64.2737 57.1291C63.5822 56.8869 63.0731 56.6896 62.3398 56.6412C61.7759 56.5955 59.9743 56.2852 59.883 57.0872C60.4642 57.6727 62.1012 57.4362 62.1546 58.445C62.0793 58.5438 62.0816 58.5838 61.9756 58.5875C59.3721 58.6791 59.1402 57.1759 56.4656 58.6726C56.4183 59.3629 56.4897 59.2946 56.5488 59.9175C56.5663 60.1012 56.2931 60.7357 56.336 61.1612L56.5162 61.272C56.8862 61.1031 57.2478 60.8754 57.5293 60.5796C58.1381 60.7305 59.4289 61.0633 60.0079 61.2732C60.4148 61.041 60.7191 60.6605 61.0357 60.6787L60.9416 62.2354Z" fill="#FDC52B"/>
<path d="M62.3398 56.6411C62.8585 56.5031 64.4179 56.7949 64.5793 57.3109C64.4738 57.3777 64.4417 57.3687 64.4255 57.4587C64.3545 57.8514 64.0614 58.2966 63.9507 58.6475C63.799 58.5534 63.3198 58.0886 63.2846 57.9257C63.1573 57.3374 63.8543 57.2394 64.2738 57.129C63.5823 56.8868 63.0731 56.6895 62.3398 56.6411Z" fill="#FCB92A"/>
<path d="M63.9531 58.7295C65.3762 60.3794 62.4874 60.8613 61.2781 60.5901C60.7028 60.3855 57.6448 59.9728 57.8648 59.1345C58.6657 58.6716 60.7165 59.4047 61.5645 59.5651C61.8765 59.6241 62.553 59.6005 62.8881 59.5936C63.2835 59.1748 63.4774 59.0224 63.9531 58.7295Z" fill="#FCB92A"/>
<path d="M34.6802 66.8413C34.725 65.7735 34.8714 64.809 35.7519 63.9629C37.3825 62.3961 40.0097 62.1522 42.1599 61.9426C42.5388 61.9056 43.4816 62.1279 43.9298 62.1571C46.5384 62.327 47.7509 63.1161 49.488 64.9919C50.7224 66.1846 50.7384 66.1254 51.5733 67.7054C51.5568 68.5469 51.2101 69.3481 50.6082 69.9359C49.8676 70.652 48.4533 71.2377 47.449 71.5035C46.9918 71.6237 46.3134 71.635 46.0452 71.9999H44.1555H39.6336C38.7919 70.8475 34.629 71.7735 34.6802 66.8413Z" fill="#FCD862"/>
<path d="M49.4888 64.9917C50.7233 66.1844 50.7392 66.1253 51.5742 67.7052C51.5576 68.5468 51.2109 69.348 50.609 69.9357C49.8684 70.6519 48.4541 71.2376 47.4498 71.5033C46.9926 71.6236 46.3143 71.6348 46.046 71.9997H39.6344C40.7937 72.3749 34.6298 71.7733 34.681 66.8411C36.9546 70.8459 44.1034 70.86 47.6274 68.8886C48.3101 68.5067 49.1365 67.0703 49.4458 66.9863C49.3928 66.6075 49.468 65.4255 49.4888 64.9917Z" fill="#FCB92A"/>
<path d="M49.4887 64.9917C50.7232 66.1844 50.7391 66.1253 51.5741 67.7052C51.5575 68.5468 51.2108 69.348 50.6089 69.9357C49.8683 70.6519 48.454 71.2376 47.4497 71.5033C46.9926 71.6236 46.3142 71.6348 46.0459 71.9997H44.1562C44.3935 71.7663 45.8782 71.3465 46.2868 71.163C48.4534 70.1905 49.5983 69.5215 49.4457 66.9863C49.3927 66.6075 49.4679 65.4255 49.4887 64.9917Z" fill="#96ADC8"/>
<path d="M38.2167 68.8674C37.5337 68.5382 36.6996 67.9224 36.2952 67.2738C35.9796 66.7681 35.885 66.155 36.0335 65.5775C36.6641 63.1038 41.9256 62.2104 44.0135 62.7679C45.5452 63.1769 47.3605 63.8 48.2394 65.2527C48.368 65.4653 48.2812 65.8295 48.2225 66.0499C47.9206 66.009 47.303 65.031 47.0419 64.8172C46.9074 64.7071 46.7275 64.6163 46.5716 64.5393C46.3784 65.0821 46.2152 65.3199 45.9062 65.8118L45.8466 65.8455C45.6277 65.4905 45.3566 65.2471 45.2819 64.9114C45.3993 64.5041 46.0069 64.4537 46.3963 64.3426C45.4876 63.9773 42.2461 63.0427 41.7329 64.3357C42.1193 64.7769 43.8795 64.7444 44.1903 65.455C44.1641 65.7124 44.2045 65.6241 44.0568 65.808C43.021 66.1365 39.5216 64.2425 38.5065 66.0234C38.1642 66.6242 38.9041 67.1613 38.727 67.4236C38.4257 67.8698 38.0885 68.056 38.5515 68.6126L38.2167 68.8674Z" fill="#FDC52B"/>
<path d="M45.9055 65.8118C46.0571 66.0667 46.2763 66.4113 46.3951 66.6735L46.086 67.3368C44.9494 67.9905 44.4701 67.9953 43.167 67.8254C42.5249 67.5512 39.5689 67.231 39.763 66.403C40.4715 65.9309 42.6886 66.6801 43.5154 66.8071C44.0166 66.884 44.423 66.8433 44.9264 66.7861C45.2451 66.4655 45.6413 66.2402 45.8459 65.8455L45.9055 65.8118Z" fill="#FCB92A"/>
<path d="M39.6076 67.8921C40.4462 68.0557 41.2287 68.3563 42.0481 68.5141C42.1773 68.539 42.4197 68.1247 42.4971 68.0065C42.7506 67.8794 42.6374 67.9021 42.9289 67.93C42.9732 68.4497 43.0052 68.8114 42.9865 69.331C41.9837 69.2864 41.1072 69.3335 40.1899 68.921C39.8931 69.0241 39.5978 69.1312 39.3039 69.2424C38.9259 69.146 38.5504 69.0719 38.2168 68.8671L38.5516 68.6124C38.8105 68.4009 39.3118 68.0875 39.6076 67.8921Z" fill="#FCB92A"/>
<path d="M72.2116 60.0194C71.8345 59.8502 70.0453 58.9403 69.9062 58.6329L69.9631 58.5348C70.3815 58.4683 71.4089 59.1593 72.0339 59.3421L72.0662 59.3512C71.8871 59.7052 71.9609 59.709 72.2116 60.0194Z" fill="#96ADC8" fill-opacity="0.976471"/>
</g>
<defs>
<clipPath id="clip0_310_3925">
<rect width="125" height="72" fill="white"/>
</clipPath>
</defs>
</svg>
