<svg width="40" height="40" viewBox="0 0 40 40" fill="none" xmlns="http://www.w3.org/2000/svg">
<rect width="40" height="40" rx="20" fill="#F0F3FA"/>
<path d="M17.143 22.6715V8.65723L16.6359 8.7358L12.8501 9.52151C11.5216 9.76437 11.4287 10.3929 11.4287 11.2215V23.1144C11.4287 25.5715 12.5716 27.4001 13.143 28.0072L16.7859 31.6287C17.2001 32.0358 17.7859 32.2144 18.3573 32.1144L23.3859 31.2144C21.7753 29.6151 20.222 27.9593 18.7287 26.2501C17.9125 25.2093 17.3677 23.9821 17.143 22.6787V22.6715Z" fill="url(#paint0_linear_291_707)"/>
<path d="M22.8569 17.3286V31.3143L27.1426 30.4786C28.4784 30.2357 28.5712 29.6071 28.5712 28.7786V16.8857C28.5712 14.4357 27.4284 12.6 26.8569 11.9929L23.2141 8.37143C23.0106 8.16995 22.7615 8.02057 22.4879 7.93601C22.2143 7.85145 21.9243 7.83419 21.6426 7.88572L16.6069 8.74286C17.7641 9.90714 20.3355 12.5857 21.2712 13.7429C22.0906 14.7898 22.6357 16.0248 22.8569 17.3357V17.3286Z" fill="url(#paint1_linear_291_707)"/>
<defs>
<linearGradient id="paint0_linear_291_707" x1="10.9787" y1="10.9787" x2="17.2501" y2="32.1929" gradientUnits="userSpaceOnUse">
<stop offset="0.55" stop-color="#414142"/>
<stop offset="0.69" stop-color="#595A5C"/>
</linearGradient>
<linearGradient id="paint1_linear_291_707" x1="27.1926" y1="28.0214" x2="21.1426" y2="8.84286" gradientUnits="userSpaceOnUse">
<stop offset="0.48" stop-color="#A45525"/>
<stop offset="0.7" stop-color="#E77C2E"/>
</linearGradient>
</defs>
</svg>
