<svg preserveAspectRatio="xMidYMid meet" width="100%" height="100%" overflow="visible" style="display: block;" viewBox="0 0 112 148" fill="none" xmlns="http://www.w3.org/2000/svg">
<g id="Frame" filter="url(#filter0_d_0_4)">
<g clip-path="url(#clip0_0_4)">
<path id="Vector" d="M100 8H12V132H100V8Z" fill="var(--fill-0, white)"/>
<path id="Vector_2" d="M51.4151 53.8741H14.7361V94.0784H51.4151V53.8741Z" fill="var(--fill-0, white)" stroke="var(--stroke-0, #D9D9D9)"/>
<path id="Vector_3" d="M87.1337 12.1235H27.8262V14.038H87.1337V12.1235Z" fill="var(--fill-0, #D9D9D9)"/>
<path id="Vector_4" d="M87.1337 15.9524H27.8262V17.8669H87.1337V15.9524Z" fill="var(--fill-0, #D9D9D9)"/>
<path id="Vector_5" d="M90.9781 24.9359H14.6622V26.8504H90.9781V24.9359Z" fill="var(--fill-0, #D9D9D9)"/>
<path id="Vector_6" d="M64.5042 29.7957H14.6622V31.7102H64.5042V29.7957Z" fill="var(--fill-0, #D9D9D9)"/>
<path id="Vector_7" d="M34.1849 34.6556H14.6622V36.5701H34.1849V34.6556Z" fill="var(--fill-0, #D9D9D9)"/>
<path id="Vector_8" d="M34.1849 118.746H14.6622V120.66H34.1849V118.746Z" fill="var(--fill-0, #D9D9D9)"/>
<path id="Vector_9" d="M34.1849 47.4679H14.6622V49.3824H34.1849V47.4679Z" fill="var(--fill-0, #D9D9D9)"/>
<path id="Vector_10" d="M92.9748 53.8741H14.7361V94.0784H92.9748V53.8741Z" fill="var(--fill-0, white)" stroke="var(--stroke-0, #D9D9D9)"/>
<path id="Vector_11" d="M51.4151 53.8741H14.7361V60.6485H51.4151V53.8741Z" fill="var(--fill-0, white)" stroke="var(--stroke-0, #D9D9D9)"/>
<path id="Vector_12" d="M40.841 56.304H21.3184V58.2184H40.841V56.304Z" fill="var(--fill-0, #D9D9D9)"/>
<path id="Vector_13" d="M36.6985 63.0784H17.1758V64.9929H36.6985V63.0784Z" fill="var(--fill-0, #D9D9D9)"/>
<path id="Vector_14" d="M47.4965 67.3491H21.3184V69.2636H47.4965V67.3491Z" fill="var(--fill-0, #D9D9D9)"/>
<path id="Vector_15" d="M47.4965 70.8835H21.3184V72.798H47.4965V70.8835Z" fill="var(--fill-0, #D9D9D9)"/>
<path id="Vector_16" d="M47.4965 74.418H21.3184V76.3325H47.4965V74.418Z" fill="var(--fill-0, #D9D9D9)"/>
<path id="Vector_17" d="M43.3539 79.2778H17.1758V81.1923H43.3539V79.2778Z" fill="var(--fill-0, #D9D9D9)"/>
<path id="Vector_18" d="M47.4965 83.5486H21.3184V85.4631H47.4965V83.5486Z" fill="var(--fill-0, #D9D9D9)"/>
<path id="Vector_19" d="M47.4965 87.8196H21.3184V89.7341H47.4965V87.8196Z" fill="var(--fill-0, #D9D9D9)"/>
<path id="Vector_20" d="M51.5634 53.874H71.6777V94.0783H51.5634V53.874Z" fill="var(--fill-0, white)" stroke="var(--stroke-0, #D9D9D9)"/>
<path id="Vector_21" d="M92.9758 53.874H71.8262V94.0783H92.9758V53.874Z" fill="var(--fill-0, white)" stroke="var(--stroke-0, #D9D9D9)"/>
<path id="Vector_22" d="M62.5815 34.6556H43.0588V36.5701H62.5815V34.6556Z" fill="var(--fill-0, #D9D9D9)"/>
<path id="Vector_23" d="M62.5815 118.746H43.0588V120.66H62.5815V118.746Z" fill="var(--fill-0, #D9D9D9)"/>
<path id="Vector_24" d="M93.0481 34.6555H73.5254V36.57H93.0481V34.6555Z" fill="var(--fill-0, #D9D9D9)"/>
<path id="Vector_25" d="M78.555 123.164H78.1113V128.171H78.555V123.164Z" fill="var(--fill-0, #353535)"/>
<path id="Vector_26" d="M79.1468 123.164H78.7031V128.171H79.1468V123.164Z" fill="var(--fill-0, #353535)"/>
<path id="Vector_27" d="M79.4428 123.164H79.2949V128.171H79.4428V123.164Z" fill="var(--fill-0, #353535)"/>
<path id="Vector_28" d="M80.7731 123.164H79.5899V128.171H80.7731V123.164Z" fill="var(--fill-0, #353535)"/>
<path id="Vector_29" d="M81.3656 123.164H80.9219V128.171H81.3656V123.164Z" fill="var(--fill-0, #353535)"/>
<path id="Vector_30" d="M81.9554 123.164H81.5117V128.171H81.9554V123.164Z" fill="var(--fill-0, #353535)"/>
<path id="Vector_31" d="M82.5472 123.164H82.1035V128.171H82.5472V123.164Z" fill="var(--fill-0, #353535)"/>
<path id="Vector_32" d="M82.8432 123.164H82.6953V128.171H82.8432V123.164Z" fill="var(--fill-0, #353535)"/>
<path id="Vector_33" d="M84.1754 123.164H82.9922V128.171H84.1754V123.164Z" fill="var(--fill-0, #353535)"/>
<path id="Vector_34" d="M84.766 123.164H84.3223V128.171H84.766V123.164Z" fill="var(--fill-0, #353535)"/>
<path id="Vector_35" d="M91.1266 123.164H91.5703V128.171H91.1266V123.164Z" fill="var(--fill-0, #353535)"/>
<path id="Vector_36" d="M90.5348 123.164H90.9785V128.171H90.5348V123.164Z" fill="var(--fill-0, #353535)"/>
<path id="Vector_37" d="M90.2387 123.164H90.3866V128.171H90.2387V123.164Z" fill="var(--fill-0, #353535)"/>
<path id="Vector_38" d="M88.9067 123.164H90.0898V128.171H88.9067V123.164Z" fill="var(--fill-0, #353535)"/>
<path id="Vector_39" d="M88.316 123.164H88.7597V128.171H88.316V123.164Z" fill="var(--fill-0, #353535)"/>
<path id="Vector_40" d="M87.7244 123.164H88.1681V128.171H87.7244V123.164Z" fill="var(--fill-0, #353535)"/>
<path id="Vector_41" d="M87.1325 123.164H87.5762V128.171H87.1325V123.164Z" fill="var(--fill-0, #353535)"/>
<path id="Vector_42" d="M86.8365 123.164H86.9844V128.171H86.8365V123.164Z" fill="var(--fill-0, #353535)"/>
<path id="Vector_43" d="M85.5063 123.164H86.6895V128.171H85.5063V123.164Z" fill="var(--fill-0, #353535)"/>
<path id="Vector_44" d="M84.9137 123.164H85.3574V128.171H84.9137V123.164Z" fill="var(--fill-0, #353535)"/>
<path id="Vector_45" d="M51.7113 53.874H71.6777V60.6484H51.7113V53.874Z" fill="var(--fill-0, white)" stroke="var(--stroke-0, #D9D9D9)"/>
<path id="Vector_46" d="M51.5634 87.304H71.6777V94.0783H51.5634V87.304Z" fill="var(--fill-0, white)" stroke="var(--stroke-0, #D9D9D9)"/>
<path id="Vector_47" d="M67.3137 56.304H56.3691V58.2184H67.3137V56.304Z" fill="var(--fill-0, #D9D9D9)"/>
<path id="Vector_48" d="M89.7956 100.19H65.8359V102.104H89.7956V100.19Z" fill="var(--fill-0, #D9D9D9)"/>
<path id="Vector_49" d="M38.6218 108.437H14.6622V110.352H38.6218V108.437Z" fill="var(--fill-0, #D9D9D9)"/>
<path id="Vector_50" d="M75.005 111.971H14.6622V113.886H75.005V111.971Z" fill="var(--fill-0, #D9D9D9)"/>
<path id="Vector_51" d="M92.9758 53.874H71.8262V60.6484H92.9758V53.874Z" fill="var(--fill-0, white)" stroke="var(--stroke-0, #D9D9D9)"/>
<path id="Vector_52" d="M92.9758 87.304H71.8262V94.0783H92.9758V87.304Z" fill="var(--fill-0, white)" stroke="var(--stroke-0, #D9D9D9)"/>
<path id="Vector_53" d="M87.5774 56.304H76.6328V58.2184H87.5774V56.304Z" fill="var(--fill-0, #D9D9D9)"/>
</g>
<rect x="12.25" y="8.25" width="87.5" height="123.5" rx="1.75" stroke="var(--stroke-0, black)" stroke-opacity="0.1" stroke-width="0.5" shape-rendering="crispEdges"/>
</g>
<defs>
<filter id="filter0_d_0_4" x="0" y="0" width="112" height="148" filterUnits="userSpaceOnUse" color-interpolation-filters="sRGB">
<feFlood flood-opacity="0" result="BackgroundImageFix"/>
<feColorMatrix in="SourceAlpha" type="matrix" values="0 0 0 0 0 0 0 0 0 0 0 0 0 0 0 0 0 0 127 0" result="hardAlpha"/>
<feOffset dy="4"/>
<feGaussianBlur stdDeviation="6"/>
<feComposite in2="hardAlpha" operator="out"/>
<feColorMatrix type="matrix" values="0 0 0 0 0 0 0 0 0 0 0 0 0 0 0 0 0 0 0.12 0"/>
<feBlend mode="normal" in2="BackgroundImageFix" result="effect1_dropShadow_0_4"/>
<feBlend mode="normal" in="SourceGraphic" in2="effect1_dropShadow_0_4" result="shape"/>
</filter>
<clipPath id="clip0_0_4">
<rect x="12" y="8" width="88" height="124" rx="2" fill="white"/>
</clipPath>
</defs>
</svg>
