<svg width="578" height="142" viewBox="0 0 578 142" fill="none" xmlns="http://www.w3.org/2000/svg">
<g clip-path="url(#clip0_256_1713)">
<path d="M494.63 43.6979C495.014 39.3987 496.391 13.46 494.502 11.5653C490.934 10.7357 486.805 10.6313 483.123 10.1799C473.683 9.02295 464.087 8.66835 454.66 7.67113L409.835 3.0727C406.404 2.7389 402.956 2.40514 399.524 2.06361C379.597 0.0806789 359.524 0.776277 339.47 0.811599L254.967 0.885993L92.9481 1.3876C67.9786 1.48648 41.7732 0.937896 16.9225 1.53596C11.6769 1.36218 5.91541 1.48332 0.663452 1.66256C1.42108 17.4267 0.0685425 36.7071 0.0750122 52.8286L0.113525 144.08L0.132751 226.153L0.107056 252.786C0.0974121 257.543 0.219421 263.508 -0.027771 268.204H259.596H656.8V258.005C650.325 255.754 636.922 252.14 631.236 249.614C631.53 245.805 631.853 219.298 630.862 217.259C629.485 214.423 609.736 210.397 605.867 208.963C605.206 208.718 604.131 208.306 603.909 207.544C603.346 205.602 603.768 202.985 603.795 200.952C603.858 196.229 604.696 178.36 603.323 175.361C602.081 174.229 579.927 167.771 576.79 166.93C577.222 162.62 577.099 156.816 577.112 152.406C577.131 146.316 577.225 139.92 577.053 133.851C569.289 130.921 557.762 128.621 549.267 125.62C549.287 115.622 549.612 105.529 549.411 95.5135C549.347 92.3894 548.028 92.1516 544.994 91.4533C537.555 89.7412 529.485 86.2984 521.994 85.0776C522.926 79.9329 521.98 71.7659 522.034 66.396C522.069 62.9997 522.637 54.8151 521.704 52.1891C519.602 50.4076 499.053 45.393 494.63 43.6979Z" fill="white"/>
<path d="M17.5852 1.3322C12.3396 1.15842 5.72322 1.17958 0.471222 1.35882C1.22885 17.1229 0.464783 -14.7626 0.471222 1.35882L0.776215 143.876L0.795441 225.949L0.769775 252.582C0.760162 257.339 0.882111 263.304 0.634949 268H260.259C260.24 264.769 260.275 261.537 260.362 258.306C258.05 257.772 253.646 256.227 251.261 255.47C245.341 253.628 239.447 251.7 233.582 249.684L233.598 216.791C224.747 213.316 215.148 211.014 205.957 208.39C206.404 198.371 206.182 185.065 205.887 175.049C198.205 173.354 186.898 169.32 178.856 166.987C178.709 157.4 179.469 142.982 178.416 134.012C175.893 133.39 172.108 131.952 169.386 131.132C163.55 129.377 157.123 127.755 151.537 125.442C151.087 115.443 151.598 102.847 151.534 92.5684C142.478 90.319 133.219 87.2607 124.092 84.8619C123.864 74.1972 124.102 62.3914 124.115 51.6466C115.113 49.019 106.086 46.4801 97.0361 44.0308C96.5835 34.1373 96.9591 21.4469 96.9366 11.2466C91.7681 11.2962 80.4294 9.62991 74.6541 9.13536C60.3813 7.91465 46.1277 6.44132 31.9062 4.71606C25.7232 4.01444 15.4022 3.14031 9.55627 1.96438C11.6237 1.60856 16.468 1.80909 17.5852 1.3322Z" fill="#DADADA"/>
<rect width="399.784" height="31.9048" transform="matrix(-1 0 0 1 577.825 134)" fill="#E9E8EB"/>
<rect width="399.784" height="31.9048" transform="matrix(-1 0 0 1 550.748 92.5238)" fill="#E9E8EB"/>
<rect width="399.784" height="31.9048" transform="matrix(-1 0 0 1 523.671 51.0476)" fill="#E9E8EB"/>
<rect width="398.191" height="31.9048" transform="matrix(-1 0 0 1 495.001 11.1666)" fill="#E9E8EB"/>
</g>
<defs>
<clipPath id="clip0_256_1713">
<rect width="578" height="268" fill="white" transform="matrix(-1 0 0 1 578 0)"/>
</clipPath>
</defs>
</svg>
