<svg width="483" height="70" viewBox="0 0 483 70" fill="none" xmlns="http://www.w3.org/2000/svg">
<g clip-path="url(#clip0_291_692)">
<path d="M452.747 0H30.1831C13.5134 0 0 9.76833 0 21.8182V48.1818C0 60.2317 13.5134 70 30.1831 70H452.747C469.416 70 482.93 60.2317 482.93 48.1818V21.8182C482.93 9.76833 469.416 0 452.747 0Z" fill="white" fill-opacity="0.8"/>
<mask id="mask0_291_692" style="mask-type:luminance" maskUnits="userSpaceOnUse" x="20" y="16" width="51" height="38">
<path d="M70.4273 34.9999C70.4273 24.9584 59.1661 16.8181 45.2747 16.8181C31.3833 16.8181 20.1221 24.9584 20.1221 34.9999C20.1221 45.0415 31.3833 53.1818 45.2747 53.1818C59.1661 53.1818 70.4273 45.0415 70.4273 34.9999Z" fill="white"/>
</mask>
<g mask="url(#mask0_291_692)">
<path d="M20.1221 16.8181H70.4273V53.1818H20.1221V16.8181Z" fill="url(#paint0_linear_291_692)"/>
<path d="M57.8508 27.6492L49.3169 25.9089H32.6982V26.1168L41.0795 27.857H57.8508V27.6492ZM49.3169 29.805L57.8508 31.4608V31.7531H41.0795L32.6982 30.0972V29.805H49.3169ZM49.3169 33.7011L57.8508 35.357V35.6492H41.0795L32.6982 33.9934V33.7011H49.3169ZM49.3169 37.5972L57.8508 39.2531V39.5453H41.0795L32.6982 37.8895V37.5972H49.3169ZM57.8508 43.2336L49.3169 41.4934H32.6982V41.7986L41.0795 43.4414H57.8508V43.2336Z" fill="white"/>
</g>
<path d="M84.0044 26.4727C83.3605 26.4727 82.8223 26.4363 82.3896 26.3636C81.957 26.2836 81.5747 26.1818 81.2427 26.0581L81.5747 25.2836C81.8564 25.3854 82.2035 25.469 82.616 25.5345C83.0285 25.6 83.4913 25.6327 84.0044 25.6327C84.3666 25.6327 84.6986 25.6109 85.0005 25.5672C85.3023 25.5163 85.5589 25.4436 85.7701 25.3491C85.9915 25.2472 86.1625 25.12 86.2833 24.9672C86.4141 24.8072 86.4794 24.6181 86.4794 24.4C86.4794 24.1818 86.4141 24 86.2833 23.8545C86.1525 23.7091 85.9764 23.5854 85.7551 23.4836C85.5438 23.3745 85.2922 23.2836 85.0005 23.2109C84.7087 23.1309 84.4069 23.0545 84.095 22.9818C83.7931 22.9091 83.4712 22.8254 83.1291 22.7309C82.7971 22.6291 82.4902 22.5018 82.2085 22.349C81.9268 22.189 81.6954 21.9927 81.5143 21.76C81.3332 21.52 81.2427 21.2254 81.2427 20.8763C81.2427 20.5927 81.3081 20.3309 81.4389 20.0909C81.5697 19.8509 81.7759 19.6436 82.0576 19.4691C82.3393 19.2872 82.6965 19.149 83.1291 19.0545C83.5718 18.9527 84.095 18.9018 84.6986 18.9018C85.2017 18.9018 85.6544 18.9381 86.0569 19.0109C86.4593 19.0763 86.8366 19.1709 87.1888 19.2945L86.8567 20.0691C86.565 19.9672 86.233 19.8872 85.8607 19.8291C85.4985 19.7709 85.1111 19.7418 84.6986 19.7418C83.9139 19.7418 83.3505 19.8472 83.0084 20.0581C82.6663 20.2618 82.4953 20.5272 82.4953 20.8545C82.4953 21.0581 82.5556 21.229 82.6764 21.3672C82.7971 21.5054 82.9581 21.6254 83.1593 21.7272C83.3706 21.829 83.612 21.9163 83.8837 21.989C84.1553 22.0618 84.4421 22.1345 84.7439 22.2072C85.086 22.2945 85.4331 22.3927 85.7852 22.5018C86.1474 22.6109 86.4694 22.7491 86.7511 22.9163C87.0429 23.0836 87.2793 23.2909 87.4604 23.5381C87.6415 23.7781 87.7321 24.0727 87.7321 24.4218C87.7321 24.7709 87.6415 25.0763 87.4604 25.3381C87.2793 25.5927 87.0227 25.8072 86.6907 25.9818C86.3688 26.1491 85.9764 26.2727 85.5136 26.3527C85.0608 26.4327 84.5578 26.4727 84.0044 26.4727ZM93.6556 23.7672H92.1314C91.4975 23.7672 91.0146 23.8654 90.6826 24.0618C90.3506 24.2581 90.1846 24.5309 90.1846 24.88C90.1846 25.1491 90.3003 25.3636 90.5317 25.5236C90.7631 25.6763 91.0599 25.7527 91.4221 25.7527C91.7541 25.7527 92.0559 25.7091 92.3276 25.6218C92.5992 25.5272 92.8306 25.4072 93.0218 25.2618C93.223 25.1091 93.3789 24.9418 93.4896 24.76C93.6003 24.5709 93.6556 24.3818 93.6556 24.1927V23.7672ZM93.6556 22.9163C93.6556 22.5018 93.4997 22.2 93.1878 22.0109C92.8859 21.8218 92.4835 21.7272 91.9804 21.7272C91.5478 21.7272 91.1404 21.76 90.758 21.8254C90.3858 21.8909 90.0387 21.9781 89.7167 22.0872L89.43 21.4436C89.7016 21.3272 90.0638 21.2218 90.5166 21.1272C90.9693 21.0327 91.4724 20.9854 92.0257 20.9854C92.9916 20.9854 93.7009 21.1636 94.1536 21.52C94.6164 21.8691 94.8478 22.3381 94.8478 22.9272V26.3636H93.8971L93.6556 25.4691C93.5449 25.6 93.4242 25.7272 93.2934 25.8509C93.1727 25.9672 93.0167 26.0727 92.8256 26.1672C92.6344 26.2545 92.408 26.3272 92.1465 26.3854C91.8849 26.4436 91.5679 26.4727 91.1957 26.4727C90.8838 26.4727 90.592 26.4363 90.3204 26.3636C90.0487 26.2981 89.8073 26.2 89.596 26.0691C89.3948 25.9309 89.2338 25.7636 89.1131 25.5672C89.0024 25.3709 88.947 25.1418 88.947 24.88C88.947 24.2763 89.2288 23.8291 89.7922 23.5381C90.3657 23.24 91.1504 23.0909 92.1465 23.0909H93.6556V22.9163ZM98.3477 26.3636H97.08V21.0945H98.1364L98.3477 21.88C98.4382 21.7854 98.564 21.6872 98.725 21.5854C98.886 21.4763 99.0721 21.3781 99.2834 21.2909C99.4947 21.2036 99.7311 21.1309 99.9927 21.0727C100.264 21.0145 100.551 20.9854 100.853 20.9854C101.638 20.9854 102.251 21.1745 102.694 21.5527C103.137 21.9236 103.358 22.4327 103.358 23.08V26.3636H102.121V23.08C102.121 22.6872 101.99 22.3781 101.728 22.1527C101.467 21.9272 101.099 21.8145 100.627 21.8145C100.144 21.8145 99.7059 21.8945 99.3136 22.0545C98.9312 22.2145 98.6093 22.4218 98.3477 22.6763V26.3636ZM107.44 25.7527C108.033 25.7527 108.456 25.6763 108.707 25.5236C108.959 25.3636 109.085 25.1781 109.085 24.9672C109.085 24.8291 109.039 24.7127 108.949 24.6181C108.858 24.5163 108.737 24.429 108.587 24.3563C108.436 24.2763 108.26 24.2109 108.058 24.16C107.857 24.1018 107.641 24.0472 107.409 23.9963C107.077 23.9236 106.776 23.8436 106.504 23.7563C106.232 23.6691 105.996 23.5636 105.795 23.44C105.603 23.3163 105.453 23.1709 105.342 23.0036C105.241 22.8291 105.191 22.6254 105.191 22.3927C105.191 21.9491 105.422 21.6036 105.885 21.3563C106.358 21.1091 107.012 20.9854 107.847 20.9854C108.26 20.9854 108.657 21.0145 109.039 21.0727C109.432 21.1236 109.779 21.2072 110.081 21.3236L109.794 22.0109C109.522 21.9163 109.236 21.8436 108.934 21.7927C108.632 21.7345 108.305 21.7054 107.953 21.7054C107.409 21.7054 107.017 21.7709 106.776 21.9018C106.534 22.0327 106.413 22.1963 106.413 22.3927C106.413 22.6254 106.539 22.8 106.791 22.9163C107.042 23.0327 107.384 23.1418 107.817 23.2436C108.229 23.3381 108.592 23.44 108.903 23.549C109.215 23.6509 109.472 23.7709 109.673 23.909C109.884 24.04 110.04 24.1927 110.141 24.3672C110.252 24.5418 110.307 24.7454 110.307 24.9781C110.307 25.429 110.081 25.7927 109.628 26.0691C109.185 26.3381 108.476 26.4727 107.5 26.4727C107.017 26.4727 106.574 26.4436 106.172 26.3854C105.78 26.3345 105.442 26.2509 105.161 26.1345L105.448 25.4472C105.719 25.5418 106.026 25.6181 106.368 25.6763C106.71 25.7272 107.067 25.7527 107.44 25.7527ZM113.44 26.3636H112.173V21.0945H113.44V26.3636ZM111.961 19.4909C111.961 19.3236 112.032 19.1818 112.173 19.0654C112.323 18.9491 112.535 18.8909 112.806 18.8909C113.078 18.8909 113.284 18.9491 113.425 19.0654C113.576 19.1818 113.652 19.3236 113.652 19.4909C113.652 19.6581 113.576 19.8 113.425 19.9163C113.284 20.0327 113.078 20.0909 112.806 20.0909C112.535 20.0909 112.323 20.0327 112.173 19.9163C112.032 19.8 111.961 19.6581 111.961 19.4909ZM117.02 21.989C117.111 21.8727 117.217 21.7563 117.337 21.64C117.468 21.5236 117.614 21.4181 117.775 21.3236C117.946 21.229 118.132 21.1527 118.333 21.0945C118.545 21.0291 118.781 20.9927 119.043 20.9854C119.214 20.9781 119.36 20.9854 119.48 21.0072C119.601 21.0218 119.702 21.04 119.782 21.0618C119.883 21.0909 119.963 21.1236 120.024 21.16L119.646 22.0763C119.445 21.9309 119.169 21.8581 118.816 21.8581C117.991 21.8581 117.393 22.1527 117.02 22.7418V26.3636H115.753V21.0945H116.779L117.02 21.989ZM122.681 26.3636H121.413V21.0945H122.681V26.3636ZM121.202 19.4909C121.202 19.3236 121.272 19.1818 121.413 19.0654C121.564 18.9491 121.775 18.8909 122.047 18.8909C122.319 18.8909 122.525 18.9491 122.666 19.0654C122.817 19.1818 122.892 19.3236 122.892 19.4909C122.892 19.6581 122.817 19.8 122.666 19.9163C122.525 20.0327 122.319 20.0909 122.047 20.0909C121.775 20.0909 121.564 20.0327 121.413 19.9163C121.272 19.8 121.202 19.6581 121.202 19.4909Z" fill="#181D20" fill-opacity="0.8"/>
<path d="M85.4986 48.8109C84.5998 48.8109 83.7949 48.7479 83.084 48.6218C82.373 48.4861 81.7358 48.3018 81.1724 48.0691L81.8364 46.5273C82.3193 46.7212 82.8626 46.8861 83.4663 47.0218C84.0834 47.1576 84.6937 47.2255 85.2974 47.2255C86.062 47.2255 86.7059 47.1188 87.2291 46.9055C87.7523 46.6825 88.0139 46.343 88.0139 45.8873C88.0139 45.6643 87.9334 45.4752 87.7724 45.32C87.6249 45.1648 87.4169 45.0291 87.1486 44.9127C86.8937 44.7964 86.5987 44.6994 86.2633 44.6218C85.9413 44.5346 85.6059 44.4473 85.2571 44.36C84.8412 44.263 84.3986 44.1467 83.9291 44.0109C83.4596 43.8655 83.0236 43.6812 82.6212 43.4582C82.2322 43.2255 81.9034 42.9394 81.6352 42.6C81.3803 42.2607 81.2529 41.8437 81.2529 41.3491C81.2529 40.9807 81.34 40.6316 81.5144 40.3018C81.7022 39.9721 81.9907 39.6861 82.3797 39.4437C82.7687 39.2012 83.2651 39.0121 83.8687 38.8764C84.4724 38.7309 85.1968 38.6582 86.0419 38.6582C86.8065 38.6582 87.5042 38.7116 88.1346 38.8182C88.7785 38.9248 89.3888 39.0848 89.9657 39.2982L89.3017 40.7527C88.792 40.5879 88.262 40.4618 87.712 40.3746C87.1621 40.2873 86.6522 40.2437 86.1828 40.2437C85.3779 40.2437 84.7809 40.3455 84.3919 40.5491C84.0029 40.7528 83.8084 41.0097 83.8084 41.32C83.8084 41.543 83.8822 41.737 84.0297 41.9018C84.1772 42.057 84.3718 42.1928 84.6132 42.3091C84.8547 42.4255 85.1297 42.5273 85.4382 42.6146C85.7467 42.7018 86.062 42.7843 86.384 42.8618C86.8669 42.9782 87.3565 43.1139 87.8529 43.2691C88.3493 43.4146 88.7986 43.6037 89.2011 43.8364C89.6035 44.0691 89.9321 44.3552 90.1871 44.6946C90.442 45.0243 90.5694 45.4316 90.5694 45.9164C90.5694 46.4109 90.4352 46.8376 90.1669 47.1964C89.912 47.5552 89.5566 47.8558 89.1005 48.0982C88.6578 48.3407 88.1279 48.52 87.5108 48.6364C86.8937 48.7527 86.223 48.8109 85.4986 48.8109ZM99.9518 46.44H95.042L94.0158 48.6364H91.2792L96.1688 38.8327H98.825L103.715 48.6364H100.978L99.9518 46.44ZM95.8066 44.8691H99.1872L98.5231 43.4L97.517 40.8982H97.4768L96.4707 43.4L95.8066 44.8691ZM113.532 38.8327H116.148V48.6364H113.532L108.904 43.08C108.622 42.7407 108.367 42.4061 108.139 42.0764C107.924 41.7467 107.737 41.4025 107.576 41.0437H107.515C107.623 41.4509 107.703 41.8485 107.757 42.2364C107.824 42.6146 107.857 42.9588 107.857 43.2691V48.6364H105.242V38.8327H108.059L112.485 44.3891C112.767 44.7285 113.015 45.063 113.23 45.3927C113.458 45.7225 113.653 46.0667 113.814 46.4255H113.874C113.767 46.0182 113.679 45.6255 113.612 45.2473C113.559 44.8594 113.532 44.5103 113.532 44.2V38.8327ZM122.559 48.8109C121.661 48.8109 120.856 48.7479 120.145 48.6218C119.434 48.4861 118.797 48.3018 118.233 48.0691L118.897 46.5273C119.38 46.7212 119.923 46.8861 120.527 47.0218C121.144 47.1576 121.755 47.2255 122.358 47.2255C123.123 47.2255 123.767 47.1188 124.29 46.9055C124.813 46.6825 125.075 46.343 125.075 45.8873C125.075 45.6643 124.994 45.4752 124.833 45.32C124.686 45.1648 124.478 45.0291 124.209 44.9127C123.955 44.7964 123.659 44.6994 123.324 44.6218C123.002 44.5346 122.667 44.4473 122.318 44.36C121.902 44.263 121.459 44.1467 120.99 44.0109C120.52 43.8655 120.084 43.6812 119.682 43.4582C119.293 43.2255 118.964 42.9394 118.696 42.6C118.441 42.2607 118.314 41.8437 118.314 41.3491C118.314 40.9807 118.401 40.6316 118.575 40.3018C118.763 39.9721 119.051 39.6861 119.441 39.4437C119.83 39.2012 120.326 39.0121 120.93 38.8764C121.533 38.7309 122.258 38.6582 123.103 38.6582C123.867 38.6582 124.565 38.7116 125.195 38.8182C125.84 38.9248 126.45 39.0848 127.027 39.2982L126.363 40.7527C125.852 40.5879 125.323 40.4618 124.773 40.3746C124.223 40.2873 123.713 40.2437 123.244 40.2437C122.439 40.2437 121.842 40.3455 121.453 40.5491C121.064 40.7528 120.869 41.0097 120.869 41.32C120.869 41.543 120.943 41.737 121.091 41.9018C121.238 42.057 121.433 42.1928 121.674 42.3091C121.916 42.4255 122.19 42.5273 122.499 42.6146C122.808 42.7018 123.123 42.7843 123.445 42.8618C123.928 42.9782 124.417 43.1139 124.914 43.2691C125.41 43.4146 125.86 43.6037 126.262 43.8364C126.665 44.0691 126.993 44.3552 127.248 44.6946C127.502 45.0243 127.63 45.4316 127.63 45.9164C127.63 46.4109 127.496 46.8376 127.228 47.1964C126.973 47.5552 126.617 47.8558 126.162 48.0982C125.719 48.3407 125.189 48.52 124.572 48.6364C123.955 48.7527 123.284 48.8109 122.559 48.8109ZM132.421 48.6364H129.805V38.8327H132.421V48.6364ZM145.188 41.8728C145.188 42.5516 144.92 43.1285 144.383 43.6037C143.86 44.0788 143.184 44.423 142.351 44.6364L145.55 48.6364H142.753L139.836 44.9709H137.844V48.6364H135.228V38.8327H140.319C141.097 38.8327 141.788 38.9152 142.391 39.08C142.995 39.2352 143.506 39.4485 143.921 39.72C144.337 39.9916 144.652 40.3164 144.866 40.6946C145.081 41.063 145.188 41.4558 145.188 41.8728ZM142.572 41.8728C142.572 41.4461 142.385 41.1067 142.009 40.8546C141.647 40.5927 141.091 40.4618 140.339 40.4618H137.844V43.3418H140.339C141.037 43.3418 141.58 43.2109 141.969 42.9491C142.371 42.6873 142.572 42.3285 142.572 41.8728ZM149.93 48.6364H147.314V38.8327H149.93V48.6364ZM156.821 40.5491C156.204 40.5491 155.614 40.5976 155.051 40.6946C154.487 40.7916 153.964 40.9321 153.481 41.1164L152.898 39.72C153.113 39.6328 153.374 39.5455 153.682 39.4582C153.99 39.3709 154.32 39.2934 154.668 39.2255C155.017 39.1576 155.373 39.1043 155.735 39.0655C156.111 39.0267 156.479 39.0073 156.841 39.0073C158.397 39.0073 159.538 39.2546 160.262 39.7491C160.987 40.2437 161.349 40.8982 161.349 41.7127C161.349 42.0909 161.242 42.4691 161.027 42.8473C160.812 43.2157 160.524 43.5843 160.162 43.9527C159.813 44.3116 159.403 44.6703 158.934 45.0291C158.478 45.3879 158.009 45.7418 157.526 46.0909L156.258 47.0073H161.711V48.6364H152.455V47.4L155.654 45.0291C156.151 44.6607 156.586 44.3309 156.962 44.04C157.351 43.7394 157.68 43.463 157.948 43.2109C158.216 42.9491 158.417 42.7018 158.552 42.4691C158.699 42.2267 158.773 41.9746 158.773 41.7127C158.773 41.3443 158.612 41.0582 158.29 40.8546C157.968 40.6509 157.479 40.5491 156.821 40.5491ZM169.516 43.8218C168.939 43.8218 168.422 43.8994 167.966 44.0546C167.524 44.2 167.141 44.3794 166.819 44.5927C166.832 45.0291 166.913 45.417 167.061 45.7564C167.208 46.0861 167.403 46.3673 167.644 46.6C167.886 46.8327 168.16 47.0073 168.469 47.1237C168.778 47.24 169.1 47.2982 169.435 47.2982C170.052 47.2982 170.568 47.1334 170.985 46.8037C171.414 46.4739 171.629 46.0085 171.629 45.4073C171.629 44.9321 171.448 44.5491 171.085 44.2582C170.736 43.9673 170.213 43.8218 169.516 43.8218ZM169.999 40.52C169.502 40.52 169.066 40.583 168.691 40.7091C168.329 40.8352 168.019 41.0146 167.765 41.2473C167.51 41.4703 167.309 41.7418 167.162 42.0618C167.013 42.3818 166.92 42.7358 166.88 43.1237C167.202 42.9298 167.631 42.7552 168.168 42.6C168.703 42.4448 169.335 42.3673 170.059 42.3673C170.595 42.3673 171.112 42.4303 171.609 42.5564C172.104 42.6728 172.54 42.857 172.916 43.1091C173.291 43.3516 173.587 43.6618 173.802 44.04C174.029 44.4182 174.144 44.8594 174.144 45.3637C174.144 45.8485 174.029 46.2994 173.802 46.7164C173.587 47.1334 173.271 47.497 172.856 47.8073C172.454 48.1176 171.963 48.3648 171.387 48.5491C170.81 48.7237 170.172 48.8109 169.476 48.8109C167.852 48.8109 166.57 48.4037 165.632 47.5891C164.707 46.7746 164.244 45.577 164.244 43.9964C164.244 43.1916 164.377 42.4788 164.646 41.8582C164.928 41.2376 165.31 40.7188 165.793 40.3018C166.289 39.8752 166.88 39.5552 167.564 39.3418C168.248 39.1188 168.993 39.0073 169.798 39.0073C170.454 39.0073 171.045 39.0703 171.568 39.1964C172.104 39.3225 172.607 39.4825 173.077 39.6764L172.434 41.0873C172.084 40.9127 171.709 40.777 171.307 40.68C170.904 40.5734 170.468 40.52 169.999 40.52ZM187.642 43.6909C187.642 45.32 187.045 46.5516 185.851 47.3855C184.67 48.2194 182.954 48.6364 180.7 48.6364H176.474V38.8327H180.7C182.954 38.8327 184.67 39.2497 185.851 40.0837C187.045 40.9079 187.642 42.1103 187.642 43.6909ZM185.026 43.6909C185.026 43.1091 184.926 42.6146 184.724 42.2073C184.523 41.7903 184.235 41.4558 183.859 41.2037C183.497 40.9418 183.048 40.7528 182.511 40.6364C181.974 40.52 181.37 40.4618 180.7 40.4618H179.09V47.0073H180.7C181.37 47.0073 181.974 46.9443 182.511 46.8182C183.048 46.6921 183.497 46.4934 183.859 46.2218C184.235 45.9503 184.523 45.6061 184.724 45.1891C184.926 44.7721 185.026 44.2728 185.026 43.6909ZM196.77 46.44H191.86L190.834 48.6364H188.097L192.987 38.8327H195.643L200.533 48.6364H197.796L196.77 46.44ZM192.625 44.8691H196.005L195.341 43.4L194.335 40.8982H194.295L193.289 43.4L192.625 44.8691Z" fill="#181D20"/>
<path d="M210.658 47.371C210.075 47.371 209.486 47.3092 208.892 47.1856C208.309 47.0619 207.801 46.8801 207.368 46.6401C207.237 46.5747 207.152 46.5019 207.112 46.4219C207.071 46.3347 207.061 46.2547 207.081 46.1819C207.112 46.1019 207.167 46.0365 207.247 45.9856C207.328 45.9274 207.423 45.8947 207.534 45.8874C207.655 45.8801 207.786 45.9092 207.926 45.9747C208.369 46.1856 208.812 46.3383 209.255 46.4328C209.697 46.5274 210.155 46.5747 210.628 46.5747C211.141 46.5747 211.574 46.5201 211.926 46.411C212.278 46.3019 212.544 46.1419 212.726 45.931C212.907 45.7128 212.997 45.4474 212.997 45.1347C212.997 44.6837 212.791 44.3419 212.378 44.1092C211.966 43.8765 211.367 43.7601 210.583 43.7601H209.511C209.32 43.7601 209.174 43.7274 209.073 43.6619C208.973 43.5892 208.923 43.491 208.923 43.3674C208.923 43.251 208.973 43.1601 209.073 43.0947C209.174 43.0219 209.32 42.9856 209.511 42.9856H210.477C210.94 42.9856 211.332 42.9274 211.654 42.811C211.986 42.6947 212.243 42.531 212.424 42.3201C212.605 42.1019 212.695 41.8401 212.695 41.5347C212.695 41.1274 212.514 40.8183 212.152 40.6074C211.79 40.3892 211.267 40.2801 210.583 40.2801C210.13 40.2801 209.702 40.3274 209.3 40.4219C208.897 40.5165 208.5 40.6765 208.108 40.9019C207.987 40.9674 207.866 41.0001 207.745 41.0001C207.635 40.9928 207.539 40.9674 207.459 40.9237C207.388 40.8728 207.333 40.8074 207.293 40.7274C207.262 40.6474 207.267 40.5674 207.308 40.4874C207.348 40.4001 207.433 40.3201 207.564 40.2474C207.967 40.0001 208.44 39.811 208.983 39.6801C209.526 39.5492 210.085 39.4837 210.658 39.4837C211.342 39.4837 211.926 39.5637 212.409 39.7237C212.902 39.8765 213.279 40.1019 213.541 40.4001C213.802 40.691 213.933 41.0437 213.933 41.4583C213.933 41.771 213.847 42.0583 213.676 42.3201C213.515 42.5747 213.284 42.7928 212.982 42.9747C212.69 43.1565 212.333 43.2874 211.911 43.3674V43.2474C212.645 43.3347 213.214 43.5528 213.616 43.9019C214.028 44.2437 214.235 44.6765 214.235 45.2001C214.235 45.6437 214.089 46.0292 213.797 46.3565C213.515 46.6765 213.108 46.9274 212.575 47.1092C212.041 47.2837 211.403 47.371 210.658 47.371ZM217.035 47.3165C216.784 47.3165 216.583 47.2619 216.432 47.1528C216.281 47.0365 216.205 46.891 216.205 46.7165C216.205 46.5419 216.281 46.4001 216.432 46.291C216.583 46.1747 216.784 46.1165 217.035 46.1165C217.287 46.1165 217.483 46.1747 217.624 46.291C217.775 46.4001 217.85 46.5419 217.85 46.7165C217.85 46.891 217.775 47.0365 217.624 47.1528C217.483 47.2619 217.287 47.3165 217.035 47.3165ZM220.681 47.2728C220.46 47.2728 220.294 47.2365 220.183 47.1637C220.083 47.0837 220.032 46.9783 220.032 46.8474C220.032 46.7674 220.058 46.691 220.108 46.6183C220.168 46.5383 220.249 46.4583 220.349 46.3783L223.73 43.7601C224.243 43.3601 224.61 42.9928 224.832 42.6583C225.063 42.3165 225.179 41.971 225.179 41.6219C225.179 41.1856 224.993 40.8547 224.62 40.6292C224.258 40.3965 223.725 40.2801 223.021 40.2801C222.568 40.2801 222.14 40.331 221.738 40.4328C221.335 40.5347 220.948 40.691 220.576 40.9019C220.445 40.9747 220.324 41.0074 220.214 41.0001C220.113 40.9928 220.022 40.9637 219.942 40.9128C219.861 40.8619 219.806 40.7965 219.776 40.7165C219.746 40.6365 219.746 40.5565 219.776 40.4765C219.816 40.3965 219.897 40.3237 220.017 40.2583C220.41 40.0256 220.883 39.8401 221.436 39.7019C221.989 39.5565 222.553 39.4837 223.126 39.4837C223.841 39.4837 224.444 39.5637 224.937 39.7237C225.43 39.8837 225.802 40.1201 226.054 40.4328C226.305 40.7383 226.431 41.1128 226.431 41.5565C226.431 41.8619 226.361 42.1637 226.22 42.4619C226.089 42.7528 225.883 43.051 225.601 43.3565C225.33 43.6619 224.972 43.9783 224.53 44.3056L221.315 46.7601V46.5092H226.401C226.592 46.5092 226.733 46.5419 226.824 46.6074C226.924 46.6656 226.975 46.7565 226.975 46.8801C226.975 47.011 226.924 47.1092 226.824 47.1747C226.733 47.2401 226.592 47.2728 226.401 47.2728H220.681ZM232.311 47.2837C232.24 47.3783 232.155 47.4401 232.054 47.4692C231.953 47.5056 231.853 47.5128 231.752 47.491C231.652 47.4765 231.566 47.4401 231.496 47.3819C231.425 47.331 231.38 47.2656 231.36 47.1856C231.35 47.1056 231.38 47.0183 231.45 46.9237L237.276 39.5928C237.346 39.4983 237.432 39.4365 237.532 39.4074C237.633 39.371 237.734 39.3637 237.834 39.3856C237.935 39.4001 238.02 39.4365 238.091 39.4947C238.161 39.5528 238.201 39.6219 238.211 39.7019C238.232 39.7819 238.206 39.8656 238.136 39.9528L232.311 47.2837ZM231.194 44.1965C230.389 44.1965 229.76 43.9892 229.307 43.5747C228.855 43.1601 228.628 42.5819 228.628 41.8401C228.628 41.3456 228.729 40.9237 228.93 40.5747C229.141 40.2256 229.438 39.9601 229.821 39.7783C230.203 39.5892 230.661 39.4947 231.194 39.4947C231.989 39.4947 232.612 39.7019 233.065 40.1165C233.528 40.5237 233.759 41.0983 233.759 41.8401C233.759 42.3347 233.654 42.7565 233.443 43.1056C233.241 43.4547 232.95 43.7237 232.567 43.9128C232.185 44.1019 231.727 44.1965 231.194 44.1965ZM231.194 43.5528C231.506 43.5528 231.772 43.4874 231.994 43.3565C232.225 43.2256 232.401 43.0328 232.522 42.7783C232.643 42.5237 232.703 42.211 232.703 41.8401C232.703 41.2728 232.567 40.8474 232.296 40.5637C232.024 40.2801 231.657 40.1383 231.194 40.1383C230.882 40.1383 230.61 40.2037 230.379 40.3347C230.158 40.4583 229.987 40.6474 229.866 40.9019C229.745 41.1492 229.685 41.4619 229.685 41.8401C229.685 42.4074 229.816 42.8365 230.077 43.1274C230.349 43.411 230.721 43.5528 231.194 43.5528ZM238.408 47.371C237.613 47.371 236.984 47.1637 236.521 46.7492C236.068 46.3347 235.842 45.7565 235.842 45.0147C235.842 44.5201 235.943 44.0983 236.144 43.7492C236.355 43.4001 236.652 43.1347 237.034 42.9528C237.427 42.7637 237.884 42.6692 238.408 42.6692C239.213 42.6692 239.841 42.8765 240.294 43.291C240.747 43.6983 240.973 44.2728 240.973 45.0147C240.973 45.5092 240.873 45.9347 240.671 46.291C240.47 46.6401 240.178 46.9092 239.796 47.0983C239.414 47.2801 238.951 47.371 238.408 47.371ZM238.408 46.7274C238.73 46.7274 239.001 46.6656 239.223 46.5419C239.444 46.411 239.615 46.2183 239.736 45.9637C239.856 45.7092 239.917 45.3928 239.917 45.0147C239.917 44.4474 239.781 44.0219 239.509 43.7383C239.248 43.4547 238.881 43.3128 238.408 43.3128C238.096 43.3128 237.824 43.3783 237.593 43.5092C237.371 43.6328 237.2 43.8219 237.08 44.0765C236.969 44.3237 236.914 44.6365 236.914 45.0147C236.914 45.5892 237.044 46.0183 237.306 46.3019C237.578 46.5856 237.945 46.7274 238.408 46.7274Z" fill="#181D20" fill-opacity="0.8"/>
<path d="M379.273 26.0983C380.048 26.0983 380.621 25.9819 380.994 25.7492C381.366 25.5092 381.552 25.1965 381.552 24.811C381.552 24.3892 381.361 24.0765 380.979 23.8728C380.596 23.6692 380.083 23.5674 379.439 23.5674H378.006V22.7819H379.439C379.973 22.7819 380.41 22.6765 380.752 22.4656C381.094 22.2474 381.265 21.931 381.265 21.5165C381.265 21.1819 381.094 20.9201 380.752 20.731C380.42 20.5419 379.857 20.4474 379.062 20.4474C378.589 20.4474 378.167 20.4801 377.794 20.5456C377.422 20.611 377.09 20.6947 376.798 20.7965L376.466 20.0328C376.788 19.9165 377.181 19.8183 377.643 19.7383C378.106 19.6583 378.604 19.6183 379.137 19.6183C379.741 19.6183 380.254 19.6692 380.677 19.771C381.109 19.8656 381.462 20.0001 381.733 20.1747C382.015 20.3419 382.216 20.5419 382.337 20.7747C382.468 21.0001 382.533 21.2438 382.533 21.5056C382.533 21.9565 382.392 22.3056 382.111 22.5528C381.839 22.8001 381.492 22.9928 381.069 23.131C381.582 23.2328 382 23.4256 382.322 23.7092C382.654 23.9928 382.82 24.3638 382.82 24.8219C382.82 25.4619 382.513 25.9747 381.899 26.3601C381.296 26.7383 380.425 26.9274 379.288 26.9274C378.685 26.9274 378.141 26.8874 377.658 26.8074C377.186 26.7201 376.783 26.6147 376.451 26.491L376.783 25.7274C377.075 25.8292 377.432 25.9165 377.855 25.9892C378.287 26.0619 378.76 26.0983 379.273 26.0983ZM386.174 23.2728C386.174 24.2474 386.37 24.971 386.762 25.4438C387.155 25.9092 387.723 26.1419 388.468 26.1419C389.212 26.1419 389.781 25.9092 390.173 25.4438C390.566 24.971 390.762 24.2474 390.762 23.2728C390.762 22.2983 390.566 21.5783 390.173 21.1128C389.781 20.6401 389.212 20.4038 388.468 20.4038C387.723 20.4038 387.155 20.6401 386.762 21.1128C386.37 21.5783 386.174 22.2983 386.174 23.2728ZM384.876 23.2728C384.876 22.1165 385.188 21.2183 385.812 20.5783C386.446 19.9383 387.331 19.6183 388.468 19.6183C389.605 19.6183 390.485 19.9383 391.109 20.5783C391.743 21.2183 392.06 22.1165 392.06 23.2728C392.06 24.4292 391.743 25.3274 391.109 25.9674C390.485 26.6074 389.605 26.9274 388.468 26.9274C387.331 26.9274 386.446 26.6074 385.812 25.9674C385.188 25.3274 384.876 24.4292 384.876 23.2728ZM401.843 25.6292L399.67 22.1056C399.549 21.9092 399.428 21.7092 399.307 21.5056C399.197 21.3019 399.086 21.0656 398.975 20.7965H398.945C398.995 21.1238 399.026 21.4256 399.036 21.7019C399.056 21.9783 399.066 22.1928 399.066 22.3456V26.8183H397.768V19.4656H399.338L401.737 23.3819C401.938 23.6947 402.099 23.9674 402.22 24.2001C402.341 24.4256 402.441 24.611 402.522 24.7565H402.552C402.633 24.611 402.733 24.4256 402.854 24.2001C402.975 23.9674 403.136 23.6947 403.337 23.3819L405.736 19.4656H407.306V26.8183H406.008V22.3456C406.008 22.1928 406.013 21.9783 406.023 21.7019C406.043 21.4256 406.078 21.1238 406.129 20.7965H406.099C405.988 21.0656 405.872 21.3019 405.751 21.5056C405.641 21.7092 405.525 21.9092 405.404 22.1056L403.231 25.6292H401.843ZM413.825 24.2219H412.301C411.667 24.2219 411.184 24.3201 410.852 24.5165C410.52 24.7128 410.354 24.9856 410.354 25.3347C410.354 25.6038 410.47 25.8183 410.701 25.9783C410.933 26.131 411.23 26.2074 411.592 26.2074C411.924 26.2074 412.226 26.1638 412.497 26.0765C412.769 25.9819 413 25.8619 413.192 25.7165C413.393 25.5638 413.549 25.3965 413.659 25.2147C413.77 25.0256 413.825 24.8365 413.825 24.6474V24.2219ZM413.825 23.371C413.825 22.9565 413.669 22.6547 413.358 22.4656C413.056 22.2765 412.653 22.1819 412.15 22.1819C411.718 22.1819 411.31 22.2147 410.928 22.2801C410.556 22.3456 410.208 22.4328 409.887 22.5419L409.6 21.8983C409.871 21.7819 410.234 21.6765 410.686 21.5819C411.139 21.4874 411.642 21.4401 412.196 21.4401C413.161 21.4401 413.871 21.6183 414.323 21.9747C414.786 22.3238 415.018 22.7928 415.018 23.3819V26.8183H414.067L413.825 25.9238C413.715 26.0547 413.594 26.1819 413.463 26.3056C413.342 26.4219 413.187 26.5274 412.995 26.6219C412.804 26.7092 412.578 26.7819 412.316 26.8401C412.055 26.8983 411.738 26.9274 411.365 26.9274C411.054 26.9274 410.762 26.891 410.49 26.8183C410.219 26.7528 409.977 26.6547 409.766 26.5238C409.565 26.3856 409.404 26.2183 409.283 26.0219C409.172 25.8256 409.117 25.5965 409.117 25.3347C409.117 24.731 409.399 24.2838 409.962 23.9928C410.535 23.6947 411.32 23.5456 412.316 23.5456H413.825V23.371ZM422.094 25.8147C422.004 25.9238 421.883 26.0401 421.732 26.1638C421.581 26.2801 421.4 26.3892 421.189 26.491C420.988 26.5856 420.751 26.6656 420.48 26.731C420.208 26.7892 419.901 26.8183 419.559 26.8183C419.207 26.8183 418.885 26.7819 418.593 26.7092C418.311 26.6292 418.07 26.5056 417.869 26.3383C417.667 26.1638 417.506 25.9456 417.386 25.6838C417.275 25.4147 417.22 25.0947 417.22 24.7238V21.5492H418.457V24.7238C418.457 25.131 418.578 25.4474 418.819 25.6728C419.061 25.8983 419.383 26.011 419.785 26.011C420.329 26.011 420.786 25.9092 421.159 25.7056C421.531 25.5019 421.843 25.2656 422.094 24.9965V21.5492H423.362V26.371C423.362 27.2656 423.06 27.9274 422.457 28.3565C421.863 28.7928 421.033 29.011 419.966 29.011C419.504 29.011 419.046 28.9638 418.593 28.8692C418.14 28.7747 417.773 28.6619 417.491 28.531L417.808 27.8001C418.1 27.9238 418.417 28.0183 418.759 28.0838C419.111 28.1565 419.483 28.1928 419.876 28.1928C420.228 28.1928 420.54 28.1638 420.812 28.1056C421.093 28.0474 421.325 27.9456 421.506 27.8001C421.697 27.6619 421.843 27.4728 421.943 27.2328C422.044 27.0001 422.094 26.7092 422.094 26.3601V25.8147ZM432.276 20.4692C431.854 20.4692 431.436 20.5092 431.023 20.5892C430.621 20.6619 430.259 20.7528 429.937 20.8619L429.605 20.0765C429.927 19.9601 430.319 19.8547 430.782 19.7601C431.245 19.6656 431.748 19.6183 432.291 19.6183C433.388 19.6183 434.193 19.7928 434.706 20.1419C435.219 20.491 435.476 20.9565 435.476 21.5383C435.476 21.8365 435.395 22.1274 435.234 22.411C435.083 22.6874 434.877 22.9638 434.615 23.2401C434.354 23.5092 434.042 23.7783 433.68 24.0474C433.327 24.3165 432.955 24.5856 432.563 24.8547L430.978 25.9456H435.808V26.8183H429.197V26.1092L431.642 24.3201C432.055 24.0147 432.417 23.7419 432.729 23.5019C433.051 23.2547 433.317 23.0256 433.529 22.8147C433.74 22.5965 433.901 22.3856 434.012 22.1819C434.122 21.9783 434.178 21.7638 434.178 21.5383C434.178 21.1747 434.002 20.9056 433.649 20.731C433.307 20.5565 432.85 20.4692 432.276 20.4692ZM438.92 23.2728C438.92 24.2474 439.116 24.971 439.509 25.4438C439.901 25.9092 440.47 26.1419 441.214 26.1419C441.959 26.1419 442.527 25.9092 442.919 25.4438C443.312 24.971 443.508 24.2474 443.508 23.2728C443.508 22.2983 443.312 21.5783 442.919 21.1128C442.527 20.6401 441.959 20.4038 441.214 20.4038C440.47 20.4038 439.901 20.6401 439.509 21.1128C439.116 21.5783 438.92 22.2983 438.92 23.2728ZM437.622 23.2728C437.622 22.1165 437.934 21.2183 438.558 20.5783C439.192 19.9383 440.077 19.6183 441.214 19.6183C442.351 19.6183 443.231 19.9383 443.855 20.5783C444.489 21.2183 444.806 22.1165 444.806 23.2728C444.806 24.4292 444.489 25.3274 443.855 25.9674C443.231 26.6074 442.351 26.9274 441.214 26.9274C440.077 26.9274 439.192 26.6074 438.558 25.9674C437.934 25.3274 437.622 24.4292 437.622 23.2728ZM449.55 20.4692C449.127 20.4692 448.71 20.5092 448.297 20.5892C447.895 20.6619 447.532 20.7528 447.21 20.8619L446.878 20.0765C447.2 19.9601 447.593 19.8547 448.056 19.7601C448.518 19.6656 449.021 19.6183 449.565 19.6183C450.661 19.6183 451.466 19.7928 451.979 20.1419C452.493 20.491 452.749 20.9565 452.749 21.5383C452.749 21.8365 452.669 22.1274 452.508 22.411C452.357 22.6874 452.15 22.9638 451.889 23.2401C451.627 23.5092 451.315 23.7783 450.953 24.0474C450.601 24.3165 450.229 24.5856 449.836 24.8547L448.252 25.9456H453.081V26.8183H446.471V26.1092L448.916 24.3201C449.328 24.0147 449.69 23.7419 450.002 23.5019C450.324 23.2547 450.591 23.0256 450.802 22.8147C451.014 22.5965 451.175 22.3856 451.285 22.1819C451.396 21.9783 451.451 21.7638 451.451 21.5383C451.451 21.1747 451.275 20.9056 450.923 20.731C450.581 20.5565 450.123 20.4692 449.55 20.4692ZM458.91 22.9128C458.357 22.9128 457.864 22.9892 457.431 23.1419C457.009 23.2874 456.662 23.4619 456.39 23.6656C456.39 24.0583 456.45 24.4074 456.571 24.7128C456.702 25.0183 456.873 25.2801 457.084 25.4983C457.295 25.7092 457.542 25.8692 457.824 25.9783C458.115 26.0874 458.422 26.1419 458.744 26.1419C459.348 26.1419 459.831 25.9928 460.193 25.6947C460.565 25.3892 460.751 24.9638 460.751 24.4183C460.751 24.2147 460.721 24.0219 460.661 23.8401C460.6 23.6583 460.5 23.4983 460.359 23.3601C460.218 23.2219 460.027 23.1128 459.785 23.0328C459.554 22.9528 459.262 22.9128 458.91 22.9128ZM459.061 20.4038C458.246 20.4038 457.597 20.6219 457.114 21.0583C456.641 21.4947 456.395 22.1201 456.375 22.9347C456.485 22.8474 456.626 22.7565 456.797 22.6619C456.968 22.5601 457.165 22.4692 457.386 22.3892C457.617 22.3092 457.874 22.2438 458.156 22.1928C458.437 22.1419 458.749 22.1165 459.091 22.1165C459.514 22.1165 459.906 22.171 460.268 22.2801C460.631 22.3819 460.943 22.5347 461.204 22.7383C461.476 22.9347 461.682 23.1783 461.823 23.4692C461.974 23.7528 462.049 24.0765 462.049 24.4401C462.049 24.7892 461.969 25.1165 461.808 25.4219C461.657 25.7274 461.436 25.9928 461.144 26.2183C460.862 26.4365 460.515 26.611 460.102 26.7419C459.7 26.8656 459.247 26.9274 458.744 26.9274C457.587 26.9274 456.687 26.6292 456.043 26.0328C455.399 25.4292 455.077 24.5347 455.077 23.3492C455.077 22.7456 455.173 22.2147 455.364 21.7565C455.555 21.291 455.821 20.9019 456.164 20.5892C456.516 20.2692 456.933 20.0292 457.416 19.8692C457.899 19.7019 458.437 19.6183 459.031 19.6183C459.514 19.6183 459.926 19.6583 460.268 19.7383C460.621 19.811 460.953 19.9092 461.264 20.0328L460.948 20.7528C460.394 20.5201 459.765 20.4038 459.061 20.4038Z" fill="#181D20" fill-opacity="0.8"/>
<path d="M390.227 48.6364H386.243V39.1528H390.227V37.7273H391.515V39.1673C392.789 39.2352 393.735 39.497 394.352 39.9528C394.97 40.3988 395.278 40.9807 395.278 41.6982C395.278 41.9503 395.224 42.1782 395.117 42.3818C395.01 42.5757 394.869 42.7552 394.694 42.92C394.533 43.0752 394.346 43.2109 394.131 43.3273C393.93 43.4437 393.729 43.5407 393.527 43.6182C394.171 43.7539 394.708 44.0061 395.137 44.3746C395.58 44.7334 395.801 45.2279 395.801 45.8582C395.801 46.2267 395.714 46.5757 395.54 46.9055C395.379 47.2255 395.123 47.5067 394.775 47.7491C394.427 47.9916 393.976 48.1903 393.427 48.3455C392.89 48.5007 392.253 48.5928 391.515 48.6218V50.0909H390.227V48.6364ZM390.227 47.1237V44.4909H388.738V47.1237H390.227ZM393.306 45.7709C393.306 45.4218 393.151 45.1455 392.843 44.9418C392.535 44.7285 392.092 44.5927 391.515 44.5346V47.0946C392.079 47.0267 392.515 46.8812 392.823 46.6582C393.145 46.4255 393.306 46.1297 393.306 45.7709ZM390.227 43.0073V40.6655H388.738V43.0073H390.227ZM392.823 41.8C392.823 41.5091 392.709 41.2716 392.481 41.0873C392.253 40.8934 391.931 40.7673 391.515 40.7091V42.9782C391.904 42.92 392.219 42.7939 392.461 42.6C392.702 42.4061 392.823 42.1394 392.823 41.8ZM402.459 48.7818C401.735 48.7818 400.983 48.7139 400.205 48.5782C399.427 48.4425 398.749 48.2388 398.173 47.9673C397.904 47.8412 397.723 47.6957 397.63 47.5309C397.535 47.3661 397.509 47.2109 397.549 47.0655C397.602 46.9103 397.703 46.7794 397.851 46.6727C398.012 46.5661 398.206 46.503 398.435 46.4837C398.676 46.4643 398.938 46.5079 399.219 46.6146C399.769 46.8279 400.298 46.983 400.809 47.08C401.318 47.1673 401.842 47.2109 402.379 47.2109C402.968 47.2109 403.465 47.1528 403.868 47.0364C404.27 46.92 404.572 46.7455 404.773 46.5128C404.987 46.28 405.095 45.9988 405.095 45.6691C405.095 45.1843 404.866 44.8255 404.411 44.5927C403.968 44.3503 403.317 44.2291 402.459 44.2291H401.171C400.795 44.2291 400.507 44.1612 400.306 44.0255C400.117 43.8898 400.024 43.7007 400.024 43.4582C400.024 43.2158 400.117 43.0267 400.306 42.8909C400.507 42.7552 400.795 42.6873 401.171 42.6873H402.218C402.727 42.6873 403.163 42.6291 403.526 42.5127C403.888 42.3867 404.169 42.2121 404.371 41.9891C404.572 41.7661 404.672 41.4946 404.672 41.1746C404.672 40.7285 404.464 40.3891 404.049 40.1564C403.646 39.9237 403.055 39.8073 402.278 39.8073C401.781 39.8073 401.312 39.8509 400.869 39.9382C400.439 40.0157 399.964 40.1661 399.441 40.3891C399.199 40.4958 398.964 40.5394 398.736 40.52C398.521 40.5007 398.34 40.4376 398.193 40.3309C398.045 40.2243 397.944 40.0982 397.891 39.9528C397.837 39.7976 397.851 39.6425 397.932 39.4873C398.012 39.3225 398.179 39.1818 398.435 39.0655C399.011 38.7939 399.648 38.5903 400.346 38.4546C401.043 38.3091 401.761 38.2364 402.499 38.2364C403.478 38.2364 404.317 38.3479 405.015 38.5709C405.711 38.7843 406.242 39.0946 406.604 39.5018C406.979 39.8994 407.168 40.3843 407.168 40.9564C407.168 41.3637 407.059 41.737 406.846 42.0764C406.631 42.4061 406.329 42.6873 405.94 42.92C405.55 43.1528 405.081 43.3176 404.532 43.4146V43.24C405.497 43.3564 406.248 43.6473 406.785 44.1127C407.321 44.5685 407.59 45.1407 407.59 45.8291C407.59 46.4303 407.381 46.9539 406.966 47.4C406.55 47.8461 405.96 48.1903 405.196 48.4327C404.431 48.6655 403.518 48.7818 402.459 48.7818ZM414.805 48.7818C413.129 48.7818 411.847 48.3261 410.962 47.4146C410.077 46.4934 409.634 45.1843 409.634 43.4873C409.634 42.343 409.829 41.383 410.217 40.6073C410.62 39.8218 411.203 39.2303 411.968 38.8327C412.746 38.4352 413.692 38.2364 414.805 38.2364C416.495 38.2364 417.777 38.6825 418.649 39.5746C419.534 40.4667 419.977 41.7661 419.977 43.4727C419.977 44.6073 419.775 45.5721 419.373 46.3673C418.984 47.1528 418.407 47.7539 417.642 48.1709C416.878 48.5782 415.932 48.7818 414.805 48.7818ZM414.805 47.2546C415.718 47.2546 416.389 46.9491 416.817 46.3382C417.26 45.7273 417.481 44.7721 417.481 43.4727C417.481 42.1734 417.26 41.2327 416.817 40.6509C416.389 40.0594 415.718 39.7637 414.805 39.7637C413.907 39.7637 413.236 40.0594 412.793 40.6509C412.35 41.2327 412.129 42.1734 412.129 43.4727C412.129 44.7721 412.35 45.7273 412.793 46.3382C413.236 46.9491 413.907 47.2546 414.805 47.2546ZM423.672 50.1928C423.497 50.3479 423.309 50.4352 423.108 50.4546C422.921 50.4837 422.752 50.4594 422.605 50.3818C422.458 50.3043 422.377 50.1927 422.364 50.0473C422.35 49.9116 422.438 49.7612 422.625 49.5964C422.893 49.3539 423.074 49.1116 423.168 48.8691C423.263 48.6267 423.309 48.4085 423.309 48.2146L423.41 48.7091C422.941 48.7091 422.558 48.6121 422.263 48.4182C421.981 48.2146 421.84 47.9479 421.84 47.6182C421.84 47.3079 421.975 47.0557 422.243 46.8618C422.511 46.6582 422.873 46.5564 423.329 46.5564C423.799 46.5564 424.168 46.6727 424.436 46.9055C424.704 47.1285 424.839 47.4534 424.839 47.88C424.839 48.1127 424.805 48.3552 424.738 48.6073C424.684 48.8497 424.571 49.1018 424.396 49.3637C424.235 49.6352 423.993 49.9116 423.672 50.1928ZM431.862 48.7818C430.185 48.7818 428.905 48.3261 428.019 47.4146C427.134 46.4934 426.691 45.1843 426.691 43.4873C426.691 42.343 426.885 41.383 427.275 40.6073C427.677 39.8218 428.261 39.2303 429.025 38.8327C429.802 38.4352 430.748 38.2364 431.862 38.2364C433.553 38.2364 434.833 38.6825 435.706 39.5746C436.591 40.4667 437.034 41.7661 437.034 43.4727C437.034 44.6073 436.833 45.5721 436.43 46.3673C436.04 47.1528 435.464 47.7539 434.7 48.1709C433.935 48.5782 432.989 48.7818 431.862 48.7818ZM431.862 47.2546C432.774 47.2546 433.445 46.9491 433.875 46.3382C434.317 45.7273 434.539 44.7721 434.539 43.4727C434.539 42.1734 434.317 41.2327 433.875 40.6509C433.445 40.0594 432.774 39.7637 431.862 39.7637C430.963 39.7637 430.293 40.0594 429.85 40.6509C429.408 41.2327 429.186 42.1734 429.186 43.4727C429.186 44.7721 429.408 45.7273 429.85 46.3382C430.293 46.9491 430.963 47.2546 431.862 47.2546ZM443.928 48.7818C442.25 48.7818 440.97 48.3261 440.085 47.4146C439.199 46.4934 438.757 45.1843 438.757 43.4873C438.757 42.343 438.95 41.383 439.34 40.6073C439.743 39.8218 440.326 39.2303 441.091 38.8327C441.868 38.4352 442.814 38.2364 443.928 38.2364C445.618 38.2364 446.899 38.6825 447.771 39.5746C448.657 40.4667 449.1 41.7661 449.1 43.4727C449.1 44.6073 448.898 45.5721 448.496 46.3673C448.106 47.1528 447.53 47.7539 446.765 48.1709C446.001 48.5782 445.055 48.7818 443.928 48.7818ZM443.928 47.2546C444.84 47.2546 445.51 46.9491 445.94 46.3382C446.383 45.7273 446.604 44.7721 446.604 43.4727C446.604 42.1734 446.383 41.2327 445.94 40.6509C445.51 40.0594 444.84 39.7637 443.928 39.7637C443.029 39.7637 442.359 40.0594 441.916 40.6509C441.473 41.2327 441.252 42.1734 441.252 43.4727C441.252 44.7721 441.473 45.7273 441.916 46.3382C442.359 46.9491 443.029 47.2546 443.928 47.2546ZM455.993 48.7818C454.316 48.7818 453.035 48.3261 452.149 47.4146C451.264 46.4934 450.821 45.1843 450.821 43.4873C450.821 42.343 451.016 41.383 451.405 40.6073C451.807 39.8218 452.391 39.2303 453.155 38.8327C453.934 38.4352 454.88 38.2364 455.993 38.2364C457.683 38.2364 458.964 38.6825 459.836 39.5746C460.721 40.4667 461.164 41.7661 461.164 43.4727C461.164 44.6073 460.963 45.5721 460.56 46.3673C460.172 47.1528 459.594 47.7539 458.83 48.1709C458.065 48.5782 457.119 48.7818 455.993 48.7818ZM455.993 47.2546C456.906 47.2546 457.576 46.9491 458.005 46.3382C458.447 45.7273 458.669 44.7721 458.669 43.4727C458.669 42.1734 458.447 41.2327 458.005 40.6509C457.576 40.0594 456.906 39.7637 455.993 39.7637C455.095 39.7637 454.423 40.0594 453.98 40.6509C453.538 41.2327 453.316 42.1734 453.316 43.4727C453.316 44.7721 453.538 45.7273 453.98 46.3382C454.423 46.9491 455.095 47.2546 455.993 47.2546Z" fill="#181D20"/>
</g>
<defs>
<linearGradient id="paint0_linear_291_692" x1="29.4825" y1="23.1233" x2="63.605" y2="77.344" gradientUnits="userSpaceOnUse">
<stop stop-color="#1A1E21"/>
<stop offset="1" stop-color="#06060A"/>
</linearGradient>
<clipPath id="clip0_291_692">
<rect width="482.93" height="70" fill="white"/>
</clipPath>
</defs>
</svg>
